<svg xmlns="http://www.w3.org/2000/svg" width="460.29" height="426.694" viewBox="0 0 460.29 426.694"><defs><style>.a{fill:#e0e0e0;}.b{fill:#f5f5f5;}.c{opacity:0.8;}.d{fill:#ebebeb;}.d,.k,.l{fill-rule:evenodd;}.e{fill:#263238;}.f,.l{fill:#fff;}.g,.i,.k{fill:#e8505b;}.h,.q{opacity:0.3;}.i{font-size:12px;font-family:Poppins-Light, Poppins;font-weight:300;}.j{fill:#fafafa;}.m,.s{opacity:0.4;}.n{fill:#ffbe9d;}.o{fill:#eb996e;}.p{fill:#455a64;}.r{opacity:0.2;}</style></defs><g transform="translate(-19.86 -23.261)"><path class="a" d="M424.44,132.17a4.8,4.8,0,0,1,1.5.47,6.391,6.391,0,0,1,3.6,5.94,6.524,6.524,0,0,1-1,3.27,6.054,6.054,0,0,1-1.22,1.42,6.471,6.471,0,0,1-9.16-.63,6.114,6.114,0,0,1-1.04-1.65,6.208,6.208,0,0,1-.5-1.8,6.428,6.428,0,0,1,2.29-5.77,6.325,6.325,0,0,1,3.99-1.46,4.638,4.638,0,0,1,1.54.21,13.872,13.872,0,0,0-1.55-.07,6.377,6.377,0,0,0-3.83,1.51,6.161,6.161,0,0,0-2.12,5.53,6.247,6.247,0,0,0,1.47,3.26,6.141,6.141,0,0,0,7.1,1.59,5.8,5.8,0,0,0,1.56-.98,5.462,5.462,0,0,0,1.16-1.34,6.237,6.237,0,0,0-2.37-8.9C424.99,132.31,424.43,132.22,424.44,132.17Z"/><path class="a" d="M429.52,125.39a1.756,1.756,0,0,1-.01-.22c0-.17-.01-.39-.02-.68-.01-.62-.02-1.51-.04-2.67l.05.06c-1.48-.32-3.42-.75-5.77-1.26l.1-.05c-.46.98-.97,2.07-1.52,3.23l-.03.06h-.07a14.41,14.41,0,0,0-3.76.67l-.07.02-.05-.05-2.54-2.51.16.02q-2.355,1.5-4.98,3.17l.06-.17c.37,1.04.78,2.19,1.2,3.36l.03.09-.06.07a14.324,14.324,0,0,0-2.19,3.12l-.04.08h-.1c-1.11,0-2.33.01-3.57.01l.16-.13c-.4,1.81-.84,3.76-1.29,5.76l-.09-.19c1,.48,2.11,1,3.22,1.53l.09.04v.1a14.584,14.584,0,0,0,.66,3.75l.03.1-.08.08c-.79.79-1.65,1.66-2.52,2.53l.02-.22c1,1.58,2.08,3.27,3.16,4.99l-.21-.07c1.06-.38,2.21-.79,3.36-1.2l.1-.04.08.07a14.441,14.441,0,0,0,3.11,2.19h0a1.467,1.467,0,1,0,.1.16h0v3.57l-.14-.18q2.925.66,5.76,1.29l-.2.1c.52-1.08,1.03-2.16,1.53-3.22l.05-.1h.11a14.243,14.243,0,0,0,3.75-.65l.1-.03.08.08c.86.85,1.7,1.69,2.53,2.52l-.21-.02c1.7-1.08,3.37-2.13,4.99-3.16l-.07.2c-.4-1.14-.8-2.26-1.19-3.36l-.03-.09.07-.07a14.3,14.3,0,0,0,2.2-3.11l.04-.08h3.67l-.15.12c.46-2.03.89-3.94,1.31-5.76l.08.16c-1.13-.54-2.2-1.05-3.22-1.54l-.07-.03v-.08a14.7,14.7,0,0,0-.64-3.76l-.02-.07.05-.05c.92-.92,1.75-1.74,2.53-2.52l-.01.13c-1.22-1.94-2.25-3.59-3.14-5l.1.03c-1.35.47-2.45.85-3.37,1.18l-.03.01-.03-.02a15.4,15.4,0,0,0-2.29-1.77c-.26-.16-.47-.28-.61-.37-.15-.11-.21-.15-.21-.15s.08.03.22.1.35.18.63.35a14.267,14.267,0,0,1,2.34,1.73l-.06-.01c.92-.33,2.02-.73,3.36-1.22l.06-.02.04.06c.9,1.41,1.95,3.05,3.18,4.98l.05.07-.06.06-2.51,2.54.03-.12a14.725,14.725,0,0,1,.68,3.82l-.07-.11c1.03.48,2.09.99,3.23,1.52l.1.05-.02.11c-.41,1.82-.83,3.74-1.28,5.77l-.03.12h-.12c-1.16,0-2.34.01-3.57.01l.14-.08a14.962,14.962,0,0,1-2.24,3.19l.03-.17q.585,1.65,1.2,3.36l.04.13-.11.07q-2.43,1.545-4.99,3.17l-.12.07-.1-.1c-.83-.83-1.68-1.67-2.53-2.52l.18.04a14.519,14.519,0,0,1-3.84.67l.15-.1c-.5,1.06-1.01,2.14-1.53,3.22l-.06.13-.14-.03c-1.89-.42-3.82-.85-5.76-1.29l-.14-.03v-3.71h0c.2.32.05.09.1.16h0a14.6,14.6,0,0,1-3.18-2.24l.18.04c-1.15.41-2.3.82-3.36,1.2l-.14.05-.08-.12c-1.09-1.72-2.16-3.41-3.16-4.99l-.08-.12.1-.1c.87-.87,1.73-1.74,2.52-2.53l-.04.18a14.839,14.839,0,0,1-.67-3.84l.1.15c-1.12-.53-2.22-1.06-3.22-1.53l-.12-.06.03-.13c.45-2,.89-3.95,1.3-5.76l.03-.13h3.7l-.14.08a14.586,14.586,0,0,1,2.25-3.18l-.03.15c-.42-1.18-.82-2.32-1.19-3.37l-.04-.11.1-.06q2.625-1.665,5-3.15l.09-.06.07.07c.89.89,1.74,1.74,2.52,2.53l-.12-.03a14.437,14.437,0,0,1,3.83-.65l-.09.06c.56-1.16,1.08-2.24,1.54-3.22l.03-.07.07.02c2.34.54,4.28.99,5.76,1.33l.05.01v.05c-.01,1.15-.02,2.03-.02,2.65-.01.29-.01.52-.01.68A1,1,0,0,0,429.52,125.39Z"/><path class="a" d="M464.46,413.45s-.01-.38-.02-1.09-.01-1.78-.02-3.16c-.01-2.77-.02-6.84-.04-12.06-.02-10.44-.05-25.48-.09-43.94l.16.16c-27.94.01-64.39.03-104.13.05h-.01l.21-.21c-.01,21.32-.01,41.7-.01,60.25l-.2-.2c30.5.04,56.5.07,74.9.1,9.2.02,16.5.04,21.51.05,2.5.01,4.42.02,5.74.02.65.01,1.14.01,1.48.01s.52.02.52.02-.16.01-.49.01-.82.01-1.46.01c-1.3.01-3.21.01-5.7.02-5,.01-12.28.03-21.46.05-18.43.02-44.48.06-75.03.1h-.2v-.2c0-18.55-.01-38.93-.01-60.25v-.21h.22c39.74.02,76.19.04,104.13.05h.16v.16c-.04,18.51-.07,33.59-.09,44.05-.02,5.2-.03,9.26-.04,12.02-.01,1.37-.01,2.41-.02,3.13C464.47,413.09,464.46,413.45,464.46,413.45Z"/><path class="a" d="M464.5,360.49c0,.12-23.29.21-52.02.21s-52.02-.1-52.02-.21,23.29-.21,52.02-.21S464.5,360.37,464.5,360.49Z"/><rect class="b" width="32.17" height="32.17" transform="translate(369.34 370.43)"/><path class="a" d="M456.91,375.73a2.148,2.148,0,0,1-.47.04c-.36.01-.81.02-1.36.04-1.24.02-2.93.04-4.99.07-4.27.02-10.06.04-16.46.06-6.4-.02-12.2-.05-16.46-.06-2.06-.03-3.75-.05-4.99-.07-.55-.02-1-.03-1.36-.04a2.148,2.148,0,0,1-.47-.04,2.148,2.148,0,0,1,.47-.04c.36-.01.81-.02,1.36-.04,1.24-.02,2.93-.04,4.99-.07,4.27-.02,10.06-.04,16.46-.06,6.4.02,12.2.05,16.46.06,2.06.03,3.75.05,4.99.07.55.02,1,.03,1.36.04A2.148,2.148,0,0,1,456.91,375.73Z"/><path class="a" d="M457.94,382.92a2.316,2.316,0,0,1-.48.04c-.36.01-.82.02-1.39.04-1.26.02-2.99.04-5.1.07-4.36.02-10.28.04-16.83.06-6.55-.02-12.47-.05-16.83-.06-2.11-.03-3.84-.05-5.1-.07-.56-.02-1.02-.03-1.39-.04a2.2,2.2,0,0,1-.48-.04,2.316,2.316,0,0,1,.48-.04c.36-.01.82-.02,1.39-.04,1.26-.02,2.99-.04,5.1-.07,4.36-.02,10.28-.04,16.83-.06,6.55.02,12.47.05,16.83.06,2.11.03,3.84.05,5.1.07.56.02,1.02.03,1.39.04A1.608,1.608,0,0,1,457.94,382.92Z"/><path class="a" d="M457.94,390.1a2.316,2.316,0,0,1-.48.04c-.36.01-.82.02-1.39.04-1.26.02-2.99.04-5.1.07-4.36.02-10.28.04-16.83.06-6.55-.02-12.47-.05-16.83-.06-2.11-.03-3.84-.05-5.1-.07-.56-.02-1.02-.03-1.39-.04a2.2,2.2,0,0,1-.48-.04,2.316,2.316,0,0,1,.48-.04c.36-.01.82-.02,1.39-.04,1.26-.02,2.99-.04,5.1-.07,4.36-.02,10.28-.04,16.83-.06,6.55.02,12.47.05,16.83.06,2.11.03,3.84.05,5.1.07.56.02,1.02.03,1.39.04A2.2,2.2,0,0,1,457.94,390.1Z"/><path class="a" d="M457.94,397.29a2.316,2.316,0,0,1-.48.04c-.36.01-.82.02-1.39.04-1.26.02-2.99.04-5.1.07-4.36.02-10.28.04-16.83.06-6.55-.02-12.47-.05-16.83-.06-2.11-.03-3.84-.05-5.1-.07-.56-.02-1.02-.03-1.39-.04a2.2,2.2,0,0,1-.48-.04,2.316,2.316,0,0,1,.48-.04c.36-.01.82-.02,1.39-.04,1.26-.02,2.99-.04,5.1-.07,4.36-.02,10.28-.04,16.83-.06,6.55.02,12.47.05,16.83.06,2.11.03,3.84.05,5.1.07.56.02,1.02.03,1.39.04A1.608,1.608,0,0,1,457.94,397.29Z"/><circle class="b" cx="43.28" cy="43.28" r="43.28" transform="translate(102.134 84.468) rotate(-45)"/><path class="a" d="M182.99,85.8a8.083,8.083,0,0,1-1.53.1c-1.08.02-2.49.05-4.21.08-3.57.05-8.54.08-14.16.09h-.28V82.98c0-6.27.03-11.94.08-16.05.04-1.98.07-3.62.09-4.86a10.078,10.078,0,0,1,.11-1.78,10.078,10.078,0,0,1,.11,1.78c.02,1.24.05,2.88.09,4.86.05,4.11.08,9.78.08,16.05v2.81l-.28-.28c5.61.01,10.59.04,14.16.09,1.71.03,3.12.06,4.21.08A8.949,8.949,0,0,1,182.99,85.8Z"/><path class="a" d="M163.23,48.3a12.257,12.257,0,0,1,.28,3.64,12.257,12.257,0,0,1-.28,3.64,12.257,12.257,0,0,1-.28-3.64A12.2,12.2,0,0,1,163.23,48.3Z"/><path class="a" d="M182.95,54.13a11.768,11.768,0,0,1-2.34,2.73,11.768,11.768,0,0,1-2.73,2.34,11.768,11.768,0,0,1,2.34-2.73A12.078,12.078,0,0,1,182.95,54.13Z"/><path class="a" d="M194.48,66.73a14.942,14.942,0,0,1-2.98,1.99,14.952,14.952,0,0,1-3.14,1.73,9.48,9.48,0,0,1,2.85-2.21A9.364,9.364,0,0,1,194.48,66.73Z"/><path class="a" d="M201.24,85.42a22.54,22.54,0,0,1-4.96.28,22.54,22.54,0,0,1-4.96-.28,22.54,22.54,0,0,1,4.96-.28A22.54,22.54,0,0,1,201.24,85.42Z"/><path class="a" d="M132.49,84.76a20.131,20.131,0,0,1-4.68.28,20.061,20.061,0,0,1-4.68-.28,20.131,20.131,0,0,1,4.68-.28A20.061,20.061,0,0,1,132.49,84.76Z"/><path class="a" d="M137.36,98.68a20.429,20.429,0,0,1-3.54,3.21,20.032,20.032,0,0,1-3.89,2.77,20.9,20.9,0,0,1,3.54-3.21A19.74,19.74,0,0,1,137.36,98.68Z"/><path class="a" d="M149.35,109.44a32.34,32.34,0,0,1-2.41,4.17,31.22,31.22,0,0,1-2.56,4.09,15.4,15.4,0,0,1,2.08-4.37A15.553,15.553,0,0,1,149.35,109.44Z"/><path class="a" d="M163.23,123.32a22.541,22.541,0,0,1-.28-4.96,22.541,22.541,0,0,1,.28-4.96,22.541,22.541,0,0,1,.28,4.96A22.539,22.539,0,0,1,163.23,123.32Z"/><path class="a" d="M184.6,116.71a14.619,14.619,0,0,1-4.09-2.8,14.282,14.282,0,0,1-3.33-3.67,44.945,44.945,0,0,1,3.7,3.24A47.069,47.069,0,0,1,184.6,116.71Z"/><path class="a" d="M194.63,105.91a16.919,16.919,0,0,1-3.28-2.89,17.348,17.348,0,0,1-2.89-3.28,16.919,16.919,0,0,1,3.28,2.89A17.348,17.348,0,0,1,194.63,105.91Z"/><path class="a" d="M136.9,71.43a13.169,13.169,0,0,1-2.9-2.5,13.169,13.169,0,0,1-2.5-2.9,13.169,13.169,0,0,1,2.9,2.5A13.169,13.169,0,0,1,136.9,71.43Z"/><path class="a" d="M149.28,58.39a12.74,12.74,0,0,1-2.85-2.44,12.8,12.8,0,0,1-2.45-2.84,12.74,12.74,0,0,1,2.85,2.44A12.8,12.8,0,0,1,149.28,58.39Z"/><g class="c"><path class="d" d="M398.74,62.29a28.324,28.324,0,0,1,6.23,4.39l6.65-2.37,6.25,9.87-4.98,5a28.494,28.494,0,0,1,1.31,7.5l6.38,3.03-2.56,11.4-7.06.02a28.324,28.324,0,0,1-4.39,6.23l2.37,6.65-9.87,6.25-5-4.98a28.494,28.494,0,0,1-7.5,1.31l-3.03,6.38-11.4-2.56-.01-7.06a28.324,28.324,0,0,1-6.23-4.39l-6.65,2.37L353,101.46l4.98-5a28.494,28.494,0,0,1-1.31-7.5l-6.38-3.03,2.56-11.4,7.06-.01a28.324,28.324,0,0,1,4.39-6.23l-2.37-6.65,9.87-6.25,5,4.98a28.5,28.5,0,0,1,7.5-1.31l3.03-6.38,11.4,2.56.01,7.05ZM388.69,75.71a12.533,12.533,0,1,0,9.49,14.97A12.532,12.532,0,0,0,388.69,75.71Z"/></g><path class="b" d="M63.7,162.58h73.97s-6.54-11.9-25.58-10.17c-18.18,1.65-19.11-5.86-28.36-6.78S66.78,151.8,63.7,162.58Z"/><path class="b" d="M223.8,297.07h59.88s-5.29-9.64-20.71-8.23c-14.72,1.34-15.47-4.74-22.95-5.49S226.29,288.34,223.8,297.07Z"/><path class="e" d="M480.15,444.82c0,.14-103.05.26-230.13.26-127.13,0-230.16-.12-230.16-.26s103.03-.26,230.16-.26C377.1,444.56,480.15,444.68,480.15,444.82Z"/><rect class="f" width="145.28" height="97.28" transform="translate(309.91 145.13)"/><path class="g" d="M455.19,242.4s-.01-.61-.02-1.77-.01-2.89-.02-5.13c-.01-4.5-.03-11.11-.05-19.56-.03-16.9-.06-41.19-.11-70.81l.21.21c-40.03.01-90.54.03-145.27.05h-.01l.26-.26c-.01,34.65-.02,67.61-.02,97.28l-.24-.24,104.67.12c12.81.03,22.96.05,29.9.06,3.47.01,6.14.02,7.95.03.9.01,1.58.01,2.05.01s.7.01.7.01-.22.01-.68.01-1.14.01-2.03.01c-1.8.01-4.46.02-7.91.03-6.94.01-17.06.04-29.85.06l-104.82.12h-.24v-.24c-.01-29.67-.01-62.62-.02-97.28v-.26h.27c54.74.02,105.24.04,145.27.05h.21v.21c-.05,29.67-.08,54.01-.11,70.94-.02,8.44-.04,15.03-.05,19.52-.01,2.23-.02,3.93-.02,5.09S455.19,242.4,455.19,242.4Z"/><path class="g" d="M309.91,153.81c0-.14,32.5-.26,72.58-.26s72.58.12,72.58.26-32.49.26-72.58.26S309.91,153.95,309.91,153.81Z"/><g class="h"><path class="g" d="M315.64,149.43a1.16,1.16,0,1,1-1.16-1.16A1.161,1.161,0,0,1,315.64,149.43Z"/></g><g class="h"><path class="g" d="M319.63,149.43a1.16,1.16,0,1,1-1.16-1.16A1.148,1.148,0,0,1,319.63,149.43Z"/></g><g class="h"><path class="g" d="M323.56,149.43a1.16,1.16,0,1,1-1.16-1.16A1.148,1.148,0,0,1,323.56,149.43Z"/></g><g class="h"><rect class="g" width="38.75" height="38.75" transform="translate(322.4 163.95)"/></g><text class="i" transform="translate(331.03 179.964)"><tspan x="0" y="0">Blockchain </tspan><tspan x="0" y="14.4">Decentralization</tspan></text><path class="g" d="M435.27,182.11c0,.14-15.11.26-33.76.26s-33.76-.12-33.76-.26,15.11-.26,33.76-.26S435.27,181.96,435.27,182.11Z"/><path class="g" d="M407.66,196.51a8.579,8.579,0,0,1-1.57.1c-1.1.02-2.54.05-4.28.08-3.61.05-8.6.08-14.11.08s-10.5-.03-14.11-.08c-1.73-.03-3.17-.06-4.28-.08a9.9,9.9,0,0,1-1.57-.1,8.579,8.579,0,0,1,1.57-.1c1.1-.02,2.54-.05,4.28-.08,3.61-.05,8.6-.08,14.11-.08s10.5.03,14.11.08c1.73.03,3.17.06,4.28.08A8.58,8.58,0,0,1,407.66,196.51Z"/><g class="h"><rect class="g" width="18.21" height="18.21" transform="translate(324.82 215.77)"/></g><g class="h"><rect class="g" width="18.21" height="18.21" transform="translate(357.85 215.77)"/></g><g class="h"><rect class="g" width="18.21" height="18.21" transform="translate(390.88 215.77)"/></g><g class="h"><rect class="g" width="18.21" height="18.21" transform="translate(423.91 215.77)"/></g><rect class="f" width="129.42" height="52.57" transform="translate(44.21 180.17)"/><path class="g" d="M173.63,232.74s-.01-.32-.01-.94-.01-1.53-.02-2.73c-.01-2.4-.02-5.92-.04-10.46-.02-9.07-.04-22.2-.08-38.44l.14.14c-32.92.02-78.75.04-129.41.06H44.2l.2-.2c0,18.41-.01,36.18-.01,52.57l-.2-.2c37.5.04,69.83.07,92.79.09,11.49.02,20.64.04,26.92.05,3.14.01,5.56.02,7.2.02.82.01,1.44.01,1.87.01l.66.03s-.2.01-.62.01-1.04.01-1.84.01c-1.64.01-4.04.01-7.16.02-6.27.01-15.4.03-26.87.05-23,.02-55.37.06-92.93.09h-.2v-.2c0-16.39-.01-34.16-.01-52.57v-.21h.21c50.66.02,96.49.05,129.41.06h.14v.14c-.03,16.28-.06,29.43-.08,38.53-.02,4.53-.03,8.04-.04,10.43-.01,1.18-.01,2.08-.02,2.7C173.64,232.44,173.63,232.74,173.63,232.74Z"/><path class="g" d="M44.34,187.26c0-.11,28.93-.21,64.61-.21s64.61.09,64.61.21-28.92.2-64.61.2S44.34,187.37,44.34,187.26Z"/><g class="h"><path class="g" d="M49.76,184.09a.94.94,0,1,1-.94-.94A.939.939,0,0,1,49.76,184.09Z"/></g><g class="h"><path class="g" d="M52.98,184.09a.94.94,0,1,1-.94-.94A.939.939,0,0,1,52.98,184.09Z"/></g><g class="h"><path class="g" d="M56.15,184.09a.94.94,0,1,1-.94-.94A.939.939,0,0,1,56.15,184.09Z"/></g><g class="h"><rect class="g" width="31.26" height="31.26" transform="translate(55.21 195.8)"/></g><path class="g" d="M164.68,204.18c0,.11-16.09.2-35.93.2s-35.93-.09-35.93-.2,16.08-.2,35.93-.2S164.68,204.07,164.68,204.18Z"/><path class="g" d="M164.68,210.55c0,.11-16.09.21-35.93.21s-35.93-.09-35.93-.21,16.08-.2,35.93-.2S164.68,210.44,164.68,210.55Z"/><path class="g" d="M139.08,216.92a2.149,2.149,0,0,1-.47.04c-.35.01-.8.02-1.35.04-1.23.02-2.9.04-4.96.07-4.23.02-9.99.04-16.35.06-6.36-.02-12.12-.04-16.36-.06-2.05-.03-3.73-.05-4.96-.07-.55-.02-.99-.03-1.35-.04a2.149,2.149,0,0,1-.47-.04,2.149,2.149,0,0,1,.47-.04c.35-.01.8-.02,1.35-.04,1.22-.02,2.9-.04,4.96-.07,4.23-.02,9.99-.04,16.36-.06,6.36.02,12.12.04,16.35.06,2.05.03,3.73.05,4.96.07.55.02,1,.03,1.35.04A1.566,1.566,0,0,1,139.08,216.92Z"/><path class="b" d="M268.73,114.11c-2.17-1.45-5.15-.57-7.32.88s-4.02,3.43-6.45,4.37c-4.56,1.77-10.55-.33-14.1,3.05-2.25,2.14-2.48,5.66-4.2,8.25-2.9,4.36-9.85,6-10.45,11.2-.35,3.03,2.05,5.94,4.99,6.79a10.7,10.7,0,0,0,8.7-1.74c2.97-1.97,5.3-5.02,8.69-6.14,3.46-1.15,7.73-.19,10.46-2.6s2.32-6.86,4.28-9.94a19.793,19.793,0,0,1,4.16-4.06c1.48-1.27,2.87-2.84,3.12-4.77s-.55-5.22-1.88-5.29"/><path class="e" d="M212.38,326.56c.12-.07.53.33.91.9s.59,1.11.47,1.19-.52-.32-.91-.9S212.26,326.64,212.38,326.56Z"/><path class="e" d="M208.1,317.54a6.229,6.229,0,0,1,1.19,2.22,6.342,6.342,0,0,1,.71,2.41,6.239,6.239,0,0,1-1.19-2.22A6.016,6.016,0,0,1,208.1,317.54Z"/><path class="e" d="M205.78,307.82a12.173,12.173,0,0,1,.91,4.92,6.184,6.184,0,0,1-.71-2.41A6.318,6.318,0,0,1,205.78,307.82Z"/><path class="e" d="M205.43,297.83a6.51,6.51,0,0,1,.23,2.5,6.187,6.187,0,0,1-.3,2.5,6.386,6.386,0,0,1-.23-2.51A6,6,0,0,1,205.43,297.83Z"/><path class="e" d="M207.04,287.97a6.227,6.227,0,0,1-.27,2.5,6.41,6.41,0,0,1-.78,2.39,6.249,6.249,0,0,1,.27-2.5A6.481,6.481,0,0,1,207.04,287.97Z"/><path class="e" d="M210.64,278.65a6.108,6.108,0,0,1-.79,2.39,6.456,6.456,0,0,1-1.26,2.18,6.307,6.307,0,0,1,.79-2.39C209.95,279.55,210.51,278.58,210.64,278.65Z"/><path class="e" d="M216.15,270.31a6.257,6.257,0,0,1-1.28,2.16,7.011,7.011,0,0,1-1.69,1.86c-.14-.09.45-1.05,1.27-2.17S216.04,270.22,216.15,270.31Z"/><path class="e" d="M222.87,262.91c.1.1-.59.99-1.54,1.99s-1.81,1.73-1.91,1.63.58-.99,1.54-1.99S222.77,262.8,222.87,262.91Z"/><path class="e" d="M229.91,255.79c.1.1-.6.98-1.57,1.96s-1.84,1.7-1.94,1.6.6-.98,1.57-1.96S229.81,255.69,229.91,255.79Z"/><path class="e" d="M236.49,248.25c.12.09-.5,1.03-1.38,2.1s-1.68,1.87-1.79,1.77.51-1.04,1.39-2.1C235.57,248.96,236.37,248.17,236.49,248.25Z"/><path class="e" d="M241.59,239.67a5.44,5.44,0,0,1-.84,2.38c-.64,1.24-1.33,2.14-1.45,2.06a7.316,7.316,0,0,1,.99-2.3A7.423,7.423,0,0,1,241.59,239.67Z"/><path class="e" d="M244.02,230.01a8.756,8.756,0,0,1-.82,4.93,7.762,7.762,0,0,1,.25-2.49A7.967,7.967,0,0,1,244.02,230.01Z"/><path class="e" d="M243.28,220.07a5.129,5.129,0,0,1,.74,2.41,5.268,5.268,0,0,1,.03,2.53,7.493,7.493,0,0,1-.54-2.45A7.74,7.74,0,0,1,243.28,220.07Z"/><path class="e" d="M239.35,210.92c.12-.08.85.79,1.51,2.02a5.166,5.166,0,0,1,.85,2.38c-.14.06-.66-.93-1.31-2.13A8.162,8.162,0,0,1,239.35,210.92Z"/><path class="e" d="M232.38,203.82a5.035,5.035,0,0,1,2.16,1.31c1.08.9,1.78,1.8,1.67,1.89s-.96-.62-2.01-1.49S232.29,203.94,232.38,203.82Z"/><path class="e" d="M223.29,199.76a8.48,8.48,0,0,1,4.73,1.61,8.022,8.022,0,0,1-2.41-.67A7.238,7.238,0,0,1,223.29,199.76Z"/><path class="e" d="M213.35,199.31a5,5,0,0,1,2.47-.52,5.131,5.131,0,0,1,2.52.26,24.059,24.059,0,0,1-4.99.26Z"/><path class="e" d="M204.12,202.99c-.08-.11.78-.87,2.01-1.53a4.92,4.92,0,0,1,2.39-.83,8.434,8.434,0,0,1-2.14,1.29A8.328,8.328,0,0,1,204.12,202.99Z"/><path class="e" d="M197.26,210.18a5.093,5.093,0,0,1,1.23-2.21c.86-1.11,1.74-1.84,1.84-1.74a8.5,8.5,0,0,1-1.43,2.06C198.06,209.36,197.38,210.25,197.26,210.18Z"/><path class="e" d="M193.89,219.52a4.919,4.919,0,0,1,.19-2.52,4.992,4.992,0,0,1,.98-2.33,8.335,8.335,0,0,1-.47,2.46A8.177,8.177,0,0,1,193.89,219.52Z"/><path class="e" d="M195.08,229.37a7.959,7.959,0,0,1-1.18-4.85,8.367,8.367,0,0,1,.71,2.4A8.592,8.592,0,0,1,195.08,229.37Z"/><path class="e" d="M200.15,237.93c-.11.09-.93-.69-1.75-1.82a5.049,5.049,0,0,1-1.16-2.24c.13-.07.79.83,1.59,1.94A7.8,7.8,0,0,1,200.15,237.93Z"/><path class="e" d="M207.51,244.68a5.5,5.5,0,0,1-2.15-1.31c-1.08-.87-1.83-1.73-1.74-1.83s.99.56,2.06,1.43C206.75,243.82,207.6,244.56,207.51,244.68Z"/><path class="e" d="M216.18,249.65a6.182,6.182,0,0,1-2.35-.9c-1.24-.63-2.18-1.24-2.11-1.37a6.481,6.481,0,0,1,2.35.9A6.271,6.271,0,0,1,216.18,249.65Z"/><path class="e" d="M225.7,252.68a9.5,9.5,0,0,1-4.85-1.25,7.156,7.156,0,0,1,2.47.44A7.266,7.266,0,0,1,225.7,252.68Z"/><path class="e" d="M235.66,253.19a5.253,5.253,0,0,1-2.49.4,5.4,5.4,0,0,1-2.51-.3,7.436,7.436,0,0,1,2.5-.22A7.564,7.564,0,0,1,235.66,253.19Z"/><path class="e" d="M245.28,250.62a5.163,5.163,0,0,1-2.23,1.19,5.231,5.231,0,0,1-2.48.5,7.6,7.6,0,0,1,2.3-.99A7.3,7.3,0,0,1,245.28,250.62Z"/><path class="e" d="M253.62,245.15c.1.1-.66.95-1.77,1.8a5.312,5.312,0,0,1-2.2,1.24c-.08-.12.79-.82,1.88-1.66A8.147,8.147,0,0,1,253.62,245.15Z"/><path class="e" d="M260.13,237.59a5.424,5.424,0,0,1-1.23,2.21c-.84,1.12-1.67,1.89-1.78,1.79s.54-1.01,1.36-2.11S260.01,237.51,260.13,237.59Z"/><path class="e" d="M264.46,228.59a5.263,5.263,0,0,1-.62,2.45,5.576,5.576,0,0,1-1.25,2.19,7.533,7.533,0,0,1,.77-2.39A7.712,7.712,0,0,1,264.46,228.59Z"/><path class="e" d="M266.4,218.8a9.536,9.536,0,0,1-.68,4.95,16.378,16.378,0,0,1,.68-4.95Z"/><path class="e" d="M266.14,208.81a6.1,6.1,0,0,1,.45,2.47,5.917,5.917,0,0,1-.07,2.51,6.321,6.321,0,0,1-.45-2.47A6.426,6.426,0,0,1,266.14,208.81Z"/><path class="e" d="M263.97,199.05a6.292,6.292,0,0,1,.91,2.35,6.215,6.215,0,0,1,.4,2.48,6.286,6.286,0,0,1-.91-2.35A6.182,6.182,0,0,1,263.97,199.05Z"/><path class="e" d="M260.14,189.81c.13-.07.73.89,1.33,2.14a6.076,6.076,0,0,1,.77,2.4,6.4,6.4,0,0,1-1.25-2.18A6.616,6.616,0,0,1,260.14,189.81Z"/><path class="e" d="M255.22,181.1c.12-.07.79.83,1.49,2.03a6.092,6.092,0,0,1,1.04,2.29,6.43,6.43,0,0,1-1.49-2.03A6.583,6.583,0,0,1,255.22,181.1Z"/><path class="e" d="M250.26,172.41c.13-.07.77.86,1.44,2.06a6.089,6.089,0,0,1,.98,2.31,6.291,6.291,0,0,1-1.44-2.06A6.154,6.154,0,0,1,250.26,172.41Z"/><path class="e" d="M246.35,163.21a12.087,12.087,0,0,1,1.75,4.68,12.087,12.087,0,0,1-1.75-4.68Z"/><path class="e" d="M244.65,153.38a7.094,7.094,0,0,1,.44,2.47,7.669,7.669,0,0,1,.09,2.51,5.311,5.311,0,0,1-.6-2.45A5.5,5.5,0,0,1,244.65,153.38Z"/><path class="e" d="M245.48,143.43a7.255,7.255,0,0,1-.18,2.5,7.493,7.493,0,0,1-.54,2.45,9.558,9.558,0,0,1,.72-4.95Z"/><path class="e" d="M248.74,133.99a7.3,7.3,0,0,1-.8,2.38,7.492,7.492,0,0,1-1.13,2.24,5.515,5.515,0,0,1,.65-2.44A5.345,5.345,0,0,1,248.74,133.99Z"/><path class="e" d="M254.31,125.71c.11.1-.55,1-1.39,2.09s-1.55,1.95-1.67,1.87a5.438,5.438,0,0,1,1.26-2.19C253.36,126.38,254.21,125.62,254.31,125.71Z"/><path class="e" d="M261.82,119.13c.08.12-.78.83-1.87,1.67s-1.99,1.49-2.09,1.38.67-.95,1.77-1.8A5.485,5.485,0,0,1,261.82,119.13Z"/><path class="e" d="M270.72,114.61a7.253,7.253,0,0,1-2.22,1.16,7.746,7.746,0,0,1-2.37.83c-.07-.13.88-.75,2.16-1.3A5.2,5.2,0,0,1,270.72,114.61Z"/><path class="e" d="M277.97,112.77c.02.14-.51.36-1.18.48s-1.25.11-1.28-.03.5-.36,1.18-.48S277.95,112.63,277.97,112.77Z"/><path class="g" d="M298.38,83.33s11.75-8.38,28-2.97c0,0,1.34,13.46-11.7,24.16"/><path class="g" d="M261.35,108.19c.5.75,13.25,21.24,13.25,21.24l38.27-23.58a13.4,13.4,0,0,0,3.74-19.38h0a13.4,13.4,0,0,0-18.23-3.15Z"/><path class="e" d="M274.6,129.43l-.86,14.42s24.8-12.01,18.61-25.36Z"/><path class="e" d="M279.08,96.29s-16.82-7.42-30.66,3.46l12.94,8.44Z"/><path class="e" d="M278.96,108.2l-23.94,14.97s.82,2.57,1.47,2.36c.54-.18,18.52-10.8,24.36-14.25a1.807,1.807,0,0,0,.47-2.7h0A1.818,1.818,0,0,0,278.96,108.2Z"/><circle class="j" cx="7.66" cy="7.66" r="7.66" transform="translate(291.792 102.56) rotate(-76.761)"/><path class="e" d="M308.67,96.85c-.06,0-.03-.68-.34-1.85a7.673,7.673,0,0,0-2.8-4.1,7.418,7.418,0,0,0-3.15-1.37,7.524,7.524,0,0,0-3.9.34,7.347,7.347,0,0,0-3.44,2.59,7.381,7.381,0,0,0,0,8.76,7.3,7.3,0,0,0,3.44,2.59,7.469,7.469,0,0,0,7.05-1.03,7.673,7.673,0,0,0,2.8-4.1c.31-1.14.28-1.83.34-1.83a1.565,1.565,0,0,1,.03.49,5.636,5.636,0,0,1-.17,1.4,7.6,7.6,0,0,1-2.77,4.34,7.735,7.735,0,0,1-3.29,1.5,7.943,7.943,0,0,1-4.15-.32,7.744,7.744,0,0,1-3.68-2.74,7.84,7.84,0,0,1,0-9.36,7.792,7.792,0,0,1,3.68-2.74,7.943,7.943,0,0,1,4.15-.32,7.738,7.738,0,0,1,6.06,5.84,5.638,5.638,0,0,1,.17,1.4A1.6,1.6,0,0,1,308.67,96.85Z"/><path class="e" d="M318,101.96c-.1.01-.21-1.49-.8-3.82a27.747,27.747,0,0,0-1.33-3.99,31.292,31.292,0,0,0-2.39-4.55,31.972,31.972,0,0,0-3.17-4.06,28.621,28.621,0,0,0-3.09-2.86c-1.88-1.49-3.2-2.21-3.15-2.3a3.97,3.97,0,0,1,.95.45,11.591,11.591,0,0,1,1.07.63c.4.27.88.55,1.35.93a25.475,25.475,0,0,1,3.21,2.82,26.936,26.936,0,0,1,5.66,8.77,27.015,27.015,0,0,1,1.25,4.09c.15.59.21,1.14.29,1.62a11.594,11.594,0,0,1,.14,1.23A3.807,3.807,0,0,1,318,101.96Z"/><path class="e" d="M315.94,103.06c-.1.01-.22-1.51-.82-3.88a30.486,30.486,0,0,0-1.35-4.06,31.986,31.986,0,0,0-2.43-4.64,31.569,31.569,0,0,0-3.21-4.14A28.771,28.771,0,0,0,305,83.42c-1.9-1.53-3.24-2.28-3.19-2.36a4.5,4.5,0,0,1,.97.47,10.263,10.263,0,0,1,1.08.65c.41.27.89.57,1.37.95a25.841,25.841,0,0,1,3.25,2.89,27.8,27.8,0,0,1,5.72,8.93,27.122,27.122,0,0,1,1.27,4.16c.15.6.22,1.16.3,1.64a11.9,11.9,0,0,1,.14,1.25A4.754,4.754,0,0,1,315.94,103.06Z"/><path class="g" d="M81.84,420.97c-.86-3.4,1.39-6.8,3.9-9.24s5.51-4.64,6.82-7.89c2.13-5.26-.66-12.11,2.96-16.49,2.13-2.58,5.92-3.42,7.81-6.18a14.111,14.111,0,0,0,1.71-4.93,50.235,50.235,0,0,1,12.62-23.3,43.584,43.584,0,0,1-5.03,22.5c-1.47,2.76-3.27,5.45-3.77,8.53-.81,5.01,1.96,10.2.7,15.11-1.44,5.62-7.79,9.36-8.12,15.16-.28,4.9,3.97,9.23,3.62,14.12a13.341,13.341,0,0,1-2.21,5.8c-3.83,6.28-9.42,10.59-17.86,10.4l-10.34.3Z"/><g class="h"><path d="M81.84,420.97c-.86-3.4,1.39-6.8,3.9-9.24s5.51-4.64,6.82-7.89c2.13-5.26-.66-12.11,2.96-16.49,2.13-2.58,5.92-3.42,7.81-6.18a14.111,14.111,0,0,0,1.71-4.93,50.235,50.235,0,0,1,12.62-23.3,43.584,43.584,0,0,1-5.03,22.5c-1.47,2.76-3.27,5.45-3.77,8.53-.81,5.01,1.96,10.2.7,15.11-1.44,5.62-7.79,9.36-8.12,15.16-.28,4.9,3.97,9.23,3.62,14.12a13.341,13.341,0,0,1-2.21,5.8c-3.83,6.28-9.42,10.59-17.86,10.4l-10.34.3Z"/></g><path class="e" d="M72.56,445.11a8.375,8.375,0,0,1-2.85-.08,17.223,17.223,0,0,1-3.35-.86,14.448,14.448,0,0,1-4.14-2.3,5.709,5.709,0,0,1-1.69-2.28,10.739,10.739,0,0,1-.47-3.09,29.884,29.884,0,0,0-.22-3.35,9.321,9.321,0,0,0-1.24-3.33c-1.21-2.15-3.22-4.19-3.86-7.1-.69-2.86-.17-5.95.33-9.06s.98-6.48-.19-9.71c-1.09-3.24-3.34-6.17-4.45-9.82-1.11-3.69-.56-7.64-.78-11.55a15.545,15.545,0,0,0-1.31-5.75c-.83-1.83-1.98-3.57-2.87-5.5-1.81-3.9-2.11-8.32-2.59-12.65-.23-2.18-.47-4.38-.7-6.61a32.255,32.255,0,0,0-1.11-6.62,55.713,55.713,0,0,0-2.44-6.41,21.037,21.037,0,0,1-1.18-3.35,30.928,30.928,0,0,1-.31-3.56,41.81,41.81,0,0,1,.32-7.15c.29-2.38.74-4.75,1.01-7.14.02-.14.03-.28.05-.41l.06-.48.42.21a15.937,15.937,0,0,1,5.54,4.73,25.03,25.03,0,0,1,3.38,6.32c1.7,4.45,2.3,9.11,3.14,13.56.82,4.45,1.92,8.82,4.18,12.53,1.12,1.85,2.48,3.54,3.67,5.34a14.475,14.475,0,0,1,2.53,5.91c.59,4.38-1.84,8.2-1.36,12.08a13.338,13.338,0,0,0,1.86,5.38c.93,1.66,2.02,3.19,3.06,4.74a30.913,30.913,0,0,1,2.75,4.78,14.977,14.977,0,0,1,1.24,5.19c.23,3.49-.28,6.79-.04,9.92a22.733,22.733,0,0,0,2.5,8.51c1.24,2.55,2.61,4.86,3.77,7.09.58,1.12,1.11,2.21,1.55,3.3a16.443,16.443,0,0,1,.89,3.27,20.509,20.509,0,0,1,.04,5.9,14.846,14.846,0,0,1-3,7.51,6.8,6.8,0,0,1-.84.9,3.531,3.531,0,0,1-.68.57c-.42.29-.62.42-.62.42a13.145,13.145,0,0,0,2.01-1.97,14.967,14.967,0,0,0,2.85-7.46,20.458,20.458,0,0,0-.1-5.82,15.7,15.7,0,0,0-.9-3.2,34.275,34.275,0,0,0-1.56-3.26c-1.16-2.22-2.55-4.52-3.82-7.08a23.178,23.178,0,0,1-2.59-8.66c-.25-3.19.25-6.51,0-9.91a14.658,14.658,0,0,0-1.22-5.02,29.694,29.694,0,0,0-2.72-4.69c-1.04-1.54-2.14-3.08-3.1-4.77a13.854,13.854,0,0,1-1.94-5.6c-.47-4.13,1.94-7.98,1.34-12.05a14.108,14.108,0,0,0-2.45-5.65c-1.17-1.77-2.54-3.46-3.69-5.35-2.33-3.81-3.44-8.27-4.27-12.73-.85-4.47-1.45-9.08-3.12-13.44a24.455,24.455,0,0,0-3.29-6.15,15.337,15.337,0,0,0-5.3-4.53l.48-.26c-.02.13-.03.27-.05.42-.27,2.42-.72,4.79-1.01,7.14a41.633,41.633,0,0,0-.31,7.04,32.066,32.066,0,0,0,.3,3.45,21.079,21.079,0,0,0,1.14,3.23,56.308,56.308,0,0,1,2.45,6.48A32.879,32.879,0,0,1,42.82,352c.23,2.23.47,4.43.7,6.61.47,4.35.77,8.69,2.51,12.46.86,1.88,2.01,3.61,2.86,5.51a15.853,15.853,0,0,1,1.35,5.96c.2,3.99-.34,7.89.72,11.43,1.05,3.52,3.29,6.47,4.41,9.81,1.2,3.38.68,6.86.16,9.95-.52,3.11-1.04,6.14-.38,8.89.58,2.78,2.54,4.8,3.77,7.01a9.534,9.534,0,0,1,1.26,3.46,31.035,31.035,0,0,1,.2,3.39,10.679,10.679,0,0,0,.42,3.01,5.581,5.581,0,0,0,1.59,2.18,14.275,14.275,0,0,0,4.04,2.31,17.438,17.438,0,0,0,3.31.92,12.547,12.547,0,0,0,2.1.21C72.31,445.1,72.56,445.11,72.56,445.11Z"/><path class="e" d="M40.59,323.15a1.586,1.586,0,0,1,.1.31c.06.25.13.55.22.93.2.82.43,2.05.82,3.58s1.33,3.27,2.12,5.41c.82,2.12,1.65,4.58,2.42,7.35s1.45,5.83,2.17,9.11a38.233,38.233,0,0,0,3.25,10.11c.84,1.68,1.78,3.39,2.53,5.25a24.121,24.121,0,0,1,1.45,5.94,118.142,118.142,0,0,0,2.16,12.52c2.02,8.48,3.95,16.56,5.71,23.92,1.8,7.33,3.42,13.94,4.79,19.51,1.33,5.52,2.41,10,3.17,13.17.35,1.52.63,2.72.83,3.59.08.38.15.69.2.94a1.554,1.554,0,0,1,.05.32,1.194,1.194,0,0,1-.11-.31c-.07-.25-.16-.55-.26-.92-.23-.86-.55-2.05-.95-3.56-.81-3.15-1.96-7.62-3.38-13.11-1.41-5.56-3.07-12.16-4.93-19.47-1.77-7.36-3.72-15.44-5.76-23.93a116.846,116.846,0,0,1-2.15-12.57,23.881,23.881,0,0,0-1.4-5.8c-.72-1.82-1.65-3.51-2.49-5.21a38.317,38.317,0,0,1-3.24-10.27c-.69-3.29-1.34-6.35-2.08-9.1s-1.53-5.21-2.31-7.34c-.75-2.13-1.65-3.89-2.02-5.48-.35-1.58-.54-2.79-.7-3.62-.06-.38-.12-.69-.16-.95A.982.982,0,0,1,40.59,323.15Z"/><path class="g" d="M70.73,445.13c-6.73-4.05-8.6-16.24-5.74-23.56s7.83-13.99,8.63-21.8c.62-6.01-1.31-12.19.12-18.05,1.93-7.92,9.71-14.01,9.66-22.16-.02-4.57-2.6-8.89-2.37-13.46.29-5.6,4.61-10.02,7.3-14.94,4.12-7.53,4.44-16.46,5.88-24.92s4.72-17.51,12.25-21.64c1.07,7.2,2.93,12.13,2.28,21.87-.23,3.5-4.34,10.17-4.93,17.84-.36,4.58-.61,9.17-.92,13.75-.3,4.46-.61,9-2.24,13.17-1.24,3.19-3.23,6.09-4.16,9.39-1.75,6.2.46,12.95-.95,19.24-1.2,5.33-4.92,9.9-5.7,15.3-1.1,7.59,3.77,15.52,1.21,22.75-1.27,3.59-4.25,6.46-5.11,10.17-.67,2.88.03,5.93-.58,8.83-.98,4.66-9.89,8.23-14.64,7.92"/><path class="e" d="M104.57,291.73a2.108,2.108,0,0,1-.03.41c-.04.3-.09.69-.16,1.18-.16,1.04-.34,2.56-.71,4.53-.39,1.98-1.42,4.21-2.25,6.89-.88,2.68-1.75,5.77-2.53,9.23s-1.46,7.29-2.16,11.41c-.72,4.09-1.46,8.61-3.53,12.9-.96,2.15-2.03,4.31-2.84,6.6a29.942,29.942,0,0,0-1.47,7.29,148.777,148.777,0,0,1-2.07,15.72c-2.13,10.64-4.16,20.78-6,30.01-1.94,9.19-3.69,17.47-5.16,24.44-1.49,6.92-2.69,12.53-3.54,16.46-.42,1.91-.76,3.4-.99,4.47-.11.48-.2.86-.28,1.16a1.491,1.491,0,0,1-.12.39,2.371,2.371,0,0,1,.05-.4q.075-.45.21-1.17c.21-1.07.5-2.58.87-4.5.8-3.94,1.93-9.57,3.33-16.51,1.43-6.98,3.14-15.27,5.02-24.47,1.83-9.22,3.84-19.36,5.95-30a149.9,149.9,0,0,0,2.08-15.67,30.541,30.541,0,0,1,1.51-7.43c.84-2.35,1.92-4.51,2.88-6.64,2.06-4.22,2.8-8.64,3.55-12.74.72-4.12,1.42-7.96,2.24-11.42s1.72-6.57,2.63-9.24c.87-2.7,1.94-4.9,2.35-6.83s.62-3.47.83-4.5c.09-.49.17-.87.22-1.17A4.133,4.133,0,0,1,104.57,291.73Z"/><rect class="g" width="6.97" height="22.52" transform="translate(402.47 287.76)"/><rect class="g" width="6.97" height="31.78" transform="translate(415.3 278.49)"/><rect class="g" width="6.97" height="36.11" transform="translate(428.95 274.16)"/><rect class="g" width="6.97" height="40.68" transform="translate(442.61 269.6)"/><path class="e" d="M167.52,316.97a4.8,4.8,0,0,1,1.5.47,6.391,6.391,0,0,1,3.6,5.94,6.524,6.524,0,0,1-1,3.27,6.054,6.054,0,0,1-1.22,1.42,6.471,6.471,0,0,1-9.16-.63,6.114,6.114,0,0,1-1.04-1.65,6.209,6.209,0,0,1-.5-1.8,6.428,6.428,0,0,1,2.29-5.77,6.325,6.325,0,0,1,3.99-1.46,4.566,4.566,0,0,1,1.54.21,13.882,13.882,0,0,0-1.55-.07,6.377,6.377,0,0,0-3.83,1.51,6.161,6.161,0,0,0-2.12,5.53,6.247,6.247,0,0,0,1.47,3.26,6.141,6.141,0,0,0,7.1,1.59,5.8,5.8,0,0,0,1.56-.98,5.462,5.462,0,0,0,1.16-1.34,6.237,6.237,0,0,0-2.37-8.9C168.07,317.11,167.51,317.02,167.52,316.97Z"/><path class="e" d="M172.6,310.19a1.759,1.759,0,0,1-.01-.22c0-.17-.01-.39-.02-.68-.01-.62-.02-1.51-.04-2.67l.05.06c-1.48-.32-3.42-.75-5.77-1.26l.1-.05c-.46.98-.97,2.07-1.52,3.23l-.03.06h-.07a14.409,14.409,0,0,0-3.76.67l-.07.02-.05-.05-2.54-2.51.16.02q-2.355,1.5-4.98,3.17l.06-.17c.37,1.04.78,2.19,1.2,3.36l.03.09-.06.07a14.323,14.323,0,0,0-2.19,3.12l-.04.08h-.1c-1.11,0-2.33.01-3.57.01l.16-.13c-.4,1.81-.84,3.76-1.29,5.77l-.09-.19c1,.48,2.11,1,3.22,1.53l.09.04v.1a14.584,14.584,0,0,0,.66,3.75l.03.1-.08.08c-.79.79-1.65,1.66-2.52,2.53l.02-.22c1,1.58,2.08,3.27,3.16,4.99l-.21-.07c1.06-.38,2.21-.79,3.36-1.2l.1-.04.08.07a14.44,14.44,0,0,0,3.11,2.19h0a1.461,1.461,0,1,0,.1.16h0v3.56l-.14-.18q2.925.66,5.76,1.29l-.2.1c.52-1.08,1.03-2.16,1.53-3.22l.05-.1h.11a14.242,14.242,0,0,0,3.75-.65l.1-.03.08.08c.85.85,1.7,1.69,2.53,2.52l-.21-.02c1.7-1.08,3.37-2.13,4.99-3.16l-.07.2c-.4-1.14-.8-2.26-1.19-3.36l-.03-.09.07-.07a14.3,14.3,0,0,0,2.2-3.11l.04-.08h3.67l-.15.12c.46-2.03.89-3.94,1.31-5.76l.08.16c-1.13-.54-2.2-1.05-3.22-1.54l-.07-.03v-.08a14.7,14.7,0,0,0-.64-3.76l-.02-.07.05-.05c.92-.92,1.75-1.74,2.53-2.52l-.01.13c-1.22-1.94-2.25-3.59-3.14-5l.1.03c-1.35.47-2.45.85-3.37,1.18l-.03.01-.03-.02a15.4,15.4,0,0,0-2.29-1.77c-.26-.16-.47-.28-.61-.37-.15-.11-.21-.15-.21-.15s.08.03.22.1.35.18.63.35a14.266,14.266,0,0,1,2.34,1.73l-.06-.01c.92-.33,2.02-.73,3.36-1.22l.06-.02.04.06c.9,1.41,1.95,3.05,3.18,4.98l.05.07-.06.06c-.78.78-1.6,1.62-2.51,2.54l.03-.12a14.725,14.725,0,0,1,.68,3.82l-.07-.11c1.03.48,2.09.99,3.23,1.52l.1.05-.02.11c-.41,1.82-.83,3.74-1.28,5.77l-.03.12h-.12c-1.16,0-2.34.01-3.57.01l.14-.08a14.962,14.962,0,0,1-2.24,3.19l.03-.17q.585,1.65,1.2,3.36l.04.13-.11.07q-2.43,1.545-4.99,3.17l-.12.07-.1-.1c-.83-.83-1.68-1.67-2.53-2.52l.18.04a14.519,14.519,0,0,1-3.84.67l.15-.1c-.5,1.06-1.01,2.14-1.53,3.22l-.06.13-.14-.03c-1.89-.42-3.82-.85-5.76-1.29l-.14-.03v-3.72h0c.2.32.05.09.1.16h0a14.6,14.6,0,0,1-3.18-2.24l.18.04c-1.15.41-2.3.82-3.36,1.2l-.14.05-.08-.12c-1.09-1.72-2.16-3.41-3.16-4.99l-.08-.12.1-.1c.87-.87,1.73-1.74,2.52-2.53l-.04.18a14.838,14.838,0,0,1-.67-3.84l.1.15c-1.12-.53-2.22-1.06-3.22-1.53l-.12-.06.03-.13c.45-2,.89-3.95,1.3-5.76l.03-.13h3.7l-.14.08a14.585,14.585,0,0,1,2.25-3.18l-.03.15c-.42-1.18-.82-2.32-1.19-3.37l-.04-.11.1-.06q2.625-1.665,5-3.15l.09-.06.07.07c.89.89,1.74,1.74,2.52,2.53l-.12-.03a14.438,14.438,0,0,1,3.83-.65l-.09.06c.56-1.16,1.08-2.24,1.54-3.22l.03-.07.07.02c2.34.54,4.28.99,5.76,1.33l.05.01v.05c-.01,1.15-.02,2.03-.02,2.65-.01.29-.01.52-.01.68A1.16,1.16,0,0,0,172.6,310.19Z"/><path class="k" d="M161.72,265.33a15.915,15.915,0,0,1,3.48,2.45l3.72-1.32,3.49,5.52-2.78,2.8a16.286,16.286,0,0,1,.73,4.19l3.56,1.69-1.43,6.37-3.95.01a15.916,15.916,0,0,1-2.45,3.48l1.32,3.72-5.52,3.49-2.8-2.78a16.285,16.285,0,0,1-4.19.73l-1.69,3.56-6.37-1.43-.01-3.95a15.915,15.915,0,0,1-3.48-2.45l-3.72,1.32-3.49-5.52,2.79-2.8a16.286,16.286,0,0,1-.73-4.19l-3.56-1.69,1.43-6.37,3.94-.01a15.916,15.916,0,0,1,2.45-3.48l-1.32-3.72,5.52-3.49,2.8,2.79a16.285,16.285,0,0,1,4.19-.73l1.69-3.56,6.37,1.43.01,3.94Zm-5.62,7.5a7.005,7.005,0,1,0,5.3,8.37A7.011,7.011,0,0,0,156.1,272.83Z"/><g class="c"><path class="l" d="M161.72,265.33a15.915,15.915,0,0,1,3.48,2.45l3.72-1.32,3.49,5.52-2.78,2.8a16.286,16.286,0,0,1,.73,4.19l3.56,1.69-1.43,6.37-3.95.01a15.916,15.916,0,0,1-2.45,3.48l1.32,3.72-5.52,3.49-2.8-2.78a16.285,16.285,0,0,1-4.19.73l-1.69,3.56-6.37-1.43-.01-3.95a15.915,15.915,0,0,1-3.48-2.45l-3.72,1.32-3.49-5.52,2.79-2.8a16.286,16.286,0,0,1-.73-4.19l-3.56-1.69,1.43-6.37,3.94-.01a15.916,15.916,0,0,1,2.45-3.48l-1.32-3.72,5.52-3.49,2.8,2.79a16.285,16.285,0,0,1,4.19-.73l1.69-3.56,6.37,1.43.01,3.94Zm-5.62,7.5a7.005,7.005,0,1,0,5.3,8.37A7.011,7.011,0,0,0,156.1,272.83Z"/></g><path class="k" d="M138.68,302.87a9.651,9.651,0,0,1,2.03,1.43l2.16-.77,2.03,3.21-1.62,1.63a9.46,9.46,0,0,1,.43,2.44l2.07.99-.83,3.71-2.3.01a9.651,9.651,0,0,1-1.43,2.03l.77,2.16-3.21,2.03-1.63-1.62a9.044,9.044,0,0,1-2.44.42l-.99,2.07-3.71-.83v-2.3a9.651,9.651,0,0,1-2.03-1.43l-2.16.77-2.03-3.21,1.62-1.63a9.46,9.46,0,0,1-.43-2.44l-2.07-.99.83-3.71h2.3a9.651,9.651,0,0,1,1.43-2.03l-.77-2.16,3.21-2.03,1.63,1.62a9.459,9.459,0,0,1,2.44-.43l.99-2.07,3.71.83v2.3Zm-3.27,4.36a4.078,4.078,0,1,0,3.09,4.87A4.076,4.076,0,0,0,135.41,307.23Z"/><g class="m"><path class="l" d="M138.68,302.87a9.651,9.651,0,0,1,2.03,1.43l2.16-.77,2.03,3.21-1.62,1.63a9.46,9.46,0,0,1,.43,2.44l2.07.99-.83,3.71-2.3.01a9.651,9.651,0,0,1-1.43,2.03l.77,2.16-3.21,2.03-1.63-1.62a9.044,9.044,0,0,1-2.44.42l-.99,2.07-3.71-.83v-2.3a9.651,9.651,0,0,1-2.03-1.43l-2.16.77-2.03-3.21,1.62-1.63a9.46,9.46,0,0,1-.43-2.44l-2.07-.99.83-3.71h2.3a9.651,9.651,0,0,1,1.43-2.03l-.77-2.16,3.21-2.03,1.63,1.62a9.459,9.459,0,0,1,2.44-.43l.99-2.07,3.71.83v2.3Zm-3.27,4.36a4.078,4.078,0,1,0,3.09,4.87A4.076,4.076,0,0,0,135.41,307.23Z"/></g><path class="e" d="M359.53,266.07a9.753,9.753,0,0,0,7.06-9.74c-.12-1.96-.85-3.86-.77-5.82.13-3.04,2.15-5.61,3.67-8.25s2.54-6.12.77-8.59c-1.15-1.61-3.18-2.33-4.57-3.73-1.36-1.37-2.01-3.27-2.74-5.06s-1.67-3.64-3.35-4.59-4.25-.53-4.94,1.28"/><path class="e" d="M341.37,216.74c3-1.9,3.72-6.31,2.1-9.47s-5.07-5.07-8.57-5.64a16.337,16.337,0,0,0-14.07,4.66c-1.93,1.99-3.5,4.59-6.12,5.5-2.3.8-4.85.08-7.27.39a11.016,11.016,0,0,0-7.69,5.54,23.692,23.692,0,0,0-2.73,9.35c-.35,2.98-.59,6.25-2.65,8.43-2.02,2.12-5.2,2.57-7.71,4.08a10.539,10.539,0,0,0-3.13,14.41c.99,1.45,2.42,2.78,2.53,4.53.11,1.6-.93,3.02-1.41,4.55a7.126,7.126,0,0,0,6.09,8.85c2.08.12,4.31-.69,6.17.24s2.54,3.16,3.73,4.85a8.9,8.9,0,0,0,10.86,2.8c1.53-.75,2.97-1.99,4.68-1.87s3.03,1.56,4.7,1.89c2.19.42,4.26-1.19,5.56-2.99s2.21-3.94,3.87-5.42c2.18-1.94,5.24-2.42,7.99-3.36a22.549,22.549,0,0,0,12.73-31.59"/><path class="n" d="M347.95,220.67a4.785,4.785,0,0,1,4.27,4.87h0l-2.86,64.67c-.12,7.64-11.28,11.93-19.46,11.74h0c-8.26-.19-8.52-4.24-8.63-11.51-.17-12.14-.16-16.7-.16-16.63,0,0-10.43-1.76-12.56-15.38-1.06-6.77-.7-17.87-.1-26.95.53-8.17,5.97-18.18,14.1-17.3Z"/><path class="e" d="M311.44,240.3a1.761,1.761,0,0,0,1.68,1.77,1.668,1.668,0,0,0,1.8-1.57,1.761,1.761,0,0,0-1.68-1.77A1.674,1.674,0,0,0,311.44,240.3Z"/><path class="e" d="M310.84,237.27c.22.23,1.54-.75,3.42-.74,1.88-.02,3.25.95,3.46.72.1-.1-.12-.51-.72-.95a4.792,4.792,0,0,0-2.77-.86,4.548,4.548,0,0,0-2.72.87C310.93,236.75,310.73,237.17,310.84,237.27Z"/><path class="e" d="M330.17,240.3a1.761,1.761,0,0,0,1.68,1.77,1.668,1.668,0,0,0,1.8-1.57,1.761,1.761,0,0,0-1.68-1.77A1.668,1.668,0,0,0,330.17,240.3Z"/><path class="e" d="M329.31,237.66c.22.23,1.54-.75,3.42-.74,1.88-.02,3.25.95,3.46.72.1-.1-.12-.51-.72-.95a4.792,4.792,0,0,0-2.77-.86,4.548,4.548,0,0,0-2.72.87C329.4,237.15,329.2,237.56,329.31,237.66Z"/><path class="e" d="M322.46,251.58a12.388,12.388,0,0,0-3.05-.56c-.48-.05-.93-.15-1.01-.47a2.478,2.478,0,0,1,.32-1.42c.45-1.16.93-2.38,1.43-3.65,1.98-5.2,3.42-9.47,3.21-9.55s-1.99,4.07-3.97,9.27c-.48,1.28-.93,2.5-1.37,3.67a2.743,2.743,0,0,0-.25,1.88,1.189,1.189,0,0,0,.79.7,3.87,3.87,0,0,0,.81.12A12.382,12.382,0,0,0,322.46,251.58Z"/><path class="o" d="M321.11,273.81a34.639,34.639,0,0,0,18.24-4.82s-4.62,9.6-18.24,8.3Z"/><path class="g" d="M323.24,256.11a3.389,3.389,0,0,1,3.04-1.25,3.053,3.053,0,0,1,2.13,1.15,1.951,1.951,0,0,1,.14,2.24,2.285,2.285,0,0,1-2.46.62,7.118,7.118,0,0,1-2.4-1.44,2.057,2.057,0,0,1-.54-.56.635.635,0,0,1,0-.7"/><path class="e" d="M327.99,252.89c-.31-.02-.31,2.02-2.06,3.46s-3.92,1.21-3.94,1.5c-.03.13.48.4,1.4.42a5.073,5.073,0,0,0,3.29-1.14,4.417,4.417,0,0,0,1.6-2.91C328.35,253.39,328.12,252.88,327.99,252.89Z"/><path class="e" d="M328.47,234.37c.18.51,2.06.27,4.26.54,2.21.23,3.99.88,4.28.42.13-.22-.18-.7-.9-1.2a7.094,7.094,0,0,0-3.17-1.12,7.188,7.188,0,0,0-3.34.38C328.8,233.72,328.39,234.13,328.47,234.37Z"/><path class="e" d="M311.54,231.83c.33.43,1.62-.01,3.18-.03,1.56-.07,2.87.29,3.18-.15.13-.22-.07-.64-.65-1.05a4.593,4.593,0,0,0-5.12.14C311.58,231.18,311.4,231.62,311.54,231.83Z"/><path class="e" d="M339.01,216.24a13.227,13.227,0,0,1,10.79-2.02c3.63,1.04,6.64,4.32,6.77,8.02.08,2.41-.96,4.96.11,7.13,1.02,2.06,3.52,2.9,5.29,4.4a8.115,8.115,0,0,1,1.88,9.82c-1.49,2.73-4.61,4.73-4.87,7.81-.25,2.9,2.2,5.35,2.79,8.2.66,3.14-1.08,6.4-3.58,8.48s-5.65,3.23-8.73,4.34c-2.4.87-4.98,1.74-7.47,1.18a7.65,7.65,0,0,1-5.6-6.39,10.384,10.384,0,0,1,2.84-8.22c1.75-1.93,4.2-3.56,4.62-6.1.65-3.96-4.06-7.21-3.77-11.21.15-2.06,1.6-3.77,2.82-5.47s2.27-3.83,1.52-5.77c-.97-2.52-4.27-3.17-6.27-5.02a6.1,6.1,0,0,1-1.67-6.19,6.3,6.3,0,0,1,4.94-4.21"/><path class="e" d="M340.47,213.17a9.319,9.319,0,0,1-10.99,9.2c-2.08-.38-4.36-1.43-6.16-.32-1.89,1.17-1.97,4.02-3.65,5.48-2.4,2.08-6.22.13-9.26,1.03-2.35.7-3.82,2.95-5.39,4.84s-3.9,3.69-6.26,2.99a27.62,27.62,0,0,1,.93-6.28,9.317,9.317,0,0,1,3.57-5.12,34.678,34.678,0,0,0,3.01-1.75c1.95-1.58,2.41-4.32,3.61-6.52a10.2,10.2,0,0,1,7.78-5.16c2.68-.27,5.44.53,8.05-.13,1.93-.49,3.62-1.74,5.57-2.11,3.81-.72,7.35,2.01,10.11,4.73"/><path class="p" d="M365.34,245.72a3.036,3.036,0,0,0,.3-1.57,3.937,3.937,0,0,0-2.74-3.13,20.4,20.4,0,0,0-2.99-.81,8.712,8.712,0,0,1-3.39-1.4,4.758,4.758,0,0,1-1.76-3.64,38.752,38.752,0,0,1,.21-4.29,9.606,9.606,0,0,0-.11-2.09,4.481,4.481,0,0,0-.8-1.79,6.86,6.86,0,0,0-3.28-1.88,14.209,14.209,0,0,1-3.34-1.44,11.728,11.728,0,0,1-2.46-2.01,11.533,11.533,0,0,1-2.4-3.88,8.381,8.381,0,0,1-.35-1.19c-.06-.28-.08-.43-.06-.43.05-.01.18.57.6,1.55a12.048,12.048,0,0,0,8.17,6.95,7.214,7.214,0,0,1,3.52,2.01,4.9,4.9,0,0,1,.91,2.01,10.308,10.308,0,0,1,.12,2.22,39.221,39.221,0,0,0-.22,4.23,4.306,4.306,0,0,0,1.55,3.3,8.655,8.655,0,0,0,3.2,1.36,19.715,19.715,0,0,1,3.03.89,4.844,4.844,0,0,1,2.11,1.58,3.6,3.6,0,0,1,.69,1.87,2.285,2.285,0,0,1-.25,1.23C365.47,245.62,365.35,245.73,365.34,245.72Z"/><path class="p" d="M285.15,254.22a.987.987,0,0,1-.22-.1,1.472,1.472,0,0,1-.51-.52,2.751,2.751,0,0,1,.28-2.69,3.514,3.514,0,0,1,1.46-1.39,18.743,18.743,0,0,1,2.19-.92,6.834,6.834,0,0,0,2.29-1.3,4.97,4.97,0,0,0,1.31-2.58c.23-1.02.3-2.14.48-3.3a7.159,7.159,0,0,1,1.35-3.43c1.59-2.09,4.18-3.2,6.12-5.16a9.556,9.556,0,0,0,2.13-3.61,25.162,25.162,0,0,0,.96-4.36c.42-2.99.85-6.34,2.86-9.08a6.6,6.6,0,0,1,4.11-2.65,14.434,14.434,0,0,1,4.74.12,17.182,17.182,0,0,0,4.43.26,5.756,5.756,0,0,0,3.62-1.87c1.86-2,2.93-4.7,5.21-6.08a8.7,8.7,0,0,1,6.88-.95,7.619,7.619,0,0,1,4.53,3.52,8.541,8.541,0,0,1,1.18,4.2,7.416,7.416,0,0,1-.44,2.72,4.989,4.989,0,0,1-.4.87c-.03-.01.12-.31.3-.91a7.706,7.706,0,0,0,.33-2.68,8.5,8.5,0,0,0-1.22-4.06,7.352,7.352,0,0,0-4.38-3.31,8.361,8.361,0,0,0-6.55.96,9.591,9.591,0,0,0-2.63,2.71,29.247,29.247,0,0,1-2.47,3.34,6.641,6.641,0,0,1-1.74,1.36,6.472,6.472,0,0,1-2.16.67,17.457,17.457,0,0,1-4.56-.25,14.039,14.039,0,0,0-4.57-.12,6.1,6.1,0,0,0-3.79,2.46,12.734,12.734,0,0,0-1.95,4.27,42.567,42.567,0,0,0-.83,4.57,24.541,24.541,0,0,1-1,4.45,10.048,10.048,0,0,1-2.25,3.78c-2.05,2.03-4.63,3.12-6.12,5.08a6.927,6.927,0,0,0-1.3,3.24c-.19,1.13-.27,2.26-.52,3.32a5.236,5.236,0,0,1-1.44,2.74,6.966,6.966,0,0,1-2.41,1.33,19.021,19.021,0,0,0-2.18.87,3.433,3.433,0,0,0-1.4,1.28,2.665,2.665,0,0,0-.36,2.53A2.26,2.26,0,0,0,285.15,254.22Z"/><path class="g" d="M251.74,347.95l24.15-2.21s14.86-39.15,33.18-48.64l11.87,20.73-25.41,47.73H245.92Z"/><path class="q" d="M251.74,347.95l24.15-2.21s14.86-39.15,33.18-48.64l11.87,20.73-25.41,47.73H245.92Z"/><path class="j" d="M261.28,359.01a18.994,18.994,0,0,1,2.04-3.91,18.688,18.688,0,0,1,2.48-3.64,18.994,18.994,0,0,1-2.04,3.91A19.5,19.5,0,0,1,261.28,359.01Z"/><path class="j" d="M278.39,358.53a37.725,37.725,0,0,1-5.5-6.84,37.725,37.725,0,0,1,5.5,6.84Z"/><path class="j" d="M281.36,349.55a19.454,19.454,0,0,1,0-6.34,19.454,19.454,0,0,1,0,6.34Z"/><path class="j" d="M272.86,363.55a6.756,6.756,0,0,1-2.31-1.2c-1.2-.78-2.1-1.51-2.02-1.63a6.756,6.756,0,0,1,2.31,1.2C272.03,362.7,272.94,363.43,272.86,363.55Z"/><path class="j" d="M286.73,327.57a21.417,21.417,0,0,1-1.67,4.36,21.113,21.113,0,0,1-2.14,4.15,21.417,21.417,0,0,1,1.67-4.36A21.115,21.115,0,0,1,286.73,327.57Z"/><path class="j" d="M296.52,311.71c.09.11-.78.92-1.93,1.79a6.765,6.765,0,0,1-2.24,1.37c-.09-.11.78-.92,1.93-1.79A6.562,6.562,0,0,1,296.52,311.71Z"/><path class="g" d="M332.64,362.47l12.46-50.31a17.118,17.118,0,0,1,19.65-12.73h0a17.121,17.121,0,0,1,13.88,19.46L371,368.06a24.584,24.584,0,0,1-20.41,19.9l-9.9,1.54Z"/><path class="e" d="M371.9,296.18a11.138,11.138,0,0,0-4.44-2.23,11.831,11.831,0,0,0-5.36.04,14.5,14.5,0,0,0-5.83,3.04c-3.65,3.06-5.64,7.04-6.99,9.82-.67,1.41-1.18,2.58-1.54,3.38a5.941,5.941,0,0,1-.61,1.22,7.394,7.394,0,0,1,.42-1.3c.31-.82.76-2.01,1.39-3.45a38.555,38.555,0,0,1,2.56-4.91,21.714,21.714,0,0,1,4.43-5.16,14.721,14.721,0,0,1,6.05-3.11,12,12,0,0,1,5.56.07,9.491,9.491,0,0,1,3.37,1.63,7.57,7.57,0,0,1,.76.68C371.83,296.08,371.91,296.17,371.9,296.18Z"/><path class="e" d="M301.33,307.5a3.2,3.2,0,0,1-.35.47c-.28.34-.63.76-1.07,1.28-.92,1.11-2.24,2.73-3.74,4.83a51.3,51.3,0,0,0-8.5,18.05c-1.74,7.67-1.82,14.85-2.12,20-.12,2.58-.25,4.67-.36,6.11-.06.67-.11,1.22-.15,1.66a2.3,2.3,0,0,1-.09.58,2.59,2.59,0,0,1-.02-.58c.01-.44.03-.99.05-1.66.05-1.51.11-3.59.19-6.11.2-5.15.23-12.35,1.98-20.1a49.837,49.837,0,0,1,8.71-18.15c1.55-2.08,2.91-3.67,3.88-4.74.48-.54.88-.94,1.14-1.21A3.159,3.159,0,0,1,301.33,307.5Z"/><path class="g" d="M381.15,307.39c-1.37-9-6.34-11.15-11.48-13.96-1.68-.92-9.79-3-16.22-4.57-.61-3.9-1.71-10.87-1.96-12.34-.34-2.07-32.76,3.1-33.17,3.88-.27.51-1.02,8.59-1.49,13.98l-7.76,2.71-10.13,12.88-5.27,7.49a40.2,40.2,0,0,0-6.53,14.37,78.257,78.257,0,0,0-1.45,17.42l-1.57,33.03,67.83,19.18,5.25-33.45,17.5-23.82C376.19,334.55,382.83,318.45,381.15,307.39Z"/><path class="e" d="M323.26,295.42a10.39,10.39,0,0,1-.45-2.29c-.21-1.42-.47-3.39-.72-5.57-.12-1.08-.23-2.11-.34-3.08a20.418,20.418,0,0,1-.18-2.54,3.118,3.118,0,0,1,.48-1.69c.26-.34.49-.43.5-.41.03.03-.15.18-.33.52a3.292,3.292,0,0,0-.29,1.58c.02.69.17,1.54.29,2.49.12.97.24,1.99.38,3.07.25,2.18.45,4.16.57,5.59A10.626,10.626,0,0,1,323.26,295.42Z"/><path class="e" d="M331.91,293.38a7.939,7.939,0,0,1-.72-2.1,32.934,32.934,0,0,1-.91-5.27,33.722,33.722,0,0,1-.07-5.35,7.347,7.347,0,0,1,.33-2.19c.16.01-.13,3.38.26,7.5C331.16,290.09,332.07,293.34,331.91,293.38Z"/><path class="e" d="M348.01,291.04a33.576,33.576,0,0,0-.18-7.46,33.152,33.152,0,0,0-2.34-7.09,6.809,6.809,0,0,1,1.19,1.88,19.03,19.03,0,0,1,1.82,10.5A7.364,7.364,0,0,1,348.01,291.04Z"/><path class="j" d="M301.95,320.46a18.771,18.771,0,0,1,2.66-4.2,19.49,19.49,0,0,1,3.29-3.73,32.259,32.259,0,0,1-2.88,4.04A32.93,32.93,0,0,1,301.95,320.46Z"/><path class="j" d="M317.23,308.03a16.562,16.562,0,0,1-2.7-3.1,15.7,15.7,0,0,1-2.28-3.42,32,32,0,0,1,4.98,6.52Z"/><path class="j" d="M333.19,300.22a30.875,30.875,0,0,1-3.19,3.23,31.283,31.283,0,0,1-3.31,3.11,24.105,24.105,0,0,1,6.5-6.34Z"/><path class="j" d="M328.71,290.7a9.523,9.523,0,0,1-2.49-1.91,9.642,9.642,0,0,1-2.14-2.29,9.523,9.523,0,0,1,2.49,1.91A9.641,9.641,0,0,1,328.71,290.7Z"/><path class="j" d="M342.7,283.24a23.651,23.651,0,0,1-6.85,1.47,23.651,23.651,0,0,1,6.85-1.47Z"/><path class="j" d="M345.5,305.39a23.735,23.735,0,0,1-.36-7,23.735,23.735,0,0,1,.36,7Z"/><path class="j" d="M340.4,316.04a37.146,37.146,0,0,1-3.01-8.26,18.406,18.406,0,0,1,1.75,4.04A19.142,19.142,0,0,1,340.4,316.04Z"/><path class="j" d="M326.54,323.55a20.744,20.744,0,0,1-1.92-4.23,21.209,21.209,0,0,1-1.44-4.42,20.744,20.744,0,0,1,1.92,4.23A21.209,21.209,0,0,1,326.54,323.55Z"/><path class="j" d="M313.5,332.06a18.448,18.448,0,0,1-1.12-4.19,18.147,18.147,0,0,1-.61-4.3,18.448,18.448,0,0,1,1.12,4.19A18.854,18.854,0,0,1,313.5,332.06Z"/><path class="j" d="M298,332.4a35.532,35.532,0,0,1-3.72-7.64A34.329,34.329,0,0,1,298,332.4Z"/><path class="j" d="M297.67,342.34a20.909,20.909,0,0,1-4.06,2.3,21.153,21.153,0,0,1-4.29,1.83,20.909,20.909,0,0,1,4.06-2.3A20.652,20.652,0,0,1,297.67,342.34Z"/><path class="j" d="M297.86,358.05a17.954,17.954,0,0,1-2-7.5,81.811,81.811,0,0,1,2,7.5Z"/><path class="j" d="M294.65,369.1a33.525,33.525,0,0,1-6.17-5.65,16.6,16.6,0,0,1,3.27,2.64A16.376,16.376,0,0,1,294.65,369.1Z"/><path class="j" d="M315.07,361.56c.04.15-2.26.81-4.94,1.99s-4.73,2.41-4.81,2.28a15.259,15.259,0,0,1,4.6-2.76A15.593,15.593,0,0,1,315.07,361.56Z"/><path class="j" d="M309.1,356.09a26.61,26.61,0,0,1-2.45-7.02,13.962,13.962,0,0,1,1.47,3.42A13.176,13.176,0,0,1,309.1,356.09Z"/><path class="j" d="M321.21,342.57a59.106,59.106,0,0,1-5.92,9.38,29.267,29.267,0,0,1,2.74-4.83A30.1,30.1,0,0,1,321.21,342.57Z"/><path class="j" d="M334.23,343.86a20.9,20.9,0,0,1-3.32-4.54,20.168,20.168,0,0,1-2.44-5.07c.14-.06,1.3,2.16,2.89,4.8C332.93,341.7,334.35,343.78,334.23,343.86Z"/><path class="j" d="M342.02,331.02a15.27,15.27,0,0,1-7.67.38,24.147,24.147,0,0,1,3.83-.22A26.845,26.845,0,0,1,342.02,331.02Z"/><path class="j" d="M360.53,316.39a30.039,30.039,0,0,1-4.9,2.62,29.251,29.251,0,0,1-5.13,2.15,30.039,30.039,0,0,1,4.9-2.62A30.589,30.589,0,0,1,360.53,316.39Z"/><path class="j" d="M361.76,307.09a19.724,19.724,0,0,1,1.75-4.12,19.377,19.377,0,0,1,2.22-3.89,38.316,38.316,0,0,1-3.97,8.01Z"/><path class="j" d="M373.52,314.39a33.364,33.364,0,0,1-1.52-4.55,31.489,31.489,0,0,1-1.34-4.6,17,17,0,0,1,1.84,4.45A16.647,16.647,0,0,1,373.52,314.39Z"/><path class="j" d="M375.37,324.07a15.276,15.276,0,0,1-4.39,1.6,14.886,14.886,0,0,1-4.62.7,33.854,33.854,0,0,1,4.49-1.21A35.057,35.057,0,0,1,375.37,324.07Z"/><path class="j" d="M355.21,335.89c-.15-.03.28-2.46.4-5.49.14-3.03-.08-5.49.07-5.51a16.46,16.46,0,0,1,.45,5.53A16.225,16.225,0,0,1,355.21,335.89Z"/><path class="j" d="M351.19,348.05a16.772,16.772,0,0,1-3.66-3.58,16.554,16.554,0,0,1-2.84-4.26c.13-.08,1.45,1.77,3.24,3.92C349.72,346.3,351.3,347.95,351.19,348.05Z"/><path class="j" d="M371.4,345.49a20.551,20.551,0,0,1-4.17,2.02,19.991,19.991,0,0,1-4.37,1.54,20.551,20.551,0,0,1,4.17-2.02A21.352,21.352,0,0,1,371.4,345.49Z"/><path class="j" d="M364.16,368.39a29.451,29.451,0,0,1-.21-5.5,28.416,28.416,0,0,1,.32-5.5,29.372,29.372,0,0,1,.21,5.5A28.416,28.416,0,0,1,364.16,368.39Z"/><path class="j" d="M348.65,367.07a20.927,20.927,0,0,1,.89-5.65,22.016,22.016,0,0,1,1.88-5.4c.14.05-.62,2.48-1.38,5.53S348.8,367.1,348.65,367.07Z"/><path class="j" d="M349.36,373.08c.01.15-2.49.39-5.52.9s-5.48,1.07-5.52.93a19.946,19.946,0,0,1,5.43-1.44A19.72,19.72,0,0,1,349.36,373.08Z"/><path class="j" d="M332.2,369.23a39.39,39.39,0,0,1,6.3-6.52,40.5,40.5,0,0,1-6.3,6.52Z"/><path class="j" d="M321.09,380.04a36.16,36.16,0,0,1-1.35-3.91,38.039,38.039,0,0,1-1.4-3.9,10.932,10.932,0,0,1,1.89,3.72A11.222,11.222,0,0,1,321.09,380.04Z"/><path class="j" d="M339.03,386.22a55.31,55.31,0,0,1-9.83-4.36,28.509,28.509,0,0,1,5.02,1.94A29.208,29.208,0,0,1,339.03,386.22Z"/><path class="j" d="M307.76,384.41a13.5,13.5,0,0,1,.94-3.66,14.15,14.15,0,0,1,1.43-3.49,13.5,13.5,0,0,1-.94,3.66A14.128,14.128,0,0,1,307.76,384.41Z"/><path class="j" d="M328.36,387.9c-.03.15-2.87-.31-6.41-.49-3.54-.2-6.41-.04-6.42-.19a22.977,22.977,0,0,1,6.45-.33A22.49,22.49,0,0,1,328.36,387.9Z"/><path class="e" d="M332.64,358.41q-.03,0-.03-.39a3.621,3.621,0,0,1,.16-1.13,2.5,2.5,0,0,1,1.09-1.49,3.49,3.49,0,0,1,2.44-.4l-.2.12c1.1-3.83,2.84-9.44,4.59-15.72,1.64-5.88,2.74-11.29,3.52-15.22.37-1.9.68-3.47.92-4.65a10.251,10.251,0,0,1,.4-1.7,10.768,10.768,0,0,1-.2,1.73c-.16,1.11-.41,2.71-.75,4.68-.68,3.94-1.74,9.39-3.38,15.29-1.75,6.3-3.57,11.88-4.76,15.68l-.05.15-.16-.03a3.233,3.233,0,0,0-2.22.3,2.342,2.342,0,0,0-1.05,1.31C332.65,357.85,332.71,358.42,332.64,358.41Z"/><path class="e" d="M355.06,372.32c-.09.04-.7-1.31-1.97-3.33a34.436,34.436,0,0,0-13.6-12.37c-2.13-1.07-3.54-1.56-3.51-1.65a4.07,4.07,0,0,1,1.01.27,21.092,21.092,0,0,1,2.65,1.05,31.121,31.121,0,0,1,13.75,12.5,23.928,23.928,0,0,1,1.3,2.54A3.227,3.227,0,0,1,355.06,372.32Z"/><g class="r"><path d="M336.55,354.24a34.923,34.923,0,0,1,10.55,1.91c3.59,1.35,6.91,3.92,8.23,7.52a2.465,2.465,0,0,1-.19,2.6,1.841,1.841,0,0,1-1.89.3,4.93,4.93,0,0,1-1.66-1.14c-2.2-2.04-4.49-3.84-6.77-5.8s-5.58-4.02-8.55-4.47"/></g><path class="e" d="M329.34,347.86a4.6,4.6,0,0,1-1.04.6,17.643,17.643,0,0,1-3.08,1.16,20.566,20.566,0,0,1-20.14-5.23,18.176,18.176,0,0,1-2.12-2.51,5.345,5.345,0,0,1-.62-1.03,42.735,42.735,0,0,0,3,3.28,21.206,21.206,0,0,0,19.78,5.14C327.78,348.6,329.29,347.76,329.34,347.86Z"/><g class="r"><path d="M302.88,341.62c1.68,3.66,3.66,7.35,6.85,9.8a10.98,10.98,0,0,0,6.32,2.65c3.34.05,6.2-2.22,8.75-4.38-8.25,1.29-17.55-2.45-21.92-8.07"/></g><path class="e" d="M339.86,292.62c-.16-.01.03-3.43-.38-7.62-.39-4.19-1.23-7.52-1.07-7.56a8.152,8.152,0,0,1,.69,2.15,38.205,38.205,0,0,1,1.03,10.8A8.567,8.567,0,0,1,339.86,292.62Z"/><path class="g" d="M221.24,426.44s-10.87,2.35-20.57.89c-9.1-1.36-29.47.05-29.46,12.04.01,13.37,27.17,10.07,37.77,7.95s21.15-4.04,21.15-4.04Z"/><path class="e" d="M196.84,443.57a22.386,22.386,0,0,1-1.31-4.65,22.04,22.04,0,0,1-.8-4.77,22.386,22.386,0,0,1,1.31,4.65A22.8,22.8,0,0,1,196.84,443.57Z"/><path class="e" d="M200.55,443.75a44.964,44.964,0,0,1-1.32-9.61,44.964,44.964,0,0,1,1.32,9.61Z"/><path class="e" d="M204.13,442.35a17.411,17.411,0,0,1-.77-4.17,17.62,17.62,0,0,1-.25-4.23,17.411,17.411,0,0,1,.77,4.17A17.62,17.62,0,0,1,204.13,442.35Z"/><path class="e" d="M209.75,440.95a14.357,14.357,0,0,1-1.8-7.4,27.46,27.46,0,0,1,.91,3.7A26.584,26.584,0,0,1,209.75,440.95Z"/><path class="e" d="M210.96,436.06a4.824,4.824,0,0,1,1.42-.09,12.019,12.019,0,0,1,3.82.75,4.671,4.671,0,0,1,1.18.63,1.809,1.809,0,0,1,.74,1.33,2.013,2.013,0,0,1-2.46,1.79,5.107,5.107,0,0,1-2.84-2.02,8.724,8.724,0,0,1-1.61-3.34,8.47,8.47,0,0,1,1.2-6.92,1.465,1.465,0,0,1,.81-.49,1.063,1.063,0,0,1,.9.28,2.408,2.408,0,0,1,.68,1.46,7.36,7.36,0,0,1-.14,2.72,7.665,7.665,0,0,1-1.83,3.43,6.481,6.481,0,0,1-.79.7,1.115,1.115,0,0,1-.32.19c-.03-.04.38-.34.96-1.03a7.926,7.926,0,0,0,1.63-3.38,7.348,7.348,0,0,0,.08-2.58,2.014,2.014,0,0,0-.56-1.18.7.7,0,0,0-1.05.18,8.169,8.169,0,0,0-1.05,6.49,8.361,8.361,0,0,0,1.5,3.15,4.611,4.611,0,0,0,2.52,1.86,1.568,1.568,0,0,0,1.94-1.31,1.346,1.346,0,0,0-.56-1.02,4.247,4.247,0,0,0-1.05-.6,13.308,13.308,0,0,0-3.7-.89C211.46,436.08,210.96,436.1,210.96,436.06Z"/><path class="e" d="M229.05,441.51a1.1,1.1,0,0,1-.27.09c-.21.05-.48.12-.82.2q-1.14.255-3.15.72c-2.74.6-6.72,1.45-11.66,2.4s-10.84,2.03-17.46,2.93a47.45,47.45,0,0,1-10.49.52,22.464,22.464,0,0,1-5.49-1.05,14.752,14.752,0,0,1-2.64-1.17,8.206,8.206,0,0,1-2.32-1.87l.04.04a5.526,5.526,0,0,1-.95-1.13,7.047,7.047,0,0,1-.55-5.85,9.332,9.332,0,0,1,3.48-4.55,17.323,17.323,0,0,1,4.95-2.45c.87-.25,1.71-.54,2.57-.74.86-.17,1.71-.4,2.56-.52,6.81-1.08,13.01-.53,18.15-.53,2.58.05,4.91-.02,6.95-.15a45.856,45.856,0,0,0,5.2-.66c.7-.15,1.33-.28,1.87-.39.52-.15.97-.28,1.35-.38.34-.09.62-.17.83-.23a1.086,1.086,0,0,1,.29-.06,1.019,1.019,0,0,1-.27.11c-.21.07-.48.16-.82.28-.37.12-.82.27-1.34.43-.55.13-1.17.28-1.87.44a44.2,44.2,0,0,1-5.22.75c-2.05.15-4.39.25-6.98.23-5.16.04-11.35-.46-18.07.63-.84.12-1.67.35-2.52.52-.85.19-1.67.49-2.53.73a17.3,17.3,0,0,0-4.81,2.39,8.888,8.888,0,0,0-3.29,4.3,6.561,6.561,0,0,0,.5,5.42,4.752,4.752,0,0,0,.85,1.02l.02.02.02.03a7.734,7.734,0,0,0,2.15,1.71,14.052,14.052,0,0,0,2.54,1.13,21.872,21.872,0,0,0,5.37,1.03,47.374,47.374,0,0,0,10.39-.49c6.6-.87,12.51-1.92,17.45-2.82s8.93-1.7,11.68-2.24c1.35-.27,2.41-.47,3.17-.62.34-.06.61-.11.83-.15A1.454,1.454,0,0,1,229.05,441.51Z"/><path class="e" d="M189.31,447.95a17.039,17.039,0,0,1-.26-2.78c-.12-1.71-.33-4.08-.67-6.67s-.77-4.93-1.11-6.62a19.178,19.178,0,0,1-.48-2.75,13.074,13.074,0,0,1,.84,2.67,58.743,58.743,0,0,1,1.26,6.63,60.218,60.218,0,0,1,.53,6.73A13.9,13.9,0,0,1,189.31,447.95Z"/><path class="s" d="M217.89,427.02l6.89,17.25,5.34-.99-10.23-16.84Z"/><path class="e" d="M307.65,379.74c-1.11.37-72.28-19.58-101.07-27.67a27.315,27.315,0,0,0-22.26,3.37l-.35.22a27.319,27.319,0,0,0-11.77,29.15h0a27.311,27.311,0,0,0,12.34,17.11c18.98,11.63,59.15,36.09,60.38,35.62,1.61-.62,51.78-1.92,51.78-1.92l-60.35-43.4,28.71,18.56,42.59-31.04Z"/><path class="n" d="M248.23,358.08l15.13-7.83,14.84,9.3,55.55,1.81,8.04,27.04-80.4-18.64s-14.63,1.29-15.73-1.99S248.23,358.08,248.23,358.08Z"/><path class="e" d="M293.74,401.42l-7.48,24.56.93,7.48h0a38.432,38.432,0,0,0,50.68,3.42h0a37.646,37.646,0,0,0,14.72-30.03l-.11-25.66Z"/><path class="p" d="M249.2,401.58c-.09.12-8.77-6.21-19.39-14.13s-19.16-14.44-19.08-14.55,8.77,6.21,19.39,14.14C240.75,394.94,249.29,401.46,249.2,401.58Z"/><path class="o" d="M262.34,355.15a58.981,58.981,0,0,1-7.4,2.64,59.861,59.861,0,0,1-7.56,2.15,58.983,58.983,0,0,1,7.4-2.64A61.417,61.417,0,0,1,262.34,355.15Z"/><path class="o" d="M263.47,359.76a15.4,15.4,0,0,1-2.58.48c-1.59.26-3.79.65-6.18,1.2s-4.54,1.16-6.09,1.62a16.271,16.271,0,0,1-2.53.69,11.35,11.35,0,0,1,2.41-1.04,54.715,54.715,0,0,1,6.09-1.78,55.462,55.462,0,0,1,6.25-1.06A12.8,12.8,0,0,1,263.47,359.76Z"/><path class="o" d="M262.2,363.99a70.406,70.406,0,0,1-8.34,1.92,70.485,70.485,0,0,1-8.44,1.41,70.406,70.406,0,0,1,8.34-1.92A71.184,71.184,0,0,1,262.2,363.99Z"/><path class="p" d="M242.58,321.8l13.96,45.92a1.327,1.327,0,0,0,1.17.94l38.03,2.85a1.332,1.332,0,0,1,1.23,1.33v2.37a1.336,1.336,0,0,1-1.36,1.33l-103.96-1.95a1.342,1.342,0,0,1-1.22-.86l-18.28-47.9a1.329,1.329,0,0,1,1.18-1.8l67.91-3.18A1.357,1.357,0,0,1,242.58,321.8Z"/><path class="a" d="M213.28,341.58a3.285,3.285,0,0,0-2.06,2.34,3.17,3.17,0,0,0,1.34,2.86,3.419,3.419,0,0,0,3.8.14,3.17,3.17,0,0,0,1.04-3.84c-.46-1.26-2.78-2.15-4.12-1.5"/><path class="e" d="M230.12,443.28,219.13,425.2l80.8-63.33a32.492,32.492,0,0,1,17.65-7.23h0a32.471,32.471,0,0,1,35.3,35.04l-1.29,15.45-53.63,17.23Z"/><path class="p" d="M333.74,400.36c.01.01-.07.07-.21.2l-.66.54c-.62.49-1.48,1.18-2.57,2.05-.56.45-1.19.94-1.87,1.48s-1.49,1.04-2.32,1.63-1.74,1.19-2.68,1.84c-.48.32-.96.67-1.47,1-.52.31-1.06.64-1.6.97-2.2,1.31-4.57,2.81-7.25,4.17-1.33.7-2.69,1.46-4.13,2.17-1.45.69-2.94,1.39-4.47,2.12-6.15,2.8-13.04,5.62-20.43,8.14-14.76,5.09-28.4,8.75-38.18,11.71-2.45.72-4.66,1.4-6.59,2.01s-3.61,1.11-4.96,1.57c-1.33.43-2.38.77-3.13,1.02-.34.1-.61.19-.82.25a1.687,1.687,0,0,1-.28.07,1.232,1.232,0,0,1,.27-.12c.21-.08.47-.18.8-.3.74-.27,1.78-.64,3.1-1.11,1.34-.49,3-1.03,4.94-1.66s4.13-1.34,6.57-2.08c9.75-3.05,23.38-6.77,38.11-11.85,7.37-2.51,14.25-5.31,20.4-8.08,1.53-.72,3.02-1.41,4.46-2.09,1.44-.7,2.79-1.45,4.13-2.14,2.69-1.34,5.06-2.82,7.26-4.1.55-.32,1.09-.64,1.61-.95s1-.66,1.48-.98c.95-.64,1.86-1.24,2.7-1.8s1.65-1.06,2.33-1.59,1.32-1,1.89-1.44c1.12-.84,2-1.5,2.63-1.97.28-.21.51-.37.69-.5A1.162,1.162,0,0,1,333.74,400.36Z"/><path class="p" d="M335.7,408.81a3.66,3.66,0,0,1-.82.43c-.54.25-1.33.57-2.32.94a59.3,59.3,0,0,1-16.09,3.46c-1.05.07-1.91.1-2.5.1a3.541,3.541,0,0,1-.92-.05,30.072,30.072,0,0,1,3.38-.41c2.09-.23,4.96-.64,8.09-1.31s5.91-1.49,7.91-2.13A31.293,31.293,0,0,1,335.7,408.81Z"/><path class="p" d="M296.7,364.91c.09.11-17.21,13.7-38.62,30.35s-38.86,30.05-38.95,29.94,17.2-13.7,38.63-30.35S296.62,364.8,296.7,364.91Z"/><path class="g" d="M292.03,432.11c-3.88-2.07-8.23-.85-11.94.4-2.47.83-5.03,2.15-7.54,1.44-1.81-.51-3.16-1.98-4.55-3.26a28.559,28.559,0,0,0-20.89-7.48,8.534,8.534,0,0,0-5.74,2.59c-3.81,4.12-.94,9.49,2.47,12.96a37.6,37.6,0,0,0,22.71,10.96c7.09.74,16.84-.24,24.03-3.32,4.43-1.9,6.71-7.13,4.38-11.35A7.154,7.154,0,0,0,292.03,432.11Z"/><g class="m"><path d="M292.03,435.41c-3.88-2.07-8.23-.85-11.94.4-2.47.83-5.03,2.15-7.54,1.44-1.81-.51-3.16-1.98-4.55-3.26a28.559,28.559,0,0,0-20.89-7.48,8.534,8.534,0,0,0-5.74,2.59,6.691,6.691,0,0,0-1.6,2.89,15.067,15.067,0,0,0,4.06,6.77,37.6,37.6,0,0,0,22.71,10.96c7.09.74,16.84-.24,24.03-3.32a8.745,8.745,0,0,0,5.11-6.09,7.534,7.534,0,0,0-.73-1.96A7.189,7.189,0,0,0,292.03,435.41Z"/></g><path class="e" d="M295.7,440.32a6.6,6.6,0,0,0-.95-2.3,7.556,7.556,0,0,0-2.07-2.03,8.318,8.318,0,0,0-3.56-1.36c-2.88-.34-6.21.87-9.92,1.88-1.83.48-3.83,1.23-6.02.95a8.019,8.019,0,0,1-3.1-1.07,19.883,19.883,0,0,1-2.66-2,27.79,27.79,0,0,0-10.6-6.3,27.109,27.109,0,0,0-5.27-1.22,16.781,16.781,0,0,0-4.69-.03,10.221,10.221,0,0,0-3.63,1.27,9.207,9.207,0,0,0-2.22,1.88,20.632,20.632,0,0,0-1.43,2.07,7.928,7.928,0,0,1,1.27-2.19,8.93,8.93,0,0,1,2.23-2,10.414,10.414,0,0,1,3.72-1.38,17.05,17.05,0,0,1,4.8-.04,27.036,27.036,0,0,1,5.37,1.2,30.382,30.382,0,0,1,5.56,2.46,23.6,23.6,0,0,1,2.71,1.76c.86.68,1.68,1.42,2.52,2.14a18.878,18.878,0,0,0,2.59,1.95,7.344,7.344,0,0,0,2.9,1.01c2.03.27,3.97-.43,5.83-.91,3.69-.97,7.08-2.17,10.09-1.78a8.333,8.333,0,0,1,5.76,3.65,5.407,5.407,0,0,1,.72,1.75A2.791,2.791,0,0,1,295.7,440.32Z"/><path class="e" d="M295.7,440.32a6.6,6.6,0,0,0-.95-2.3,7.556,7.556,0,0,0-2.07-2.03,8.318,8.318,0,0,0-3.56-1.36c-2.88-.34-6.21.87-9.92,1.88-1.83.48-3.83,1.23-6.02.95a8.019,8.019,0,0,1-3.1-1.07,19.883,19.883,0,0,1-2.66-2,27.79,27.79,0,0,0-10.6-6.3,27.109,27.109,0,0,0-5.27-1.22,16.781,16.781,0,0,0-4.69-.03,10.221,10.221,0,0,0-3.63,1.27,9.207,9.207,0,0,0-2.22,1.88,20.632,20.632,0,0,0-1.43,2.07,7.928,7.928,0,0,1,1.27-2.19,8.93,8.93,0,0,1,2.23-2,10.414,10.414,0,0,1,3.72-1.38,17.05,17.05,0,0,1,4.8-.04,27.036,27.036,0,0,1,5.37,1.2,30.382,30.382,0,0,1,5.56,2.46,23.6,23.6,0,0,1,2.71,1.76c.86.68,1.68,1.42,2.52,2.14a18.878,18.878,0,0,0,2.59,1.95,7.344,7.344,0,0,0,2.9,1.01c2.03.27,3.97-.43,5.83-.91,3.69-.97,7.08-2.17,10.09-1.78a8.333,8.333,0,0,1,5.76,3.65,5.407,5.407,0,0,1,.72,1.75A2.791,2.791,0,0,1,295.7,440.32Z"/><path class="e" d="M247.63,439.38a9.691,9.691,0,0,1,1.98-1.38,55.879,55.879,0,0,1,5.13-2.74,56.721,56.721,0,0,1,5.39-2.21,9.3,9.3,0,0,1,2.32-.65,13.018,13.018,0,0,1-2.19.99c-1.37.57-3.25,1.37-5.3,2.33s-3.86,1.9-5.18,2.59A11.1,11.1,0,0,1,247.63,439.38Z"/><path class="e" d="M248.96,443.26a70.321,70.321,0,0,1,7.57-3.95,69.247,69.247,0,0,1,7.8-3.48,70.318,70.318,0,0,1-7.57,3.95A69.238,69.238,0,0,1,248.96,443.26Z"/><path class="e" d="M265.02,444.94c-.08.12-4.21-2.34-9.22-5.5s-9.02-5.82-8.95-5.94,4.21,2.34,9.22,5.5S265.1,444.82,265.02,444.94Z"/><path class="e" d="M267.34,440.92a12.134,12.134,0,0,1-2.02-1.35c-1.22-.88-2.89-2.09-4.77-3.39s-3.6-2.45-4.85-3.28a11.955,11.955,0,0,1-1.97-1.42,10.039,10.039,0,0,1,2.17,1.11c1.3.75,3.06,1.85,4.95,3.16s3.53,2.57,4.69,3.52A9.748,9.748,0,0,1,267.34,440.92Z"/></g></svg>