<svg xmlns="http://www.w3.org/2000/svg" width="350" height="272.461" viewBox="0 0 350 272.461"><defs><style>.a{fill:#ebebeb;}.b,.i{fill:#e6e6e6;}.c{fill:#f0f0f0;}.d,.n{fill:#fafafa;}.e{fill:#fff;}.f,.n{opacity:0.4;}.g{fill:#e0e0e0;}.h{fill:#f5f5f5;}.i{opacity:0.7;}.j{fill:#263238;}.k{fill:#ff8b7b;}.l,.q,.u,.x{opacity:0.2;}.m{fill:#407bff;}.o{fill:#ff5652;}.p,.q{fill:#7790c9;}.r{fill:#adc1ef;}.s{fill:#c2d1f4;}.t,.u{fill:#565a62;}.v{fill:#dae4fa;}.w,.x{fill:#a9bbe2;}.y{fill:#96acde;}.z{opacity:0.1;}</style></defs><g transform="translate(0 -38.33)"><g transform="translate(0 49.964)"><g transform="translate(0 0)"><rect class="a" width="350" height="0.175" transform="translate(0 229.215)"/><rect class="a" width="37.149" height="0.175" transform="translate(277.781 240.478)"/><rect class="a" width="41.062" height="0.175" transform="translate(190.792 238.287)"/><rect class="a" width="13.433" height="0.175" transform="translate(266.14 237.279)"/><rect class="a" width="30.233" height="0.175" transform="translate(70.329 235.158)"/><rect class="a" width="10.808" height="0.175" transform="translate(55.622 235.158)"/><rect class="a" width="37.94" height="0.175" transform="translate(92.029 238.112)"/><path class="a" d="M177.37,252.945H42.207a4,4,0,0,1-4-4v-190a4,4,0,0,1,4-4h135.17a4,4,0,0,1,4,4v190A4.011,4.011,0,0,1,177.37,252.945ZM42.207,55.125a3.827,3.827,0,0,0-3.822,3.822v190a3.827,3.827,0,0,0,3.822,3.822h135.17a3.827,3.827,0,0,0,3.822-3.822v-190a3.827,3.827,0,0,0-3.822-3.822Z" transform="translate(-11.463 -54.95)"/><path class="a" d="M393.667,252.945H258.5a4,4,0,0,1-4-4v-190a4,4,0,0,1,4-4h135.17a4,4,0,0,1,4,4v190A4,4,0,0,1,393.667,252.945ZM258.5,55.125a3.827,3.827,0,0,0-3.822,3.822v190a3.827,3.827,0,0,0,3.822,3.822h135.17a3.827,3.827,0,0,0,3.822-3.822v-190a3.827,3.827,0,0,0-3.822-3.822Z" transform="translate(-76.35 -54.95)"/></g><g transform="translate(50.293 9.128)"><g transform="translate(144.097)"><rect class="b" width="99.512" height="93.128"/><rect class="c" width="104.167" height="93.128" transform="translate(0.728)"/><rect class="b" width="99.512" height="4.585" transform="translate(0 93.135)"/><rect class="c" width="104.167" height="4.585" transform="translate(9.681 93.135)"/><rect class="d" width="78.085" height="89.117" transform="translate(97.367 7.529) rotate(90)"/><path class="e" d="M309.97,156.825,319.2,78.74h31.549l-9.226,78.085Z" transform="translate(-287.381 -71.215)"/><rect class="b" width="78.085" height="0.952" transform="translate(97.369 7.528) rotate(90)"/><g class="f" transform="translate(4.676 6.062)"><path class="g" d="M386.37,78.932h-101.3l-.693-2.282h101.3Z" transform="translate(-284.38 -76.65)"/><path class="g" d="M386.37,84.362h-101.3l-.693-2.282h101.3Z" transform="translate(-284.38 -78.279)"/><path class="g" d="M386.37,89.792h-101.3l-.693-2.282h101.3Z" transform="translate(-284.38 -79.908)"/><path class="g" d="M386.37,95.222h-101.3l-.693-2.282h101.3Z" transform="translate(-284.38 -81.537)"/><path class="g" d="M386.37,100.652h-101.3l-.693-2.282h101.3Z" transform="translate(-284.38 -83.166)"/><path class="g" d="M386.37,106.082h-101.3l-.693-2.282h101.3Z" transform="translate(-284.38 -84.795)"/><path class="g" d="M386.37,111.512h-101.3l-.693-2.282h101.3Z" transform="translate(-284.38 -86.424)"/><path class="g" d="M386.37,116.942h-101.3l-.693-2.282h101.3Z" transform="translate(-284.38 -88.053)"/><path class="g" d="M386.37,122.372h-101.3l-.693-2.282h101.3Z" transform="translate(-284.38 -89.682)"/><path class="g" d="M386.37,127.8h-101.3l-.693-2.282h101.3Z" transform="translate(-284.38 -91.311)"/><path class="g" d="M386.37,133.232h-101.3l-.693-2.282h101.3Z" transform="translate(-284.38 -92.94)"/><path class="g" d="M386.37,138.662h-101.3l-.693-2.282h101.3Z" transform="translate(-284.38 -94.569)"/><path class="g" d="M386.37,144.092h-101.3l-.693-2.282h101.3Z" transform="translate(-284.38 -96.198)"/><path class="g" d="M386.37,149.522h-101.3l-.693-2.282h101.3Z" transform="translate(-284.38 -97.827)"/><path class="g" d="M386.37,154.952h-101.3l-.693-2.282h101.3Z" transform="translate(-284.38 -99.456)"/><path class="g" d="M386.37,160.382h-101.3l-.693-2.282h101.3Z" transform="translate(-284.38 -101.085)"/><path class="g" d="M386.37,165.812h-101.3l-.693-2.282h101.3Z" transform="translate(-284.38 -102.714)"/><path class="g" d="M386.37,171.242h-101.3l-.693-2.282h101.3Z" transform="translate(-284.38 -104.343)"/></g></g><g transform="translate(6.449 2.541)"><rect class="b" width="82.341" height="81.725"/><rect class="c" width="85.946" height="81.725" transform="translate(0.84)"/><rect class="e" width="73.794" height="78.008" transform="translate(82.815 3.97) rotate(90)"/><rect class="b" width="73.794" height="0.49" transform="translate(82.818 3.968) rotate(90)"/></g><g transform="translate(0 98.706)"><g transform="translate(0 17.38)"><g transform="translate(3.124 7.561)"><rect class="c" width="22.358" height="92.092" transform="translate(0 0)"/><rect class="c" width="85.862" height="4.347" transform="translate(4.291 92.092)"/><rect class="h" width="72.086" height="92.092" transform="translate(94.445 92.092) rotate(180)"/><rect class="c" width="54.502" height="22.491" transform="translate(85.653 57.295) rotate(180)"/><rect class="c" width="54.502" height="22.491" transform="translate(85.653 83.885) rotate(180)"/><rect class="c" width="54.502" height="22.491" transform="translate(85.653 30.698) rotate(180)"/></g><rect class="c" width="75.068" height="7.56" transform="translate(25.482 0.002)"/><rect class="b" width="25.48" height="7.56" transform="translate(25.48 7.56) rotate(180)"/></g><g transform="translate(10.503 0)"><g transform="translate(1.227 1.105)"><rect class="c" width="22.225" height="16.275" transform="translate(22.225 16.275) rotate(180)"/><rect class="h" width="39.431" height="16.275" transform="translate(22.222 0.002)"/><rect class="i" width="61.887" height="1.827" transform="translate(61.887 5.239) rotate(180)"/></g><rect class="c" width="23.45" height="5.285" transform="translate(23.45 5.285) rotate(180)"/><rect class="h" width="40.656" height="5.285" transform="translate(23.449 0.001)"/></g></g><g transform="translate(174.428 116.088)"><path class="c" d="M396.126,233.83h-75.1l8.176,104h75.1Z" transform="translate(-321.03 -233.83)"/><path class="h" d="M401.666,233.83h-75.1l8.176,104h75.1Z" transform="translate(-322.692 -233.83)"/><path class="e" d="M354.844,329.537,348.95,254.56H395l5.894,74.977Z" transform="translate(-329.406 -240.049)"/></g><g transform="translate(148.827 178.226)"><circle class="b" cx="17.339" cy="17.339" r="17.339" transform="translate(0 24.521) rotate(-45)"/><path class="i" d="M331.128,341.558c-1.029-1.071-1.442-2.345-.924-2.856s1.785-.049,2.814,1.022,1.442,2.345.924,2.856S332.157,342.622,331.128,341.558Z" transform="translate(-298.114 -327.368)"/><path class="i" d="M320.3,337.072c-1.463-.28-2.534-1.085-2.394-1.8s1.435-1.064,2.891-.784,2.534,1.085,2.394,1.8S321.762,337.352,320.3,337.072Z" transform="translate(-294.488 -326.137)"/><path class="i" d="M322.56,345.432c-1.4-.49-2.3-1.589-1.995-2.45s1.687-1.162,3.087-.665,2.3,1.589,2,2.45S323.967,345.922,322.56,345.432Z" transform="translate(-295.272 -328.443)"/></g></g></g><g transform="translate(39.277 294.943)"><ellipse class="h" cx="135.723" cy="7.924" rx="135.723" ry="7.924"/></g><g transform="translate(87.52 104.282)"><path class="j" d="M192.45,151.183c-8.9-3.115-5.334-28.154-26.719-14.686-4.844,3.052-10.731,23.072-6.664,27.72C164.744,170.706,202.943,154.858,192.45,151.183Z" transform="translate(-134.832 -132.547)"/><path class="k" d="M158.029,188.9c-.175.329-.28.511-.427.749l-.406.651c-.273.427-.567.833-.861,1.232a27.265,27.265,0,0,1-1.925,2.3,22.89,22.89,0,0,1-4.732,3.857,17.717,17.717,0,0,1-5.866,2.324,16.207,16.207,0,0,1-3.178.322c-.532.021-1.057-.035-1.589-.056l-.784-.091-.392-.049c-.154-.021-.371-.063-.546-.1a7.8,7.8,0,0,1-3.528-1.918,13.433,13.433,0,0,1-2.107-2.513,26.778,26.778,0,0,1-2.59-5.215,51.274,51.274,0,0,1-2.688-10.682l3.01-.679a77.67,77.67,0,0,0,3.948,9.471,25.278,25.278,0,0,0,2.534,4.067,8.177,8.177,0,0,0,1.421,1.442,2.394,2.394,0,0,0,1.12.539l.917.042c.357-.021.714.007,1.071-.042a12.337,12.337,0,0,0,2.086-.336,13.625,13.625,0,0,0,3.892-1.743,17.62,17.62,0,0,0,3.4-2.933,21.132,21.132,0,0,0,1.484-1.771c.231-.308.455-.623.665-.938l.308-.469.245-.4Z" transform="translate(-125.443 -146.495)"/><path class="j" d="M169.173,182.74c-6.279.028-11.263,5.824-11.263,5.824l7.672,10.36s6.209-5.838,6.867-9.149C173.142,186.338,172.953,182.719,169.173,182.74Z" transform="translate(-134.893 -147.605)"/><path class="k" d="M128.719,179.22l2.751-4.55-6.37.161s-.5,3,1.176,4.9Z" transform="translate(-125.029 -145.184)"/><path class="k" d="M131.241,167.06l-4.7,1-1.407,4.487,6.363-.161Z" transform="translate(-125.059 -142.901)"/><path class="k" d="M215.209,400.994l-6.013.574-3.066-14.014,6.013-.574Z" transform="translate(-149.359 -208.877)"/><path class="k" d="M290.48,377.117l-4.557,4.053-10.843-9.247,4.55-4.053Z" transform="translate(-170.044 -203.144)"/><path class="j" d="M288.17,382.924l2.639-6.314a.483.483,0,0,1,.574-.287l5.3,1.372a.978.978,0,0,1,.623,1.323c-.959,2.184-1.533,3.192-2.7,5.971-.714,1.708-2.044,5.593-3.031,7.952-.966,2.31-3.374,1.512-3.171.441.9-4.8.343-7.357-.28-9.366A1.619,1.619,0,0,1,288.17,382.924Z" transform="translate(-173.936 -205.675)"/><path class="j" d="M204.805,405.22h7.231a.6.6,0,0,1,.574.441l1.575,5.719a.9.9,0,0,1-.882,1.148c-2.527-.042-3.759-.189-6.944-.189-1.953,0-7.014.2-9.716.2-2.639,0-3.192-2.674-2.1-2.912,4.9-1.085,7.728-2.583,9.24-4.011A1.475,1.475,0,0,1,204.805,405.22Z" transform="translate(-145.725 -214.349)"/><path class="l" d="M206.13,387.564l1.582,7.224h6.139l-1.7-7.8Z" transform="translate(-149.359 -208.88)"/><path class="l" d="M279.637,367.87l-4.557,4.053,5.593,4.767,4.557-4.053Z" transform="translate(-170.044 -203.144)"/><path class="j" d="M165.533,181.394s-2.52,1.764,12.67,34.657c9.464-2.632,19.243-5.355,23.849-6.636-3.1-9.6-4.781-15.575-5.684-36.785a72.68,72.68,0,0,0-10.5,1.484,78.027,78.027,0,0,0-10.829,3.017C170.5,178.846,165.533,181.394,165.533,181.394Z" transform="translate(-137.133 -144.572)"/><path class="k" d="M185.393,157.76c.287,3.675,1.386,10.248,4.466,11.893a20.613,20.613,0,0,1-4.956,14.973c-8.281-4.3-5.873-11.956-5.873-11.956,3.626-2.009,2.723-4.865,1.295-7.385Z" transform="translate(-141.132 -140.111)"/><path class="l" d="M188.3,167.137l-4.158-1.407a6.771,6.771,0,0,0,.616,2.373c.707,1.365,3.017,1.876,4.669,1.708A13.4,13.4,0,0,1,188.3,167.137Z" transform="translate(-142.762 -142.502)"/><path class="k" d="M170.9,147.754c1.61,5.831,2.163,8.337,5.782,10.738,5.446,3.619,12.264.371,12.432-5.824.154-5.579-2.5-14.175-8.778-15.309A8.248,8.248,0,0,0,170.9,147.754Z" transform="translate(-138.697 -133.948)"/><path class="j" d="M178.419,136.049c-.476,3.962-3.43,17.584-9,17.486-4.6-4.011-2.324-11.571-.9-14.637S178.419,136.049,178.419,136.049Z" transform="translate(-137.524 -133.597)"/><path class="j" d="M180.072,138.239c2.8,1.491,8.309,2.142,7.427-.133s-.623-4.158-4.417-4.116S180.072,138.239,180.072,138.239Z" transform="translate(-141.522 -132.98)"/><path class="k" d="M171.273,158.994a4.428,4.428,0,0,0,2.2,2.569c1.386.693,2.373-.476,2.233-1.939-.126-1.316-1-3.262-2.513-3.346A1.983,1.983,0,0,0,171.273,158.994Z" transform="translate(-138.869 -139.665)"/><g transform="translate(40.831 66.621)"><path class="m" d="M183.6,232.585s-1.379,48.181,2.485,66.367c4.018,18.914,11.851,45.955,11.851,45.955l11.424-.553s-5.53-34.307-6.867-48.93c-1.848-20.16-1.421-67.7-1.421-67.7Z" transform="translate(-183.358 -227.72)"/><path class="n" d="M183.6,232.585s-1.379,48.181,2.485,66.367c4.018,18.914,11.851,45.955,11.851,45.955l11.424-.553s-5.53-34.307-6.867-48.93c-1.848-20.16-1.421-67.7-1.421-67.7Z" transform="translate(-183.358 -227.72)"/><path class="l" d="M207.059,251.545c-1.778-4.459-3.339-6.916-3.535-2.471-.406,9.4,1.232,20.146,3.794,25.473C207.157,266.581,207.094,258.447,207.059,251.545Z" transform="translate(-189.389 -233.422)"/></g><path class="j" d="M215.4,392.886l-13.027.623-1.533-4.76,14.112-1.1Z" transform="translate(-147.772 -209.078)"/><g transform="translate(47.37 64.85)"><path class="m" d="M192.7,230.069s14.63,39.354,24.486,61.082c7.966,17.549,36.183,42.077,36.183,42.077l6.412-5.418s-20.4-27.958-25.907-39.858c-17.619-38.108-13.02-54.25-23.625-62.762Z" transform="translate(-192.7 -225.19)"/><path class="n" d="M192.7,230.069s14.63,39.354,24.486,61.082c7.966,17.549,36.183,42.077,36.183,42.077l6.412-5.418s-20.4-27.958-25.907-39.858c-17.619-38.108-13.02-54.25-23.625-62.762Z" transform="translate(-192.7 -225.19)"/></g><path class="j" d="M284.645,370.194l-7.168,6.328-3.647-2.639,8.449-7.2Z" transform="translate(-169.669 -202.787)"/><path class="m" d="M207.035,223l1.673,1.834c.126.14-.021.364-.294.441L183.4,232.241c-.217.063-.42.007-.476-.126l-.812-2.072c-.056-.147.1-.322.329-.385l24.15-6.72A.439.439,0,0,1,207.035,223Z" transform="translate(-142.151 -159.656)"/><path class="j" d="M213.569,226.831l.644-.182c.126-.035.21-.133.175-.21l-1.078-2.688c-.028-.077-.161-.112-.294-.077l-.644.182c-.126.035-.21.133-.175.21l1.078,2.688C213.31,226.831,213.443,226.866,213.569,226.831Z" transform="translate(-151.177 -159.881)"/><path class="j" d="M186.049,234.491l.644-.182c.126-.035.21-.133.175-.21l-1.078-2.688c-.028-.077-.161-.112-.294-.077l-.644.182c-.126.035-.21.133-.175.21l1.078,2.688C185.79,234.491,185.923,234.526,186.049,234.491Z" transform="translate(-142.921 -162.179)"/><path class="j" d="M199.809,230.661l.644-.182c.126-.035.21-.133.175-.21l-1.078-2.688c-.028-.077-.161-.112-.294-.077l-.644.182c-.126.035-.21.133-.175.21l1.078,2.688C199.55,230.661,199.683,230.7,199.809,230.661Z" transform="translate(-147.049 -161.03)"/><path class="j" d="M184.317,151.5c.1.483.441.819.756.749s.49-.511.385-.994-.441-.819-.756-.749S184.212,151.017,184.317,151.5Z" transform="translate(-142.806 -137.932)"/><path class="j" d="M192.087,149.86c.1.483.441.819.756.749s.49-.511.385-.994-.441-.819-.756-.749S191.982,149.384,192.087,149.86Z" transform="translate(-145.137 -137.44)"/><path class="j" d="M192.46,148.714l1.085-.574S193.139,149.162,192.46,148.714Z" transform="translate(-145.258 -137.225)"/><path class="o" d="M190.29,151.91a13.247,13.247,0,0,0,2.359,2.709A2.113,2.113,0,0,1,191,155.3Z" transform="translate(-144.607 -138.356)"/><path class="j" d="M187.92,159.454a.137.137,0,0,0,.056-.147.144.144,0,0,0-.168-.112,3.94,3.94,0,0,1-3.423-.833.144.144,0,0,0-.2.2,4.118,4.118,0,0,0,3.682.917A.415.415,0,0,1,187.92,159.454Z" transform="translate(-142.762 -140.279)"/><path class="j" d="M181.415,148.988a.255.255,0,0,0,.1-.112,2.3,2.3,0,0,1,1.61-1.323.29.29,0,1,0-.084-.574,2.848,2.848,0,0,0-2.051,1.652.286.286,0,0,0,.14.385A.3.3,0,0,0,181.415,148.988Z" transform="translate(-141.808 -136.876)"/><path class="j" d="M193.868,145.347a.185.185,0,0,0,.042-.035.281.281,0,0,0-.007-.406,2.849,2.849,0,0,0-2.5-.833.287.287,0,0,0,.126.56,2.3,2.3,0,0,1,1.974.679A.287.287,0,0,0,193.868,145.347Z" transform="translate(-144.874 -135.993)"/><path class="k" d="M213.69,180.49c.539.623,1.211,1.358,1.841,2.03s1.309,1.351,1.988,2.009c1.351,1.316,2.73,2.6,4.179,3.78a43.251,43.251,0,0,0,9.233,5.978,31.6,31.6,0,0,0,10.591,2.261c1.89.14,3.808.189,5.733.154,1.918-.014,3.885-.112,5.761-.252l.574,3.031a57.594,57.594,0,0,1-12.138,1.764,42.028,42.028,0,0,1-6.272-.238,26.231,26.231,0,0,1-6.391-1.512,37.133,37.133,0,0,1-5.754-2.814,47.756,47.756,0,0,1-5.18-3.563c-1.638-1.288-3.213-2.639-4.7-4.074q-1.113-1.082-2.184-2.212c-.728-.77-1.379-1.5-2.107-2.4Z" transform="translate(-150.178 -146.93)"/><path class="k" d="M270.269,205.6l6.027-.945-4.977-4.739s-2.366,1.918-2.359,4.452Z" transform="translate(-168.208 -152.759)"/><path class="k" d="M280.558,198.816l-4.193-2.366-4.025,2.429,4.97,4.739Z" transform="translate(-169.222 -151.718)"/><path class="j" d="M207.985,172.63c2.59.063,7.749,7.49,7.749,7.49l-7.427,9.2s-4.326-6.062-4.179-9.429C204.282,176.389,205.031,172.56,207.985,172.63Z" transform="translate(-148.758 -144.572)"/><path class="m" d="M286.376,389.33a.942.942,0,0,1-.21-.1.51.51,0,0,1-.266-.42c-.021-.777,1.792-2.023,2-2.163a.146.146,0,0,1,.224.147c-.133.8-.462,2.191-1.162,2.52A.81.81,0,0,1,286.376,389.33Zm1.4-2.247c-.714.518-1.6,1.309-1.589,1.715a.2.2,0,0,0,.119.182.535.535,0,0,0,.532.063C287.223,388.868,287.559,388.147,287.776,387.083Z" transform="translate(-173.29 -208.77)"/><path class="m" d="M285.14,387.308a1.136,1.136,0,0,1-.161-.077.5.5,0,0,1-.182-.6.759.759,0,0,1,.413-.49c.8-.385,2.422.287,2.485.315a.127.127,0,0,1,.084.112.14.14,0,0,1-.056.133A3.848,3.848,0,0,1,285.14,387.308Zm2.135-.707a3.252,3.252,0,0,0-1.946-.2.457.457,0,0,0-.259.308c-.049.182.007.245.07.287a3.138,3.138,0,0,0,2.184-.371C287.31,386.608,287.3,386.608,287.275,386.6Z" transform="translate(-172.95 -208.589)"/><path class="m" d="M204.087,406.277a2.412,2.412,0,0,1-1.414-.336.9.9,0,0,1-.364-.693.4.4,0,0,1,.182-.392c.658-.441,3.115.672,3.6.9a.146.146,0,0,1,.084.147.141.141,0,0,1-.112.126A10.139,10.139,0,0,1,204.087,406.277Zm-1.155-1.246a.529.529,0,0,0-.287.063.133.133,0,0,0-.056.14.616.616,0,0,0,.252.483,4.014,4.014,0,0,0,2.716.126A8.563,8.563,0,0,0,202.932,405.031Z" transform="translate(-148.213 -214.209)"/><path class="m" d="M206.587,405.406a.084.084,0,0,1-.056-.014c-.819-.336-2.464-1.652-2.373-2.338.021-.147.119-.336.5-.378,1.428-.175,2.044,2.443,2.072,2.548a.138.138,0,0,1-.049.14A.123.123,0,0,1,206.587,405.406Zm-1.8-2.45a.463.463,0,0,0-.1.007c-.154.021-.231.063-.245.133-.056.4,1.085,1.435,1.918,1.9C206.174,404.363,205.656,402.956,204.788,402.956Z" transform="translate(-148.767 -213.583)"/><path class="j" d="M184.69,150.344l1.085-.574S185.376,150.8,184.69,150.344Z" transform="translate(-142.927 -137.714)"/></g><g transform="translate(138.166 38.33)"><g transform="translate(18.141 144.312)"><path class="p" d="M232.14,244.49s-12.439,10.164-7.812,32.522c2.73,13.181,10.955,19.88,18.158,18.417s12.166-10.843,9.534-24.045C247.561,249,232.14,244.49,232.14,244.49Z" transform="translate(-223.296 -244.49)"/><path class="q" d="M232.14,244.49s-12.439,10.164-7.812,32.522c2.73,13.181,10.955,19.88,18.158,18.417s12.166-10.843,9.534-24.045C247.561,249,232.14,244.49,232.14,244.49Z" transform="translate(-223.296 -244.49)"/></g><path class="r" d="M324.579,182.352s-22.848-5.082-44.261,20.356c-12.628,15-12.887,30.457-4.725,37.38s23.373,4.158,36.113-10.745C333.315,204.066,324.579,182.352,324.579,182.352Z" transform="translate(-219.18 -81.412)"/><path class="s" d="M302.115,38.33s-5.1,1.407-6.692,8.757c-.938,4.333.651,7.455,3.017,7.973s5.11-1.645,6.076-5.971C306.161,41.746,302.115,38.33,302.115,38.33Z" transform="translate(-226.711 -38.33)"/><g transform="translate(30.842 0.364)"><path class="t" d="M245.542,264.768a109.43,109.43,0,0,1-4.081-32,126.341,126.341,0,0,1,4.578-31,149.913,149.913,0,0,1,4.83-14.574c.917-2.373,1.9-4.711,2.919-7.021.5-1.162,1.05-2.3,1.568-3.444l.784-1.659.77-1.61c4.081-8.582,7.959-17.206,11.466-25.97a264.02,264.02,0,0,0,9.191-26.691A162.76,162.76,0,0,0,282.992,93.2a99.272,99.272,0,0,0-.868-28.063A70.238,70.238,0,0,0,271.582,38.85a71.726,71.726,0,0,1,13.657,25.529A104.182,104.182,0,0,1,289.4,93.485a171.409,171.409,0,0,1-2.436,29.386,275.3,275.3,0,0,1-6.433,28.707c-2.611,9.436-5.607,18.739-8.778,27.937l-.595,1.722-.3.861-.273.812c-.35,1.085-.742,2.163-1.064,3.255q-1.029,3.266-1.9,6.545a132.522,132.522,0,0,0-2.786,13.174,105.233,105.233,0,0,0-.931,26.173,85.436,85.436,0,0,0,5.957,24.5Z" transform="translate(-241.44 -38.85)"/><path class="u" d="M245.542,264.768a109.43,109.43,0,0,1-4.081-32,126.341,126.341,0,0,1,4.578-31,149.913,149.913,0,0,1,4.83-14.574c.917-2.373,1.9-4.711,2.919-7.021.5-1.162,1.05-2.3,1.568-3.444l.784-1.659.77-1.61c4.081-8.582,7.959-17.206,11.466-25.97a264.02,264.02,0,0,0,9.191-26.691A162.76,162.76,0,0,0,282.992,93.2a99.272,99.272,0,0,0-.868-28.063A70.238,70.238,0,0,0,271.582,38.85a71.726,71.726,0,0,1,13.657,25.529A104.182,104.182,0,0,1,289.4,93.485a171.409,171.409,0,0,1-2.436,29.386,275.3,275.3,0,0,1-6.433,28.707c-2.611,9.436-5.607,18.739-8.778,27.937l-.595,1.722-.3.861-.273.812c-.35,1.085-.742,2.163-1.064,3.255q-1.029,3.266-1.9,6.545a132.522,132.522,0,0,0-2.786,13.174,105.233,105.233,0,0,0-.931,26.173,85.436,85.436,0,0,0,5.957,24.5Z" transform="translate(-241.44 -38.85)"/></g><path class="v" d="M283.251,325.84l-.721,8.008-4.662,52.031a3.555,3.555,0,0,1-3.542,3.241h-59.1a3.555,3.555,0,0,1-3.542-3.241l-4.662-52.031-.721-8.008Z" transform="translate(-200.056 -124.583)"/><rect class="m" width="18.753" height="0.7" transform="translate(80.677 248.883) rotate(-84.888)"/><rect class="m" width="4.431" height="0.7" transform="translate(82.837 224.74) rotate(-84.888)"/><g transform="translate(27.318 36.414)"><path class="w" d="M242.2,90.35s-13.2,17.577.259,45.759c7.938,16.618,21.063,22.827,30.149,18.529s12.614-18.382,4.8-35.063C264.157,91.295,242.2,90.35,242.2,90.35Z" transform="translate(-236.406 -90.35)"/><path class="x" d="M242.2,90.35s-13.2,17.577.259,45.759c7.938,16.618,21.063,22.827,30.149,18.529s12.614-18.382,4.8-35.063C264.157,91.295,242.2,90.35,242.2,90.35Z" transform="translate(-236.406 -90.35)"/></g><path class="l" d="M283.254,325.84l-.721,8.008h-75.5l-.721-8.008Z" transform="translate(-200.059 -124.583)"/><path class="v" d="M285.146,325.611H199.053a1.673,1.673,0,0,1-1.673-1.673V313.4a1.673,1.673,0,0,1,1.673-1.673h86.093a1.673,1.673,0,0,1,1.673,1.673v10.535A1.673,1.673,0,0,1,285.146,325.611Z" transform="translate(-197.38 -120.35)"/><g transform="translate(65.026 14.594)"><circle class="y" cx="28.028" cy="28.028" r="28.028" transform="translate(0 33.706) rotate(-36.964)"/><path class="z" d="M358.744,112.117a22.957,22.957,0,1,0-41.062,7.5,23.537,23.537,0,1,1,41.062-7.5Z" transform="translate(-297.008 -65.909)"/><g transform="translate(27.608 25.508)"><path class="d" d="M350,113.428l-2.8,5.929a1.8,1.8,0,0,1-1.085.959,1.879,1.879,0,0,1-1.47-.07l-5.215-2.464-1.974,4.179a1.9,1.9,0,0,1-2.52.9,1.894,1.894,0,0,1-1.008-1.085,1.819,1.819,0,0,1,.063-1.456l1.988-4.214-5.173-2.443a1.835,1.835,0,0,1-.966-1.064,1.8,1.8,0,0,1,.063-1.449,1.887,1.887,0,0,1,2.52-.91l12.1,5.712,1.162-2.464L333.625,107.8a1.832,1.832,0,0,1-.98-1.064,1.8,1.8,0,0,1,.077-1.456l2.786-5.908a1.813,1.813,0,0,1,1.071-.973,1.832,1.832,0,0,1,1.449.07l5.131,2.422,1.974-4.179a1.861,1.861,0,0,1,2.576-.868,1.892,1.892,0,0,1,.889,2.513l-1.974,4.179,5.257,2.478a1.889,1.889,0,0,1,.994,1.092,1.8,1.8,0,0,1-.049,1.449,1.957,1.957,0,0,1-2.576.924l-12.1-5.712-1.155,2.443,12.061,5.691a1.889,1.889,0,0,1,.994,1.092A1.739,1.739,0,0,1,350,113.428Z" transform="translate(-329.715 -95.619)"/></g></g></g></g></svg>