<svg xmlns="http://www.w3.org/2000/svg" xmlns:xlink="http://www.w3.org/1999/xlink" width="324.941" height="211.698" viewBox="0 0 324.941 211.698"><defs><style>.a{fill:#f5aa8d;}.b{fill:#ca5645;}.c{fill:#100142;}.d{fill:url(#a);}.e{fill:#e37c58;}.f{fill:url(#b);}.g,.i,.j,.l,.m,.q{opacity:0.32;}.g{fill:url(#c);}.h{fill:url(#d);}.i{fill:url(#e);}.j{fill:url(#f);}.k{fill:url(#g);}.l{fill:url(#h);}.m{fill:url(#i);}.n{opacity:0.75;fill:url(#j);}.o{fill:url(#k);}.p{fill:url(#l);}.q{fill:url(#m);}.r{fill:url(#n);}.s{fill:url(#o);}.t{fill:url(#p);}</style><linearGradient id="a" x1="1.116" y1="0.383" x2="0.08" y2="0.549" gradientUnits="objectBoundingBox"><stop offset="0" stop-color="#fc5653"/><stop offset="1" stop-color="#fc0053"/></linearGradient><linearGradient id="b" x1="0.583" y1="0.434" x2="0.23" y2="1" gradientUnits="objectBoundingBox"><stop offset="0" stop-color="#9fcef7"/><stop offset="1" stop-color="#4d7ae7"/></linearGradient><linearGradient id="c" y1="0.5" x2="1" y2="0.5" gradientUnits="objectBoundingBox"><stop offset="0" stop-color="#001b83"/><stop offset="0.995" stop-color="#272283"/></linearGradient><linearGradient id="d" x1="0.691" y1="0.148" x2="0.286" y2="0.967" xlink:href="#b"/><linearGradient id="e" x1="0" y1="0.5" x2="1" y2="0.5" xlink:href="#c"/><linearGradient id="f" x1="0.001" y1="0.5" x2="1" y2="0.5" xlink:href="#c"/><linearGradient id="g" x1="0.594" y1="0.565" x2="0.257" y2="1.145" xlink:href="#b"/><linearGradient id="h" x1="1.288" y1="0.141" x2="0.06" y2="0.869" xlink:href="#c"/><linearGradient id="i" x1="0" y1="0.5" x2="1" y2="0.5" xlink:href="#c"/><linearGradient id="j" x1="1.029" y1="0.8" x2="0.024" y2="0.231" gradientUnits="objectBoundingBox"><stop offset="0" stop-color="#232350"/><stop offset="1" stop-color="#17256e"/></linearGradient><linearGradient id="k" x1="1.08" y1="0.501" x2="0.017" y2="0.501" gradientUnits="objectBoundingBox"><stop offset="0" stop-color="#f83bb0"/><stop offset="0.524" stop-color="#3b9ef4"/><stop offset="1" stop-color="#1e30dd"/></linearGradient><linearGradient id="l" x1="0.915" y1="0.069" x2="0.078" y2="0.938" xlink:href="#k"/><linearGradient id="m" x1="1.082" y1="-0.175" x2="0.11" y2="1.035" gradientUnits="objectBoundingBox"><stop offset="0" stop-color="#9300c2"/><stop offset="0.406" stop-color="#5600b9"/><stop offset="1" stop-color="#4000a3"/></linearGradient><linearGradient id="n" x1="0.001" y1="0.503" x2="1.001" y2="0.503" gradientUnits="objectBoundingBox"><stop offset="0" stop-color="#fff84a"/><stop offset="1" stop-color="#ffec38"/></linearGradient><linearGradient id="o" x1="0" y1="0.5" x2="0.999" y2="0.5" xlink:href="#n"/><radialGradient id="p" cx="0.5" cy="0.5" r="0.514" gradientTransform="matrix(0.827, 0.491, -0.466, 0.871, 1.822, 5.532)" gradientUnits="objectBoundingBox"><stop offset="0" stop-color="#a9f5ff"/><stop offset="0.654" stop-color="#70dff7"/><stop offset="1" stop-color="#56d5f4"/></radialGradient></defs><g transform="translate(-221.779 -11.907)"><g transform="translate(288.77 11.907)"><path class="a" d="M97.478,196.184s-2.9,13.556,1.7,19.6,3.168,29.384-9.773,30.721-18.783-30.24-18.783-30.24,14.157-18.275,14.518-33.034C85.138,183.23,94.577,195.088,97.478,196.184Z" transform="translate(2.708 -145.366)"/><path class="b" d="M83.427,208.35c1.484-7.767,1.243-15.641,3.182-23.315-.9-1.083-1.471-1.8-1.471-1.8-.361,14.759-14.518,33.034-14.518,33.034a18.71,18.71,0,0,0,2.954,6.765C77.558,218.537,82.278,214.326,83.427,208.35Z" transform="translate(2.708 -145.366)"/><path class="b" d="M92.884,197.9c-2.179-4.88-7.139-11.631-9.8-9.853,0,0-3.422,14.96,10.428,23.088a.013.013,0,0,1,.013.013C92.108,206.88,92.442,201.345,92.884,197.9Z" transform="translate(6.78 -143.842)"/><path class="a" d="M116.866,184.7s-1.39,16.323-5.575,22.339-8.716,9.893-17.419,4.077a27.689,27.689,0,0,1-11.791-15.361s-3.837-3.315-5-7.112c-1.578-5.134,1.858-8.609,4.211-8.168,0,0,4.853.428,4.853,6.364s-.628-18.77,1.136-20.909c1.136-1.377,7.567.4,15.2,3.329C102.481,169.232,121.8,170.381,116.866,184.7Z" transform="translate(4.749 -151.354)"/><g transform="translate(114.49 39.776)"><path class="c" d="M104.485,185.984a1.555,1.555,0,1,1-1.537-1.324A1.445,1.445,0,0,1,104.485,185.984Z" transform="translate(-101.41 -184.66)"/></g><g transform="translate(102.217 38.345)"><path class="c" d="M95.572,185.02a1.691,1.691,0,1,1-1.671-1.43A1.566,1.566,0,0,1,95.572,185.02Z" transform="translate(-92.23 -183.59)"/></g><g transform="translate(104.761 52.266)"><path class="d" d="M97.538,196.807a4.934,4.934,0,0,1-3.315-2.126.419.419,0,0,1,.655-.521c2.219,2.834,4.211,1.564,4.3,1.5a.425.425,0,0,1,.468.709A3.339,3.339,0,0,1,97.538,196.807Z" transform="translate(-94.133 -194.003)"/></g><g transform="translate(101.202 34.715)"><path class="c" d="M91.844,182.112a.407.407,0,0,1-.348-.267.426.426,0,0,1,.254-.548,8.34,8.34,0,0,1,5.909.267.422.422,0,1,1-.361.762,7.5,7.5,0,0,0-5.254-.241A.351.351,0,0,1,91.844,182.112Z" transform="translate(-91.47 -180.874)"/></g><g transform="translate(114.398 36.436)"><path class="c" d="M106.072,184.258a.428.428,0,0,1-.267-.134c-1.457-1.6-3.9-.989-3.93-.989a.428.428,0,1,1-.214-.829c.12-.027,2.968-.735,4.773,1.243a.424.424,0,0,1-.027.6A.44.44,0,0,1,106.072,184.258Z" transform="translate(-101.341 -182.162)"/></g><path class="b" d="M79.02,179.973a3.623,3.623,0,0,1,3.048.521,3.062,3.062,0,0,1,.04,4.171c-.588.628-2.553.7-1.885-1.791C80.584,181.55,80.317,180.935,79.02,179.973Z" transform="translate(5.537 -146.507)"/><g transform="translate(108.672 40.482)"><path class="e" d="M97.649,195.2c-.053-.013-.107-.013-.16-.027a.454.454,0,1,1,.12-.9c1.016.147,1.7.067,1.938-.2.388-.441-.094-1.591-.441-2.433-.134-.334-.267-.642-.348-.9-.495-1.564-.053-5.027-.04-5.174a.487.487,0,0,1,.548-.388.471.471,0,0,1,.428.508c0,.04-.428,3.422,0,4.813a8.46,8.46,0,0,0,.321.815c.468,1.1,1.043,2.473.294,3.315C99.855,195.191,98.986,195.364,97.649,195.2Z" transform="translate(-97.058 -185.188)"/></g><path class="f" d="M102.733,213.78l6.19,2.1c3.356,4.545,6.938,13.917,8.636,26.39,2.9,21.3,4.358,22.018,6.056,23.716s34.839,9.732,34.839,9.732l-1.7,9.866s-42.379-3.142-46.349-3.636S95.54,253.632,95.781,242.509,102.733,213.78,102.733,213.78Z" transform="translate(11.182 -135.074)"/><path class="g" d="M153.364,280.439a114.828,114.828,0,0,1-14.559-2.714c-6.577-1.5-13.329-1.444-19.772-3.529-8.436-2.741-11.3-14.4-9.666-21.965.12-.548,1.163-7.7-2.446-17.981-.936-2.66-2.473-5.347-2.981-8.128-.6-3.208-1.6-6.35-1.912-9.492-2.487,6.7-6.1,17.633-6.257,24.919-.241,11.136,10.642,38.957,14.625,39.438s46.349,3.636,46.349,3.636l.722-4.225A19.055,19.055,0,0,1,153.364,280.439Z" transform="translate(11.179 -134.114)"/><path class="h" d="M124.044,219.281s-10.789-6.4-19.131-11.871l-.107.174A11.362,11.362,0,0,1,92.2,212.878a17.521,17.521,0,0,1-11.27-9.2l-26.51,11.056s9.532,16.9,4.211,44.01-7.741,36.3-7.741,36.3h67.753s-3.382-23.476-3.061-36.7S116.21,232.984,124.044,219.281Z" transform="translate(-3.939 -138.477)"/><path class="i" d="M74.874,274.89c-2.219-3.155-5.642-6.885-5.9-10.989a18.742,18.742,0,0,1,3.489-12.232c1.9-2.807,5.067-6.5,5.561-9.88,1.043-7.085-3.583-11.083-7.166-15.668-4.492-5.735-4.746-11.8-3.9-18.1l-12.54,5.227s9.532,16.9,4.211,44.01-7.741,36.3-7.741,36.3H79.446c-.134-.307-.281-.6-.388-.922C77.039,286.6,79.018,280.786,74.874,274.89Z" transform="translate(-3.939 -137.015)"/><path class="j" d="M102.578,251.54c.227-9.465.481-18.382,3.463-27.7-1.6,1.832-3.864,4.064-5.575,10.722-1.965,7.674,1.738,19.238-2.527,26.2-2.032,3.315-5.12,5.949-7.085,9.251-3.583,6.029.722,7.995,1.658,13.4a12.885,12.885,0,0,1-.067,4.826h13.195C105.652,288.251,102.257,264.775,102.578,251.54Z" transform="translate(9.051 -131.685)"/><path class="a" d="M102.459,262.37s8.957.722,14.518,0,7.861-3.877,11.617-1.2,13.315,4,12.58,7.62-10.174,3.262-14.158,2.781c-1.618-.2-5.067-3.636-9.265-2.981-6.123.963-15.534,3.7-19.893,1.6C86.764,264.843,102.459,262.37,102.459,262.37Z" transform="translate(10.547 -119.467)"/><path class="k" d="M126.328,276.331,124.6,286.5s-52.312,3.85-73.608,0-21.069-5.615-19.358-14.492,16.524-52.914,29.5-60.052c0,0,10.869,13.275,5.668,37.834-.815,3.837-7.861,15.347-7.42,16.417C60.567,269.1,107.611,273.135,126.328,276.331Z" transform="translate(-10.661 -135.687)"/><path class="l" d="M53.4,260.68c.361-.08.722-.147,1.083-.227-.882-.294-1.417-.588-1.537-.856-.441-1.07,6.6-12.58,7.42-16.417a58.815,58.815,0,0,0,1.31-11.631,18,18,0,0,1-1.043,2.393c-3.4,6.444-8.208,12.941-9.826,20.133C50.353,256.2,48.321,261.63,53.4,260.68Z" transform="translate(-4.231 -129.088)"/><path class="m" d="M122.471,284.876c-2.045-.147-5.281-1.7-7.005-2.714-6.444-3.783-11.377-4.251-18.4-2.446-3.422.882-7.232,2.086-10.815,1.591-4.024-.548-7.607-2.714-11.51-3.275-6.751-.963-14.358,2.527-20.989.508-9.96-3.021-11.51-16.377-7.727-24.933,2.874-6.524,7.9-10.815,12.5-16.1,3.035-3.489,6.39-7.767,7.567-12.366a15.546,15.546,0,0,0,.307-1.578c-2.313-8.877-5.241-11.617-5.241-11.617-12.981,7.139-27.794,51.176-29.5,60.052s-1.938,10.642,19.358,14.492,73.608,0,73.608,0l.267-1.564A24.09,24.09,0,0,1,122.471,284.876Z" transform="translate(-10.654 -135.691)"/><rect class="c" width="227.991" height="45.333" transform="translate(15.976 166.365)"/><path class="n" d="M48.094,293.347H255.711v-14H27.72v45.333Z" transform="translate(-11.744 -112.985)"/><rect class="c" width="257.95" height="11.377" transform="translate(0 156.565)"/><g transform="translate(115.666 105.751)"><path class="a" d="M141.59,260.538s11.377-.963,15,0,12.821,4.118,9.679,7.019-23.943-1.176-24.679-.963C138.195,267.556,141.59,260.538,141.59,260.538Z" transform="translate(-89.559 -225.218)"/><rect class="o" width="81.549" height="7.42" transform="translate(34.612 43.382)"/><rect class="c" width="81.549" height="1.537" transform="translate(34.612 43.382)"/><rect class="c" width="35.334" height="7.42" transform="translate(0 43.382)"/><path class="p" d="M149.352,235.333l-19.893,38.489a2.459,2.459,0,0,0,2.179,3.583h77a2.435,2.435,0,0,0,2.179-1.323l19.893-38.489a2.459,2.459,0,0,0-2.179-3.583h-77A2.466,2.466,0,0,0,149.352,235.333Z" transform="translate(-93.23 -234.01)"/><path class="q" d="M213.786,261.836c-10.9,1.069-22.206,1.738-33.141.775-14.625-1.27-27.018-9.077-36.938-19.452l-14.238,27.566a2.459,2.459,0,0,0,2.179,3.583h77a2.435,2.435,0,0,0,2.179-1.323l5.962-11.524C215.792,261.6,214.8,261.743,213.786,261.836Z" transform="translate(-93.227 -230.928)"/><path class="c" d="M132.213,273.809l19.879-38.475a2.451,2.451,0,0,1,2.179-1.324h-2.741a2.435,2.435,0,0,0-2.179,1.324l-19.893,38.489a2.459,2.459,0,0,0,2.179,3.583h2.741A2.458,2.458,0,0,1,132.213,273.809Z" transform="translate(-93.23 -234.01)"/><g transform="translate(81.395 14.548)"><path class="r" d="M172.846,252.853l.013-.04a1.9,1.9,0,0,0,1.9-1.377,1.8,1.8,0,0,0-1.35-2.433h.013l.388-1.029-1.778-.468-.374,1.016-.722-.2.374-1.016-1.725-.455-.361,1-.321-.094-.254-.067-.722-.2-.588,1.671.722.2-1.39,3.877-.7-.214-.575,1.6.7.227.241.08.307.094-.334.936,1.618.535.348-.949.682.227-.348.949,1.671.548.361-.963.053.013a2.211,2.211,0,0,0,2.834-1.27A1.574,1.574,0,0,0,172.846,252.853Zm-.949-2.46a.53.53,0,0,1,.321.722l-.04.107a.651.651,0,0,1-.749.428l-1.564-.455.455-1.243Zm-3.035,3.543.455-1.23,1.711.521a.538.538,0,0,1,.307.735l-.04.107a.606.606,0,0,1-.735.4Z" transform="translate(-162.425 -244.233)"/><path class="s" d="M166.417,259.287a7.494,7.494,0,0,1-1.992-10.347,8.615,8.615,0,0,1,11.243-3.061,7.472,7.472,0,0,1,2.166,11.256A8.567,8.567,0,0,1,166.417,259.287Zm8.329-12.1a7.037,7.037,0,0,0-9.211,2.446,6.139,6.139,0,0,0,1.644,8.529,7,7,0,0,0,9.318-1.832A6.105,6.105,0,0,0,174.746,247.189Z" transform="translate(-163.174 -244.892)"/></g></g><path class="c" d="M114.077,161.769c-7.045-5.468-16.042-7.513-20.949-6.684-7.781,1.324-10.561,8.743-10.561,8.743-3.864-1.123-8.944,3.088-9.572,13.4-.789,12.968,6.618,20.829,9.224,26.109,0,0,.789-2.259,1.337-4.438.027-.12-4.746-6.444-4.88-9.425-.147-3.409,4.1-4.853,5.749-3.088,2.821,3.048,1.524,5.882,2.567,9.011.4,1.618,3.583,2.594,4.051,0-.9-3.944-.174-8.609.989-10.815,2.019-3.85,1.123-9.2,1.123-9.2,13.9,11.256,12.42,1.337,19.692,4.372,7.166,3.008,5.241,8.97,5.241,8.97C123.9,184.041,128.515,172.986,114.077,161.769Z" transform="translate(3.488 -154.907)"/></g><g transform="translate(221.779 176.699)"><path class="t" d="M196.152,262.985c-4.866,8.65-16.564,11.283-26.136,5.9s-13.369-16.764-8.5-25.4,16.564-11.283,26.136-5.9S201.019,254.335,196.152,262.985Z" transform="translate(-159.395 -234.789)"/></g></g></svg>