<svg xmlns="http://www.w3.org/2000/svg" width="128.012" height="128.012" viewBox="0 0 128.012 128.012"><defs><style>.a{fill:#e94b54;}.b{fill:#67717d;}</style></defs><g transform="translate(-22.884 -26.793)"><g transform="translate(22.884 26.793)"><path class="a" d="M64,45A19,19,0,1,0,83,64,19,19,0,0,0,64,45Zm0,34A15,15,0,1,1,79,64,15,15,0,0,1,64,79Z" transform="translate(0.006 0.006)"/><path class="b" d="M65.6,54.13a2,2,0,0,0-.6,3.95h.32a2.006,2.006,0,0,0,.32-4Z" transform="translate(0.006 0.006)"/><path class="b" d="M72,62a2,2,0,1,0,2,2A2,2,0,0,0,72,62Z" transform="translate(0.006 0.006)"/><path class="b" d="M56.26,61.16a2.012,2.012,0,0,0-.43,4h.22a2,2,0,0,0,.21-4Z" transform="translate(0.006 0.006)"/><path class="b" d="M63.68,70a2,2,0,1,0-.21,4h.1a2,2,0,1,0,.11-4Z" transform="translate(0.006 0.006)"/><path class="b" d="M62,15.74V39a2,2,0,0,0,4,0V15.74a8,8,0,1,0-4,0ZM64,4a4,4,0,1,1-4,4A4,4,0,0,1,64,4Z" transform="translate(0.006 0.006)"/><path class="b" d="M51,33.65V39a2,2,0,0,0,4,0V33.65a6,6,0,1,0-4,0ZM53,26a2,2,0,1,1-2,2A2,2,0,0,1,53,26Z" transform="translate(0.006 0.006)"/><path class="b" d="M69,28a6,6,0,0,0,4,5.65V39a2,2,0,0,0,4,0V33.65A6,6,0,1,0,69,28Zm6-2a2,2,0,1,1-2,2A2,2,0,0,1,75,26Z" transform="translate(0.006 0.006)"/><path class="b" d="M66,112.26V89a2,2,0,0,0-4,0v23.26a8,8,0,1,0,4,0ZM64,124a4,4,0,1,1,4-4A4,4,0,0,1,64,124Z" transform="translate(0.006 0.006)"/><path class="b" d="M59,102a6,6,0,0,0-4-5.66A1.94,1.94,0,0,0,55,96V89a2,2,0,0,0-4,0v7a1.94,1.94,0,0,0,0,.34A6,6,0,1,0,59,102Zm-6,2a2,2,0,1,1,2-2A2,2,0,0,1,53,104Z" transform="translate(0.006 0.006)"/><path class="b" d="M77,96.34A1.94,1.94,0,0,0,77,96V89a2,2,0,0,0-4,0v7a1.94,1.94,0,0,0,0,.34,6,6,0,1,0,3.93,0ZM75,104a2,2,0,1,1,2-2A2,2,0,0,1,75,104Z" transform="translate(0.006 0.006)"/><path class="b" d="M22,25.74V34.6a2,2,0,0,0,.66,1.49l8.21,7.4a2,2,0,0,0,1.34.51H45a2,2,0,0,0,0-4H33l-7-6.29v-8a8,8,0,1,0-4,0ZM24,14a4,4,0,1,1-4,4A4,4,0,0,1,24,14Z" transform="translate(0.006 0.006)"/><path class="b" d="M48,86a2,2,0,0,0-2-2H32.21a2,2,0,0,0-1.34.51l-8.21,7.4A2,2,0,0,0,22,93.4v8.87a8,8,0,1,0,4,0v-8L33,88H46A2,2,0,0,0,48,86ZM28,110a4,4,0,1,1-4-4A4,4,0,0,1,28,110Z" transform="translate(0.006 0.006)"/><path class="b" d="M80,42a2,2,0,0,0,2,2H95.79a2,2,0,0,0,1.34-.51l8.21-7.4A2,2,0,0,0,106,34.6V25.74a8,8,0,1,0-4,0v8L95,40H82A2,2,0,0,0,80,42Zm20-24a4,4,0,1,1,4,4A4,4,0,0,1,100,18Z" transform="translate(0.006 0.006)"/><path class="b" d="M106,102.26V93.4a2,2,0,0,0-.66-1.49l-8.21-7.4A2,2,0,0,0,95.79,84H82a2,2,0,0,0,0,4H95l7,6.29v8a8,8,0,1,0,4,0ZM104,114a4,4,0,1,1,4-4A4,4,0,0,1,104,114Z" transform="translate(0.006 0.006)"/><path class="a" d="M120,56a8,8,0,0,0-7.74,6H89a2,2,0,0,0,0,4h23.26A8,8,0,1,0,120,56Zm0,12a4,4,0,1,1,4-4A4,4,0,0,1,120,68Z" transform="translate(0.006 0.006)"/><path class="a" d="M101,47a6,6,0,0,0-5.65,4H89a2,2,0,0,0,0,4h6.35A6,6,0,1,0,101,47Zm0,8a2,2,0,1,1,2-2A2,2,0,0,1,101,55Z" transform="translate(0.006 0.006)"/><path class="a" d="M95.35,77a6,6,0,1,0,0-4H89a2,2,0,0,0,0,4ZM101,73a2,2,0,1,1-2,2A2,2,0,0,1,101,73Z" transform="translate(0.006 0.006)"/><path class="a" d="M39,66a2,2,0,0,0,0-4H15.74a8,8,0,1,0,0,4ZM8,68a4,4,0,1,1,4-4A4,4,0,0,1,8,68Z" transform="translate(0.006 0.006)"/><path class="a" d="M39,73H32.65a6,6,0,1,0,0,4H39a2,2,0,0,0,0-4ZM27,77a2,2,0,1,1,2-2A2,2,0,0,1,27,77Z" transform="translate(0.006 0.006)"/><path class="a" d="M32.65,51a6,6,0,1,0,0,4H39a2,2,0,0,0,0-4ZM27,55a2,2,0,1,1,2-2A2,2,0,0,1,27,55Z" transform="translate(0.006 0.006)"/></g></g></svg>