<svg xmlns="http://www.w3.org/2000/svg" width="248.19" height="210.145" viewBox="0 0 248.19 210.145"><defs><style>.a{fill:#fff;stroke:#c9c9c9;}.b{fill:#ffeaea;}.c{fill:#ed5a5a;}.d{fill:#bcbcbc;}.e{fill:#67717d;font-size:27px;font-family:SourceSansPro-Bold, Source Sans Pro;font-weight:700;}.f{stroke:none;}.g{fill:none;}</style></defs><g transform="translate(-927 -2296.941)"><g class="a" transform="translate(927 2382)"><rect class="f" width="181" height="51"/><rect class="g" x="0.5" y="0.5" width="180" height="50"/></g><path class="b" d="M6232.5,2321.773l31.336-15.832,28.641,15.832v35.4l-28.641,14.25-31.336-14.25Z" transform="translate(-5258 -9)"/><path class="b" d="M6232.5,2321.773l31.336-15.832,28.641,15.832v35.4l-28.641,14.25-31.336-14.25Z" transform="translate(-5258 127)"/><path class="b" d="M6232.5,2321.773l31.336-15.832,28.641,15.832v35.4l-28.641,14.25-31.336-14.25Z" transform="translate(-5125 -9)"/><path class="b" d="M6232.5,2321.773l31.336-15.832,28.641,15.832v35.4l-28.641,14.25-31.336-14.25Z" transform="translate(-5125 127)"/><g transform="translate(55 -108.035)"><path class="c" d="M17.294,67.552,47.371,82.59h.04a1.357,1.357,0,0,0,1.205,0h.04L78.733,67.552a1.438,1.438,0,0,0,.8-1.288V31.177c0-.04-.026-.072-.029-.109a1.4,1.4,0,0,0-.129-.495,1.467,1.467,0,0,0-.1-.173,1.389,1.389,0,0,0-.336-.351c-.035-.029-.052-.072-.092-.1s-.035,0-.052,0-.037-.035-.06-.049L48.656,14.85a1.438,1.438,0,0,0-1.286,0L17.294,29.888c-.023,0-.037.035-.06.049s-.035,0-.052,0-.055.069-.092.1a1.438,1.438,0,0,0-.334.351,1.469,1.469,0,0,0-.1.173,1.4,1.4,0,0,0-.129.495c0,.037-.029.069-.029.109V66.249A1.438,1.438,0,0,0,17.294,67.552ZM19.376,33.5l27.2,13.6V78.975l-27.2-13.6ZM76.654,65.375l-27.2,13.6V47.1l27.2-13.6ZM48.015,17.746,74.874,31.177,48.015,44.613,21.153,31.183Z" transform="translate(911 2397.38)"/><path class="c" d="M62.381,67.552,92.458,82.59h.04a1.357,1.357,0,0,0,1.205,0h.04L123.82,67.552a1.438,1.438,0,0,0,.794-1.288V31.177c0-.04-.026-.072-.029-.109a1.4,1.4,0,0,0-.129-.495,1.468,1.468,0,0,0-.1-.173,1.438,1.438,0,0,0-.334-.351c-.037-.029-.055-.072-.092-.1s-.037,0-.052,0-.037-.035-.06-.049L93.743,14.85a1.438,1.438,0,0,0-1.286,0L62.381,29.888c-.023,0-.037.035-.06.049s-.037,0-.052,0-.058.069-.092.1a1.389,1.389,0,0,0-.336.351,1.468,1.468,0,0,0-.1.173,1.4,1.4,0,0,0-.129.495c0,.037-.029.069-.029.109V66.249a1.438,1.438,0,0,0,.8,1.3ZM64.46,33.5l27.2,13.6V78.975l-27.2-13.6Zm57.278,31.871-27.2,13.6V47.1l27.2-13.6ZM93.1,17.746,119.96,31.177,93.1,44.608,66.232,31.177Z" transform="translate(995.576 2397.38)"/><path class="d" d="M52.075,44.017h4.346a1.438,1.438,0,0,0,0-2.876H52.075a7.252,7.252,0,1,1,0-14.5h4.346a1.438,1.438,0,0,0,0-2.876H52.075a10.128,10.128,0,1,0,0,20.257Z" transform="translate(958.736 2414.383)"/><path class="d" d="M53.959,26.639H58.3a7.252,7.252,0,1,1,0,14.5H53.959a1.438,1.438,0,0,0,0,2.876H58.3a10.128,10.128,0,1,0,0-20.257H53.959a1.438,1.438,0,0,0,0,2.876Z" transform="translate(978.574 2414.382)"/><path class="d" d="M73.912,28.222a1.438,1.438,0,0,0-1.438-1.438H46.406a1.438,1.438,0,1,0,0,2.876H72.474a1.438,1.438,0,0,0,1.438-1.438Z" transform="translate(964.405 2420.052)"/><path class="c" d="M17.294,114.487l30.077,15.038h.04a1.357,1.357,0,0,0,1.205,0h.04l30.077-15.038a1.438,1.438,0,0,0,.8-1.288V78.111c0-.04-.026-.072-.029-.112a1.4,1.4,0,0,0-.129-.492,1.467,1.467,0,0,0-.1-.173,1.389,1.389,0,0,0-.336-.351c-.035-.029-.052-.072-.092-.1s-.035,0-.052,0-.037-.037-.06-.049L48.656,61.8a1.438,1.438,0,0,0-1.286,0L17.294,76.823c-.023,0-.037.035-.06.049s-.035,0-.052,0-.055.069-.092.1a1.437,1.437,0,0,0-.334.351,1.467,1.467,0,0,0-.1.173,1.4,1.4,0,0,0-.129.492c0,.04-.029.072-.029.112v35.087a1.438,1.438,0,0,0,.794,1.3Zm2.082-34.049,27.2,13.6V125.91l-27.2-13.6ZM76.654,112.31l-27.2,13.6V94.039l27.2-13.6ZM48.015,64.675,74.874,78.106,48.015,91.536,21.153,78.106Z" transform="translate(911 2485.455)"/><path class="c" d="M62.381,114.487l30.077,15.038h.04a1.357,1.357,0,0,0,1.205,0h.04l30.077-15.038a1.438,1.438,0,0,0,.794-1.288V78.111c0-.04-.026-.072-.029-.112a1.4,1.4,0,0,0-.129-.492,1.465,1.465,0,0,0-.1-.173,1.438,1.438,0,0,0-.334-.351c-.037-.029-.055-.072-.092-.1s-.037,0-.052,0-.037-.037-.06-.049L93.743,61.8a1.438,1.438,0,0,0-1.286,0L62.381,76.823c-.023,0-.037.035-.06.049s-.037,0-.052,0-.058.069-.092.1a1.389,1.389,0,0,0-.336.351,1.464,1.464,0,0,0-.1.173,1.4,1.4,0,0,0-.129.492c0,.04-.029.072-.029.112v35.087A1.438,1.438,0,0,0,62.381,114.487ZM64.46,80.438l27.2,13.6V125.91l-27.2-13.6Zm57.278,31.871-27.2,13.6V94.039l27.2-13.6ZM93.1,64.675,119.96,78.106,93.1,91.536,66.232,78.111Z" transform="translate(995.576 2485.455)"/><path class="d" d="M52.073,90.959h4.346a1.438,1.438,0,0,0,0-2.876H52.073a7.25,7.25,0,1,1,0-14.5h4.346a1.438,1.438,0,0,0,0-2.876H52.073a10.126,10.126,0,1,0,0,20.253Z" transform="translate(958.738 2502.448)"/><path class="d" d="M53.959,90.959H58.3a10.126,10.126,0,1,0,0-20.253H53.959a1.438,1.438,0,0,0,0,2.876H58.3a7.25,7.25,0,1,1,0,14.5H53.959a1.438,1.438,0,0,0,0,2.876Z" transform="translate(978.574 2502.448)"/><path class="d" d="M73.912,75.165a1.438,1.438,0,0,0-1.438-1.438H46.406a1.438,1.438,0,1,0,0,2.876H72.474a1.438,1.438,0,0,0,1.438-1.438Z" transform="translate(964.405 2508.116)"/><path class="d" d="M70.459,52.463A1.438,1.438,0,0,0,69.021,53.9v4.346a10.126,10.126,0,0,0,20.253,0V53.9a1.438,1.438,0,0,0-2.876,0v4.346a7.25,7.25,0,1,1-14.5,0V53.9A1.438,1.438,0,0,0,70.459,52.463Z" transform="translate(1009.528 2468.225)"/><path class="d" d="M89.274,52.015a10.126,10.126,0,0,0-20.253,0v4.346a1.438,1.438,0,1,0,2.876,0V52.015a7.25,7.25,0,0,1,14.5,0v4.346a1.438,1.438,0,1,0,2.876,0Z" transform="translate(1009.528 2448.389)"/><path class="d" d="M74.918,72.416V46.348a1.438,1.438,0,0,0-2.876,0V72.416a1.438,1.438,0,0,0,2.876,0Z" transform="translate(1015.195 2454.056)"/><text class="e" transform="translate(902 2523.035)"><tspan x="0" y="0">Maze Node</tspan></text></g></g></svg>