<svg xmlns="http://www.w3.org/2000/svg" width="93.998" height="94" viewBox="0 0 93.998 94"><defs><style>.a{fill:#ffc3dc;}.b{fill:#f5b2ce;}.c{fill:#fff;}.d{fill:#343b43;}.e{fill:#fd8369;}.f{fill:#d9d8d7;}.g{fill:#e24f3b;}</style></defs><g transform="translate(-206.929 -227.548)"><path class="a" d="M300.927,274.546a47,47,0,1,1-47-47A47,47,0,0,1,300.927,274.546Z" transform="translate(0 0)"/><path class="b" d="M266.405,248.793a3.377,3.377,0,0,0-4.265-.737,3.322,3.322,0,0,0-.772.612l-1.811-1.047-.345.6-1.544-1.689-1.889-1.087-.345.6-1.544-1.691L252,243.261l-.235.412c-.107-.122-7.77-7.783-7.9-7.9a3.38,3.38,0,0,0-5.812,3.163l-1.811,1.047.775,1.339,4.133,4.2h-.632v1.8l-6.164-6.246-1.889,1.087.775,1.342,7.278,7.351v1.214l.8.782h-.025a10.964,10.964,0,0,0-1.149.057l-9.567-9.652-1.889,1.087.777,1.342,7.905,7.888a11.031,11.031,0,0,0-1.724.825l-8.847-8.96-1.886,1.087.772,1.342,8.088,7.918a11.081,11.081,0,0,0-1.254,1.354l-9.492-9.522-1.816,1.047a3.38,3.38,0,0,0-5.389,4.005c.192.332,2.046,2.191,2.154,2.289v1.4l14.164,13.982c.065.092,1.039,1.3,1.472,1.712.122.13,7.048,7.058,7.181,7.181s-.385-.125-.385-.125l-.122.073-9.707-9.9-.372.215L219.52,258.547h-1.549v2.181l18.487,18.482-.687-.052-16.25-16.25h-1.549v2.181l7.446,7.181-.507.292.217.377-5.607-5.669h-1.549v2.181l4.537,4.5-.57.33-2.419-2.648h-1.549v2.091a3.384,3.384,0,0,0-2.154,4.982c.145.252,20.7,20.84,31.716,31.869a47,47,0,0,0,40.329-40.331C280.592,262.96,266.505,248.878,266.405,248.793Z" transform="translate(12.639 10.549)"/><g transform="translate(228.002 245.136)"><g transform="translate(2.608 2.486)"><g transform="translate(22.544 0.893)"><rect class="c" width="1.547" height="1.02" transform="translate(0 25.012)"/><path class="c" d="M226.977,256.848H225.43v-2.181h1.547Zm0-4.362H225.43v-2.179h1.547Zm0-4.36H225.43v-2.181h1.547Zm0-4.362H225.43v-2.181h1.547Zm0-4.36H225.43v-2.181h1.547Z" transform="translate(-225.429 -234.018)"/><rect class="c" width="1.547" height="1.022"/></g><g transform="translate(22.544 26.925)"><rect class="c" width="1.547" height="1.022"/><path class="c" d="M226.977,267.264H225.43v-2.179h1.547Zm0-4.36H225.43v-2.181h1.547Zm0-4.362H225.43v-2.179h1.547Zm0-4.36H225.43V252h1.547Zm0-4.36H225.43v-2.181h1.547Z" transform="translate(-225.429 -244.436)"/><rect class="c" width="1.547" height="1.022" transform="translate(0 25.01)"/></g><g transform="translate(0.388 13.24)"><rect class="c" width="1.021" height="1.55" transform="translate(0 26.029) rotate(-29.96)"/><path class="c" d="M218.445,257.883l-.772-1.342,1.889-1.087.772,1.339Zm3.778-2.181-.775-1.339,1.886-1.089.777,1.339ZM226,253.521l-.777-1.339,1.889-1.089.777,1.342Zm3.778-2.179L229,250l1.889-1.089.775,1.342Zm3.773-2.181-.772-1.339,1.889-1.089.772,1.339Z" transform="translate(-214.898 -232.113)"/><path class="c" d="M226,248.25l-.5-.864-.278-.159.093-.161-.093-.159.278-.158.5-.864,2.047,1.181Z" transform="translate(-203.573 -233.382)"/><path class="c" d="M234.67,252.677l-1.889-1.089.772-1.339,1.889,1.087Zm-3.778-2.181L229,249.406l.777-1.339,1.886,1.089Zm-3.778-2.181-1.889-1.087.777-1.342,1.889,1.089Zm-3.778-2.179-1.886-1.089.772-1.342,1.891,1.089Zm-3.775-2.181-1.889-1.089.775-1.344,1.889,1.094Z" transform="translate(-214.899 -239.922)"/><rect class="c" width="1.548" height="1.022" transform="translate(0 1.341) rotate(-59.999)"/></g><g transform="translate(21.77 13.24)"><rect class="c" width="1.023" height="1.548" transform="translate(22.819 0.511) rotate(-29.999)"/><path class="c" d="M227.467,252.677l-.772-1.342,1.889-1.087.772,1.339Zm3.78-2.181-.777-1.342,1.889-1.087.772,1.339Zm3.773-2.181-.772-1.339,1.889-1.089.772,1.342Zm3.778-2.179-.775-1.342,1.889-1.089.775,1.342Zm3.778-2.181-.775-1.339,1.889-1.094.775,1.344Z" transform="translate(-222.76 -239.922)"/><path class="c" d="M227.167,248.25l-2.047-1.184,2.047-1.181.5.864.276.158-.093.159.093.161-.276.159Z" transform="translate(-225.12 -233.382)"/><path class="c" d="M243.69,257.883l-1.889-1.089.775-1.339,1.889,1.087Zm-3.778-2.181-1.889-1.089.777-1.339,1.886,1.089Zm-3.775-2.181-1.889-1.087.772-1.342,1.889,1.089Zm-3.775-2.179-1.889-1.089.772-1.342L233.131,250Zm-3.778-2.181-1.889-1.089.775-1.339,1.889,1.089Z" transform="translate(-222.76 -232.114)"/><rect class="c" width="1.549" height="1.022" transform="matrix(0.499, -0.867, 0.867, 0.499, 22.819, 26.861)"/></g><path class="c" d="M226.5,258.379l-1.271-.735L226,256.3l.5.288.5-.288.773,1.339Z" transform="translate(-203.185 -204.529)"/><path class="c" d="M234.67,263.093l-1.889-1.087.772-1.342,1.889,1.089Zm-3.778-2.181L229,259.825l.775-1.342,1.886,1.089Zm-3.778-2.179-1.889-1.089L226,256.3l1.889,1.089Zm-3.778-2.181-1.886-1.089.772-1.342,1.891,1.092Zm-3.775-2.181-1.889-1.089.775-1.342,1.889,1.092Z" transform="translate(-214.511 -211.069)"/><path class="c" d="M217.678,253.364l-1.271-.737v-1.469h1.549v.576l.5.288Z" transform="translate(-216.407 -212.241)"/><path class="c" d="M217.956,262.056h-1.549v-2.181h1.549Zm0-4.36h-1.549v-2.181h1.549Zm0-4.362h-1.549v-2.181h1.549Zm0-4.36h-1.549v-2.181h1.549Zm0-4.362h-1.549v-2.179h1.549Z" transform="translate(-216.407 -225.317)"/><path class="c" d="M217.957,242.88h-1.549v-1.469l1.271-.734.776,1.339-.5.288Z" transform="translate(-216.407 -227.948)"/><path class="c" d="M218.445,247.466l-.772-1.342,1.889-1.089.772,1.342Zm3.775-2.181-.772-1.342,1.886-1.087.777,1.339ZM226,243.1l-.777-1.342,1.889-1.087.777,1.339Zm3.775-2.181L229,239.581l1.889-1.087.772,1.339Zm3.778-2.181-.775-1.339,1.889-1.089.775,1.342Z" transform="translate(-214.51 -234.487)"/><path class="c" d="M227,237.656l-.5-.285-.5.285-.774-1.339,1.271-.734,1.271.734Z" transform="translate(-203.185 -235.582)"/><path class="c" d="M243.69,247.466l-1.889-1.092.775-1.339,1.889,1.089Zm-3.778-2.181-1.889-1.089.775-1.339,1.889,1.087Zm-3.775-2.181-1.889-1.089.772-1.339,1.889,1.087Zm-3.778-2.181-1.889-1.089.775-1.339,1.886,1.087Zm-3.775-2.181-1.889-1.087.772-1.342,1.889,1.089Z" transform="translate(-200.99 -234.487)"/><path class="c" d="M236.3,242.88h-1.547V242.3l-.5-.288.773-1.339,1.271.734Z" transform="translate(-189.664 -227.948)"/><path class="c" d="M236,262.056h-1.547v-2.181H236Zm0-4.36h-1.547v-2.181H236Zm0-4.362h-1.547v-2.181H236Zm0-4.362h-1.547v-2.179H236Zm0-4.36h-1.547v-2.179H236Z" transform="translate(-189.366 -225.317)"/><path class="c" d="M235.026,253.364l-.773-1.342.5-.288v-.576H236.3v1.469Z" transform="translate(-189.664 -212.241)"/><path class="c" d="M227.469,263.093l-.775-1.339,1.889-1.089.775,1.342Zm3.778-2.181-.775-1.339,1.889-1.089.772,1.342Zm3.775-2.179-.772-1.342,1.889-1.089.772,1.342Zm3.778-2.181-.775-1.339,1.889-1.092.775,1.342Zm3.778-2.181-.775-1.339,1.889-1.092.775,1.342Z" transform="translate(-200.992 -211.069)"/></g><path class="c" d="M243.571,253.042A11.146,11.146,0,1,1,232.425,241.9,11.145,11.145,0,0,1,243.571,253.042Z" transform="translate(-206.498 -223.63)"/><g transform="translate(17.134 20.62)"><path class="d" d="M237.23,257.454a8.794,8.794,0,1,1-9.582-14.347l3.361,8.125Z" transform="translate(-222.221 -242.44)"/><path class="e" d="M234.534,251.632h-8.795V242.84A8.793,8.793,0,0,1,234.534,251.632Z" transform="translate(-216.949 -242.84)"/><path class="f" d="M234.534,246.359a8.776,8.776,0,0,1-2.576,6.219l-6.219-6.219Z" transform="translate(-216.949 -237.567)"/><path class="g" d="M227.754,242.84v8.792l-3.361-8.125A8.765,8.765,0,0,1,227.754,242.84Z" transform="translate(-218.966 -242.84)"/></g><path class="d" d="M221.676,241.487a3.382,3.382,0,1,1-4.622-1.237A3.382,3.382,0,0,1,221.676,241.487Z" transform="translate(-215.363 -226.782)"/><path class="c" d="M230.7,236.278a3.382,3.382,0,1,1-4.62-1.237A3.38,3.38,0,0,1,230.7,236.278Z" transform="translate(-201.842 -234.587)"/><path class="d" d="M239.721,241.487a3.382,3.382,0,1,1-4.622-1.237A3.381,3.381,0,0,1,239.721,241.487Z" transform="translate(-188.322 -226.782)"/><path class="c" d="M239.721,251.906a3.382,3.382,0,1,1-4.622-1.239A3.384,3.384,0,0,1,239.721,251.906Z" transform="translate(-188.322 -211.171)"/><path class="d" d="M230.7,257.113a3.382,3.382,0,1,1-4.62-1.234A3.383,3.383,0,0,1,230.7,257.113Z" transform="translate(-201.842 -203.363)"/><path class="c" d="M221.676,251.906a3.382,3.382,0,1,1-4.622-1.237A3.385,3.385,0,0,1,221.676,251.906Z" transform="translate(-215.363 -211.17)"/></g></g></svg>