<svg xmlns="http://www.w3.org/2000/svg" width="335.129" height="286.16" viewBox="0 0 335.129 286.16"><defs><style>.a{fill:#f5f5f5;}.b{fill:#e6e6e6;}.c,.e{fill:#e0e0e0;}.d{fill:#f0f0f0;}.e,.m,.n{opacity:0.4;}.f{fill:#fafafa;}.g,.k,.m,.s,.t{fill:#fff;}.h{fill:#ebebeb;}.i{fill:#407bff;}.j,.k,.l{opacity:0.5;}.o{fill:#7f3e3b;}.p,.w{opacity:0.2;}.q{fill:#263238;}.r{fill:#630f0f;}.s{opacity:0.1;}.t{opacity:0.7;}.u{fill:#a02724;}.v{fill:#b55b52;}.x{opacity:0.3;}</style></defs><g transform="translate(-39.61 -58.73)"><g transform="translate(52.629 327.026)"><ellipse class="a" cx="152.991" cy="8.932" rx="152.991" ry="8.932"/></g><g transform="translate(39.61 58.73)"><path class="b" d="M196.467,281.876H44.108a4.507,4.507,0,0,1-4.5-4.506V63.2a4.509,4.509,0,0,1,4.5-4.466H196.467a4.509,4.509,0,0,1,4.506,4.506h0V277.37A4.514,4.514,0,0,1,196.467,281.876ZM44.108,58.888a4.312,4.312,0,0,0-4.3,4.308V277.37a4.312,4.312,0,0,0,4.3,4.308H196.467a4.324,4.324,0,0,0,4.308-4.308V63.2a4.324,4.324,0,0,0-4.308-4.308Z" transform="translate(-39.61 -58.73)"/><path class="b" d="M412.763,281.876H260.4a4.519,4.519,0,0,1-4.506-4.506V63.2A4.516,4.516,0,0,1,260.4,58.73H412.763a4.5,4.5,0,0,1,4.49,4.466V277.37A4.5,4.5,0,0,1,412.763,281.876ZM260.4,58.888A4.324,4.324,0,0,0,256.1,63.2V277.37a4.324,4.324,0,0,0,4.308,4.308H412.771a4.324,4.324,0,0,0,4.308-4.308V63.2a4.324,4.324,0,0,0-4.308-4.308Z" transform="translate(-85.232 -58.73)"/><g transform="translate(11.189 261.557)"><rect class="c" width="32.517" height="0.197" transform="translate(0 1.578)"/><rect class="c" width="32.612" height="0.197" transform="translate(66.186)"/><rect class="c" width="7.891" height="0.197" transform="translate(133.343)"/><rect class="c" width="36.494" height="0.197" transform="translate(25.873 6.739)"/><rect class="c" width="17.044" height="0.197" transform="translate(171.549 1.476)"/><rect class="c" width="22.038" height="0.197" transform="translate(195.616 1.476)"/><rect class="c" width="49.269" height="0.197" transform="translate(274.671 4.813)"/></g><g transform="translate(256.618 43.793)"><rect class="b" width="37.567" height="26.252"/><rect class="d" width="16.941" height="26.252"/><path class="e" d="M374.054,118.74a5.594,5.594,0,1,1-5.594,5.594A5.59,5.59,0,0,1,374.054,118.74Z" transform="translate(-365.596 -115.181)"/><path class="c" d="M377.55,138.93a2.73,2.73,0,1,1-2.73-2.73h0A2.726,2.726,0,0,1,377.55,138.93Z" transform="translate(-366.361 -118.864)"/><circle class="f" cx="1.594" cy="1.594" r="1.594" transform="translate(6.825 7.938)"/></g><g transform="translate(164.329 34.387)"><g transform="translate(33.409)"><rect class="d" width="16.247" height="35.665"/><g transform="translate(15.797)"><rect class="b" width="21.557" height="35.665"/></g><g transform="translate(5.815 4.403)"><g transform="translate(0 6.92)"><path class="g" d="M299.829,116.66a2.249,2.249,0,1,1-2.249,2.249A2.253,2.253,0,0,1,299.829,116.66Z" transform="translate(-297.58 -116.66)"/></g><g transform="translate(1.12 3.409)"><path class="g" d="M300.128,112.21A1.128,1.128,0,1,1,299,113.338,1.128,1.128,0,0,1,300.128,112.21Z" transform="translate(-299 -112.21)"/></g><g transform="translate(1.12)"><path class="g" d="M300.128,107.89A1.128,1.128,0,1,1,299,109.018,1.128,1.128,0,0,1,300.128,107.89Z" transform="translate(-299 -107.89)"/></g></g><g transform="translate(0.363 20.003)"><rect class="c" width="36.612" height="0.56"/><rect class="c" width="36.612" height="0.56" transform="translate(0 3.164)"/><rect class="c" width="36.612" height="0.56" transform="translate(0 6.328)"/><rect class="c" width="36.612" height="0.56" transform="translate(0 9.492)"/><rect class="c" width="36.612" height="0.56" transform="translate(0 12.656)"/></g><g transform="translate(6.904 20.965)"><rect class="c" width="1.547" height="1.547"/></g><g transform="translate(6.904 24.295)"><rect class="c" width="1.547" height="1.547"/></g><g transform="translate(6.904 27.294)"><rect class="c" width="1.547" height="1.547"/></g><g transform="translate(6.904 30.529)"><rect class="c" width="1.547" height="1.547"/></g><g transform="translate(6.904 33.669)"><rect class="c" width="1.547" height="1.547"/></g></g><g transform="translate(1.578 34.411)"><path class="c" d="M250.659,182.3h-.789V152.075a6.163,6.163,0,0,1,6.155-6.155h26.039v.789H256.025a5.371,5.371,0,0,0-5.366,5.366Z" transform="translate(-249.87 -145.92)"/></g><g transform="translate(0 32.872)"><path class="c" d="M248.659,181.924h-.789V151.434a7.469,7.469,0,0,1,7.464-7.464h26.307v.789H255.334a6.683,6.683,0,0,0-6.675,6.675v30.489Z" transform="translate(-247.87 -143.97)"/></g></g><g transform="translate(17.809 25.352)"><rect class="b" width="24.705" height="26.299" transform="translate(36.202 4.056)"/><rect class="a" width="6.328" height="26.299" transform="translate(60.907 4.056)"/><rect class="b" width="18.559" height="30.355" transform="translate(29.724)"/><rect class="a" width="5.366" height="30.355" transform="translate(48.275)"/><rect class="h" width="15.647" height="26.299" transform="translate(27.167 4.056)"/><rect class="a" width="3.574" height="26.299" transform="translate(42.814 4.056)"/><rect class="b" width="20.523" height="21.849" transform="translate(9.484 8.506)"/><rect class="a" width="5.255" height="21.849" transform="translate(30.008 8.506)"/><rect class="b" width="15.418" height="25.218" transform="translate(4.103 5.137)"/><rect class="a" width="4.458" height="25.218" transform="translate(19.513 5.137)"/><rect class="b" width="14.976" height="21.849" transform="translate(0 8.506)"/><rect class="d" width="2.967" height="21.849" transform="translate(14.984 8.506)"/></g><g transform="translate(0.305 55.695)"><rect class="b" width="160.968" height="7.614" transform="translate(160.968 7.614) rotate(180)"/><g transform="translate(27.604 7.792)"><path class="c" d="M76.61,139.19h8.9l-6.486,9.792H76.61Z" transform="translate(-75.324 -139.19)"/><rect class="c" width="1.286" height="9.792"/></g><g transform="translate(127.586 7.792)"><path class="c" d="M203.31,139.19h8.908l-6.486,9.792H203.31Z" transform="translate(-202.032 -139.19)"/><rect class="c" width="1.286" height="9.792"/></g></g><g transform="translate(170.926 70.053)"><rect class="b" width="160.968" height="7.614"/><g transform="translate(123.18 7.788)"><path class="c" d="M421.248,167.172h-2.422l-6.486-9.792h8.908Z" transform="translate(-412.34 -157.38)"/><rect class="c" width="1.286" height="9.792" transform="translate(8.908)"/></g><g transform="translate(23.198 7.788)"><path class="c" d="M294.538,167.172h-2.422l-6.486-9.792h8.908Z" transform="translate(-285.63 -157.38)"/><rect class="c" width="1.286" height="9.792" transform="translate(8.908)"/></g></g><g transform="translate(99.122 25.352)"><path class="d" d="M190.653,105.876a11.389,11.389,0,0,0-.5-3.338l2.927-2.572-1.846-3.2-3.693,1.247a11.463,11.463,0,0,0-5.776-3.338L181,90.86h-3.685l-.765,3.819a11.487,11.487,0,0,0-5.784,3.338l-3.693-1.247-1.846,3.2,2.927,2.572a11.454,11.454,0,0,0,0,6.675l-2.927,2.572,1.846,3.2,3.693-1.247a11.523,11.523,0,0,0,5.784,3.346l.765,3.819H181l.765-3.819a11.5,11.5,0,0,0,5.776-3.346l3.693,1.247,1.846-3.2-2.927-2.572A11.389,11.389,0,0,0,190.653,105.876Zm-11.489,6.2a5.973,5.973,0,1,1,5.973-5.973A5.974,5.974,0,0,1,179.165,112.078Z" transform="translate(-165.23 -90.86)"/><g transform="translate(28.998 11.631)"><path class="d" d="M218.337,110.918a7.7,7.7,0,0,0-1.42-1.7l.758-2.454-2.13-1.16-1.641,1.973a7.527,7.527,0,0,0-4.4.11l-1.744-1.886-2.067,1.27.884,2.407a7.61,7.61,0,0,0-2.1,3.858l-2.5.568.063,2.422,2.525.442a7.7,7.7,0,0,0,.868,2.044,7.519,7.519,0,0,0,1.428,1.7l-.758,2.454,2.13,1.16,1.641-1.973a7.527,7.527,0,0,0,4.4-.11l1.744,1.886,2.067-1.27-.884-2.407a7.633,7.633,0,0,0,2.1-3.866l2.5-.568-.063-2.422-2.525-.442A7.325,7.325,0,0,0,218.337,110.918Zm-4.316,7.433a3.931,3.931,0,1,1,1.3-5.405A3.927,3.927,0,0,1,214.021,118.351Z" transform="translate(-201.98 -105.6)"/></g></g></g><g transform="translate(45.094 227.896)"><rect class="i" width="321.636" height="4.048"/><path class="i" d="M70.84,276.8v96.533h2.509L76.505,276.8Z" transform="translate(-51.682 -273.896)"/><g transform="translate(48.78 6.06)"><path class="i" d="M108.38,280.8v89.432h2.509l3.156-89.432Z" transform="translate(-108.38 -280.8)"/><path class="j" d="M108.38,280.8v89.432h2.509l3.156-89.432Z" transform="translate(-108.38 -280.8)"/></g><path class="i" d="M429.835,276.8v96.533h-2.5L424.17,276.8Z" transform="translate(-126.214 -273.896)"/><g transform="translate(268.343 6.06)"><path class="i" d="M392.305,280.8v89.432H389.8L386.64,280.8Z" transform="translate(-386.64 -280.8)"/><path class="j" d="M392.305,280.8v89.432H389.8L386.64,280.8Z" transform="translate(-386.64 -280.8)"/></g><g transform="translate(6.691 4.048)"><path class="i" d="M357.691,282.582H61.589L55.04,278.25h309.2Z" transform="translate(-55.04 -278.25)"/><path class="j" d="M357.691,282.582H61.589L55.04,278.25h309.2Z" transform="translate(-55.04 -278.25)"/></g></g><g transform="translate(64.41 212.257)"><g transform="translate(0 0.671)"><path class="i" d="M73.35,256.707v3.125a1.977,1.977,0,0,0,.576,1.4l2.5,2.5a1.94,1.94,0,0,0,.813.481,6.425,6.425,0,0,0,5.823,3.724H84a6.424,6.424,0,0,0,6.423-6.423V254.15H76.64v.6H75.323A1.96,1.96,0,0,0,73.35,256.707Zm1.578,0a.4.4,0,0,1,.395-.395H76.64V261.5c0,.071.008.142.008.213l-1.61-1.6a.4.4,0,0,1-.118-.276v-3.125Z" transform="translate(-71.527 -254.15)"/><path class="k" d="M73.35,256.707v3.125a1.977,1.977,0,0,0,.576,1.4l2.5,2.5a1.94,1.94,0,0,0,.813.481,6.425,6.425,0,0,0,5.823,3.724H84a6.424,6.424,0,0,0,6.423-6.423V254.15H76.64v.6H75.323A1.96,1.96,0,0,0,73.35,256.707Zm1.578,0a.4.4,0,0,1,.395-.395H76.64V261.5c0,.071.008.142.008.213l-1.61-1.6a.4.4,0,0,1-.118-.276v-3.125Z" transform="translate(-71.527 -254.15)"/><g transform="translate(0 13.667)"><path class="i" d="M93.213,272.638H73.376a3.654,3.654,0,0,1-2.336-1.168H95.548A3.628,3.628,0,0,1,93.213,272.638Z" transform="translate(-71.04 -271.47)"/><path class="k" d="M93.213,272.638H73.376a3.654,3.654,0,0,1-2.336-1.168H95.548A3.628,3.628,0,0,1,93.213,272.638Z" transform="translate(-71.04 -271.47)"/></g></g><g transform="translate(271.657 0)"><path class="i" d="M432.711,259.186c-.1-3.133-2.486-3.9-5.6-4.253v-1.144a.5.5,0,0,0-.505-.489H415.849a.515.515,0,0,0-.529.489h0V268.71h11.789v-1.633C430.233,266.73,432.616,262.327,432.711,259.186Zm-5.594,5.965v-8.285c2.288.339,3.866.647,3.535,2.935C430.375,261.632,428.939,264.883,427.116,265.152Z" transform="translate(-415.32 -253.3)"/><g class="l"><path class="g" d="M432.711,259.186c-.1-3.133-2.486-3.9-5.6-4.253v-1.144a.5.5,0,0,0-.505-.489H415.849a.515.515,0,0,0-.529.489h0V268.71h11.789v-1.633C430.233,266.73,432.616,262.327,432.711,259.186Zm-5.594,5.965v-8.285c2.288.339,3.866.647,3.535,2.935C430.375,261.632,428.939,264.883,427.116,265.152Z" transform="translate(-415.32 -253.3)"/></g></g></g><g transform="translate(163.776 163.919)"><g transform="translate(33.069 44.732)"><g transform="translate(4.119)"><rect class="i" width="9.303" height="18.898"/><rect class="k" width="9.303" height="18.898"/></g><g transform="translate(0 15.458)"><path class="i" d="M256.508,272.1H238.88l4.3-3.78h9.027Z" transform="translate(-238.88 -268.32)"/><path class="k" d="M256.508,272.1H238.88l4.3-3.78h9.027Z" transform="translate(-238.88 -268.32)"/></g></g><g transform="translate(45.387 57.854)"><path class="i" d="M298.551,265.36H254.49l7.962,6.139H306.5Z" transform="translate(-254.49 -265.36)"/><path class="m" d="M298.551,265.36H254.49l7.962,6.139H306.5Z" transform="translate(-254.49 -265.36)"/><path class="i" d="M255.508,271.5l-1.018-6.139,7.962,6.139Z" transform="translate(-254.49 -265.36)"/><path class="j" d="M255.508,271.5l-1.018-6.139,7.962,6.139Z" transform="translate(-254.49 -265.36)"/></g><path class="i" d="M198.493,192.04h80.2a1.524,1.524,0,0,1,1.523,1.523v49.174a1.524,1.524,0,0,1-1.523,1.523h-80.2a1.524,1.524,0,0,1-1.523-1.523V193.563A1.524,1.524,0,0,1,198.493,192.04Z" transform="translate(-196.97 -192.04)"/><rect class="j" width="77.107" height="45.505" transform="translate(3.022 3.267)"/><g transform="translate(38.766 12.625)"><rect class="n" width="38.908" height="26.789"/><rect class="i" width="38.908" height="2.454"/><g transform="translate(3.91 6.549)"><path class="g" d="M254.278,225.339l6.36,3.527a2.269,2.269,0,0,1,.639.481.883.883,0,0,1,.158.537.972.972,0,0,1-.3.71.946.946,0,0,1-.686.3,1.824,1.824,0,0,1-.773-.284l-8.206-4.561a.809.809,0,0,1,0-1.412l8.206-4.561a1.953,1.953,0,0,1,.765-.276,1.024,1.024,0,0,1,1,1.01.883.883,0,0,1-.158.537,2.051,2.051,0,0,1-.639.481Z" transform="translate(-251.055 -217.07)"/><path class="g" d="M273.657,218.036l-6.3,13.564a1.851,1.851,0,0,1-.434.663.93.93,0,0,1-.6.2.966.966,0,0,1-.694-.284.883.883,0,0,1-.292-.655,2.08,2.08,0,0,1,.229-.757l6.312-13.556a2.124,2.124,0,0,1,.418-.663.958.958,0,0,1,.608-.205.935.935,0,0,1,.686.284.887.887,0,0,1,.284.647A1.764,1.764,0,0,1,273.657,218.036Z" transform="translate(-254.068 -216.34)"/><path class="g" d="M284,225.335l-6.36-3.527a2.268,2.268,0,0,1-.639-.481.883.883,0,0,1-.158-.537,1.024,1.024,0,0,1,1-1.01,1.952,1.952,0,0,1,.765.276l8.206,4.561a.809.809,0,0,1,0,1.412l-8.206,4.561a1.874,1.874,0,0,1-.765.284.976.976,0,0,1-.71-.308,1,1,0,0,1-.292-.71.9.9,0,0,1,.158-.537,2.051,2.051,0,0,1,.639-.481Z" transform="translate(-256.494 -217.066)"/></g></g><g transform="translate(6.186 7.465)"><rect class="g" width="2.635" height="2.635"/><rect class="g" width="2.635" height="2.635" transform="translate(0 6.825)"/><rect class="g" width="2.635" height="2.635" transform="translate(0 13.643)"/><rect class="g" width="2.635" height="2.635" transform="translate(0 20.46)"/><rect class="g" width="2.635" height="2.635" transform="translate(0 27.278)"/><rect class="g" width="2.635" height="2.635" transform="translate(0 34.095)"/><g transform="translate(5.137 0.6)"><rect class="g" width="10.502" height="0.789"/></g><g transform="translate(7.583 7.433)"><rect class="g" width="3.74" height="0.789"/></g><g transform="translate(23.861 15.103)"><rect class="g" width="3.74" height="0.789"/></g><g transform="translate(7.583 21.186)"><rect class="g" width="3.74" height="0.789"/></g><g transform="translate(12.972 21.186)"><rect class="g" width="3.74" height="0.789"/></g><g transform="translate(12.972 15.103)"><rect class="g" width="9.556" height="0.789"/></g><g transform="translate(18.543 21.186)"><rect class="g" width="6.289" height="0.789"/></g><g transform="translate(18.519 35.807)"><rect class="g" width="3.74" height="0.789"/></g><g transform="translate(23.916 35.807)"><rect class="g" width="3.74" height="0.789"/></g><g transform="translate(29.479 35.807)"><rect class="g" width="2.091" height="0.789"/></g><g transform="translate(13.193 7.433)"><rect class="g" width="11.639" height="0.789"/></g><g transform="translate(12.972 28.311)"><rect class="g" width="3.74" height="0.789"/></g><g transform="translate(17.967 28.311)"><rect class="g" width="2.162" height="0.789"/></g><g transform="translate(21.778 28.311)"><rect class="g" width="6.107" height="0.789"/></g></g></g><g transform="translate(154.805 125.458)"><path class="i" d="M229.661,160.027c-.189,9.548-10.116,17.549-22.165,17.872a25.561,25.561,0,0,1-10.794-2c-1.207,3-3.772,5.571-11.1,6.723,7.654-5.91,3.464-10.9,1.72-15.308h0A13.887,13.887,0,0,1,186,161.179c.189-9.555,10.116-17.549,22.165-17.872C220.224,142.968,229.85,150.48,229.661,160.027Z" transform="translate(-185.6 -143.296)"/><g transform="translate(11.986 6.734)"><rect class="g" width="10.502" height="0.789"/><g transform="translate(2.446 6.841)"><rect class="g" width="3.74" height="0.789"/></g><g transform="translate(18.724 14.511)"><rect class="g" width="3.74" height="0.789"/></g><g transform="translate(2.446 20.594)"><rect class="g" width="3.74" height="0.789"/></g><g transform="translate(7.843 20.594)"><rect class="g" width="3.74" height="0.789"/></g><g transform="translate(7.843 14.511)"><rect class="g" width="9.556" height="0.789"/></g><g transform="translate(13.406 20.594)"><rect class="g" width="6.289" height="0.789"/></g><g transform="translate(8.064 6.841)"><rect class="g" width="11.639" height="0.789"/></g></g></g><g transform="translate(201.918 143.323)"><g transform="translate(35.272 92.669)"><g transform="translate(1.476)"><g transform="translate(0 68.088)"><path class="o" d="M297.632,389.521l-5.752-1.72,1.341-14.1,5.752,1.72Z" transform="translate(-291.88 -370.52)"/><path class="p" d="M299.732,371.382l-5.752-1.712-.75,7.9,5.815,1.081Z" transform="translate(-292.165 -369.67)"/></g><path class="i" d="M331.68,283.38S292.125,286.718,293.1,303.9c.8,14.061,2.88,10.242-1.215,52.054l9.95.552s10.124-34.2,8.759-47.785c11.149,0,36.675.978,40.384-9.082a44.76,44.76,0,0,0,2.643-15.939Z" transform="translate(-291.88 -283.38)"/></g><path class="q" d="M303.014,376.347l-13-2.225.213-5.752,13.461,2.991Z" transform="translate(-290.01 -301.308)"/></g><g transform="translate(24.766 174.033)"><path class="q" d="M288.085,388.564l6.644,1.318a.5.5,0,0,1,.379.56l-.552,6.281a1.107,1.107,0,0,1-1.215,1.034c-2.3-.505-3.393-.876-6.312-1.452-1.8-.355-5.91-1.223-8.411-1.5s-2.2-3.2-1.12-3.354c4.861-.647,7.622-1.428,9.508-2.643A1.442,1.442,0,0,1,288.085,388.564Z" transform="translate(-276.695 -386.926)"/><g transform="translate(7.211)"><path class="i" d="M287.03,389.576a7.529,7.529,0,0,0,1.578.047.128.128,0,0,0,.118-.087.167.167,0,0,0,0-.15c-.166-.166-1.657-1.578-2.422-1.42a.49.49,0,0,0-.387.331.785.785,0,0,0,.047.789A1.617,1.617,0,0,0,287.03,389.576Zm1.27-.213c-1.1,0-1.87-.126-2.1-.45a.485.485,0,0,1,0-.505.252.252,0,0,1,.182-.174C286.785,388.148,287.685,388.811,288.3,389.363Z" transform="translate(-285.833 -386.802)"/><path class="i" d="M289.07,389.316h.063a.154.154,0,0,0,.095-.1c0-.071.434-1.752-.071-2.422a.674.674,0,0,0-.552-.292.531.531,0,0,0-.568.331,3.1,3.1,0,0,0,.963,2.454A.086.086,0,0,0,289.07,389.316Zm-.41-2.533a.4.4,0,0,1,.276.174,3.14,3.14,0,0,1,.071,1.941,2.825,2.825,0,0,1-.71-1.965c0-.079.087-.166.292-.158Z" transform="translate(-286.287 -386.494)"/></g></g><g transform="translate(11.38 92.669)"><g transform="translate(0 69.832)"><path class="o" d="M265.206,392.261,259.73,389.8l3.787-13.509,5.476,2.462Z" transform="translate(-259.73 -372.81)"/><path class="p" d="M270.655,374.342l-5.476-2.462-1.949,6.967,5.476,2.462Z" transform="translate(-260.468 -371.88)"/></g><g transform="translate(0.26)"><path class="i" d="M313.617,283.38c-.26,0-44.345,4.537-44.4,19.49-.095,24.729-7.157,53.08-7.157,53.08l8.711,4.316s15.174-30.734,14.945-50.011c12.128-3.48,43.5,2.367,47.209-7.685,3.038-8.222,1.4-19.19,1.4-19.19Z" transform="translate(-260.482 -283.38)"/><path class="q" d="M271.738,379.717l-11.678-5.255L261,369.68l12.317,4.253Z" transform="translate(-260.06 -301.584)"/></g></g><g transform="translate(0 173.426)"><path class="q" d="M257.232,387.654l6.66,1.381a.553.553,0,0,1,.371.615l-.521,6.9c-.087.75-.631,1.262-1.207,1.144h0c-2.3-.537-3.393-.939-6.312-1.547-1.8-.371-6.7-1.554-9.169-2.2s-1.917-3.787-.789-3.811c4.884-.071,8.048-.868,9.926-2.233A1.322,1.322,0,0,1,257.232,387.654Z" transform="translate(-245.308 -386.127)"/><g transform="translate(7.494)"><path class="i" d="M256.5,389.22a7.358,7.358,0,0,0,1.3-.9.139.139,0,0,0,.047-.15.148.148,0,0,0-.118-.095c-.229-.039-2.265-.3-2.793.284a.54.54,0,0,0-.11.5.781.781,0,0,0,.505.608A1.606,1.606,0,0,0,256.5,389.22Zm.892-.923c-.86.671-1.578,1-1.949.884a.5.5,0,0,1-.3-.418.251.251,0,0,1,.047-.245A3.966,3.966,0,0,1,257.389,388.3Z" transform="translate(-254.805 -386.202)"/><path class="i" d="M257.981,387.844l.055-.039a.124.124,0,0,0,.016-.126c-.039-.055-.694-1.673-1.491-1.917a.688.688,0,0,0-.615.095.541.541,0,0,0-.26.608c.166.647,1.531,1.357,2.233,1.4A.532.532,0,0,1,257.981,387.844Zm-1.839-1.8a.391.391,0,0,1,.324-.032,3.16,3.16,0,0,1,1.215,1.523,2.838,2.838,0,0,1-1.744-1.16c-.047-.063-.024-.182.142-.3Z" transform="translate(-254.987 -385.726)"/></g></g><g transform="translate(49.499 44.963)"><path class="o" d="M340.575,222.92c1.16,2.493,2.115,4.892,3.069,7.386s1.8,4.987,2.58,7.543,1.46,5.176,2,7.891a41.211,41.211,0,0,1,.884,8.577,17.567,17.567,0,0,1-.75,4.995,11.145,11.145,0,0,1-1.318,2.809,9.007,9.007,0,0,1-1.128,1.373l-.339.331c-.189.158-.395.331-.592.466a6,6,0,0,1-1.057.584,8.093,8.093,0,0,1-1.7.544,11.681,11.681,0,0,1-1.4.205,20.4,20.4,0,0,1-2.407,0,34.927,34.927,0,0,1-4.245-.473,80.671,80.671,0,0,1-15.316-4.387L320,256.416c5.011.6,10.124,1.239,14.945,1.46,1.2,0,2.367.055,3.456,0a9.887,9.887,0,0,0,1.444-.181c.395-.071.734-.213.615-.205a.828.828,0,0,0-.221.111,1.465,1.465,0,0,0-.221.166h0a1.226,1.226,0,0,0,.071-.134,3.674,3.674,0,0,0,.237-.7,11.365,11.365,0,0,0,.213-2.635,34.959,34.959,0,0,0-1-6.7c-.537-2.367-1.231-4.671-1.988-7.015s-1.578-4.687-2.478-7.023-1.846-4.679-2.777-6.881Z" transform="translate(-310.322 -222.92)"/><path class="o" d="M320.969,266.083l-5.231-2.943-2.628,5.665s6.115,2.549,7.4.955Z" transform="translate(-309.109 -231.404)"/><path class="o" d="M310.431,264.2l-2.391,3.787,4,.765,2.628-5.665Z" transform="translate(-308.04 -231.394)"/></g><g transform="translate(12.484 45.989)"><path class="o" d="M318.464,227.692c-1,2.517-2.052,4.924-3.156,7.362s-2.209,4.837-3.377,7.236a139.3,139.3,0,0,1-7.891,14.2c-.789,1.168-1.578,2.328-2.462,3.488-.442.584-.931,1.16-1.452,1.752-.284.3-.513.576-.844.884l-.473.458-.268.253a6.723,6.723,0,0,1-2.588,1.373,11.227,11.227,0,0,1-1.531.323,16.066,16.066,0,0,1-2.541.1,32.43,32.43,0,0,1-4.371-.434,80.354,80.354,0,0,1-15.639-4.435l1.152-4.356c5.105.615,10.321,1.27,15.229,1.476a31.83,31.83,0,0,0,3.472-.047,8.99,8.99,0,0,0,1.381-.221,1.629,1.629,0,0,0,.426-.158c.047,0,0-.055-.213.079a.83.83,0,0,0-.213.158s.055-.071.079-.095l.221-.245c.142-.142.316-.379.481-.568.324-.41.655-.852.986-1.333.655-.939,1.294-1.981,1.925-3.038,1.262-2.115,2.438-4.363,3.59-6.636s2.257-4.592,3.346-6.928c2.17-4.655,4.292-9.429,6.312-14.124Z" transform="translate(-263.396 -224.22)"/><g transform="translate(0 29.834)"><path class="o" d="M274.067,265.013l-5.239-2.983L266.2,267.7s6.115,2.557,7.409.963Z" transform="translate(-262.199 -262.03)"/><path class="o" d="M263.529,263.15l-2.4,3.78,4,.765,2.628-5.665Z" transform="translate(-261.13 -262.03)"/></g></g><g transform="translate(62.108 5.386)"><path class="o" d="M345,193.14l-3.346,3.874-5.105,5.279c.1.26.245.6.387.955a9.428,9.428,0,0,1,.679,3.054c.11,2.115-.095,3.906-3.432,5.342,0,0-3.5,4.577,4.829,3.306s9.587-5.594,9.587-5.594C344.916,206.735,344.711,198,345,193.14Z" transform="translate(-326.01 -177.061)"/><path class="q" d="M326.229,187.355c0,.521-.26.963-.608.978s-.623-.395-.631-.915.268-.963.608-.978S326.221,186.834,326.229,187.355Z" transform="translate(-324.225 -175.648)"/><path class="q" d="M328.112,184.613a.3.3,0,0,1-.253-.142,2.562,2.562,0,0,0-1.91-1.215.319.319,0,0,1-.3-.316.3.3,0,0,1,.316-.3h0a3.16,3.16,0,0,1,2.415,1.5.316.316,0,0,1-.095.426A.359.359,0,0,1,328.112,184.613Z" transform="translate(-324.364 -174.846)"/><path class="r" d="M325.835,187.97a16.9,16.9,0,0,1-1.815,4.04,2.529,2.529,0,0,0,2.146.158Z" transform="translate(-324.02 -175.971)"/><path class="o" d="M343.78,181.843c-.308,6.439-.166,10.258-3.361,13.666a8.384,8.384,0,0,1-14.377-3.716c-1.452-5.7-.694-15.276,5.523-18.148a8.477,8.477,0,0,1,12.215,8.2Z" transform="translate(-324.314 -172.763)"/></g><g transform="translate(58.843)"><g transform="translate(7.551 12.004)"><path class="q" d="M347.551,185.758a23.845,23.845,0,0,1-4.182,7.5l-8.38,1.578s-6.62-2.77-4.853-7.33c-1.12-.947-.7-3.874.087-5.484a3.415,3.415,0,0,0,4.474-.118,3.065,3.065,0,0,0,4.853.4,3.234,3.234,0,0,0,5.1-.821,2.9,2.9,0,0,0,3.377-.221c.039-.039.079-.071.118-.11A11.517,11.517,0,0,1,347.551,185.758Z" transform="translate(-329.452 -181.15)"/><path class="s" d="M347.551,185.758a23.845,23.845,0,0,1-4.182,7.5l-8.38,1.578s-6.62-2.77-4.853-7.33c-1.12-.947-.7-3.874.087-5.484a3.415,3.415,0,0,0,4.474-.118,3.065,3.065,0,0,0,4.853.4,3.234,3.234,0,0,0,5.1-.821,2.9,2.9,0,0,0,3.377-.221c.039-.039.079-.071.118-.11A11.517,11.517,0,0,1,347.551,185.758Z" transform="translate(-329.452 -181.15)"/></g><path class="q" d="M346.74,174.745a2.911,2.911,0,0,1-.615,3.2c-.039.039-.079.071-.118.11a2.9,2.9,0,0,1-3.377.221,3.234,3.234,0,0,1-5.1.821,3.065,3.065,0,0,1-4.853-.4,3.415,3.415,0,0,1-4.474.118,2.725,2.725,0,0,1-.789-.978,1.84,1.84,0,0,1-.111-.26,1.867,1.867,0,0,1-.221.213,2.435,2.435,0,0,1-2.809.166,2.394,2.394,0,0,1-1.01-2.123,2.185,2.185,0,0,1,.087-.505,1.365,1.365,0,0,1-.237.324,1.971,1.971,0,0,1-2.809-.071,2.442,2.442,0,0,1,.781-3.44,2.9,2.9,0,0,1,1.483-.395,3.8,3.8,0,0,1,2.265.781,2.333,2.333,0,0,1,3.74-2.785,2.059,2.059,0,0,1,.844-2.138,3.333,3.333,0,0,1,3.787.971s1.215-2.935,3.314-2.6c.458.063,2.612,1.018,2.557,1.791a.326.326,0,0,1-.039.15,1.254,1.254,0,0,1,.1-.174,2.338,2.338,0,0,1,2.02-.955,6.782,6.782,0,0,1,2.43.647c1.633.671,3.369,1.42,4.316,2.912S348.437,174.272,346.74,174.745Z" transform="translate(-319.882 -165.937)"/><path class="o" d="M333.742,189.059a7.511,7.511,0,0,1-2.083,4.214c-1.428,1.365-2.643,0-2.659-2.075,0-1.878.7-4.853,2.367-5.405S334.05,187.016,333.742,189.059Z" transform="translate(-321.806 -170.104)"/></g><g transform="translate(60.948 36.773)"><path class="q" d="M357.616,215.7c-.592-1.578-3.353-3.156-5.05-3.156h-1.12a61.294,61.294,0,0,0-6.762.434,120.462,120.462,0,0,0-13.414,2.257c-2.036.537-4,1.215-5.563,1.8-1.988.789-3.156,1.318-3.156,1.318s2.178,14.5,3.306,28.919c.623,8.017.371,15.978.568,21.454h33.661c1.16-6.581.978-12.317,1.073-24.2C361.214,237.387,360.054,222.19,357.616,215.7Z" transform="translate(-322.55 -212.54)"/><path class="p" d="M325.82,243.091c.253,3.022.513,6.194.789,9.366,3.945-5.76,6.131-21.518,6.131-21.518Z" transform="translate(-323.24 -216.421)"/></g><path class="q" d="M317.588,220.821c-4.821,2.714-9.548,16.6-9.548,16.6l11.039,8.332c4.214-3.985,10.376-13.872,11.047-17.825C331.207,221.863,325.313,216.5,317.588,220.821Z" transform="translate(-258.541 -177.184)"/><g transform="translate(23.297 30.878)"><g transform="translate(19.353 149.621)"><path class="q" d="M306.225,399.522a3.432,3.432,0,1,1-3.432-3.432,3.435,3.435,0,0,1,3.432,3.432Z" transform="translate(-299.36 -394.985)"/><path class="q" d="M372.95,399.522a3.432,3.432,0,1,0,3.432-3.432,3.435,3.435,0,0,0-3.432,3.432Z" transform="translate(-314.883 -394.985)"/><path class="q" d="M336.27,398.122a3.432,3.432,0,1,0,3.432-3.432,3.435,3.435,0,0,0-3.432,3.432Z" transform="translate(-307.146 -394.69)"/></g><g transform="translate(15.606 142.188)"><path class="q" d="M329.85,391.906V385.27h-9.832a31.215,31.215,0,0,0-5.752.536l-18.306,3.559a1.665,1.665,0,0,0,.371,3.3Z" transform="translate(-294.612 -385.27)"/><path class="q" d="M339.27,391.906V385.27h9.84a31.216,31.216,0,0,1,5.752.536l20.579,3.29a1.665,1.665,0,0,1-.371,3.3Z" transform="translate(-304.032 -385.27)"/></g><g transform="translate(44.753 97.67)"><rect class="q" width="12.175" height="30.387" transform="translate(0 14.14)"/><rect class="q" width="8.68" height="14.132" transform="translate(1.752)"/><path class="j" d="M333.77,333l8.68,2.186V328.85h-8.68Z" transform="translate(-332.018 -328.85)"/></g><g transform="translate(0.021)"><rect class="q" width="4.411" height="18.819" transform="translate(18.354 65.697)"/><path class="i" d="M331.74,302.74V220.922a10.736,10.736,0,0,1,3.669-8.088l5.831-5.105a10.754,10.754,0,0,1,7.078-2.659h21.068l10.3,10.952v86.71H331.74Z" transform="translate(-286.858 -205.07)"/><path class="i" d="M288.377,308.79H336.43v15.829H280.549a5.677,5.677,0,0,1-4.892-8.577h0A14.756,14.756,0,0,1,288.377,308.79Z" transform="translate(-274.86 -226.949)"/><path class="t" d="M367.679,216.032v86.71H280.551a5.687,5.687,0,0,1-4.892-8.577,14.761,14.761,0,0,1,12.7-7.251h24.2a7.19,7.19,0,0,0,7.188-7.188v-58.8a10.719,10.719,0,0,1,3.669-8.08l5.831-5.105a10.713,10.713,0,0,1,7.078-2.659h21.06Z" transform="translate(-274.862 -205.072)"/><g transform="translate(51.889)"><path class="i" d="M340.62,302.74V220.922a10.736,10.736,0,0,1,3.669-8.088l5.831-5.105a10.754,10.754,0,0,1,7.078-2.659h16.42a10.727,10.727,0,0,1,7.827,3.385l4.2,4.466a10.762,10.762,0,0,1,2.912,7.362v74.258a8.193,8.193,0,0,1-8.19,8.19H340.62Z" transform="translate(-340.62 -205.07)"/><path class="k" d="M340.62,302.74V220.922a10.736,10.736,0,0,1,3.669-8.088l5.831-5.105a10.754,10.754,0,0,1,7.078-2.659h16.42a10.727,10.727,0,0,1,7.827,3.385l4.2,4.466a10.762,10.762,0,0,1,2.912,7.362v74.258a8.193,8.193,0,0,1-8.19,8.19H340.62Z" transform="translate(-340.62 -205.07)"/></g></g><g transform="translate(0 61.235)"><path class="i" d="M310.394,292.881a45.535,45.535,0,0,0-29.984,0,4.265,4.265,0,0,1-5.279-2.012h0c-.9-1.9.308-4.363,2.754-5.224a53.083,53.083,0,0,1,35.018,0c2.446.852,3.653,3.322,2.754,5.224h0A4.275,4.275,0,0,1,310.394,292.881Z" transform="translate(-274.833 -282.675)"/><path class="t" d="M310.394,292.881a45.535,45.535,0,0,0-29.984,0,4.265,4.265,0,0,1-5.279-2.012h0c-.9-1.9.308-4.363,2.754-5.224a53.083,53.083,0,0,1,35.018,0c2.446.852,3.653,3.322,2.754,5.224h0A4.275,4.275,0,0,1,310.394,292.881Z" transform="translate(-274.833 -282.675)"/></g></g></g><g transform="translate(90.436 149.179)"><g transform="translate(0 0)"><g transform="translate(25.787)"><g transform="translate(3.24 5.587)"><path class="q" d="M164.47,196.209c-.166.466-.047.931.26,1.034s.686-.181.844-.647.047-.939-.253-1.042S164.636,195.736,164.47,196.209Z" transform="translate(-145.785 -183.623)"/><path class="u" d="M163.973,197.01a17.9,17.9,0,0,0,.844,4.782,2.88,2.88,0,0,1-2.367-.363Z" transform="translate(-145.375 -183.934)"/><path class="q" d="M163.481,192.183a.241.241,0,0,0,.181,0,2.292,2.292,0,0,1,2.075.316.3.3,0,0,0,.41-.063.289.289,0,0,0-.032-.379,2.906,2.906,0,0,0-2.62-.434.292.292,0,0,0,0,.552Z" transform="translate(-145.554 -182.769)"/><path class="v" d="M142.191,198.57c.884,4.49,1.76,12.72-1.381,15.718,0,0,1.231,4.553,9.579,4.553,9.177,0,4.387-4.553,4.387-4.553-5.011-1.2-4.206-4.916-3.33-8.4Z" transform="translate(-140.81 -184.263)"/><path class="v" d="M144.625,186.6c-1.641,5.871-2.9,9.224-1.026,13.177,2.817,5.957,12.664,6.731,15.347-.087,2.044-6.281,4.064-12.917-.765-17.154a8.316,8.316,0,0,0-13.556,4.064Z" transform="translate(-141.201 -180.439)"/></g><path class="q" d="M137.008,187.066c-.426-2.162-.537-4.529.544-6.455s3.693-3.1,5.594-1.981A9.228,9.228,0,1,1,156.23,190.5c.442-1.61.876-3.227,1.318-4.837a9.4,9.4,0,0,1-3.361,5.721c.253-1.61.505-3.227.758-4.837a7.394,7.394,0,0,1-3.582,5.563c.308-1.128.615-2.257.923-3.393a29.683,29.683,0,0,1-1.783,4.537c-.773.9-1.294,6.833-4.016,7.023C137.2,202.137,138,192.116,137.008,187.066Z" transform="translate(-136.703 -173.359)"/><path class="v" d="M152.99,193.7a6.951,6.951,0,0,0,.963,4.316c1.049,1.689,2.588,1.042,3.156-.686.505-1.578.56-4.3-.9-5.4S153.211,191.883,152.99,193.7Z" transform="translate(-140.131 -177.182)"/></g><g transform="translate(0 53.442)"><path class="v" d="M120.425,261.037c-1-.331-5.7-2.746-6.447-2.312,2.17-5.531,3.519-6.376,4.506-9.895a5.417,5.417,0,0,0-1.049-5.137c-1.389-1.854-1.87-2.8-4.182-2.572-3.172,5.3-7.165,11.852-8.727,17.825-.529,2.012-.907,3.543.292,5.239a6.451,6.451,0,0,0,4.837,2.265c4.4.395,10.921-.41,10.842-3.022C120.441,261.786,120.425,261.037,120.425,261.037Z" transform="translate(-104.023 -241.087)"/><g transform="translate(14.477 18.434)"><path class="v" d="M123.554,265.8l3.724-1.207-.331,6.731s-2.983.11-4.577-1.894Z" transform="translate(-122.37 -264.48)"/><path class="v" d="M133.157,264.45,132.628,270l-4.458,1.286.331-6.731Z" transform="translate(-123.593 -264.45)"/></g></g><g transform="translate(49.156 32.431)"><path class="v" d="M183.908,263.481s-5.192-4.072-12.017-17.533c-1.01-1.878-1.981-3.78-2.9-5.689-.931-1.933-1.823-3.819-2.667-5.847l8.064-3.472c1.665,3.614,4.245,7.346,6.076,10.936s6.155,12.1,6.691,12.885c.268.41.56.75.836,1.128l.418.552-5.2,6.013Z" transform="translate(-166.32 -217.936)"/><g transform="translate(16.507 8.143)"><g transform="translate(5.539)"><path class="v" d="M196.627,236.527,195.01,234.6l-.75-2.88,4.868-4.521a21.665,21.665,0,0,1,2,3.014,1.472,1.472,0,0,1,.166.781l-.2,5.066Z" transform="translate(-194.26 -225.29)"/><path class="v" d="M194.341,228.086l3.638-3.306,1.152,1.933-4.861,4.5Z" transform="translate(-194.262 -224.78)"/></g><path class="v" d="M195.217,236.992c.126-.544.237.521.6.095,1.073-1.286,2.643-1.428,3.567-.032s.134,15.481-1.349,19.892c-.986,2.927-1.515,5.271-4.04,7.054a6.127,6.127,0,0,1-3.551,1.27,3.366,3.366,0,0,1-3.077-1.9c-.75-1.839,2.036-8.467,3.03-10.6C193.513,246.058,193.726,243.352,195.217,236.992Z" transform="translate(-187.24 -227.16)"/></g><g transform="translate(14.025)"><path class="i" d="M184.115,231.827c2.146-.024,4.3-.039,6.447-.063a6.245,6.245,0,0,0,2.7-.426,4.9,4.9,0,0,0,2.2-2.754c.915-2.336.986-4.908,1.349-7.386s1.113-5.074,2.991-6.739c-3.425.458-9.484-.615-12.112,2.186C186.3,218.129,183.846,231.827,184.115,231.827Z" transform="translate(-184.094 -214.46)"/><path class="k" d="M184.115,231.827c2.146-.024,4.3-.039,6.447-.063a6.245,6.245,0,0,0,2.7-.426,4.9,4.9,0,0,0,2.2-2.754c.915-2.336.986-4.908,1.349-7.386s1.113-5.074,2.991-6.739c-3.425.458-9.484-.615-12.112,2.186C186.3,218.129,183.846,231.827,184.115,231.827Z" transform="translate(-184.094 -214.46)"/><path class="v" d="M197.953,224.324h0c-.371.095-.615,1.42-.537,1.8l.363.647.734,3.2,2.462-1.365-2.217-3.937A.727.727,0,0,0,197.953,224.324Z" transform="translate(-186.901 -216.536)"/></g></g><path class="i" d="M123.814,219.872c-5.76,1.318-14.274,19.261-14.274,19.261l11.56,7.891a130.718,130.718,0,0,0,9-14.874C133.5,225.009,129.7,218.523,123.814,219.872Z" transform="translate(-105.187 -183.133)"/><g transform="translate(13.972 32.887)"><path class="q" d="M138.085,219.324c-.663-1.444-1.381-3.093.11-3.606,1.649-.568,10.676-1.152,13.785-.087a3.2,3.2,0,0,1,2.249,3.93c-.008.024-.008.039-.016.063Z" transform="translate(-125.018 -215.038)"/><path class="p" d="M129.944,233.06l-8.214,15.466,1.941,1.326s3.724-5.184,6.281-9.666V233.06Z" transform="translate(-121.73 -218.84)"/><path class="i" d="M162.477,227.459c1.247,6.3-1.665,21.281-1.633,45.742H127.995c-.213-4.947,3.377-16.657-1.089-39.982-.142-.757-.213-13.532.544-13.659a85.5,85.5,0,0,1,9.619-1.136,117.814,117.814,0,0,1,13.966,0,35.439,35.439,0,0,1,6.778,2.052C160.764,221.541,161.869,224.39,162.477,227.459Z" transform="translate(-122.803 -215.709)"/><path class="p" d="M161,237.88c.86,5.184,4.253,12.033,7.646,16.057.134-2.943.426-6.013.418-8.372Z" transform="translate(-130.014 -219.856)"/></g><path class="i" d="M158.02,226.651c-.789,5.815,10.652,20.665,10.652,20.665l11.512-7.891s-3.2-8.183-8.569-13.548C165.492,219.724,158.919,220.323,158.02,226.651Z" transform="translate(-115.405 -183.528)"/><g transform="translate(80.245 157.6)"><path class="v" d="M205.72,387.317h6.139l1.4-14.227h-6.139Z" transform="translate(-205.72 -373.09)"/><path class="p" d="M213.317,374.19l-.71,7.33H206.46l.718-7.33Z" transform="translate(-205.876 -373.322)"/></g><g transform="translate(56.029 157.6)"><path class="v" d="M175.03,387.317h6.139l3.085-14.227h-6.139Z" transform="translate(-175.03 -373.09)"/><g class="w" transform="translate(1.357 0.765)"><path d="M178.344,374.06h6.139l-1.594,7.33H176.75Z" transform="translate(-176.75 -374.06)"/></g></g><path class="q" d="M211.677,387.63h-6.7a.6.6,0,0,0-.529.552l-1.215,7.023a1.2,1.2,0,0,0,.663,1.389.713.713,0,0,0,.221.032c2.415-.047,5.91-.237,8.948-.237,3.559,0,6.628.245,10.794.245,2.525,0,3.227-3.3,2.17-3.6-4.805-1.357-8.727-1.5-12.877-4.821A2.431,2.431,0,0,0,211.677,387.63Z" transform="translate(-124.946 -218.557)"/><g transform="translate(89.623 168.398)"><path class="i" d="M219.589,390.123c.789,0,1.578-.11,1.807-.466a.558.558,0,0,0,0-.639.8.8,0,0,0-.458-.339c-1.026-.276-3.156.947-3.259,1a.133.133,0,0,0-.071.15.153.153,0,0,0,.11.118A9.936,9.936,0,0,0,219.589,390.123Zm.978-1.191a.812.812,0,0,1,.276,0,.418.418,0,0,1,.284.205c.1.181.071.268,0,.316-.284.4-1.839.41-2.983.245A6.9,6.9,0,0,1,220.568,388.932Z" transform="translate(-217.605 -387.168)"/><path class="i" d="M217.736,389.556h.063c.742-.331,2.209-1.657,2.091-2.367,0-.166-.142-.363-.537-.41a1.071,1.071,0,0,0-.789.253,4.1,4.1,0,0,0-.955,2.367.143.143,0,0,0,.055.134A.127.127,0,0,0,217.736,389.556Zm1.5-2.486h.087c.26,0,.276.134.284.166.071.418-.931,1.46-1.689,1.91a3.391,3.391,0,0,1,.789-1.886A.866.866,0,0,1,219.235,387.071Z" transform="translate(-217.606 -386.775)"/></g><path class="q" d="M181.047,387.63h-6.9a.59.59,0,0,0-.521.552l-1.215,7.023a1.219,1.219,0,0,0,.694,1.4.859.859,0,0,0,.205.024c2.407-.047,3.582-.237,6.612-.237,1.87,0,4.261.245,6.841.245s2.912-3.3,1.854-3.6c-4.734-1.341-5.058-3.188-6.573-4.955A1.318,1.318,0,0,0,181.047,387.63Z" transform="translate(-118.446 -218.557)"/><g transform="translate(64.494 169.21)"><path class="i" d="M187.472,391.121a1.98,1.98,0,0,0,1.476-.4.58.58,0,0,0,0-.686.672.672,0,0,0-.458-.339c-.9-.213-2.6.947-2.667.994a.165.165,0,0,0-.063.15.134.134,0,0,0,.11.11A7.324,7.324,0,0,0,187.472,391.121Zm.789-1.168a.638.638,0,0,1,.174,0,.355.355,0,0,1,.268.189c.134.245.055.339,0,.379-.26.339-1.515.347-2.438.2a4.722,4.722,0,0,1,1.981-.765Z" transform="translate(-185.758 -388.197)"/><path class="i" d="M185.91,390.563h.063c.639-.347,1.87-1.689,1.736-2.367a.474.474,0,0,0-.466-.387.793.793,0,0,0-.615.189c-.71.584-.86,2.367-.868,2.43a.155.155,0,0,0,.071.134A.135.135,0,0,0,185.91,390.563Zm1.239-2.486h.063c.189,0,.205.11.213.15.079.4-.71,1.42-1.341,1.9a3.423,3.423,0,0,1,.726-1.925.53.53,0,0,1,.339-.126Z" transform="translate(-185.758 -387.804)"/></g><g transform="translate(17.854 90.388)"><g transform="translate(0 0)"><path class="q" d="M150.961,287.91s29.077,12,35.089,21.234c-3.574,23.467-9.989,50.2-9.989,50.2H165.125a215.817,215.817,0,0,1,2.833-34.529c1.578-28.682-50.042.994-40.013-36.9Z" transform="translate(-126.65 -287.91)"/><path class="x" d="M179.611,312.976a52.657,52.657,0,0,0-6.076.7c-2.123.323-4.245.655-6.376.978a95.071,95.071,0,0,0,10.384,7.591c2.2,1.389,4.592,2.738,7.2,2.746,2.92.016,10.842-3.748,9.524-7.63C192.939,313.426,182.925,312.85,179.611,312.976Z" transform="translate(-135.196 -293.194)"/></g><path class="q" d="M162.061,287.91s26.875,3.464,41.694,11.907c4.561,2.6,3.922,10.936,3.8,16.428a129.649,129.649,0,0,1-8.38,43.1h-9.122s.466-14.89.158-38.916c-.095-7.2-14.637-9.579-28.848-10.416a32.35,32.35,0,0,1-27.806-19.782l-.971-2.32h29.471Z" transform="translate(-127.903 -287.91)"/><path class="i" d="M216.184,375.34c.047,0-.592,4.316-.592,4.316H202.967l-.347-3.851Z" transform="translate(-142.676 -306.353)"/><path class="i" d="M186.925,375.34c.047,0-1.16,4.316-1.16,4.316H173.14l.229-3.851Z" transform="translate(-136.457 -306.353)"/></g><g transform="translate(9.569 108.694)"><g transform="translate(14.148 2.967)"><path class="i" d="M144.764,315.375l-9.051,66.683-1.633-.229,6.983-66.96Z" transform="translate(-134.08 -314.87)"/><path class="n" d="M144.432,318.528l-8.719,64.3-1.633-.229,6.683-64.079Z" transform="translate(-134.08 -315.64)"/></g><g transform="translate(5.358)"><path class="i" d="M174.229,316.965H122.94a5.853,5.853,0,0,1,5.855-5.855h39.579a5.858,5.858,0,0,1,5.855,5.855Z" transform="translate(-122.94 -311.11)"/><path class="t" d="M174.229,316.965H122.94a5.853,5.853,0,0,1,5.855-5.855h39.579a5.858,5.858,0,0,1,5.855,5.855Z" transform="translate(-122.94 -311.11)"/></g><path class="i" d="M123.883,318.52l-7.733,64.829h1.657l9.808-64.829Z" transform="translate(-116.15 -312.673)"/><g transform="translate(50.547 5.847)"><path class="i" d="M183.934,318.52l7.733,64.829H190.01l-9.8-64.829Z" transform="translate(-180.21 -318.52)"/><path class="n" d="M183.934,318.52l7.733,64.829H190.01l-9.8-64.829Z" transform="translate(-180.21 -318.52)"/></g><path class="i" d="M170.822,318.52l.15,64.829h-1.649L167.09,318.52Z" transform="translate(-126.895 -312.673)"/></g></g></g></g></svg>