<svg xmlns="http://www.w3.org/2000/svg" width="314" height="155.767" viewBox="0 0 314 155.767"><defs><style>.a{fill:#dde8fd;}.b{fill:#010117;}.c{fill:#bed2fa;}.d,.n{fill:#e75755;}.e{fill:#060632;}.f{fill:#0b0754;}.g{fill:#fc9290;}.h{fill:#fa7269;}.i{fill:#ea8888;}.j{fill:#3662c1;}.k{fill:#120e59;}.l{fill:#6d89cf;}.m{fill:#ed6966;}.n{opacity:0.4;}.o{fill:#dee9fd;}.p{fill:#c1d4fa;}.q{fill:#9e332e;}</style></defs><g transform="translate(-41.711 -75.7)"><g transform="translate(41.711 75.7)"><g transform="translate(7.595 12.143)"><path class="a" d="M354.874,306.485s33.59,2.634,43.936-17.034c15.381-29.244-14.513-52.817-36.2-48.573-47.257,9.248-35.877-92.767-111.72-71.947-21.324,5.854-78.944-28.924-95.014,26.839-3.822,13.26-17.36,14.72-37.014,23.134C80.4,235.37,97.986,306.763,125.47,307.042S354.874,306.485,354.874,306.485Z" transform="translate(-96.635 -163.523)"/><path class="b" d="M428.552,1198.938h-295.2a.264.264,0,0,1-.263-.264h0a.265.265,0,0,1,.263-.264h295.2a.264.264,0,0,1,.263.264h0A.264.264,0,0,1,428.552,1198.938Z" transform="translate(-128.049 -1055.314)"/></g><path class="c" d="M163.313,135.83l-3.874-.089c1.244,1.614,1.525,3.1.749,4.357-.774,1.283-2.63,2.338-5.4,3.137a49.991,49.991,0,0,0-11.51-52.875A50.125,50.125,0,0,0,88.409,79.626c-.737.318-1.474.647-2.185.991,0,0,0,0-.007,0-2.153-.657-4.249-1.195-6.271-1.605-10.21-2.073-17.457-.64-20.4,4.032-2.8,4.444-1.276,11.132,4.282,18.934,0,0,0,0,0,0-.749,1.385-1.423,2.808-2.045,4.281-.47,1.1-.889,2.211-1.271,3.341-10.442.622-16.033,2.46-18.065,5.789-2.363,3.874.864,9.075,11.192,14.131,1.423.7,2.948,1.384,4.548,2.071a48.952,48.952,0,0,0,3.6,13.618,50.058,50.058,0,0,0,92.017.47c5.094-1.055,8.448-2.706,9.783-4.891A4.508,4.508,0,0,0,163.313,135.83Zm-11.955,8.2a77.2,77.2,0,0,1-12.565,1.016,183.939,183.939,0,0,1-25.757-1.735q1.172-2.551,2.294-5.234a70.745,70.745,0,0,0,8.341,2.268,42.293,42.293,0,0,0,8.328.926c5.831,0,10.008-1.683,12.071-4.958a8.506,8.506,0,0,0,.83-1.716h-2.973c-.05.09-.1.18-.156.267-1.532,2.432-4.957,3.689-9.766,3.688a39.722,39.722,0,0,1-7.8-.871,67.905,67.905,0,0,1-7.85-2.124q1.074-2.686,2.084-5.469c1.811-5,3.363-9.947,4.617-14.7a126.2,126.2,0,0,0,18.378,1.267q6.089,0,12.619-.492a47.394,47.394,0,0,1,.972,9.588A46.827,46.827,0,0,1,151.358,144.026ZM89.433,168.833c-1.445-.524-2.179-2.6-2.54-4.248a37.239,37.239,0,0,1-.3-10.581c.189-2.183.5-4.5.906-6.933a128.727,128.727,0,0,1,17.507,6.058c-1.287,2.219-2.588,4.277-3.89,6.142A37.2,37.2,0,0,1,94.1,167.2C92.772,168.236,90.879,169.358,89.433,168.833Zm16.883-18.025a131.357,131.357,0,0,0-18.339-6.351q.328-1.69.719-3.437,2.591.589,5.252,1.138c5.189,1.062,10.366,1.962,15.434,2.692C108.377,146.925,107.353,148.916,106.316,150.808ZM95.091,140.277q-3.007-.618-5.922-1.291c.914-3.8,2.037-7.769,3.349-11.811a115.9,115.9,0,0,0,20.308,10.016c-.823,1.965-1.669,3.883-2.533,5.737C105.308,142.213,100.207,141.327,95.091,140.277ZM78.445,88.928a31.379,31.379,0,0,0,1.842,3.242,44.009,44.009,0,0,0,11.207,11.485,54.855,54.855,0,0,0,5.9,3.671c-1.9,4.148-3.717,8.574-5.383,13.17q-.467,1.286-.908,2.566c-9.957-6.481-18.386-13.917-23.915-21.114l0,0a47.255,47.255,0,0,1,4.75-6.691c.737-.864,1.5-1.7,2.3-2.515l.33-.33A47.538,47.538,0,0,1,78.445,88.928Zm42.573-7.182c1.445.524,2.179,2.6,2.54,4.248a37.238,37.238,0,0,1,.3,10.581,105.462,105.462,0,0,1-2.765,15.807q-2.551-.44-4.979-1a71.673,71.673,0,0,1-15.235-5.252,107.615,107.615,0,0,1,8.457-14.827,37.244,37.244,0,0,1,7.012-7.93,7.211,7.211,0,0,1,3.876-1.764A2.343,2.343,0,0,1,121.018,81.747Zm-5.682,32.181q2.485.577,5.1,1.029c-1.222,4.6-2.728,9.387-4.481,14.224q-1.014,2.8-2.1,5.5A113.49,113.49,0,0,1,93.4,124.527q.533-1.558,1.1-3.125c1.629-4.492,3.4-8.816,5.253-12.866A74.155,74.155,0,0,0,115.336,113.928ZM141.22,92.407a46.956,46.956,0,0,1,12.219,21.135,138.37,138.37,0,0,1-29.723-.743A107.971,107.971,0,0,0,126.5,96.806c.46-5.294.4-11.566-1.742-15.1q.747.286,1.486.6A46.8,46.8,0,0,1,141.22,92.407ZM107.9,78.6a47.269,47.269,0,0,1,9.617.98c-3.7,1.612-7.483,6.1-10.354,10.213a110.165,110.165,0,0,0-8.639,15.131,52.151,52.151,0,0,1-5.3-3.291A40.825,40.825,0,0,1,82.616,90.886a27.907,27.907,0,0,1-2.009-3.59A47.138,47.138,0,0,1,86.7,83.62h0q1.3-.655,2.644-1.229l.195-.084.046-.019c.191-.08.383-.159.575-.236l.155-.061A46.816,46.816,0,0,1,107.9,78.6ZM61.845,84.5c1.532-2.432,4.957-3.688,9.766-3.688a39.721,39.721,0,0,1,7.8.871q1.639.332,3.343.781h0a49.188,49.188,0,0,0-10.249,7.9c-.648.635-1.271,1.3-1.881,1.981-.762.838-1.486,1.715-2.185,2.605a50.175,50.175,0,0,0-3.1,4.434l0,0C61.085,93.077,59.808,87.728,61.845,84.5Zm2.6,22.9c.419-.965.852-1.918,1.322-2.846,0,0,0,0,0,0,5.823,7.277,14.405,14.718,24.433,21.171-1.421,4.328-2.635,8.58-3.614,12.656a193.706,193.706,0,0,1-19.982-5.9c-1.244-.445-2.452-.9-3.608-1.359-.686-.267-1.359-.546-2.02-.825-.1-1.016-.178-2.045-.2-3.074-.012-.5-.025-.978-.025-1.474,0-.571.012-1.156.025-1.728a47.646,47.646,0,0,1,2.16-12.5c.216-.686.445-1.359.7-2.033C63.888,108.783,64.155,108.085,64.448,107.4Zm-8.5,20.632c-9.007-4.4-13.123-8.639-11.282-11.649,1.486-2.439,6.9-4.09,15.181-4.7a48.705,48.705,0,0,0-1.881,10.57c-.076,1.067-.115,2.135-.127,3.215v.279c0,1.08.039,2.16.1,3.227C57.257,128.666,56.6,128.348,55.949,128.03Zm6.835,5.4c1.22.458,2.464.915,3.747,1.359,5.9,2.044,12.511,3.944,19.583,5.629q-.386,1.719-.711,3.388c-.578-.14-1.156-.278-1.735-.409a105.267,105.267,0,0,0-20.517-2.754,46.133,46.133,0,0,1-1.854-7.783Zm1.665,10.659q-.16-.377-.311-.759a106.233,106.233,0,0,1,18.943,2.651q.923.209,1.843.437c-.442,2.579-.769,5.043-.969,7.359-.382,4.389-.409,9.448.816,13.061a47.425,47.425,0,0,1-20.322-22.748Zm61.792,25.091a47.3,47.3,0,0,1-32.639,1.5c3.487-1.828,6.991-6.026,9.689-9.893,1.392-2,2.782-4.2,4.155-6.586a133.288,133.288,0,0,1,22.679,13.121Q128.233,168.336,126.241,169.18Zm14.979-10.1a46.773,46.773,0,0,1-8.574,6.8,135.929,135.929,0,0,0-23.9-13.992c1.149-2.106,2.283-4.331,3.388-6.654a203.54,203.54,0,0,0,21.727,1.78c1.753.051,3.455.051,5.108.039a91.161,91.161,0,0,0,11.358-.762A46.784,46.784,0,0,1,141.22,159.079Z" transform="translate(-41.711 -75.7)"/><g transform="translate(197.227 35.474)"><path class="d" d="M1613.43,465.63s9.425,9.275,9.856,12.772-4.274,8.968-4.274,8.968Z" transform="translate(-1593.333 -447.187)"/><path class="e" d="M1513.343,1152.444s-.306,4.931-1.26,5c-.127.01-4.838.01-4.838.01l-6.015-.035a1.951,1.951,0,0,1,1.8-1.756c1.757-.306,4.7-1.542,5.766-3.866C1509.914,1149.355,1513.343,1152.444,1513.343,1152.444Z" transform="translate(-1496.647 -1037.668)"/><path class="e" d="M1610.223,1152.444s-.306,4.931-1.26,5c-.127.01-4.838.01-4.838.01l-6.015-.035a1.953,1.953,0,0,1,1.8-1.756c1.757-.306,4.7-1.542,5.766-3.866C1606.794,1149.355,1610.223,1152.444,1610.223,1152.444Z" transform="translate(-1580.131 -1037.668)"/><path class="e" d="M1540.65,732.109s1.573,10.061,7.44,27.92,6.668,25.593,6.668,25.593l6.3-.177s.054-19.517-2.651-28.5-.583-32.376-.583-32.376Z" transform="translate(-1530.616 -670.323)"/><path class="f" d="M1518.471,728.55a244.2,244.2,0,0,0,2.4,33.774c2.623,18.614,1.734,26.516,1.734,26.516l6.282.209s3.754-18.621,2.678-27.938,5.141-31.971,5.141-31.971Z" transform="translate(-1511.5 -673.753)"/><path class="g" d="M1561.3,425.256l-2.963,2.194-4.282-.9c.06-.391.342-2.009.6-3.475.015-.086.03-.173.046-.257.22-1.247.411-2.319.411-2.319l4-1.994,1.492-.744c0,.026-.116,1.384-.131,1.583A12.817,12.817,0,0,0,1561.3,425.256Z" transform="translate(-1542.163 -405.936)"/><path class="d" d="M1544.156,454.347c.094-.04,5.825-1.731,6.448-1.525s.991,1.41.991,1.41l-9.375,2.12A4.662,4.662,0,0,1,1544.156,454.347Z" transform="translate(-1531.969 -436.135)"/><path class="h" d="M1532.42,501.41c-.972,4.432-17.14,4.957-21.308.935-.474-.459-.5-2.593-.318-5.469.35-5.621,1.473-14.075,1.517-18.393a34.162,34.162,0,0,1,.69-6.156,49.925,49.925,0,0,1,2.05-7.368s7.9-2.553,9.375-2.118C1531.545,464.93,1533.392,496.977,1532.42,501.41Z" transform="translate(-1504.8 -444.74)"/><path class="d" d="M1511.44,551.087c.35-5.621,1.473-14.075,1.517-18.393a34.151,34.151,0,0,1,.69-6.156l4.751-.838S1523.041,544.669,1511.44,551.087Z" transform="translate(-1505.445 -498.951)"/><path class="g" d="M1521.606,648.044a1.119,1.119,0,0,1-.357,1.294,2.166,2.166,0,0,0-.965,1.977c.156.615,1.647,1.619,2.164,1.457s1.569-.972,1.456-1.3.708-2.848-.553-3.819A1.016,1.016,0,0,0,1521.606,648.044Z" transform="translate(-1513.039 -603.743)"/><path class="h" d="M1481.953,471.34s-4.624.713-8.316,6.154-6.12,9.485-5.44,11.446,6.879,8.761,7.948,8.761a2.864,2.864,0,0,0,2.89-2.526s-4.364-6.54-3.505-7.521c.368-.419,5.667-4.721,6.423-2.778C1483.2,488.093,1481.953,471.34,1481.953,471.34Z" transform="translate(-1468.084 -452.108)"/><path class="i" d="M1563.906,424.038c-.878,1.681-4.151,3.135-5.516,3.668.015-.086.03-.173.046-.257.22-1.247.41-2.319.41-2.319l4-1.994C1563.73,423.122,1564.268,423.346,1563.906,424.038Z" transform="translate(-1545.903 -410.569)"/><path class="g" d="M1542.016,361.854s7.216,2.251,8.548-2.265,3.162-7.266-1.39-8.894-5.958-.17-6.77,1.228S1540.172,361.152,1542.016,361.854Z" transform="translate(-1531.015 -347.526)"/><path class="f" d="M1554.489,336.385s.416,5.42,1.507,5.176,2.08-.427,1.907,1.208-1.7,3.537,1.655,3.8,8.252-8.7,7.344-10.376C1564.283,331.343,1550.694,330.476,1554.489,336.385Z" transform="translate(-1541.969 -332.25)"/></g><g transform="translate(241.671 42.893)"><g transform="translate(8.927 19.131)"><path class="h" d="M1864.141,720.46a10.6,10.6,0,0,1-4.527.181c-1.759-.53-4.787.34-5.275.982s-.308.9.562,1.117,3.953,1.536,5.979.776a16.155,16.155,0,0,1,4.668-.788Z" transform="translate(-1854.073 -693.333)"/><path class="j" d="M1937.9,527.356s-3.11,22.1-8.257,24.077c-2.54.976-13.766,3.19-17.088,3.412,0,0-.813-.66-.615-3.346,0,0,11.763-4.318,13.433-6.666,2.487-3.5-1.545-14.278,1.576-17.56S1935.323,522.579,1937.9,527.356Z" transform="translate(-1903.909 -524.271)"/></g><path class="k" d="M2000.908,943.271v-4.859h7.586a.373.373,0,0,0,.372-.372v-.772a.373.373,0,0,0-.372-.372h-7.586V909.469a1.4,1.4,0,0,0-1.4-1.4h-1.5a1.4,1.4,0,0,0-1.4,1.4V936.9h-7.586a.373.373,0,0,0-.372.372v.772a.373.373,0,0,0,.372.372h7.586v4.859c-5.488.415-9.885,2.392-11.118,4.945h26.537C2010.793,945.663,2006.4,943.686,2000.908,943.271Z" transform="translate(-1958.391 -835.87)"/><path class="e" d="M1897.386,802.415a38.814,38.814,0,0,1-3.036,4.346c-3.342,4.219-6.979,7.7-7.613,10.984a14.878,14.878,0,0,1-.588,2.1c-.264.754-.592,1.544-.969,2.363a72.756,72.756,0,0,1-5.655,9.669c-3.66,5.423-7.1,9.949-7.1,9.949l-6.312-.27c.253-.632,3.006-8.121,6.688-17.271,1.5-3.715,3.086-7.667,4.62-11.477l.611-1.518c.469-1.166.931-2.315,1.381-3.432l6.213-15.435s13.82-5.235,15.255-1.843C1902.061,793.382,1901.1,796.122,1897.386,802.415Z" transform="translate(-1855.518 -733.644)"/><path class="e" d="M1830.293,1149.588s-.308,5.234-1.316,5.308c-.134.01-11.526,0-11.526,0a2.176,2.176,0,0,1,1.948-1.907c1.857-.323,4.965-1.629,6.089-4.083C1826.67,1146.325,1830.293,1149.588,1830.293,1149.588Z" transform="translate(-1813.587 -1042.549)"/><path class="e" d="M1995.431,1052.42s4.39,2.821,3.964,3.738c-.057.122-2.483,4.468-2.483,4.468l-3.129,5.529a2.062,2.062,0,0,1-.694-2.562c.622-1.78,1-5.13-.6-7.308C1990.816,1053.992,1995.431,1052.42,1995.431,1052.42Z" transform="translate(-1964.11 -960.26)"/><path class="f" d="M1852.337,792.63s-17.457,10.865-19.393,18.127,23.076,22.753,23.076,22.753,2.743-2.421,3.227-4.2c0,0-11.307-13.545-13.758-16.582-1.506-1.865,22.27-6.456,25.175-10.973s1.865-8.32,1.865-8.32Z" transform="translate(-1826.846 -736.392)"/><path class="i" d="M1980.534,893.42h-35.5a1.3,1.3,0,0,0-1.292,1.292v7.1a1.3,1.3,0,0,0,1.292,1.291h35.5a1.3,1.3,0,0,0,1.292-1.291v-7.1A1.3,1.3,0,0,0,1980.534,893.42Z" transform="translate(-1922.414 -823.246)"/><path class="h" d="M2023.015,473.981s-6.889,3.851-11.045,2.777a9.835,9.835,0,0,1,2.644-2.395c-.091-.4-.17-.785-.239-1.139a26.884,26.884,0,0,1-.469-3.209l3.173-2.844c.878.185,1.7.361,2.134.452.042.21.086.413.137.613A10.19,10.19,0,0,0,2023.015,473.981Z" transform="translate(-1981.21 -455.934)"/><path class="l" d="M1990.5,526.2c-.594,8.007.188,20.182-.487,22.291-.583,1.82-7.223.738-9.874.131-.98-.225-2.169-.546-3.4-.926-3.424-1.061-7.154-2.573-7.554-3.7a.823.823,0,0,1-.036-.129h0c-.007-.029-.011-.057-.015-.084a1.055,1.055,0,0,1,.022-.384,8.03,8.03,0,0,0,.708-2.611c.068-1.583.058-3.448.117-5.452,0-.227.006-.473.031-.7v-.082c0-.043,0-.086,0-.129.058-2.236.176-4.588.31-6.918.086-1.464.187-2.915.3-4.3a57.522,57.522,0,0,1,1.233-8.791,14.108,14.108,0,0,1,4.537-7l1.262-1.084a7.3,7.3,0,0,0,4.584-.611c1.63-.774,2.194-1.329,2.479-1.12C1988.49,507.509,1991.2,516.416,1990.5,526.2Z" transform="translate(-1944.291 -488.153)"/><path class="j" d="M1976.731,697.34c-3.423-1.061-7.154-2.573-7.554-3.7a.809.809,0,0,1-.036-.129h0a.27.27,0,0,0-.015-.084,1.055,1.055,0,0,1,.022-.384,8.03,8.03,0,0,0,.708-2.611c.068-1.583.058-3.448.118-5.452,0-.227.005-.473.03-.7V684.2c0-.043,0-.086,0-.129l12.931-5.864A30.167,30.167,0,0,1,1976.731,697.34Z" transform="translate(-1944.283 -637.793)"/><path class="m" d="M2031.405,468.235a8.42,8.42,0,0,1-4.977,4.989,26.948,26.948,0,0,1-.469-3.209l3.173-2.844c.878.185,1.7.361,2.134.452C2031.31,467.831,2031.354,468.036,2031.405,468.235Z" transform="translate(-1993.266 -455.934)"/><path class="h" d="M2006.856,416.941s6.81.769,7.223-3.48,1.571-7.01-2.76-7.681-5.334.868-5.817,2.254S2005.1,416.631,2006.856,416.941Z" transform="translate(-1975.417 -402.893)"/><path class="f" d="M2012.051,396.771a7,7,0,0,0-6.631-6.224c-4.246-.4-1.879-4.054-1.426-4.638,0,0,3.254.447,6.587,1C2017.581,388.064,2012.738,395.893,2012.051,396.771Z" transform="translate(-1973.418 -385.91)"/><path class="j" d="M1811.78,662.017l-16.876.359-4.8-14.766-.6.195,5.072,15.609,17.22-.368Z" transform="translate(-1789.51 -611.424)"/><g transform="translate(10.601 20.55)"><path class="h" d="M1876,745.03a10.592,10.592,0,0,1-4.48.679c-1.807-.333-4.721.866-5.134,1.557s-.207.925.682,1.049,4.1,1.091,6.027.112a16.122,16.122,0,0,1,4.553-1.3Z" transform="translate(-1866.18 -715.924)"/><path class="l" d="M1945.731,537.1s-.654,22.306-5.553,24.84c-2.417,1.251-13.331,4.689-16.608,5.276,0,0-.881-.567-.98-3.258,0,0,11.214-5.589,12.616-8.107,2.087-3.749-3.108-14.021-.369-17.628S1942.646,532.639,1945.731,537.1Z" transform="translate(-1914.79 -534.531)"/></g></g><g transform="translate(23.293 23.165)"><path class="d" d="M710.154,562.208l-6.921,82.284s-.725,4.987,2.985,5c6.1.015,30.363,0,30.363,0s-4.592-1.038-4.535-3.374c.065-2.754,8.089-84.686,8.089-84.686Z" transform="translate(-635.008 -517.432)"/><path class="i" d="M750.973,638.681c-1.2,0-24.375.076-30.315,0-2.588-.032-3.043-2.3-3.064-3.771a7.3,7.3,0,0,1,.079-1.225l.18-2.139.459-5.451.405-4.816.521-6.189.438-5.224,4.917-58.468,29.982-.778s-3.379,34.289-5.769,59.247c-.267,2.781-.521,5.448-.755,7.937q-.114,1.193-.22,2.329c-.221,2.362-.424,4.53-.6,6.445-.093,1.009-.178,1.947-.256,2.805-.306,3.366-.484,5.516-.487,5.924a3.5,3.5,0,0,0,.058.667C747.036,638.6,750.524,638.681,750.973,638.681Z" transform="translate(-647.431 -508.117)"/><path class="i" d="M227.06,243.23l16.857,67.71,2.309,9.273,7.851,31.537h145.86L371,243.23Z" transform="translate(-224.725 -243.23)"/><path class="i" d="M212.505,243.23l-2.335.778,26.245,110.1,3.107-2.355Z" transform="translate(-210.17 -243.23)"/><path class="d" d="M399.98,1030.425H544.943l4-2.355H403.087Z" transform="translate(-373.735 -919.549)"/><rect class="i" width="31.386" height="1.492" transform="translate(77.153 130.598)"/><path class="l" d="M391.422,331.754l-23.668-87.091H225.38V243.23H369.551l23.589,88.331Z" transform="translate(-223.277 -243.23)"/><path class="d" d="M752.469,1045.1l-.162,1.139L722.79,1052.2l.405-4.816.192-2.287Z" transform="translate(-651.909 -934.224)"/><path class="n" d="M750.979,1129.547c-1.2,0-24.375.076-30.315,0-2.589-.032-3.043-2.3-3.064-3.771l29.379-5.527c-.306,3.366-.484,5.516-.487,5.923a3.5,3.5,0,0,0,.058.667C747.042,1129.462,750.53,1129.547,750.979,1129.547Z" transform="translate(-647.437 -998.983)"/><path class="n" d="M437.595,809.548l-64.074,21.97L365.67,799.98Z" transform="translate(-344.169 -722.997)"/><path class="l" d="M227.06,243.23H371l23.354,87.216H248.032Z" transform="translate(-224.725 -243.23)"/><path class="d" d="M929.127,929.593a4.934,4.934,0,0,0-4.625-3.873,3.1,3.1,0,0,0-3.119,3.873,4.932,4.932,0,0,0,4.625,3.873A3.1,3.1,0,0,0,929.127,929.593Z" transform="translate(-822.979 -831.351)"/><path class="o" d="M424.722,355.785H289.951l-15.262-60.8-1.17-4.662-1-3.977-2.341-9.325H403.008l2.57,9.325,1.1,3.977,1.285,4.662Z" transform="translate(-261.882 -272.348)"/><path class="p" d="M405.579,286.345H272.521l-2.341-9.325H403.008Z" transform="translate(-261.882 -272.348)"/><g transform="translate(13.757 7.72)"><path class="o" d="M310.571,299.06a.88.88,0,0,0-.875,1.166,1.592,1.592,0,0,0,1.456,1.166.881.881,0,0,0,.875-1.166A1.592,1.592,0,0,0,310.571,299.06Z" transform="translate(-309.66 -299.06)"/><path class="o" d="M338.591,299.06a.88.88,0,0,0-.875,1.166,1.592,1.592,0,0,0,1.456,1.166.881.881,0,0,0,.875-1.166A1.594,1.594,0,0,0,338.591,299.06Z" transform="translate(-333.806 -299.06)"/><path class="o" d="M370.207,300.226a1.592,1.592,0,0,0-1.456-1.166.88.88,0,0,0-.875,1.166,1.592,1.592,0,0,0,1.456,1.166A.88.88,0,0,0,370.207,300.226Z" transform="translate(-359.795 -299.06)"/></g></g><g transform="translate(49.859 7.456)"><path class="p" d="M412.839,133.662a.2.2,0,0,0-.227-.171l-2.186.306a2.282,2.282,0,0,0-1.117-1.721l-.133-.077a2.284,2.284,0,0,0-2.135-.079l-.864-2.167a.2.2,0,0,0-.373.149l.888,2.226a2.219,2.219,0,0,0-.632.7l-.241.413-2.009-1.167a.2.2,0,1,0-.2.347c.03.017.875.509,2.009,1.167l-.137.235a2.265,2.265,0,0,0-.264.705l-2.747.384a.2.2,0,0,0,.026.4h.028l2.651-.371a2.286,2.286,0,0,0,1.132,2l.133.077a2.283,2.283,0,0,0,2.216.039l.943,2.363a.2.2,0,0,0,.187.126.2.2,0,0,0,.075-.014.2.2,0,0,0,.112-.261L409,136.83a2.276,2.276,0,0,0,.557-.642l.137-.235,2.01,1.167a.205.205,0,0,0,.1.028.2.2,0,0,0,.174-.1.2.2,0,0,0-.073-.274l-2.01-1.167.241-.413a2.314,2.314,0,0,0,.178-.386,2.257,2.257,0,0,0,.123-.606l2.232-.312A.2.2,0,0,0,412.839,133.662Z" transform="translate(-402.296 -129.626)"/><path class="q" d="M428.066,152.973l-.578,1a2.288,2.288,0,0,1-3.117.827l-.133-.077a2.288,2.288,0,0,1-.827-3.117l.578-1a2.227,2.227,0,0,1,.246-.346l4.007,2.327A2.018,2.018,0,0,1,428.066,152.973Z" transform="translate(-420.228 -147.407)"/></g><g transform="translate(4.461 31.968)"><path class="p" d="M84.081,312.616l-2.525-.716a2.25,2.25,0,0,0-.169-.834l-.1-.252,2.152-.881a.2.2,0,1,0-.152-.371l-2.152.881L80.952,310a2.363,2.363,0,0,0-.2-.376,2.307,2.307,0,0,0-.405-.467l1.113-1.959a.2.2,0,0,0-.348-.2l-1.091,1.919a2.283,2.283,0,0,0-2.046-.165l-.141.058a2.28,2.28,0,0,0-1.363,1.644l-2.244-.636a.2.2,0,0,0-.109.386l2.3.654a2.2,2.2,0,0,0,.043.52,2.322,2.322,0,0,0,.123.406l.181.443-2.15.881a.2.2,0,0,0,.076.386.187.187,0,0,0,.076-.015l2.15-.881.1.252a2.205,2.205,0,0,0,.4.639l-1.373,2.416a.2.2,0,0,0,.075.274.2.2,0,0,0,.274-.075l1.323-2.327A2.284,2.284,0,0,0,80,314.1l.141-.058a2.285,2.285,0,0,0,1.383-1.733l2.447.694a.192.192,0,0,0,.055.008.2.2,0,0,0,.055-.4Z" transform="translate(-73.974 -306.899)"/><path class="q" d="M96.484,327l.437,1.065a2.286,2.286,0,0,1-1.246,2.974l-.141.058a2.287,2.287,0,0,1-2.974-1.246l-.437-1.065a2.211,2.211,0,0,1-.123-.407l4.288-1.756A2.365,2.365,0,0,1,96.484,327Z" transform="translate(-89.508 -323.893)"/></g><g transform="translate(19.191 109.759)"><path class="j" d="M201.206,869.49c-.017.011-.035.026-.057.043-.841.644-6.558,4.544-19.4,2.817q-.131.74-.246,1.466c-.039.242-.077.483-.112.722s-.071.471-.1.705l0,.012c-.033.235-.066.467-.1.7s-.062.464-.091.7-.057.458-.083.684v.011c-.025.227-.053.452-.076.676s-.048.449-.071.675-.044.445-.064.667-.04.44-.058.658c-.014.16-.026.318-.039.477-.011.131-.021.261-.029.391-.008.11-.015.223-.023.333,0,.058-.008.116-.011.174-.011.185-.023.37-.033.554s-.021.394-.03.59c0,.039,0,.075-.006.113-.006.147-.012.293-.019.437,0,.116-.01.23-.012.344-.012.368-.022.73-.028,1.091,0,.166-.006.329-.007.492,0,.194,0,.384,0,.575v.044c0,.187,0,.372,0,.556,0,.153,0,.306.006.456,0,.13,0,.26.008.389,0,.044,0,.091,0,.135l.012.4c0,.144.01.285.015.427s.014.306.021.456c.007.177.017.353.028.528,0,.015,0,.032,0,.048.01.173.021.343.033.514s.025.358.039.534.028.354.044.528.03.348.048.52.033.328.051.491c0,.019,0,.039.006.058.018.159.035.315.054.472s.04.33.061.495c0,0,0,.008,0,.012.022.162.043.324.066.485s.046.322.071.483c0,0,0,.008,0,.012.025.156.048.311.073.466a.017.017,0,0,1,0,.008c.025.158.053.314.079.469s.055.313.083.467c.035.189.071.378.106.564.023.116.046.232.071.348q.046.218.091.432l.012.055c.028.134.059.268.089.4s.066.29.1.434q.106.444.218.874c.033.131.069.26.105.389s.075.268.113.4c.028.1.055.195.084.292s.057.191.086.288c.022.075.046.149.069.225.04.131.08.261.122.39q.127.386.256.762c.043.125.087.249.131.372s.089.246.133.366q.185.5.378.972c.037.1.077.189.116.282.057.135.112.27.17.4.046.1.09.207.137.311.248.559.5,1.094.766,1.6l.156.3q.187.35.375.689c.043.079.089.158.134.236s.083.145.126.217.1.167.145.249c.113.188.225.372.34.552.039.063.079.126.118.185.123.194.248.382.373.567.044.066.088.133.133.2.293.427.586.828.879,1.207l.163.209q.425.535.839,1.009c.089.1.176.2.264.3.007.008.015.015.022.025.053.057.105.115.158.17.312.339.619.649.915.933l.147.14c.1.093.194.181.289.268s.18.163.267.239a.122.122,0,0,0,.014.011l.256.221c.144.122.283.238.419.346l.113.09c.246.195.476.366.686.517l.185.13c.176.122.336.227.476.314.041.028.083.053.122.078.086.053.162.1.23.138.015.01.03.017.044.025s.029.018.043.025c.155.09.239.13.239.13q1.23-.4,2.385-.885a31.054,31.054,0,0,0,11.741-8.7c.008-.01.017-.019.023-.029,6.544-7.716,9.36-17.7,10.561-24.31.131-.733.246-1.423.343-2.064C205.475,876.007,201.611,870.159,201.206,869.49Z" transform="translate(-180.5 -869.49)"/><g transform="translate(1.467 1.963)"><path class="p" d="M225.345,894.5c-1.1,6.027-3.661,15.128-9.628,22.162l-.021.026a28.316,28.316,0,0,1-10.7,7.93q-1.052.442-2.174.806s-.077-.037-.218-.119l-.039-.024-.04-.022-.209-.126c-.036-.022-.072-.044-.111-.071-.127-.08-.274-.176-.434-.286l-.169-.119c-.192-.137-.4-.293-.625-.472l-.1-.082q-.185-.149-.382-.315c-.076-.065-.153-.133-.232-.2l-.012-.011c-.079-.071-.16-.142-.243-.219s-.176-.159-.263-.245l-.134-.127c-.27-.26-.549-.542-.835-.852l-.144-.155-.021-.022c-.08-.087-.16-.178-.241-.27q-.377-.431-.766-.92c-.05-.062-.1-.126-.148-.189-.267-.346-.534-.711-.8-1.1-.04-.058-.082-.118-.122-.178-.113-.169-.227-.34-.34-.516-.036-.055-.072-.112-.106-.17-.1-.165-.207-.332-.31-.5-.044-.075-.088-.149-.133-.227s-.076-.131-.115-.2-.083-.142-.122-.216c-.115-.206-.23-.415-.342-.628-.048-.09-.094-.18-.142-.272q-.359-.7-.7-1.462c-.043-.094-.083-.188-.124-.283-.053-.122-.1-.243-.155-.366-.036-.086-.072-.172-.106-.257-.118-.289-.232-.583-.344-.886-.04-.109-.082-.221-.122-.333s-.08-.225-.119-.339c-.079-.228-.158-.46-.234-.7-.037-.118-.073-.235-.111-.355-.021-.069-.043-.137-.064-.206q-.041-.13-.079-.261c-.026-.089-.053-.177-.076-.267-.035-.122-.069-.243-.1-.366s-.065-.235-.1-.355q-.1-.392-.2-.8c-.032-.131-.064-.263-.093-.4s-.055-.242-.082-.365l-.012-.051c-.028-.13-.055-.26-.083-.393-.022-.105-.043-.212-.064-.318-.033-.17-.065-.342-.1-.514-.026-.141-.051-.282-.076-.426s-.048-.283-.072-.427a.013.013,0,0,0,0-.007c-.022-.141-.044-.282-.066-.426,0,0,0-.008,0-.012-.022-.146-.044-.293-.064-.44s-.04-.295-.059-.443c0,0,0-.008,0-.012-.019-.151-.037-.3-.057-.451s-.033-.285-.05-.43c0-.018,0-.036-.006-.054-.017-.148-.032-.3-.047-.447s-.03-.315-.044-.474-.028-.319-.04-.481-.025-.323-.036-.487-.021-.311-.029-.469c0-.014,0-.029,0-.043-.01-.16-.018-.319-.025-.481-.007-.137-.014-.277-.019-.415s-.01-.259-.014-.389-.007-.243-.011-.366c0-.04,0-.083,0-.123,0-.118-.007-.235-.007-.354,0-.138-.006-.276-.006-.416,0-.167,0-.337,0-.508v-.04c0-.174,0-.348,0-.524,0-.149,0-.3.007-.449.006-.328.014-.658.025-.994,0-.1.007-.209.011-.314q.008-.2.017-.4l0-.1c.008-.178.018-.36.028-.538s.019-.336.03-.506c0-.053.006-.106.01-.159.007-.1.012-.2.021-.3.007-.119.017-.238.026-.357.011-.145.024-.289.035-.434.017-.2.033-.4.053-.6s.037-.4.058-.607.041-.409.064-.614.046-.409.069-.617v-.01c.025-.207.048-.415.076-.624s.054-.423.083-.636.058-.425.089-.639v-.011q.046-.319.1-.643c.032-.219.068-.437.1-.658.071-.44.144-.886.224-1.337,11.71,1.575,16.923-1.981,17.689-2.568.021-.015.036-.029.051-.039.369.61,3.891,5.94,15.662,8.62C225.569,893.2,225.465,893.832,225.345,894.5Z" transform="translate(-191.119 -883.957)"/><path class="l" d="M210.038,883.69l-7.447,41.35c-.077-.044-.174-.1-.288-.171-.036-.022-.072-.044-.111-.071-.127-.08-.274-.176-.434-.286l-.169-.119c-.192-.137-.4-.293-.625-.471l-.1-.082q-.185-.149-.382-.315c-.076-.065-.153-.133-.232-.2l-.012-.011c-.079-.071-.16-.142-.243-.219s-.176-.159-.263-.245l-.134-.127c-.27-.26-.549-.542-.835-.852l-.144-.155-.021-.022c-.08-.087-.16-.178-.241-.27q-.377-.431-.766-.92c-.05-.062-.1-.126-.148-.189-.267-.346-.534-.711-.8-1.1-.04-.058-.082-.118-.122-.178q-.17-.253-.34-.516c-.036-.055-.072-.112-.106-.17-.1-.165-.207-.332-.31-.5-.044-.075-.089-.149-.133-.227s-.076-.131-.115-.2-.083-.142-.122-.216c-.115-.206-.23-.415-.342-.628-.048-.09-.094-.18-.142-.272q-.359-.7-.7-1.462c-.043-.094-.083-.188-.124-.283-.053-.122-.1-.243-.155-.366-.036-.086-.072-.171-.106-.257-.118-.289-.232-.583-.344-.886-.04-.109-.082-.221-.122-.333s-.08-.225-.119-.339c-.079-.228-.158-.46-.234-.7-.037-.118-.073-.235-.111-.355-.021-.069-.043-.137-.064-.206q-.041-.131-.079-.261c-.026-.089-.053-.177-.076-.267-.035-.122-.069-.243-.1-.366s-.065-.235-.1-.355q-.1-.392-.2-.8c-.032-.131-.064-.263-.093-.4s-.055-.242-.082-.365l-.012-.051c-.028-.13-.055-.26-.083-.393-.022-.105-.043-.212-.064-.318-.033-.17-.065-.341-.1-.514-.026-.141-.051-.282-.076-.426s-.048-.283-.072-.427a.012.012,0,0,0,0-.007c-.022-.141-.044-.282-.066-.426,0,0,0-.008,0-.012-.022-.147-.044-.293-.064-.44s-.04-.295-.059-.442c0,0,0-.008,0-.012-.019-.151-.037-.3-.057-.451s-.033-.285-.05-.43c0-.018,0-.036-.006-.054-.017-.148-.032-.3-.047-.447s-.03-.315-.044-.474-.028-.319-.04-.481-.025-.324-.036-.487-.021-.311-.029-.469c0-.014,0-.029,0-.043-.01-.16-.018-.319-.025-.481-.007-.137-.014-.277-.019-.415s-.01-.259-.014-.389-.007-.243-.011-.366c0-.04,0-.083,0-.123,0-.118-.007-.235-.007-.354,0-.138-.006-.277-.006-.416,0-.167,0-.337,0-.508v-.04c0-.174,0-.348,0-.524,0-.149,0-.3.007-.449.006-.328.014-.658.025-.994,0-.1.007-.209.011-.314q.008-.2.017-.4l0-.1c.008-.178.018-.359.028-.538s.019-.336.03-.506c0-.052.006-.106.01-.159.007-.1.012-.2.021-.3.007-.119.017-.238.026-.357.011-.145.023-.289.035-.434.017-.2.033-.4.053-.6s.037-.4.058-.607.041-.409.064-.614.046-.409.069-.617v-.01c.025-.207.048-.415.076-.624s.054-.423.083-.636.058-.424.089-.639v-.011q.046-.319.1-.643c.032-.218.068-.437.1-.658.071-.44.144-.886.224-1.337C204.99,888.052,210.038,883.69,210.038,883.69Z" transform="translate(-191.11 -883.69)"/></g></g></g></g></svg>