<svg xmlns="http://www.w3.org/2000/svg" width="90.136" height="90.136" viewBox="0 0 90.136 90.136"><defs><style>.a{fill:#fece66;}.b{fill:#f5b540;}.c{fill:#ea6552;}.d{fill:#fff;}</style></defs><g transform="translate(-607.891 -487.733)"><circle class="a" cx="45.068" cy="45.068" r="45.068" transform="translate(607.891 577.869) rotate(-90)"/><path class="b" d="M645.759,497.274l-1.251-1.251a18.435,18.435,0,0,0-30.833,13.645A19.286,19.286,0,0,0,617.5,520.9c13.7,19.2,14.557,20.4,14.608,20.475l.007.007,15.926,15.926a45.161,45.161,0,0,0,27.531-30.227Z" transform="translate(20.846 17.655)"/><g transform="translate(634.522 508.887)"><path class="c" d="M632.112,491.232a18.443,18.443,0,0,0-18.436,18.434A19.279,19.279,0,0,0,617.5,520.9l14.617,20.485,14.62-20.487a19.32,19.32,0,0,0,3.814-11.234A18.435,18.435,0,0,0,632.112,491.232Z" transform="translate(-613.676 -491.232)"/><path class="d" d="M640.929,506.125a12.358,12.358,0,1,1-12.358-12.356A12.346,12.346,0,0,1,640.929,506.125Z" transform="translate(-610.135 -487.691)"/></g></g></svg>