<svg xmlns="http://www.w3.org/2000/svg" xmlns:xlink="http://www.w3.org/1999/xlink" width="1053.98" height="425.917" viewBox="0 0 1053.98 425.917"><defs><style>.a{fill:#ebebeb;}.b{fill:#f0f0f0;}.ae,.ar,.as,.bb,.bt,.c{fill:#fff;}.aa,.ai,.as,.br,.d,.r{opacity:0.5;}.e{fill:#f5f5f5;}.f{clip-path:url(#a);}.aj,.br,.bs,.g{fill:#a0a3a8;}.ag,.bd,.bs,.h{opacity:0.2;}.i,.k{fill:#407bff;}.j,.r{fill:#50555b;}.am,.ap,.ar,.k{opacity:0.8;}.l{fill:#e9ecf2;fill-rule:evenodd;}.aj,.be,.bi,.bt,.m{opacity:0.7;}.bx,.n,.o{fill:none;}.n{stroke:#407bff;}.bu,.bx,.cb,.n,.o{stroke-miterlimit:10;}.o{stroke:#d13333;}.cb,.p{fill:#d13333;}.q,.s{clip-path:url(#b);}.bk,.bm,.bp,.s,.v{opacity:0.3;}.t,.u,.v,.w{fill:#6e6f72;}.au,.az,.bc,.bg,.u,.y{opacity:0.4;}.ae,.bl,.w{opacity:0.1;}.x{fill:#cfd4e2;}.at,.ba,.bb,.x{opacity:0.9;}.y{fill:#a5a8ad;}.aa,.z{fill:#6d737c;}.ab{fill:#ffb273;}.ac{fill:#263238;}.ad{fill:#630f0f;}.af,.ag,.be{fill:#f288a1;}.ah,.ay,.az{fill:#f72347;}.ak,.al{fill:#bac1ce;}.al{opacity:0.85;}.am{fill:#d9dfe8;}.an{clip-path:url(#i);}.ao{fill:#ff8b7b;}.aq{fill:#ced5e0;}.av{clip-path:url(#k);}.aw{fill:#7f3e3b;}.ax,.ay{opacity:0.89;}.bc{fill:#4f5256;}.bd{fill:#37393d;}.bf,.bg{fill:#a1a5a8;}.bh,.bi{fill:#e7edf2;}.bj,.bk{fill:#909599;}.bn{fill:#e04c4c;}.bo{fill:#f9ccc7;}.bq{fill:#ff5652;}.bu,.bv{fill:#b72b2b;}.bu,.bx{stroke:#b72b2b;}.bw{fill:#e2e6e8;}.by{fill:#f287a1;}.bz{fill:#f83245;}.ca{fill:#c35a5a;}.cb{stroke:#c35a5a;}</style><clipPath id="a"><path d="M480.293,382.8H426.271a7.393,7.393,0,0,1-7.391-7.391V321.391A7.393,7.393,0,0,1,426.271,314h54.021a7.393,7.393,0,0,1,7.391,7.391v54.022A7.382,7.382,0,0,1,480.293,382.8Z" transform="translate(-418.88 -314)"/></clipPath><clipPath id="b"><path d="M543.419,281.33H463.351a7.393,7.393,0,0,1-7.391-7.391V193.871a7.393,7.393,0,0,1,7.391-7.391h80.068a7.393,7.393,0,0,1,7.391,7.391v80.068A7.393,7.393,0,0,1,543.419,281.33Z" transform="translate(-455.96 -186.48)"/></clipPath><clipPath id="i"><path d="M649.133,225.524H595.111a7.393,7.393,0,0,1-7.391-7.391V164.111a7.393,7.393,0,0,1,7.391-7.391h54.022a7.393,7.393,0,0,1,7.391,7.391v54.022A7.388,7.388,0,0,1,649.133,225.524Z" transform="translate(-587.72 -156.72)"/></clipPath><clipPath id="k"><path d="M775.129,296.52H695.061a7.393,7.393,0,0,1-7.391-7.391V209.061a7.393,7.393,0,0,1,7.391-7.391h80.068a7.393,7.393,0,0,1,7.391,7.391v80.068A7.393,7.393,0,0,1,775.129,296.52Z" transform="translate(-687.67 -201.67)"/></clipPath></defs><g transform="translate(-121.44 -102.612)"><g transform="translate(58 65.12)"><g transform="translate(380.67 155.47)"><rect class="a" width="27.412" height="0.207" transform="translate(344.953 284.335)"/><rect class="a" width="7.192" height="0.207" transform="translate(266.946 286.578)"/><rect class="a" width="15.883" height="0.207" transform="translate(328.243 276.646)"/><rect class="a" width="35.747" height="0.207" transform="translate(43.419 278.037)"/><rect class="a" width="5.239" height="0.207" transform="translate(86.54 278.037)"/><rect class="a" width="77.535" height="0.207" transform="translate(108.813 281.538)"/><path class="a" d="M583.428,389.566H423.606a4.73,4.73,0,0,1-4.726-4.726V160.2a4.73,4.73,0,0,1,4.726-4.726H583.428a4.73,4.73,0,0,1,4.726,4.726V384.848A4.739,4.739,0,0,1,583.428,389.566ZM423.606,155.677a4.525,4.525,0,0,0-4.519,4.519V384.848a4.525,4.525,0,0,0,4.519,4.519H583.428a4.525,4.525,0,0,0,4.519-4.519V160.2a4.525,4.525,0,0,0-4.519-4.519H423.606Z" transform="translate(-387.255 -155.47)"/><path class="a" d="M799.718,389.566H639.9a4.73,4.73,0,0,1-4.726-4.726V160.2a4.73,4.73,0,0,1,4.726-4.726H799.718a4.73,4.73,0,0,1,4.726,4.726V384.848A4.728,4.728,0,0,1,799.718,389.566ZM639.9,155.677a4.525,4.525,0,0,0-4.519,4.519V384.848a4.525,4.525,0,0,0,4.519,4.519H799.726a4.525,4.525,0,0,0,4.519-4.519V160.2a4.525,4.525,0,0,0-4.519-4.519H639.9Z" transform="translate(-424.53 -155.47)"/><rect class="a" width="413.831" height="0.207" transform="translate(0 271.01)"/><g transform="translate(102.556 49.395)"><circle class="b" cx="102.837" cy="102.837" r="102.837" transform="translate(2.019 2.334)"/><path class="c" d="M609.726,425.451a105.15,105.15,0,0,1,0-210.3v4.627a100.524,100.524,0,0,0,0,201.047Z" transform="translate(-504.58 -215.15)"/><g transform="translate(51.414 0)"><g transform="translate(53.732)"><path class="c" d="M631.62,425.451v-4.627a100.524,100.524,0,0,0,0-201.047V215.15a105.15,105.15,0,1,1,0,210.3Z" transform="translate(-631.62 -215.15)"/></g><g transform="translate(52.482 0.389)"><path class="c" d="M685.092,320.4h-4.627c0-34.083-17.3-79.679-50.355-100.884l2.491-3.9C667.065,237.727,685.092,285.061,685.092,320.4Z" transform="translate(-630.11 -215.62)"/><g transform="translate(0 101.645)"><path class="c" d="M632.6,443.212l-2.491-3.9c33.057-21.2,50.355-66.809,50.355-100.884h4.627C685.092,373.763,667.065,421.105,632.6,443.212Z" transform="translate(-630.11 -338.43)"/></g></g><g transform="translate(0 0.364)"><path class="c" d="M571.327,320.372H566.7c0-35.341,18.026-82.675,52.474-104.782l2.5,3.9C588.625,240.693,571.327,286.3,571.327,320.372Z" transform="translate(-566.7 -215.59)"/><g transform="translate(0.008 101.645)"><path class="c" d="M619.184,443.182C584.736,421.075,566.71,373.733,566.71,338.4h4.627c0,34.075,17.3,79.679,50.355,100.884Z" transform="translate(-566.71 -338.4)"/></g></g><g transform="translate(51.414 2.309)"><rect class="c" width="4.627" height="205.674"/></g></g><g transform="translate(2.359 48.054)"><g transform="translate(15.742)"><rect class="c" width="174.09" height="4.627"/></g><g transform="translate(0 56.529)"><rect class="c" width="205.583" height="4.627"/></g><g transform="translate(18.043 113.017)"><rect class="c" width="169.489" height="4.627"/></g></g></g><g transform="translate(326.082 224.768)"><path class="b" d="M777.249,429.838a9.23,9.23,0,1,1,.2,13.052A9.245,9.245,0,0,1,777.249,429.838Zm9.733,9.435a4.325,4.325,0,1,0-6.116.091A4.334,4.334,0,0,0,786.982,439.273Z" transform="translate(-774.65 -427.04)"/><g transform="translate(11.712 11.345)"><rect class="b" width="3.501" height="22.529" transform="translate(0 2.513) rotate(-45.879)"/><g transform="translate(5.327 8.423)"><g transform="translate(7.847 6.641)"><rect class="b" width="6.58" height="3.501" transform="translate(0 4.724) rotate(-45.879)"/></g><g transform="translate(4.568 3.851)"><rect class="b" width="6.183" height="3.501" transform="translate(0 4.438) rotate(-45.875)"/></g><rect class="b" width="5.396" height="3.501" transform="translate(0 3.874) rotate(-45.875)"/></g></g></g><g transform="translate(38.685 5.363)"><path class="b" d="M429.065,188.336a1.66,1.66,0,0,1-1.655-1.655,24.754,24.754,0,0,1,24.731-24.731,1.655,1.655,0,1,1,0,3.311,21.444,21.444,0,0,0-21.42,21.42A1.655,1.655,0,0,1,429.065,188.336Z" transform="translate(-427.41 -161.95)"/><g transform="translate(10.155 8.252)"><path class="b" d="M441.335,188.366a1.66,1.66,0,0,1-1.655-1.655,14.811,14.811,0,0,1,14.79-14.79,1.655,1.655,0,1,1,0,3.311,11.49,11.49,0,0,0-11.48,11.48A1.65,1.65,0,0,1,441.335,188.366Z" transform="translate(-439.68 -171.92)"/></g><g transform="translate(18.697 15.328)"><path class="b" d="M451.655,190.352A1.66,1.66,0,0,1,450,188.7a8.237,8.237,0,0,1,8.227-8.227,1.655,1.655,0,1,1,0,3.311,4.922,4.922,0,0,0-4.916,4.916A1.66,1.66,0,0,1,451.655,190.352Z" transform="translate(-450 -180.47)"/></g></g><path class="a" d="M470.772,430.091l1.126,19.268c-.331,6.274-11.016,11.985-11.016,11.985s-11.372-4.171-12.58-10.337l-1.581-19.235,11.513-4.7Z" transform="translate(-392.053 -202.277)"/><g transform="translate(351.824 6.536)"><g transform="translate(0.129)"><path class="b" d="M823.2,169.974l.7,7.912a1.3,1.3,0,0,1-2.582.232l-.7-7.912a4.656,4.656,0,0,0-5.04-4.229l-2.831.248a4.656,4.656,0,0,0-4.229,5.04l.621,7.11-2.582.223-.621-7.11a7.25,7.25,0,0,1,6.58-7.846l2.831-.248A7.253,7.253,0,0,1,823.2,169.974Z" transform="translate(-805.906 -163.366)"/></g><g class="d" transform="translate(0.129)"><path class="b" d="M823.2,169.974l.7,7.912a1.3,1.3,0,0,1-2.582.232l-.7-7.912a4.656,4.656,0,0,0-5.04-4.229l-2.831.248a4.656,4.656,0,0,0-4.229,5.04l.621,7.11-2.582.223-.621-7.11a7.25,7.25,0,0,1,6.58-7.846l2.831-.248A7.253,7.253,0,0,1,823.2,169.974Z" transform="translate(-805.906 -163.366)"/></g><g transform="translate(0 12.55)"><path class="b" d="M824.7,180.136l1.349,15.411a1.777,1.777,0,0,1-1.606,1.92l-15.411,1.349a1.777,1.777,0,0,1-1.92-1.606L805.759,181.8a1.772,1.772,0,0,1,.7-1.564,1.753,1.753,0,0,1,.91-.348l15.411-1.349a1.773,1.773,0,0,1,1.92,1.6Z" transform="translate(-805.751 -178.53)"/></g></g></g><g transform="translate(427.11 444.672)"><ellipse class="e" cx="160.475" cy="9.369" rx="160.475" ry="9.369" transform="translate(0 0)"/></g><g transform="translate(412.295 286.679)"><g class="f"><g transform="translate(27.487 40.812)"><g transform="translate(3.46)"><rect class="g" width="7.805" height="15.858"/><rect class="g" width="7.805" height="15.858"/></g><g transform="translate(0 12.961)"><path class="g" d="M466.88,382.148H452.09l3.609-3.178h7.573Z" transform="translate(-452.09 -378.97)"/><path class="g" d="M466.88,382.148H452.09l3.609-3.178h7.573Z" transform="translate(-452.09 -378.97)"/></g></g><g transform="translate(7.532 13.896)"><rect class="h" width="7.855" height="3.203" transform="translate(23.365 33.032)"/><path class="i" d="M428.99,330.79h53.086a1.008,1.008,0,0,1,1.01,1.01v32.552a1.008,1.008,0,0,1-1.01,1.01H428.99a1.008,1.008,0,0,1-1.01-1.01V331.8A1.014,1.014,0,0,1,428.99,330.79Z" transform="translate(-427.98 -330.79)"/><path class="j" d="M428.99,330.79h53.086a1.008,1.008,0,0,1,1.01,1.01v32.552a1.008,1.008,0,0,1-1.01,1.01H428.99a1.008,1.008,0,0,1-1.01-1.01V331.8A1.014,1.014,0,0,1,428.99,330.79Z" transform="translate(-427.98 -330.79)"/><path class="k" d="M481.442,334.84v27.238a1.441,1.441,0,0,1-1.44,1.44H431.84a1.441,1.441,0,0,1-1.44-1.44V334.84a1.441,1.441,0,0,1,1.44-1.44H480A1.441,1.441,0,0,1,481.442,334.84Z" transform="translate(-428.397 -331.24)"/><path class="g" d="M481.442,334.84v27.238a1.441,1.441,0,0,1-1.44,1.44H431.84a1.441,1.441,0,0,1-1.44-1.44V334.84a1.441,1.441,0,0,1,1.44-1.44H480A1.441,1.441,0,0,1,481.442,334.84Z" transform="translate(-428.397 -331.24)"/></g><g transform="translate(26.187 21.321)"><path class="l" d="M465.536,343.882l-7.093,4.238-7.093-4.113v-.124l7.093-4.122,7.093,4.113Z" transform="translate(-450.663 -339.76)"/><path class="l" d="M467.941,346.32v8.243l-7.1,4.113v-8.235Z" transform="translate(-452.299 -340.891)"/><path class="l" d="M457.6,350.442v8.235l-7.085-4.113V346.32l7.093,4.122Z" transform="translate(-450.52 -340.891)"/><g class="m"><path class="l" d="M465.536,343.882l-7.093,4.238-7.093-4.113v-.124l7.093-4.122,7.093,4.113Z" transform="translate(-450.663 -339.76)"/><path class="l" d="M467.941,346.32v8.243l-7.1,4.113v-8.235Z" transform="translate(-452.299 -340.891)"/><path class="l" d="M457.6,350.442v8.235l-7.085-4.113V346.32l7.093,4.122Z" transform="translate(-450.52 -340.891)"/></g></g></g><path class="n" d="M480.293,382.8H426.271a7.393,7.393,0,0,1-7.391-7.391V321.391A7.393,7.393,0,0,1,426.271,314h54.021a7.393,7.393,0,0,1,7.391,7.391v54.022A7.382,7.382,0,0,1,480.293,382.8Z" transform="translate(-418.88 -314)"/><path class="o" d="M480.293,382.8H426.271a7.393,7.393,0,0,1-7.391-7.391V321.391A7.393,7.393,0,0,1,426.271,314h54.021a7.393,7.393,0,0,1,7.391,7.391v54.022A7.382,7.382,0,0,1,480.293,382.8Z" transform="translate(-418.88 -314)"/><g transform="translate(68.804 36.293)"><path class="p" d="M544.217,378.58a1.857,1.857,0,0,1-.447.7l21.337,10.561.364-.745Z" transform="translate(-509.207 -361.423)"/><path class="p" d="M507.87,360.573l-5.5-2.723-.364.745,5.57,2.756A1.967,1.967,0,0,1,507.87,360.573Z" transform="translate(-502.01 -357.85)"/><path class="p" d="M527.255,370.165l-14.211-7.035a1.9,1.9,0,0,1-.364.745l14.55,7.209A2.453,2.453,0,0,1,527.255,370.165Z" transform="translate(-503.849 -358.76)"/><path class="p" d="M534.16,373.62a1.65,1.65,0,0,1-.67.588l5.363,2.657a2.007,2.007,0,0,1,.215-.819Z" transform="translate(-507.435 -360.568)"/></g></g><g transform="translate(442.985 181.136)"><g class="q"><g transform="translate(-36.723 87.558)"><path class="j" d="M592.869,295.19V375.5h-2.077L588.16,295.19Z" transform="translate(-442.02 -292.773)"/><g transform="translate(121.501 5.04)"><path class="j" d="M563.108,298.36v74.407h-2.094L558.39,298.36Z" transform="translate(-558.39 -298.36)"/><path class="r" d="M563.108,298.36v74.407h-2.094L558.39,298.36Z" transform="translate(-558.39 -298.36)"/></g><rect class="j" width="162.553" height="3.369"/><path class="j" d="M465.339,295.19V375.5h-2.086L460.63,295.19Z" transform="translate(-420.041 -292.773)"/><g transform="translate(15.941 5.04)"><path class="j" d="M435.568,298.36v74.407h-2.086L430.85,298.36Z" transform="translate(-430.85 -298.36)"/><path class="r" d="M435.568,298.36v74.407h-2.086L430.85,298.36Z" transform="translate(-430.85 -298.36)"/></g><g transform="translate(5.57 3.369)"><path class="j" d="M565.081,299.94H423.766l-5.446-3.6H570.527Z" transform="translate(-418.32 -296.34)"/><path class="r" d="M565.081,299.94H423.766l-5.446-3.6H570.527Z" transform="translate(-418.32 -296.34)"/></g><path class="j" d="M551.706,299.94H459.886l-3.576-3.6h95.4Z" transform="translate(-419.297 -292.971)"/><rect class="r" width="30.45" height="3.369"/></g></g><g class="s"><g transform="translate(0.55 32.122)"><path class="t" d="M522.817,269.586h-61a3.232,3.232,0,0,1-3.186-3.029l-2-38.238a2.846,2.846,0,0,1,2.872-3.029h61a3.232,3.232,0,0,1,3.186,3.029l2,38.238A2.851,2.851,0,0,1,522.817,269.586Z" transform="translate(-456.624 -225.29)"/><path class="u" d="M522.817,269.586h-61a3.232,3.232,0,0,1-3.186-3.029l-2-38.238a2.846,2.846,0,0,1,2.872-3.029h61a3.232,3.232,0,0,1,3.186,3.029l2,38.238A2.851,2.851,0,0,1,522.817,269.586Z" transform="translate(-456.624 -225.29)"/></g><g transform="translate(32.42 73.132)"><path class="t" d="M503.822,289.316H495.14l1.746-14.476h6.936Z" transform="translate(-495.132 -274.84)"/><path class="u" d="M503.822,289.316H495.14l1.746-14.476h6.936Z" transform="translate(-495.132 -274.84)"/><path class="t" d="M511.377,290.86h-16.1l-.149,1.217h16.239a.608.608,0,0,0,.008-1.217Z" transform="translate(-495.13 -277.601)"/><path class="v" d="M511.377,290.86h-16.1l-.149,1.217h16.239a.608.608,0,0,0,.008-1.217Z" transform="translate(-495.13 -277.601)"/><path class="w" d="M496.25,282.245h7.763V278.09h-7.259Z" transform="translate(-495.323 -275.4)"/></g><g transform="translate(1.063 32.122)"><path class="t" d="M523.437,269.586h-61a3.232,3.232,0,0,1-3.187-3.029l-2-38.238a2.846,2.846,0,0,1,2.872-3.029h61a3.232,3.232,0,0,1,3.186,3.029l2,38.238A2.846,2.846,0,0,1,523.437,269.586Z" transform="translate(-457.244 -225.29)"/></g><path class="t" d="M462.688,268.361h61a1.382,1.382,0,0,0,1.4-1.482l-2-38.238a1.579,1.579,0,0,0-1.556-1.482h-61a1.382,1.382,0,0,0-1.4,1.482l2,38.238A1.58,1.58,0,0,0,462.688,268.361Z" transform="translate(-456.506 -193.491)"/><path class="x" d="M462.688,268.361h61a1.382,1.382,0,0,0,1.4-1.482l-2-38.238a1.579,1.579,0,0,0-1.556-1.482h-61a1.382,1.382,0,0,0-1.4,1.482l2,38.238A1.58,1.58,0,0,0,462.688,268.361Z" transform="translate(-456.506 -193.491)"/></g><g class="q"><g transform="translate(26.891 82.46)"><path class="i" d="M525.107,286.11H488.45l6.621,5.115H531.72Z" transform="translate(-488.45 -286.11)"/><path class="y" d="M525.107,286.11H488.45l6.621,5.115H531.72Z" transform="translate(-488.45 -286.11)"/><path class="z" d="M489.294,291.225l-.844-5.115,6.621,5.115Z" transform="translate(-488.45 -286.11)"/><path class="aa" d="M489.294,291.225l-.844-5.115,6.621,5.115Z" transform="translate(-488.45 -286.11)"/></g></g><g class="q"><g transform="translate(20.983 17.202)"><g transform="translate(29.355 77.093)"><g transform="translate(1.225)"><g transform="translate(0 56.645)"><path class="ab" d="M523.044,385.208l-4.784-1.432,1.117-11.736,4.784,1.432Z" transform="translate(-518.26 -369.4)"/><path class="h" d="M524.743,370.274l-4.792-1.424-.621,6.572,4.834.9Z" transform="translate(-518.444 -368.85)"/></g><path class="i" d="M551.375,300.41s-32.908,2.781-32.105,17.066c.646,11.38,2.947,2.872-1.01,43.3l8.277.455s8.426-28.455,7.283-39.761c9.278,0,30.516.811,33.595-7.557a37.277,37.277,0,0,0,2.2-13.259Z" transform="translate(-518.26 -300.41)"/></g><path class="ac" d="M527.6,374.458,516.78,372.6l.174-4.784L528.16,370.3Z" transform="translate(-516.78 -312.027)"/></g><g transform="translate(20.599 144.79)"><path class="ac" d="M515.685,383.836l5.529,1.092a.416.416,0,0,1,.314.464l-.463,5.223a.922.922,0,0,1-1.01.861c-1.92-.422-2.822-.728-5.256-1.208-1.5-.3-4.916-1.018-7-1.25s-1.829-2.665-.935-2.789c4.047-.538,6.34-1.184,7.912-2.2A1.294,1.294,0,0,1,515.685,383.836Z" transform="translate(-506.2 -382.481)"/><g transform="translate(6.021)"><path class="i" d="M514.464,384.7a6.37,6.37,0,0,0,1.316.041.116.116,0,0,0,.1-.074.113.113,0,0,0,0-.124c-.141-.141-1.382-1.316-2.011-1.184a.419.419,0,0,0-.323.273.64.64,0,0,0,.041.654A1.26,1.26,0,0,0,514.464,384.7Zm1.051-.174c-.91,0-1.556-.108-1.746-.372a.426.426,0,0,1,0-.422.2.2,0,0,1,.149-.141C514.257,383.515,515.01,384.061,515.515,384.525Z" transform="translate(-513.475 -382.4)"/><path class="i" d="M516.072,384.543h.05a.161.161,0,0,0,.083-.083c0-.058.364-1.457-.058-2.011a.565.565,0,0,0-.464-.24.436.436,0,0,0-.472.273c-.207.521.364,1.664.8,2.044A.12.12,0,0,0,516.072,384.543Zm-.339-2.1a.38.38,0,0,1,.232.141,2.566,2.566,0,0,1,.058,1.614,2.328,2.328,0,0,1-.588-1.639c0-.066.075-.141.24-.132Z" transform="translate(-513.766 -382.203)"/></g></g><g transform="translate(9.475 77.085)"><g transform="translate(0 58.102)"><path class="ab" d="M497.312,387.384l-4.552-2.044,3.145-11.24,4.56,2.044Z" transform="translate(-492.76 -371.203)"/><path class="h" d="M501.714,372.653l-4.56-2.053-1.614,5.8,4.552,2.044Z" transform="translate(-493.239 -370.6)"/></g><g transform="translate(0.215)"><path class="i" d="M537.5,300.408c-.215,0-36.9,3.774-36.939,16.214-.083,20.576-5.951,44.156-5.951,44.156l7.25,3.592s12.622-25.566,12.432-41.607c10.089-2.9,36.194,1.97,39.281-6.4,2.524-6.836,1.159-15.966,1.159-15.966H537.5Z" transform="translate(-493.294 -300.4)"/><path class="ac" d="M502.737,377.211l-9.717-4.378.786-3.973,10.246,3.534Z" transform="translate(-493.02 -312.198)"/></g></g><g transform="translate(0 144.271)"><path class="ac" d="M491.242,383.107l5.537,1.15a.456.456,0,0,1,.306.513l-.43,5.744c-.074.621-.521,1.051-1,.952h0c-1.92-.447-2.822-.786-5.256-1.291-1.5-.306-5.57-1.3-7.631-1.829s-1.6-3.153-.654-3.17c4.064-.058,6.7-.728,8.26-1.862A1.176,1.176,0,0,1,491.242,383.107Z" transform="translate(-481.312 -381.837)"/><g transform="translate(6.246)"><path class="i" d="M490.267,384.4a6.459,6.459,0,0,0,1.084-.745.144.144,0,0,0,.041-.124.107.107,0,0,0-.1-.074c-.19-.033-1.887-.248-2.326.24a.446.446,0,0,0-.091.414.658.658,0,0,0,.422.5A1.352,1.352,0,0,0,490.267,384.4Zm.737-.761c-.712.563-1.308.836-1.622.737a.4.4,0,0,1-.248-.348.194.194,0,0,1,.041-.2A3.191,3.191,0,0,1,491,383.636Z" transform="translate(-488.859 -381.887)"/><path class="i" d="M491.458,383.342l.05-.033a.088.088,0,0,0,.008-.108c-.033-.05-.571-1.39-1.242-1.6a.569.569,0,0,0-.513.083.435.435,0,0,0-.215.5c.141.538,1.275,1.126,1.854,1.167A.119.119,0,0,0,491.458,383.342Zm-1.523-1.5a.317.317,0,0,1,.273-.025,2.617,2.617,0,0,1,1.01,1.266,2.345,2.345,0,0,1-1.448-.968c-.041-.05-.025-.157.116-.248Z" transform="translate(-488.974 -381.576)"/></g></g><g transform="translate(41.191 37.399)"><path class="ab" d="M557.731,252.45c.968,2.077,1.763,4.072,2.557,6.141s1.5,4.147,2.144,6.274a65.616,65.616,0,0,1,1.664,6.563,34.4,34.4,0,0,1,.737,7.134,14.73,14.73,0,0,1-.621,4.155,9.249,9.249,0,0,1-1.093,2.334,7.316,7.316,0,0,1-.935,1.142l-.281.273c-.157.132-.331.273-.488.389a5.049,5.049,0,0,1-.877.488,7.056,7.056,0,0,1-1.415.455,9.1,9.1,0,0,1-1.159.174,16.173,16.173,0,0,1-2,0,28.154,28.154,0,0,1-3.534-.4,66.925,66.925,0,0,1-12.746-3.65l.952-3.617c4.171.5,8.426,1.035,12.432,1.217,1,0,1.97.05,2.872,0a9.7,9.7,0,0,0,1.2-.149c.331-.058.612-.174.513-.174a.75.75,0,0,0-.182.091.974.974,0,0,0-.182.141h0a.763.763,0,0,0,.058-.108,3.512,3.512,0,0,0,.2-.588,8.861,8.861,0,0,0,.174-2.193,28.747,28.747,0,0,0-.836-5.57c-.447-1.97-1.026-3.89-1.655-5.835s-1.316-3.9-2.061-5.843-1.539-3.89-2.309-5.727Z" transform="translate(-532.562 -252.45)"/><path class="ab" d="M541.639,286.8l-4.354-2.45-2.185,4.718s5.09,2.119,6.158.795Z" transform="translate(-531.773 -257.948)"/><path class="ab" d="M533.066,285.237l-1.986,3.153,3.327.637,2.185-4.718Z" transform="translate(-531.08 -257.941)"/></g><g transform="translate(10.393 38.243)"><path class="ab" d="M541.151,256.367c-.836,2.094-1.7,4.1-2.624,6.125s-1.837,4.022-2.806,6.017a115.094,115.094,0,0,1-6.563,11.819c-.654.968-1.316,1.937-2.044,2.905-.364.488-.778.968-1.208,1.457-.24.248-.43.48-.7.737l-.4.381-.223.207a5.466,5.466,0,0,1-2.152,1.142,10.894,10.894,0,0,1-1.275.273,12.865,12.865,0,0,1-2.111.083,26.753,26.753,0,0,1-3.633-.364,66.463,66.463,0,0,1-13.011-3.691l.96-3.625c4.246.513,8.583,1.059,12.672,1.225a28.033,28.033,0,0,0,2.888-.041,7.745,7.745,0,0,0,1.151-.182,1.423,1.423,0,0,0,.356-.132c.041,0,0-.05-.174.066a.692.692,0,0,0-.174.132s.05-.058.066-.083l.182-.207c.116-.116.265-.315.4-.472.273-.339.546-.712.819-1.109.546-.778,1.076-1.647,1.606-2.524,1.051-1.763,2.028-3.633,2.988-5.521s1.879-3.824,2.781-5.76c1.8-3.873,3.567-7.846,5.256-11.753Z" transform="translate(-495.34 -253.47)"/><g transform="translate(0 24.83)"><path class="ab" d="M504.437,285.953l-4.362-2.483-2.185,4.709s5.09,2.127,6.166.8Z" transform="translate(-494.563 -283.47)"/><path class="ab" d="M495.865,284.405l-1.995,3.145,3.327.637,2.185-4.718Z" transform="translate(-493.87 -283.47)"/></g></g><g transform="translate(51.677 4.476)"><path class="ab" d="M560.84,228.83l-2.781,3.22-4.246,4.395c.091.215.207.5.323.795a7.7,7.7,0,0,1,.563,2.541c.091,1.763-.074,3.253-2.855,4.445,0,0-2.913,3.807,4.014,2.748s7.979-4.651,7.979-4.651C560.766,240.144,560.6,232.877,560.84,228.83Z" transform="translate(-545.04 -215.457)"/><path class="ac" d="M545.546,224.281c0,.43-.215.8-.5.811s-.521-.331-.521-.761.223-.8.5-.811S545.546,223.843,545.546,224.281Z" transform="translate(-543.883 -214.542)"/><path class="ac" d="M547.094,222.149a.236.236,0,0,1-.207-.116,2.143,2.143,0,0,0-1.589-1.01.264.264,0,0,1-.248-.265.253.253,0,0,1,.265-.248h0a2.643,2.643,0,0,1,2.011,1.25.257.257,0,0,1-.083.356A.484.484,0,0,1,547.094,222.149Z" transform="translate(-543.974 -214.023)"/><path class="ad" d="M545.256,224.73a14.247,14.247,0,0,1-1.506,3.36,2.116,2.116,0,0,0,1.788.132Z" transform="translate(-543.75 -214.751)"/><path class="ab" d="M560.138,220.219c-.257,5.355-.141,8.533-2.8,11.372a6.977,6.977,0,0,1-11.96-3.087c-1.208-4.743-.579-12.713,4.594-15.1a7.045,7.045,0,0,1,9.444,3.187A6.968,6.968,0,0,1,560.138,220.219Z" transform="translate(-543.941 -212.673)"/></g><g transform="translate(48.975)"><g transform="translate(6.268 9.986)"><path class="ac" d="M563.115,223.154a20.119,20.119,0,0,1-3.476,6.241l-6.969,1.316s-5.5-2.3-4.039-6.1c-.935-.786-.588-3.22.075-4.56a2.841,2.841,0,0,0,3.724-.1,2.548,2.548,0,0,0,4.039.331,2.693,2.693,0,0,0,4.238-.679,2.4,2.4,0,0,0,2.806-.182c.033-.033.066-.058.1-.091A9.564,9.564,0,0,1,563.115,223.154Z" transform="translate(-548.059 -219.33)"/><path class="ae" d="M563.115,223.154a20.119,20.119,0,0,1-3.476,6.241l-6.969,1.316s-5.5-2.3-4.039-6.1c-.935-.786-.588-3.22.075-4.56a2.841,2.841,0,0,0,3.724-.1,2.548,2.548,0,0,0,4.039.331,2.693,2.693,0,0,0,4.238-.679,2.4,2.4,0,0,0,2.806-.182c.033-.033.066-.058.1-.091A9.564,9.564,0,0,1,563.115,223.154Z" transform="translate(-548.059 -219.33)"/></g><path class="ac" d="M562.82,214.586a2.418,2.418,0,0,1-.513,2.657c-.033.033-.066.058-.1.091a2.4,2.4,0,0,1-2.806.182,2.684,2.684,0,0,1-4.238.679,2.558,2.558,0,0,1-4.039-.331,2.85,2.85,0,0,1-3.724.1,2.234,2.234,0,0,1-.654-.811.148.148,0,1,0-.273-.041,2.032,2.032,0,0,1-2.334.141,2.007,2.007,0,0,1-.844-1.763,1.882,1.882,0,0,1,.075-.422,1.049,1.049,0,0,1-.2.273,1.635,1.635,0,0,1-2.334-.058,2.035,2.035,0,0,1,.654-2.864,2.419,2.419,0,0,1,1.233-.331,3.142,3.142,0,0,1,1.887.654,1.941,1.941,0,0,1,3.112-2.317,1.715,1.715,0,0,1,.7-1.779,2.777,2.777,0,0,1,3.153.811s1.01-2.442,2.756-2.168c.381.05,2.177.844,2.127,1.49a.308.308,0,0,1-.033.124.788.788,0,0,1,.083-.141,1.939,1.939,0,0,1,1.68-.795,5.589,5.589,0,0,1,2.02.538,7.209,7.209,0,0,1,3.592,2.425C564.574,212.16,564.227,214.188,562.82,214.586Z" transform="translate(-540.485 -207.264)"/><path class="ab" d="M551.65,225.727a6.309,6.309,0,0,1-1.73,3.509c-1.192,1.134-2.2,0-2.21-1.73,0-1.564.588-4.039,1.97-4.494S551.906,224.022,551.65,225.727Z" transform="translate(-541.73 -209.963)"/></g><g class="m" transform="translate(50.709 30.587)"><path class="af" d="M571.755,246.844c-.488-1.316-2.789-2.624-4.2-2.624h-.935a50.572,50.572,0,0,0-5.628.364,99.629,99.629,0,0,0-11.157,1.879,48.62,48.62,0,0,0-4.627,1.5c-1.655.654-2.624,1.093-2.624,1.093s1.813,12.067,2.748,24.06c.521,6.671.306,13.3.472,17.853h28.008c.968-5.471.811-10.246.894-20.137C574.751,264.887,573.783,252.248,571.755,246.844Z" transform="translate(-542.58 -244.22)"/><path class="ag" d="M545.18,268.924c.207,2.516.43,5.156.654,7.788,3.286-4.792,5.1-17.9,5.1-17.9Z" transform="translate(-543.028 -246.734)"/></g><path class="ah" d="M539.016,250.849c-4.014,2.26-7.945,13.814-7.945,13.814l9.187,6.928c3.509-3.319,8.632-11.538,9.187-14.832C550.346,251.718,545.447,247.257,539.016,250.849Z" transform="translate(-489.888 -214.551)"/></g><g transform="translate(40.39 42.889)"><g transform="translate(16.09 124.48)"><path class="ac" d="M529.911,392.655a2.855,2.855,0,1,1-2.855-2.855,2.851,2.851,0,0,1,2.855,2.855Z" transform="translate(-524.2 -388.89)"/><path class="ac" d="M582.56,392.655a2.855,2.855,0,1,0,2.855-2.855,2.851,2.851,0,0,0-2.855,2.855Z" transform="translate(-534.258 -388.89)"/><path class="ac" d="M553.47,391.555a2.855,2.855,0,1,0,2.855-2.855,2.851,2.851,0,0,0-2.855,2.855Z" transform="translate(-529.244 -388.7)"/></g><g transform="translate(12.976 118.289)"><path class="ac" d="M549.747,386.741V381.22H541.57a25.727,25.727,0,0,0-4.784.447l-15.229,2.963a1.383,1.383,0,0,0,.315,2.74Z" transform="translate(-520.438 -381.22)"/><path class="ac" d="M555.85,386.741V381.22h8.186a25.728,25.728,0,0,1,4.784.447l17.116,2.74a1.383,1.383,0,0,1-.315,2.74Z" transform="translate(-526.541 -381.22)"/></g><g transform="translate(37.22 81.252)"><rect class="ac" width="10.131" height="25.277" transform="translate(0 11.761)"/><rect class="ac" width="7.217" height="11.761" transform="translate(1.457)"/><path class="ai" d="M551.49,339.921l7.217,1.821V336.47H551.49Z" transform="translate(-550.033 -336.47)"/></g><path class="t" d="M549.87,319.552V251.485a8.931,8.931,0,0,1,3.054-6.729l4.85-4.246a8.956,8.956,0,0,1,5.885-2.21H581.18l8.566,9.113v72.139Z" transform="translate(-512.534 -238.3)"/><path class="t" d="M516.008,320.56h39.976v13.168h-46.49a4.729,4.729,0,0,1-4.072-7.143h0A12.317,12.317,0,0,1,516.008,320.56Z" transform="translate(-504.76 -252.477)"/><path class="v" d="M581.983,247.414v72.139H509.5a4.734,4.734,0,0,1-4.072-7.134,12.284,12.284,0,0,1,10.561-6.034h20.137a5.973,5.973,0,0,0,5.976-5.976V251.486a8.9,8.9,0,0,1,3.054-6.721L550,240.52a8.913,8.913,0,0,1,5.885-2.21h17.522Z" transform="translate(-504.762 -238.302)"/><g transform="translate(43.171)"><path class="g" d="M556.92,319.552V251.485a8.931,8.931,0,0,1,3.054-6.729l4.85-4.246a8.956,8.956,0,0,1,5.885-2.21h13.656a8.941,8.941,0,0,1,6.514,2.814l3.493,3.716a8.948,8.948,0,0,1,2.425,6.125V312.74a6.812,6.812,0,0,1-6.812,6.812Z" transform="translate(-556.92 -238.3)"/><path class="aj" d="M556.92,319.552V251.485a8.931,8.931,0,0,1,3.054-6.729l4.85-4.246a8.956,8.956,0,0,1,5.885-2.21h13.656a8.941,8.941,0,0,1,6.514,2.814l3.493,3.716a8.948,8.948,0,0,1,2.425,6.125V312.74a6.812,6.812,0,0,1-6.812,6.812Z" transform="translate(-556.92 -238.3)"/></g></g></g><g class="q"><path class="ak" d="M509.285,268.271H475.078l-1.5-21.461h34.207Z" transform="translate(-458.997 -196.877)"/><path class="al" d="M509.285,268.271H475.078l-1.5-21.461h34.207Z" transform="translate(-458.997 -196.877)"/><path class="ak" d="M507.887,248.192H473.679l-.1-1.382h34.207Z" transform="translate(-458.997 -196.877)"/></g><g class="q"><path class="ak" d="M525.094,254.1H490.886L489.38,232.64H523.6Z" transform="translate(-461.72 -194.435)"/><path class="am" d="M525.094,254.1H490.886L489.38,232.64H523.6Z" transform="translate(-461.72 -194.435)"/></g><g class="q"><path class="ak" d="M523.687,234.022H489.479l-.1-1.382H523.6Z" transform="translate(-461.72 -194.435)"/></g><g transform="translate(47.119 94.776)"><path class="p" d="M518.2,306.138,513.5,300.99l-.612.555,4.949,5.438A1.963,1.963,0,0,1,518.2,306.138Z" transform="translate(-512.89 -300.99)"/><path class="p" d="M528.453,317.36a1.716,1.716,0,0,1-.464.72l10.064,11.049a1.676,1.676,0,0,1,.72-.439Z" transform="translate(-515.492 -303.811)"/><path class="p" d="M524.987,313.646l-2.773-3.046a1.8,1.8,0,0,1-.844.3l2.889,3.17A1.679,1.679,0,0,1,524.987,313.646Z" transform="translate(-514.351 -302.646)"/><path class="p" d="M558.022,349.811,543.762,334.16a1.79,1.79,0,0,1-.472.712l14.343,15.742A1.818,1.818,0,0,1,558.022,349.811Z" transform="translate(-518.129 -306.706)"/><path class="p" d="M564.045,356.5a1.752,1.752,0,0,1-.795.356l13.772,15.113.612-.555Z" transform="translate(-521.569 -310.556)"/></g><path class="o" d="M543.419,281.33H463.351a7.393,7.393,0,0,1-7.391-7.391V193.871a7.393,7.393,0,0,1,7.391-7.391h80.068a7.393,7.393,0,0,1,7.391,7.391v80.068A7.393,7.393,0,0,1,543.419,281.33Z" transform="translate(-455.96 -186.48)"/></g><g transform="translate(552.037 156.505)"><g class="an"><path class="ao" d="M616.606,191.8l-5.082,2.64s-.5,19.069,0,21.7a4.736,4.736,0,0,0,3.021,3.443l5.132-4.014Z" transform="translate(-591.784 -162.766)"/><path class="ao" d="M609.287,194.99a129.2,129.2,0,0,0-10.669,25.136c-2.582,8.475,12.465,9.013,15.221,6.025.687-.745,5.794-8.467,5.794-8.467Z" transform="translate(-589.547 -163.315)"/><g transform="translate(21.011 13.872)"><path class="i" d="M632.973,216.734H615.808a2.655,2.655,0,0,1-2.69-2.946l3.269-37.361a3.279,3.279,0,0,1,3.2-2.946h17.166a2.655,2.655,0,0,1,2.69,2.946l-3.269,37.361A3.273,3.273,0,0,1,632.973,216.734Z" transform="translate(-613.106 -173.48)"/><path class="ah" d="M632.973,216.734H615.808a2.655,2.655,0,0,1-2.69-2.946l3.269-37.361a3.279,3.279,0,0,1,3.2-2.946h17.166a2.655,2.655,0,0,1,2.69,2.946l-3.269,37.361A3.273,3.273,0,0,1,632.973,216.734Z" transform="translate(-613.106 -173.48)"/><g class="ap" transform="translate(9.977 39.008)"><path class="c" d="M626.542,223.606a1.368,1.368,0,0,1-1.026-.439,1.346,1.346,0,0,1-.348-1.068,1.668,1.668,0,0,1,1.622-1.49,1.368,1.368,0,0,1,1.026.439,1.346,1.346,0,0,1,.348,1.068h0A1.668,1.668,0,0,1,626.542,223.606Zm.24-2.806a1.457,1.457,0,0,0-1.424,1.316,1.168,1.168,0,0,0,1.175,1.3,1.457,1.457,0,0,0,1.424-1.316h0a1.184,1.184,0,0,0-.3-.919A1.139,1.139,0,0,0,626.782,220.8Z" transform="translate(-625.161 -220.61)"/></g><g class="ap" transform="translate(11.422 2.061)"><path class="c" d="M633.051,177.344h-5.562a.587.587,0,0,1-.43-.182.579.579,0,0,1-.149-.447l.008-.132a.687.687,0,0,1,.67-.612h5.562a.587.587,0,0,1,.43.182.579.579,0,0,1,.149.447l-.008.132A.687.687,0,0,1,633.051,177.344Zm-5.454-1.167a.482.482,0,0,0-.472.43l-.008.132a.386.386,0,0,0,.1.3.4.4,0,0,0,.281.124h5.562a.482.482,0,0,0,.472-.43l.008-.132a.386.386,0,0,0-.1-.3.4.4,0,0,0-.281-.124Z" transform="translate(-626.907 -175.97)"/></g><g transform="translate(1.882 0.132)"><path class="ae" d="M631,173.64l-9.576,43.121h5.76l9.477-43.121Z" transform="translate(-616.421 -173.64)"/><path class="ae" d="M625.588,173.64l-9.568,43.121h2.9l9.477-43.121Z" transform="translate(-615.49 -173.64)"/><g transform="translate(0 5.189)"><path class="i" d="M635.161,211.775H615.38l2.789-31.865h19.773Z" transform="translate(-615.38 -179.91)"/><path class="aq" d="M635.161,211.775H615.38l2.789-31.865h19.773Z" transform="translate(-615.38 -179.91)"/></g></g></g><g transform="translate(25.989 29.68)"><path class="i" d="M635.913,193.954a.924.924,0,0,1-.025.149,1.531,1.531,0,0,1-1.473,1.233H620.378a1.231,1.231,0,0,1-1.258-1.233.9.9,0,0,1,.008-.149,1.464,1.464,0,0,1,.488-.968,1.51,1.51,0,0,1,1.01-.406h14.037A1.237,1.237,0,0,1,635.913,193.954Z" transform="translate(-619.12 -192.58)"/><path class="ar" d="M635.913,193.954a.924.924,0,0,1-.025.149,1.531,1.531,0,0,1-1.473,1.233H620.378a1.231,1.231,0,0,1-1.258-1.233.9.9,0,0,1,.008-.149,1.464,1.464,0,0,1,.488-.968,1.51,1.51,0,0,1,1.01-.406h14.037A1.237,1.237,0,0,1,635.913,193.954Z" transform="translate(-619.12 -192.58)"/></g><g transform="translate(25.98 29.68)"><path class="i" d="M619.118,194.1a.71.71,0,0,0,.008.132,1.489,1.489,0,0,1,.48-.919,1.51,1.51,0,0,1,1.01-.406l14.923.025a1.25,1.25,0,0,0-.894-.356H620.608a1.538,1.538,0,0,0-1.5,1.374A.9.9,0,0,1,619.118,194.1Z" transform="translate(-619.11 -192.58)"/><path class="as" d="M619.118,194.1a.71.71,0,0,0,.008.132,1.489,1.489,0,0,1,.48-.919,1.51,1.51,0,0,1,1.01-.406l14.923.025a1.25,1.25,0,0,0-.894-.356H620.608a1.538,1.538,0,0,0-1.5,1.374A.9.9,0,0,1,619.118,194.1Z" transform="translate(-619.11 -192.58)"/></g><g transform="translate(27.569 30.342)"><path class="ac" d="M622.214,193.38l-.058.662.67-.223.091.331-.67.215.356.563-.314.215-.339-.588-.447.588-.29-.215.455-.563-.637-.215.149-.331.629.232.058-.67Z" transform="translate(-621.03 -193.38)"/><path class="ac" d="M626.854,193.38l-.058.662.67-.223.091.331-.67.215.356.563-.315.215-.339-.588-.447.588-.29-.215.455-.563-.637-.215.149-.331.629.232.058-.67Z" transform="translate(-621.83 -193.38)"/><path class="ac" d="M631.494,193.38l-.058.662.67-.223.091.331-.67.215.356.563-.315.215-.339-.588-.447.588-.29-.215.455-.563-.637-.215.149-.331.629.232.058-.67Z" transform="translate(-622.629 -193.38)"/><path class="ac" d="M636.134,193.38l-.058.662.67-.223.091.331-.67.215.356.563-.315.215-.339-.588-.447.588-.29-.215.455-.563-.637-.215.149-.331.629.232.058-.67Z" transform="translate(-623.429 -193.38)"/></g><g transform="translate(27.809 29.034)"><g transform="translate(2.814)"><rect class="i" width="0.654" height="0.166"/></g><rect class="i" width="2.135" height="0.166"/></g><path class="i" d="M644.673,176.426,641.4,213.787a3.287,3.287,0,0,1-3.211,2.946H637.1a3.279,3.279,0,0,0,3.2-2.946l3.269-37.361a2.659,2.659,0,0,0-2.69-2.946h1.093A2.657,2.657,0,0,1,644.673,176.426Z" transform="translate(-596.23 -159.608)"/><path class="g" d="M644.673,176.426,641.4,213.787a3.287,3.287,0,0,1-3.211,2.946H637.1a3.279,3.279,0,0,0,3.2-2.946l3.269-37.361a2.659,2.659,0,0,0-2.69-2.946h1.093A2.657,2.657,0,0,1,644.673,176.426Z" transform="translate(-596.23 -159.608)"/><rect class="i" width="1.44" height="0.298" transform="translate(47.519 24.777) rotate(-85.86)"/><rect class="i" width="4.188" height="0.298" transform="translate(47.703 22.059) rotate(-85.86)"/><g class="at" transform="translate(26.892 41.127)"><path d="M630.407,210.151h-8.484a1.683,1.683,0,0,1-1.7-1.87h0a2.081,2.081,0,0,1,2.028-1.871h8.484a1.683,1.683,0,0,1,1.705,1.871h0A2.074,2.074,0,0,1,630.407,210.151Z" transform="translate(-620.211 -206.41)"/><path class="au" d="M630.407,210.151h-8.484a1.683,1.683,0,0,1-1.7-1.87h0a2.081,2.081,0,0,1,2.028-1.871h8.484a1.683,1.683,0,0,1,1.705,1.871h0A2.074,2.074,0,0,1,630.407,210.151Z" transform="translate(-620.211 -206.41)"/></g><g transform="translate(19.736 40.398)"><path class="ao" d="M611.569,206.763l7.681-1.233,1.068.116a1.784,1.784,0,0,1,1.515,2.317,6.5,6.5,0,0,1-.795,2c-.281,0-7.912,6.241-7.912,6.241s-1.647,1.515-1.556-.43Z" transform="translate(-611.566 -205.53)"/></g></g><g class="an"><path class="ao" d="M595.783,225.36l12.779,7.25-6.083,20.551H581.87Z" transform="translate(-586.712 -168.549)"/></g><path class="n" d="M649.133,225.524H595.111a7.393,7.393,0,0,1-7.391-7.391V164.111a7.393,7.393,0,0,1,7.391-7.391h54.022a7.393,7.393,0,0,1,7.391,7.391v54.022A7.388,7.388,0,0,1,649.133,225.524Z" transform="translate(-587.72 -156.72)"/><path class="o" d="M649.133,225.524H595.111a7.393,7.393,0,0,1-7.391-7.391V164.111a7.393,7.393,0,0,1,7.391-7.391h54.022a7.393,7.393,0,0,1,7.391,7.391v54.022A7.388,7.388,0,0,1,649.133,225.524Z" transform="translate(-587.72 -156.72)"/><g transform="translate(34.538 68.853)"><path class="p" d="M639.369,251.125a1.908,1.908,0,0,1,.679.124l.985-11.264-.828-.074-.985,11.231A.817.817,0,0,1,639.369,251.125Z" transform="translate(-631.134 -239.91)"/><path class="p" d="M639.289,261.51l.3-3.435a2.475,2.475,0,0,1-.356.033,2.044,2.044,0,0,1-.472-.058l-.29,3.278A2.059,2.059,0,0,1,639.289,261.51Z" transform="translate(-631.005 -243.036)"/><path class="p" d="M636.936,285.3l1.639-18.705a2.086,2.086,0,0,1-.521.074,1.824,1.824,0,0,1-.306-.033l-1.6,18.25A1.6,1.6,0,0,1,636.936,285.3Z" transform="translate(-630.605 -244.508)"/><path class="p" d="M634.628,304.327a1.908,1.908,0,0,1,.753.149l1.01-11.5a1.84,1.84,0,0,1-.853.248l-.968,11.107C634.587,304.336,634.611,304.327,634.628,304.327Z" transform="translate(-630.332 -249.056)"/><path class="p" d="M633.746,311.341a2.019,2.019,0,0,1-.4-.041l-3.9,44.6.828.074,3.906-44.677A2.4,2.4,0,0,1,633.746,311.341Z" transform="translate(-629.45 -252.213)"/></g></g><g transform="translate(629.863 193.352)"><g transform="translate(4.9)"><g transform="translate(0 0.356)"><g class="av"><g transform="translate(2.905 -11.854)"><path class="aw" d="M691.18,222.357s.621,4.685,9.063,7.317,5.529-2.665,5.529-2.665c-3.931-2.45-3.849-5.3-2.582-8.1a17.769,17.769,0,0,1,1.051-2.053l-3.9-6.2-2.855-4.544C697.015,211.184,695.418,220.213,691.18,222.357Z" transform="translate(-691.18 -190.582)"/><path class="ac" d="M721.7,202.828c.348.066.563.571.472,1.109s-.439.919-.8.852-.555-.571-.472-1.109S721.351,202.754,721.7,202.828Z" transform="translate(-696.298 -190.014)"/><path class="ac" d="M718.858,200.659a.334.334,0,0,1-.033-.455,3.31,3.31,0,0,1,2.74-1.175h0a.326.326,0,0,1,.281.364.332.332,0,0,1-.364.281,2.682,2.682,0,0,0-2.168.96.3.3,0,0,1-.281.108A.424.424,0,0,1,718.858,200.659Z" transform="translate(-695.931 -189.36)"/><path class="ad" d="M719.87,208.554a2.654,2.654,0,0,0,2.251.174,17.231,17.231,0,0,1-1.242-4.478Z" transform="translate(-696.124 -190.261)"/><path class="aw" d="M700.965,191.14a8.892,8.892,0,0,1,12.382-2.185c5.992,3.956,5.272,14,2.864,19.69a8.8,8.8,0,0,1-15.5,1.589c-2.773-4.039-2.028-7.979-1.333-14.7A9.12,9.12,0,0,1,700.965,191.14Z" transform="translate(-692.482 -187.348)"/><path class="aw" d="M715.17,201.234c1.639.836,1.9,4.031,1.606,5.976-.339,2.152-1.821,3.377-3.087,1.73a7.966,7.966,0,0,1-1.5-4.7C712.2,202.079,713.531,200.4,715.17,201.234Z" transform="translate(-694.801 -189.704)"/><g transform="translate(22.133 19.89)"><path d="M719.336,213.019a1.353,1.353,0,0,1-1.4-1.548l.017-.091.406.058-.017.091a.929.929,0,0,0,.29.819.916.916,0,0,0,.836.232l.083.406A.588.588,0,0,1,719.336,213.019Z" transform="translate(-717.922 -211.38)"/></g></g><path class="ac" d="M718.2,190.749a9.08,9.08,0,0,1-2.591,2.922,5.463,5.463,0,0,1-.662.406A3.826,3.826,0,0,1,710.72,194a4.663,4.663,0,0,1-.1,2.963,9.29,9.29,0,0,1-2.028,3.319,4.547,4.547,0,0,0,.05-2.549,2.479,2.479,0,0,0-1-1.283,2.323,2.323,0,0,0-3.336.737,4.334,4.334,0,0,0-.066,3.286,8.708,8.708,0,0,1,.612,3.3c-.132,1.126-1.051,2.26-2.177,2.135a2.8,2.8,0,0,1-1.779,1.6,3.233,3.233,0,0,1-2.864-.331,2.067,2.067,0,0,1-.447-.406,3.1,3.1,0,0,1-1.771,1.01,3.061,3.061,0,0,1-1.523-.066,3.2,3.2,0,0,1-2.168-2.657,3.153,3.153,0,0,1-2.144-5.835,3.631,3.631,0,0,1,.223-6.878c-1.366-1.722-.19-4.329,1.3-5.181a2.207,2.207,0,0,1,.414-.174,1.569,1.569,0,0,1,.778-.074l.124.033a1.485,1.485,0,0,1,.381.157c.017.008.05-.008.091-.041a10.228,10.228,0,0,0,.968-1.324c.041-.066.091-.132.132-.2s.108-.141.149-.215c.6-.877,1.184-1.68,1.217-1.3a6.306,6.306,0,0,1,10.544-5.239,4.2,4.2,0,0,1,7.416,1.39c2.351-.877,5.082.985,5.827,3.377S719.493,188.589,718.2,190.749Z" transform="translate(-687.661 -197.436)"/></g><g class="av"><g transform="translate(57.994 145.619)"><path class="aw" d="M757.77,379.911l5.868-2.3,2.624,14.625-5.86,2.3Z" transform="translate(-757.745 -377.61)"/><path class="h" d="M759.089,388l5.984-1.639L763.6,378.17l-5.86,2.293Z" transform="translate(-757.74 -377.707)"/><path class="aw" d="M768.159,394.516c2.053.935,5.413,1.3,10.528.935,1.184-.083,1.97,2.4-.571,3.137s-7.581,2.119-9.435,2.574c-2.226.546-3.393,1-4.809,1.457a2.6,2.6,0,0,1-3.311-1.606,2.223,2.223,0,0,1-.091-.629s.232-5.123.463-5.181l5.148-2.384C766.462,392.737,766.967,394.218,768.159,394.516Z" transform="translate(-758.211 -380.231)"/></g><g class="ax" transform="translate(-5.347 76.12)"><path class="ah" d="M681.21,295.875a46.9,46.9,0,0,0,4.147,16.429c4.751,10.2,31.352,6.952,43.005,5.984.91-53.095,36.086,109.177,14.41,52.581l10.486-3.253s-6.505-36.127-7.027-55.884c-.48-18.043-42.12-18.093-42.12-18.093Z" transform="translate(-681.21 -293.64)"/><path class="ay" d="M681.21,304.966a46.9,46.9,0,0,0,4.147,16.429c4.751,10.2,31.352,6.952,43.005,5.984.91-53.078,35.912,108.705,14.244,52.134l10.627-3.534s-6.481-35.391-7-55.147c-.48-18.043-42.12-18.093-42.12-18.093Z" transform="translate(-681.21 -295.208)"/></g><path class="i" d="M751.89,379.776l13.814-4.3.72,6-12.837,4.676Z" transform="translate(-698.738 -231.624)"/><g transform="translate(82.303 146.579)"><g transform="translate(0.281 0.844)"><path class="aw" d="M787.45,382.836l5.5-3.046,5.14,13.789-5.512,3.046Z" transform="translate(-787.45 -379.79)"/><path class="aw" d="M800.036,394.946c2.053.935,5.413,1.3,10.528.935,1.184-.083,1.97,2.4-.571,3.137s-7.581,2.119-9.435,2.574c-3.013.737-7,2.235-7.3-.43,0,0-.679-5.471-.439-5.529l5.148-2.384C798.34,393.166,798.687,394.151,800.036,394.946Z" transform="translate(-788.366 -382.109)"/></g><path class="h" d="M789.75,388.934l5.512-3.054-2.649-7.11-5.5,3.046Z" transform="translate(-787.11 -378.77)"/></g><g transform="translate(8.158 74.48)"><path class="ah" d="M697.587,294.155s-.761,11.6,3.129,19.938c4.751,10.189,37.038,1.349,50.016,3.931,1.44,20.17,20.4,53.475,20.4,53.475l10.3-5.181s-7.283-30.739-14.1-57.448c-2.284-20.021-47.839-16.537-48.1-16.512Z" transform="translate(-697.527 -291.737)"/><path class="az" d="M697.587,294.077s-.761,11.6,3.129,19.938c4.751,10.189,37.038,1.349,50.016,3.931,1.44,20.17,20.4,53.475,20.4,53.475l10.3-5.181s-7.283-30.739-14.1-57.448c-2.417-21.378-54.824-16.71-55.1-16.686Z" transform="translate(-697.527 -291.659)"/></g><path class="i" d="M782.69,381.6l13.383-5.9,1.5,5.264L785,387.925Z" transform="translate(-704.046 -231.662)"/><g transform="translate(18.392 37.285)"><path class="i" d="M761.346,281.493l-48.766-1.126L716,249.52l48.766,1.126Z" transform="translate(-710.355 -247.202)"/><path class="t" d="M760.154,283.418,712.1,282.309a2.226,2.226,0,0,1-2.193-2.524l3.393-30.657a2.747,2.747,0,0,1,2.74-2.409l48.054,1.109a2.223,2.223,0,0,1,2.193,2.516L762.894,281A2.754,2.754,0,0,1,760.154,283.418Z" transform="translate(-709.892 -246.719)"/><g class="d" transform="translate(2.225 2.318)"><path d="M761.346,281.493l-48.766-1.126L716,249.52l48.766,1.126Z" transform="translate(-712.58 -249.52)"/><path class="ba" d="M761.346,281.493l-48.766-1.126L716,249.52l48.766,1.126Z" transform="translate(-712.58 -249.52)"/></g><path class="bb" d="M761.216,281.641l-48.766-1.126,3.418-30.855,48.766,1.126Z" transform="translate(-710.333 -247.226)"/><g transform="translate(39.379 7.044)"><path class="g" d="M766.425,260.461l-8.955-.207.563-5.024,8.947.207Z" transform="translate(-757.47 -255.23)"/></g><g transform="translate(38.286 16.96)"><path class="g" d="M765.1,272.441l-8.947-.207.555-5.024,8.955.207Z" transform="translate(-756.15 -267.21)"/></g><g transform="translate(37.185 26.875)"><path class="g" d="M763.775,284.421l-8.955-.207.554-5.024,8.955.207Z" transform="translate(-754.82 -279.19)"/></g><g transform="translate(33.436 0.82)"><path class="ae" d="M760.644,247.71,750.29,283.117l3.211.074,10.238-35.407Z" transform="translate(-750.29 -247.71)"/><path class="ae" d="M766.616,247.85,756.27,283.257l6.356.141,10.238-35.407Z" transform="translate(-751.321 -247.734)"/></g><path class="i" d="M719.283,279.78l-.033.29,25.84.588.033-.281Z" transform="translate(-711.505 -252.417)"/><path class="g" d="M745.577,272.7l-25.807-.588,1.97-17.795,25.807.6Z" transform="translate(-711.594 -248.029)"/><path class="g" d="M720.184,283.78h0a1.191,1.191,0,0,1-1.175-1.349h0a1.474,1.474,0,0,1,1.465-1.291h0a1.191,1.191,0,0,1,1.175,1.349h0A1.474,1.474,0,0,1,720.184,283.78Z" transform="translate(-711.461 -252.651)"/><path class="i" d="M732.382,278.52l-12.912-.3.132-1.142,12.9.3Z" transform="translate(-711.543 -251.951)"/><path class="g" d="M749.053,283.84l-4.983-.116.124-1.134,4.983.116Z" transform="translate(-715.782 -252.901)"/><g transform="translate(28.735 25.609)"><path class="g" d="M750.422,278.937l-1.142-.033.124-1.134,1.142.025Z" transform="translate(-745.415 -277.679)"/><path class="g" d="M748.084,278.879l-1.134-.025.124-1.134,1.142.025Z" transform="translate(-745.013 -277.67)"/><path class="g" d="M745.752,278.827l-1.142-.025.132-1.142,1.134.025Z" transform="translate(-744.61 -277.66)"/></g><path class="g" d="M732.382,278.52l-12.912-.3.132-1.142,12.9.3Z" transform="translate(-711.543 -251.951)"/><path class="g" d="M745.123,280.376l-25.84-.6-.033.29,25.84.588Z" transform="translate(-711.505 -252.417)"/><path class="i" d="M747.13,290.252l16.214.588c.157,1.9-.687,2.549-1.722,2.508l-5.189-.2-3.46-.149-5.38-.19-24.747-.612-.116-2.367Z" transform="translate(-712.104 -254.149)"/><path class="bc" d="M747.13,290.252l16.214.588c.157,1.9-.687,2.549-1.722,2.508l-5.189-.2-3.46-.149-5.38-.19-24.747-.612-.116-2.367Z" transform="translate(-712.104 -254.149)"/><path class="bd" d="M768.355,290.928l.058.662a1.712,1.712,0,0,1-1.779,1.846l-5.19-.2-9.634-.273.323-2.624Z" transform="translate(-717.116 -254.237)"/></g><g transform="translate(-8.987 15.991)"><path class="ah" d="M689.69,224.094l15.808,1.366s-1.771-4.031-7.391-4.436A10.087,10.087,0,0,0,689.69,224.094Z" transform="translate(-679.031 -220.99)"/><g transform="translate(0 2.683)"><path class="i" d="M677.274,252.04c1.134,12.415,1.391,25.07,3.17,31.84l3.824.853a41.007,41.007,0,0,0,20.245-.6l11.115-3.187c-.546-11.778-.472-34.77-.389-46.2a8.889,8.889,0,0,0-6.646-8.657c-1.1-.29-2.077-.521-2.682-.629a127.668,127.668,0,0,0-14.219-1.192,65.6,65.6,0,0,0-7.11.132l-1.175.1c-1.771.149-4.519,2.036-5.007,3.741C676.438,235.247,676.6,244.591,677.274,252.04Z" transform="translate(-676.812 -224.232)"/><path class="af" d="M677.274,252.04c1.134,12.415,1.391,25.07,3.17,31.84l3.824.853a41.007,41.007,0,0,0,20.245-.6l11.115-3.187c-.546-11.778-.472-34.77-.389-46.2a8.889,8.889,0,0,0-6.646-8.657c-1.1-.29-2.077-.521-2.682-.629a127.668,127.668,0,0,0-14.219-1.192,65.6,65.6,0,0,0-7.11.132l-1.175.1c-1.771.149-4.519,2.036-5.007,3.741C676.438,235.247,676.6,244.591,677.274,252.04Z" transform="translate(-676.812 -224.232)"/><path class="be" d="M677.274,252.04c1.134,12.415,1.391,25.07,3.17,31.84l3.824.853a41.007,41.007,0,0,0,20.245-.6l11.115-3.187c-.546-11.778-.472-34.77-.389-46.2a8.889,8.889,0,0,0-6.646-8.657c-1.1-.29-2.077-.521-2.682-.629a127.668,127.668,0,0,0-14.219-1.192,65.6,65.6,0,0,0-7.11.132l-1.175.1c-1.771.149-4.519,2.036-5.007,3.741C676.438,235.247,676.6,244.591,677.274,252.04Z" transform="translate(-676.812 -224.232)"/><path class="h" d="M702.655,235.431c-.414,4.312-1.059,13.6,1.25,21.387l4.577.075a27.352,27.352,0,0,0,9.344-1.415h0s2.351-11.711-1.192-18.763C713.6,230.672,703.3,228.711,702.655,235.431Z" transform="translate(-681.195 -225.435)"/><path class="aw" d="M713.772,228.8c.579,5.33,1.242,10.768,1.986,16.106.372,2.673.77,5.347,1.225,7.979s.944,5.247,1.564,7.755c.306,1.258.629,2.491.993,3.642.182.588.381,1.126.579,1.639.108.24.207.53.306.72l.149.315c.017.033.05.116.05.116a.87.87,0,0,0-.166-.223c-.174-.2-.24-.157-.19-.141a1.851,1.851,0,0,0,.381.29,9.689,9.689,0,0,0,1.316.646,36,36,0,0,0,3.468,1.117c4.983,1.3,11.033,3.807,16.338,4.767l-.182,4.726c-5.678.455-17.687-1.068-22.181-2.831a15.922,15.922,0,0,1-2.516-.886,11.48,11.48,0,0,1-1.432-.795,7.067,7.067,0,0,1-2.177-2.168l-.19-.339-.331-.6c-.24-.414-.381-.761-.571-1.142-.339-.753-.654-1.482-.919-2.2-.53-1.432-.968-2.839-1.4-4.254a146.65,146.65,0,0,1-3.551-16.669c-.43-2.764-.8-5.512-1.159-8.293,0-.025-.008-.058-.008-.083a8.068,8.068,0,0,1,7.259-9.038Z" transform="translate(-681.685 -225.02)"/><path class="aw" d="M746.39,286.193c.612,2.061,7.565,2.044,7.565,2.044l-.265-6.547-6.274.778Z" transform="translate(-688.803 -234.135)"/><path class="aw" d="M755.21,281.69l.265,6.547,4.188.869-.811-4.627Z" transform="translate(-690.323 -234.135)"/></g><path class="i" d="M703.117,232c-1.026,4.08.7,16.173,3.062,21.784l14.41-2.127s1.051-16.528-2.433-21.18C712.577,223.059,704.648,225.716,703.117,232Z" transform="translate(-681.293 -221.851)"/><path class="ah" d="M703.117,232c-1.026,4.08.7,16.173,3.062,21.784l14.41-2.127s1.051-16.528-2.433-21.18C712.577,223.059,704.648,225.716,703.117,232Z" transform="translate(-681.293 -221.851)"/></g></g><g class="av"><path class="ac" d="M798.052,393.141l-5.794,2.508a.542.542,0,0,0-.323.662l1.738,8.715a1.143,1.143,0,0,0,1.432.737l.124-.05c2.508-1.117,3.667-1.779,6.861-3.129,1.962-.828,8.343-2.458,10.784-4.105s.935-4.155-.224-3.683c-3.741,1.523-9.03.737-12.316-1.3A6.209,6.209,0,0,0,798.052,393.141Z" transform="translate(-705.635 -234.66)"/><g transform="translate(94.41 158.049)"><path class="i" d="M802.975,396.352a.625.625,0,0,1,.058.066,1,1,0,0,0,.977-.058.593.593,0,0,0,.331-.5c.066-.944-2.1-2.557-2.317-2.723a.162.162,0,0,0-.19-.008.168.168,0,0,0-.083.166C801.9,394.258,802.23,395.905,802.975,396.352Zm-.811-2.682c.844.662,1.887,1.655,1.846,2.16a.252.252,0,0,1-.166.215.688.688,0,0,1-.646.05c-.414-.223-.819-1.093-1.018-2.409Z" transform="translate(-801.74 -392.709)"/><path class="i" d="M802.063,393.507c.778.488,2.442,1.01,3.1.621a.618.618,0,0,0,.248-.728.931.931,0,0,0-.5-.6c-.952-.5-2.946.24-3.029.273a.159.159,0,0,0-.132.116.188.188,0,0,0,.066.166C801.88,393.408,801.971,393.457,802.063,393.507Zm2.74-.4a.556.556,0,0,1,.257.364c.05.215-.025.29-.091.339-.439.273-1.862-.091-2.64-.546a3.93,3.93,0,0,1,2.425-.174.118.118,0,0,0,.05.017Z" transform="translate(-801.738 -392.629)"/></g></g><g class="av"><path class="ac" d="M765.709,392.2l-5.943,2.053a.566.566,0,0,0-.4.612l.588,8.359a1.033,1.033,0,0,0,1.3.778.732.732,0,0,0,.124-.041c2.574-.919,3.782-1.482,7.052-2.582,2-.679,8.409-1.854,10.983-3.278s1.432-3.882.24-3.5a14.441,14.441,0,0,1-11.786-1.92A5.6,5.6,0,0,0,765.709,392.2Z" transform="translate(-700.025 -234.501)"/><g transform="translate(67.835 157.284)"><path class="i" d="M771.5,395.736a.632.632,0,0,1,.075.058.976.976,0,0,0,.935-.265.6.6,0,0,0,.215-.563c-.132-.935-2.607-2.044-2.847-2.16a.163.163,0,0,0-.19.033.187.187,0,0,0-.05.182C769.995,393.924,770.673,395.455,771.5,395.736Zm-1.366-2.45c.968.464,2.2,1.208,2.26,1.713a.269.269,0,0,1-.116.248.662.662,0,0,1-.621.182c-.455-.124-1.035-.894-1.515-2.127Z" transform="translate(-769.63 -391.891)"/><path class="i" d="M770.011,393.042c.861.315,2.6.464,3.162-.058a.627.627,0,0,0,.091-.761.924.924,0,0,0-.621-.472c-1.035-.29-2.831.869-2.905.91a.174.174,0,0,0-.108.141.2.2,0,0,0,.1.149C769.82,392.984,769.92,393.017,770.011,393.042Zm2.6-.968a.524.524,0,0,1,.323.3c.1.2.041.29-.017.348-.372.364-1.837.315-2.7.033a4.007,4.007,0,0,1,2.334-.7.12.12,0,0,0,.058.017Z" transform="translate(-769.63 -391.704)"/></g></g></g><path class="o" d="M775.129,296.09H695.061a7.393,7.393,0,0,1-7.391-7.391V208.631a7.393,7.393,0,0,1,7.391-7.391h80.068a7.393,7.393,0,0,1,7.391,7.391V288.7A7.393,7.393,0,0,1,775.129,296.09Z" transform="translate(-687.67 -201.24)"/></g><g transform="translate(0 94.527)"><path class="p" d="M739.608,319.721l4.56-3.625-.513-.646-4.825,3.832A1.756,1.756,0,0,1,739.608,319.721Z" transform="translate(-691.587 -315.45)"/><path class="p" d="M708.7,339.53,681.75,360.917l.513.646,26.932-21.37A1.793,1.793,0,0,1,708.7,339.53Z" transform="translate(-681.75 -319.6)"/><path class="p" d="M718.325,334.93l14.724-11.687a2.054,2.054,0,0,1-.207-.894L717.87,334.235A2.153,2.153,0,0,1,718.325,334.93Z" transform="translate(-687.975 -316.639)"/></g></g><g transform="translate(636.542 298.78)"><g transform="translate(0 0)"><g transform="translate(68.679 12.671)"><g transform="translate(14.17)"><rect class="bf" width="26.642" height="43.212"/><rect class="bg" width="26.642" height="43.212"/></g><rect class="bh" width="24.648" height="43.212"/><rect class="bi" width="24.648" height="43.212"/><g transform="translate(1.424 1.953)"><rect class="p" width="21.801" height="5.446"/><rect class="c" width="0.629" height="3.427" transform="translate(1.705 1.498)"/><rect class="c" width="0.629" height="3.427" transform="translate(4.13 1.498)"/><rect class="c" width="0.629" height="2.45" transform="translate(2.922 2.475)"/><g transform="translate(14.302 1.937)"><circle class="c" cx="0.952" cy="0.952" r="0.952"/><circle class="c" cx="0.952" cy="0.952" r="0.952" transform="translate(2.301)"/><circle class="c" cx="0.952" cy="0.952" r="0.952" transform="translate(4.61)"/></g></g><g transform="translate(1.399 9.502)"><rect class="p" width="21.801" height="5.446"/><rect class="c" width="0.629" height="3.427" transform="translate(1.705 1.498)"/><rect class="c" width="0.629" height="3.427" transform="translate(4.13 1.498)"/><rect class="c" width="0.629" height="2.45" transform="translate(2.922 2.475)"/><g transform="translate(14.31 1.937)"><circle class="c" cx="0.952" cy="0.952" r="0.952"/><circle class="c" cx="0.952" cy="0.952" r="0.952" transform="translate(2.301)"/><circle class="c" cx="0.952" cy="0.952" r="0.952" transform="translate(4.602)"/></g></g><g transform="translate(1.581 17.207)"><rect class="p" width="21.801" height="5.446"/><rect class="c" width="0.629" height="3.427" transform="translate(1.697 1.498)"/><rect class="c" width="0.629" height="3.427" transform="translate(4.13 1.498)"/><rect class="c" width="0.629" height="2.45" transform="translate(2.913 2.466)"/><g transform="translate(14.302 1.928)"><circle class="c" cx="0.952" cy="0.952" r="0.952"/><circle class="c" cx="0.952" cy="0.952" r="0.952" transform="translate(2.301)"/><circle class="c" cx="0.952" cy="0.952" r="0.952" transform="translate(4.602)"/></g></g><g transform="translate(1.581 24.731)"><rect class="p" width="21.801" height="5.446"/><rect class="c" width="0.629" height="3.427" transform="translate(1.697 1.498)"/><rect class="c" width="0.629" height="3.427" transform="translate(4.13 1.498)"/><rect class="c" width="0.629" height="2.45" transform="translate(2.913 2.475)"/><g transform="translate(14.302 1.928)"><circle class="c" cx="0.952" cy="0.952" r="0.952"/><circle class="c" cx="0.952" cy="0.952" r="0.952" transform="translate(2.301)"/><circle class="c" cx="0.952" cy="0.952" r="0.952" transform="translate(4.602)"/></g></g></g><path class="ac" d="M790.276,386.488a2.938,2.938,0,1,1-2.938-2.938A2.939,2.939,0,0,1,790.276,386.488Z" transform="translate(-706.12 -338.087)"/><g transform="translate(54.684)"><path class="n" d="M817.3,397.424H763.281a7.393,7.393,0,0,1-7.391-7.391V336.011a7.393,7.393,0,0,1,7.391-7.391H817.3a7.393,7.393,0,0,1,7.391,7.391v54.021A7.393,7.393,0,0,1,817.3,397.424Z" transform="translate(-755.89 -328.62)"/></g><g transform="translate(54.684)"><path class="o" d="M817.3,397.424H763.281a7.393,7.393,0,0,1-7.391-7.391V336.011a7.393,7.393,0,0,1,7.391-7.391H817.3a7.393,7.393,0,0,1,7.391,7.391v54.021A7.393,7.393,0,0,1,817.3,397.424Z" transform="translate(-755.89 -328.62)"/></g><g transform="translate(0 35.945)"><path class="p" d="M705.62,393.21l-15.8,7.126.339.753,15.651-7.06A2.122,2.122,0,0,1,705.62,393.21Z" transform="translate(-689.82 -375.697)"/><path class="p" d="M728.1,383.3,751.368,372.8l-.339-.753-23.059,10.4A1.948,1.948,0,0,1,728.1,383.3Z" transform="translate(-696.395 -372.05)"/><path class="p" d="M721.916,386.49l-9.146,4.122a1.97,1.97,0,0,1,.422.72l9.2-4.147A2.073,2.073,0,0,1,721.916,386.49Z" transform="translate(-693.775 -374.539)"/></g></g></g><g transform="translate(485.733 301.627)"><g transform="translate(0 0)"><path class="bj" d="M665.429,389.8c-.166,0-.323.008-.488.008V389.8a57.749,57.749,0,0,0-113.646-14.492,46.76,46.76,0,0,0,3.079,93.418H665.429a39.463,39.463,0,1,0,0-78.926Z" transform="translate(-507.61 -332.06)"/><path class="bk" d="M665.429,389.8c-.166,0-.323.008-.488.008V389.8a57.749,57.749,0,0,0-113.646-14.492,46.76,46.76,0,0,0,3.079,93.418H665.429a39.463,39.463,0,1,0,0-78.926Z" transform="translate(-507.61 -332.06)"/><ellipse class="bl" cx="98.641" cy="3.766" rx="98.641" ry="3.766" transform="translate(0 147.448)"/><g transform="translate(84.463 75.946)"><path class="e" d="M633.348,446.274c-.761,6.183-11.728,11.1-11.728,11.1s-10.966-4.908-11.728-11.1l-.232-18.6,11.72-3.857,12.183,3.857Z" transform="translate(-609.66 -423.82)"/><g class="bm" transform="translate(7.366 8.095)"><g transform="translate(0.422)"><path class="bj" d="M627.818,437.258v4.006a.654.654,0,1,1-1.308,0v-4.006a2.354,2.354,0,0,0-2.351-2.351h-1.432a2.354,2.354,0,0,0-2.351,2.351v4.171H619.07v-4.171a3.659,3.659,0,0,1,3.658-3.658h1.432A3.66,3.66,0,0,1,627.818,437.258Z" transform="translate(-619.07 -433.6)"/></g><g transform="translate(0 6.613)"><path class="bj" d="M628.161,442.492v7.813a.89.89,0,0,1-.894.894h-7.813a.89.89,0,0,1-.894-.894v-7.813a.9.9,0,0,1,.422-.761.927.927,0,0,1,.472-.141h7.813a.968.968,0,0,1,.464.124A.924.924,0,0,1,628.161,442.492Z" transform="translate(-618.56 -441.59)"/></g><g class="bm"><g transform="translate(0.422)"><path class="bj" d="M627.818,437.258v4.006a.654.654,0,1,1-1.308,0v-4.006a2.354,2.354,0,0,0-2.351-2.351h-1.432a2.354,2.354,0,0,0-2.351,2.351v4.171H619.07v-4.171a3.659,3.659,0,0,1,3.658-3.658h1.432A3.66,3.66,0,0,1,627.818,437.258Z" transform="translate(-619.07 -433.6)"/></g><g transform="translate(0 6.613)"><path class="bj" d="M628.161,442.492v7.813a.89.89,0,0,1-.894.894h-7.813a.89.89,0,0,1-.894-.894v-7.813a.9.9,0,0,1,.422-.761.927.927,0,0,1,.472-.141h7.813a.968.968,0,0,1,.464.124A.924.924,0,0,1,628.161,442.492Z" transform="translate(-618.56 -441.59)"/></g></g></g></g></g></g><path class="h" d="M587.476,394.67s-5.148,3.774-.993,13.789c5.6,13.5,50.8,1.9,50.8,1.9-1.581,8.889.8,15.568,2.425,24.449l4.254,23.373-4.5.5,1.829,6.539h4.378l.472,5.512h0a1.88,1.88,0,0,0-1.73,2.094l.993,5.148.935,1.059,20-3.087-14-5.223-4.618-73.273Z" transform="translate(-35.19 -41.223)"/><path class="h" d="M671.365,404.07h4.18s-1.25,2.8.331,15.212,6.8,28.281,6.8,28.281h-3.733l1,6.837h3.642v5.827h0a1.961,1.961,0,0,0-1.713,1.879l-.132,3.733,2.632,1.68,16.172-1.3,1.986-1.275-8.947-4.2-6.05-64.16-19.607,1.482Z" transform="translate(-49.506 -41.552)"/><path class="ao" d="M691.72,471.612l7.085-.77.67-16.653-7.093.778Z" transform="translate(-53.606 -51.481)"/><path class="ac" d="M699.273,470.684l-8-.074a.5.5,0,0,0-.555.447v.05l-.455,6.323a1.275,1.275,0,0,0,1.242,1.283c2.781-.025,3.948-.157,7.457-.372,2.16-.141,7.325-.488,10.263-1.035s2.3-3.443,1.01-3.476c-3.071-.058-7.763-1.068-9.758-2.665A1.924,1.924,0,0,0,699.273,470.684Z" transform="translate(-53.354 -54.31)"/><path class="h" d="M692.455,454.976l7.093-.786-.323,8.028-7.085.538Z" transform="translate(-53.678 -51.481)"/><path class="i" d="M626.337,369.844s53.988-2.723,57.572,17.381a379.969,379.969,0,0,1,1.084,56.86l-9.667-.786s-8.169-32.122-7.374-49.271c-14.873-1.614-55.379,5.636-61.694-5.438-5.173-9.03-4.213-14.658-4.213-14.658Z" transform="translate(-38.139 -36.923)"/><path class="p" d="M626.337,369.844s53.988-2.723,57.572,17.381a379.969,379.969,0,0,1,1.084,56.86l-9.667-.786s-8.169-32.122-7.374-49.271c-14.873-1.614-55.379,5.636-61.694-5.438-5.173-9.03-4.213-14.658-4.213-14.658Z" transform="translate(-38.139 -36.923)"/><path class="e" d="M686.236,461.071l15.188-.728,1.043-5.7-16.826.6Z" transform="translate(-52.558 -51.558)"/><path class="e" d="M705.1,471.493a.894.894,0,0,0,.215-.894.615.615,0,0,0-.389-.472c-.877-.364-2.9,1.01-3.12,1.159a.178.178,0,0,0-.075.1.168.168,0,0,0,.124.2,8.183,8.183,0,0,0,1.9.273A1.96,1.96,0,0,0,705.1,471.493Zm-.281-1.068a.271.271,0,0,1,.166.248.568.568,0,0,1-.124.588c-.331.323-1.275.364-2.541.091C703.145,470.831,704.336,470.243,704.817,470.425Z" transform="translate(-55.33 -54.217)"/><path class="e" d="M702,471.188c.712-.422,1.8-1.887,1.63-2.673a.625.625,0,0,0-.588-.5.86.86,0,0,0-.737.24c-.72.687-.588,2.731-.579,2.822a.173.173,0,0,0,.091.132.242.242,0,0,0,.075.017Zm.952-2.847c.248.033.3.149.315.24.108.513-.612,1.63-1.242,2.144a3.756,3.756,0,0,1,.488-2.26.506.506,0,0,1,.364-.141C702.927,468.357,702.952,468.366,702.952,468.341Z" transform="translate(-55.328 -53.862)"/><path class="ao" d="M665.886,483.223l6.886-.19-.546-16.7-6.886.182Z" transform="translate(-49.059 -53.573)"/><path class="ac" d="M672.684,484.019l-7.979.521a.521.521,0,0,0-.5.521l.025,6.34a1.26,1.26,0,0,0,1.333,1.184c2.764-.265,4.089-.48,7.6-.737a64.3,64.3,0,0,0,9.336-.9c2.913-.67,2.185-3.518.894-3.509-3.062.05-7.341-1.655-9.46-3.1A1.985,1.985,0,0,0,672.684,484.019Z" transform="translate(-48.863 -56.62)"/><path class="e" d="M678.48,484.469a.908.908,0,0,0,.141-.91.626.626,0,0,0-.414-.447c-.886-.306-2.806,1.225-3.021,1.4a.184.184,0,0,0-.066.108.168.168,0,0,0,.132.19,8.677,8.677,0,0,0,1.912.132A1.964,1.964,0,0,0,678.48,484.469Zm-.372-1.035a.3.3,0,0,1,.2.223.6.6,0,0,1-.083.6c-.281.348-1.242.447-2.524.281C676.485,483.948,677.636,483.277,678.107,483.434Z" transform="translate(-50.744 -56.458)"/><path class="e" d="M675.4,484.473c.679-.472,1.639-2.053,1.424-2.781a.641.641,0,0,0-.637-.464.824.824,0,0,0-.72.281c-.679.737-.372,2.773-.364,2.855a.159.159,0,0,0,.091.124.117.117,0,0,0,.075-.008A.181.181,0,0,0,675.4,484.473Zm.737-2.946c.24.017.315.124.331.223.149.5-.488,1.672-1.076,2.235a3.685,3.685,0,0,1,.323-2.276.449.449,0,0,1,.339-.166Z" transform="translate(-50.729 -56.14)"/><path class="h" d="M664.6,466.089l7.7-1.3.066,10.437-6.737.795Z" transform="translate(-48.932 -53.308)"/><g transform="translate(550.365 335.809)"><path class="i" d="M606.4,373.36s53.31,3.923,54.038,19.409c3.956,25.31,1.026,58.623,1.026,58.623L648.7,454.065s-6.6-31.17-7.565-54.1c-13.044,2.2-39.893,6.274-49.1-.24-8.351-7.5-6.05-22.885-6.05-22.885Z" transform="translate(-585.699 -373.36)"/><path class="bn" d="M606.4,373.36s53.31,3.923,54.038,19.409c3.956,25.31,1.026,58.623,1.026,58.623L648.7,454.065s-6.6-31.17-7.565-54.1c-13.044,2.2-39.893,6.274-49.1-.24-8.351-7.5-6.05-22.885-6.05-22.885Z" transform="translate(-585.699 -373.36)"/></g><path class="e" d="M660.075,474.242l15.6-1.324L676,466.09l-17.1,1.788Z" transform="translate(-47.95 -53.532)"/><path class="bo" d="M615.17,316.8c.306,1.217.579,2.268.91,3.377s.654,2.152,1.026,3.261c.712,2.144,1.523,4.262,2.417,6.431a53.109,53.109,0,0,0,7.085,12.539,24.1,24.1,0,0,0,2.831,2.98,15.42,15.42,0,0,0,3.849,2.533,16.853,16.853,0,0,0,8.575,1.374,23.759,23.759,0,0,0,7.416-2,29.772,29.772,0,0,0,3.228-1.672,13.769,13.769,0,0,0,1.515-1.01c.488-.372.944-.7,1.506-1.126l-2.756-4.577-1.374.414-1.44.4c-.968.248-1.928.464-2.913.629a20.629,20.629,0,0,1-5.388.281,8.739,8.739,0,0,1-4.056-1.316,8.546,8.546,0,0,1-1.457-1.217,17.3,17.3,0,0,1-1.506-1.887,34.316,34.316,0,0,1-2.781-4.891c-.869-1.763-1.647-3.625-2.384-5.537s-1.407-3.857-2.077-5.818L626.451,317c-.3-.977-.629-2.02-.869-2.872Z" transform="translate(-40.413 -27.343)"/><path class="i" d="M613.542,309.451c4.3-5.843,11.165-3.981,15.279,4.966a88.191,88.191,0,0,1,5.512,14.807l-15.759,6.125C614.1,326.906,609.122,315.443,613.542,309.451Z" transform="translate(-39.836 -25.958)"/><path class="af" d="M613.542,309.451c4.3-5.843,11.165-3.981,15.279,4.966a88.191,88.191,0,0,1,5.512,14.807l-15.759,6.125C614.1,326.906,609.122,315.443,613.542,309.451Z" transform="translate(-39.836 -25.958)"/><path class="bp" d="M621.3,321.371c-1.341-.852-3.857,4.42-4.908,10.578.944,2.1,1.953,4.114,2.955,5.984l9.477-3.683C627.067,328.572,624.311,323.291,621.3,321.371Z" transform="translate(-40.623 -28.575)"/><path class="ao" d="M660.954,340.76l3.427-2.02,1.473,7.747s-5.711,3.7-7.474.853l.116-2.02A6.347,6.347,0,0,1,660.954,340.76Z" transform="translate(-47.86 -31.584)"/><path class="ao" d="M669.987,338.11l3.261,6.158-6.174,2.119L665.6,338.64Z" transform="translate(-49.104 -31.476)"/><g transform="translate(547.655 277.517)"><path class="af" d="M608.236,303.807l-8.2-.877-10.139,1.225a7.069,7.069,0,0,0-6.15,5.984,179.6,179.6,0,0,0-1.316,22.454c-.083,8.45,1.258,20.9,3,32.105l37.551-6.332a287.488,287.488,0,0,1-2.417-45.654,7.05,7.05,0,0,0-5.132-6.82Z" transform="translate(-582.426 -302.93)"/></g><path class="bp" d="M586.735,308.111c6.737-1.415,6.9,13.979,4.188,25.335-.786,3.286-4.685,2.053-6.017,1.241C580.544,332.047,578.483,313.3,586.735,308.111Z" transform="translate(-34.54 -26.29)"/><g transform="translate(539.026 300.278)"><path class="bo" d="M586.443,332.64c-1.275,6.539-4.13,9.452-1.184,12.423s21.776,14.534,22.471,13.8c-1.357,1.333-2.624,2.442-3.981,3.774q-8.5-3.389-17.083-6.588c-4.171-1.556-10.851-4.287-13.582-7.8-2.475-3.178-.257-9.948,2.086-17.621C578.29,329.66,586.443,332.64,586.443,332.64Z" transform="translate(-572 -330.43)"/></g><path class="af" d="M582.355,304.854c6.9-2.268,9.717,3.22,7.912,12.854a87.068,87.068,0,0,1-4.08,15.262l-14.708-4.122C572.746,319.4,575.3,307.18,582.355,304.854Z" transform="translate(-32.884 -25.657)"/><path class="ac" d="M610.84,317.76l.273,33.587,5.123,4.378,3.087-4.908-6.414-33.057Z" transform="translate(-39.667 -27.969)"/><path class="ac" d="M610.6,317.2h2.053l.977-1.8-1.333-.737-1.44-.132-1.523.861Z" transform="translate(-39.407 -27.412)"/><path class="ac" d="M596.811,303.7a5.955,5.955,0,0,0,1.184,4.138,17.811,17.811,0,0,0,3.087,3.129c1.415,1.217,3.1,2.508,4.949,2.2,1.7-.281,2.657-1.175,3.278-3.236,1.548,2.309,1.647,3.484,3.261,3.576A3.624,3.624,0,0,0,615.21,312a5.852,5.852,0,0,0,1.978-3.989c.29-3-2.235-5.694-5.09-6.646a35.4,35.4,0,0,0-8.93-1.465C600.536,299.7,597.234,300.633,596.811,303.7Z" transform="translate(-37.242 -24.887)"/><path class="bo" d="M604.277,286.9l3.824,4.138,5.2,5.628a6.3,6.3,0,0,0-.96,2.086,3.545,3.545,0,0,0,1.531,4.395c.778.331,1.3,4.312-3.749,4.064A10.444,10.444,0,0,1,602.407,304c-.968-1.208-1.225-1.871-.323-3.244C604.691,296.84,604.724,291.295,604.277,286.9Z" transform="translate(-38.062 -22.65)"/><path class="h" d="M613.475,296.16l-3.294-4.08c-.033.124-.075.265-.116.406a12.148,12.148,0,0,0-.257,1.8c-.124,2.077,1.912,4.676,3.849,5.752l.132-.422a7.928,7.928,0,0,1,.869-1.995.475.475,0,0,1,.091-.091Z" transform="translate(-39.488 -23.543)"/><path class="ac" d="M619.77,282.743c3.046-5.934,2.392-9.3,5.322-12.465,1.573-.7,4.329,2.2,2.5,7.143S619.77,282.743,619.77,282.743Z" transform="translate(-41.206 -19.768)"/><path class="bo" d="M604.942,275.4c-.414,6.886-.96,10.892,2.077,14.724,4.594,5.8,13.408,3.518,15.85-3.145,2.2-5.992,2.45-16.239-3.931-19.632a9.562,9.562,0,0,0-12.911,4.039A9.466,9.466,0,0,0,604.942,275.4Z" transform="translate(-38.594 -19.091)"/><path class="ac" d="M603.07,281.919l3.733,2.218.472-6.034,3.054-1.746,3.724-5.587s-8.078-2.359-10.487-2.682c-.844-.108-3.8,2.185-4.238,3.153a7.923,7.923,0,0,0,1.308,8.227A16.6,16.6,0,0,0,603.07,281.919Z" transform="translate(-37.574 -19.408)"/><path class="bo" d="M600.874,282.75a6.27,6.27,0,0,0,2.1,3.948c1.515,1.291,3.253-.232,3.4-2.185.124-1.746-.836-4.262-2.632-4.784S600.643,280.846,600.874,282.75Z" transform="translate(-37.945 -21.397)"/><path class="ac" d="M617.556,281.791c-.083.563.141,1.084.513,1.15s.7-.331.819-.894a.931.931,0,0,0-.513-1.159C618,280.822,617.647,281.22,617.556,281.791Z" transform="translate(-40.822 -21.613)"/><path class="ac" d="M625.266,283.234c-.091.571.141,1.093.513,1.159s.737-.331.819-.894-.149-1.084-.513-1.15S625.357,282.663,625.266,283.234Z" transform="translate(-42.15 -21.865)"/><path class="bq" d="M622.511,283.46a18.593,18.593,0,0,0,1.357,4.66,2.759,2.759,0,0,1-2.359-.157Z" transform="translate(-41.506 -22.058)"/><path class="ac" d="M619.609,292.352a4.911,4.911,0,0,1-3.294-2.044.17.17,0,0,1,.05-.232.194.194,0,0,1,.24.058,4.7,4.7,0,0,0,3.683,1.953.17.17,0,1,1,.008.339h-.025A6.234,6.234,0,0,1,619.609,292.352Z" transform="translate(-40.606 -23.194)"/><path class="ac" d="M616.383,278.976a.278.278,0,0,1-.141-.091.34.34,0,0,1,.025-.48,3.228,3.228,0,0,1,2.93-.811.331.331,0,0,1,.24.406v.008a.343.343,0,0,1-.422.232,2.57,2.57,0,0,0-2.293.662A.327.327,0,0,1,616.383,278.976Z" transform="translate(-40.583 -21.033)"/><path class="ac" d="M625.994,278.892a.281.281,0,0,1-.025-.166.344.344,0,0,1,.414-.248,3.2,3.2,0,0,1,2.334,1.953.338.338,0,0,1-.637.223,2.589,2.589,0,0,0-1.854-1.515A.366.366,0,0,1,625.994,278.892Z" transform="translate(-42.274 -21.197)"/><g transform="translate(563.826 305.908)"><g transform="translate(0 25.864)"><path class="g" d="M628.677,375.8l43.146-5.686a.82.82,0,0,0,.7-.919h0a.82.82,0,0,0-.919-.7l-43.146,5.686a.82.82,0,0,0-.7.919h0A.82.82,0,0,0,628.677,375.8Z" transform="translate(-606.408 -368.482)"/><path class="g" d="M628.677,375.8l43.146-5.686a.82.82,0,0,0,.7-.919h0a.82.82,0,0,0-.919-.7l-43.146,5.686a.82.82,0,0,0-.7.919h0A.82.82,0,0,0,628.677,375.8Z" transform="translate(-606.408 -368.482)"/><path class="g" d="M603,376.709l20.94.232a.821.821,0,0,0,.828-.811h0a.821.821,0,0,0-.811-.828l-20.94-.232a.821.821,0,0,0-.828.811h0A.821.821,0,0,0,603,376.709Z" transform="translate(-602.003 -369.617)"/><path class="br" d="M603,376.709l20.94.232a.821.821,0,0,0,.828-.811h0a.821.821,0,0,0-.811-.828l-20.94-.232a.821.821,0,0,0-.828.811h0A.821.821,0,0,0,603,376.709Z" transform="translate(-602.003 -369.617)"/><g transform="translate(0 2.49)"><path class="g" d="M625.21,375.365l-23.05-.149s-.778-.455.77-.753,21.552-2.963,21.552-2.963Z" transform="translate(-601.964 -371.492)"/><path class="g" d="M625.323,375.363l-22.5-.223s-.778-.455.77-.753,21.006-2.9,21.006-2.9Z" transform="translate(-602.077 -371.49)"/><path class="bs" d="M625.323,375.363l-22.5-.223s-.778-.455.77-.753,21.006-2.9,21.006-2.9Z" transform="translate(-602.077 -371.49)"/></g></g><g transform="translate(19.626 0.24)"><path class="i" d="M629.28,368.682l40.233-5.305a2.9,2.9,0,0,0,2.466-2.955l-.9-20.609a2.35,2.35,0,0,0-2.7-2.268l-40.233,5.305a2.9,2.9,0,0,0-2.466,2.955l.9,20.609A2.354,2.354,0,0,0,629.28,368.682Z" transform="translate(-625.677 -337.522)"/><path class="t" d="M629.28,368.682l40.233-5.305a2.9,2.9,0,0,0,2.466-2.955l-.9-20.609a2.35,2.35,0,0,0-2.7-2.268l-40.233,5.305a2.9,2.9,0,0,0-2.466,2.955l.9,20.609A2.354,2.354,0,0,0,629.28,368.682Z" transform="translate(-625.677 -337.522)"/></g><g class="at" transform="translate(20.801)"><path class="c" d="M630.7,368.392l40.233-5.305a2.9,2.9,0,0,0,2.466-2.955l-.9-20.609a2.35,2.35,0,0,0-2.7-2.268l-40.233,5.305a2.9,2.9,0,0,0-2.466,2.955l.9,20.609A2.354,2.354,0,0,0,630.7,368.392Z" transform="translate(-627.097 -337.232)"/><path class="bt" d="M630.7,368.392l40.233-5.305a2.9,2.9,0,0,0,2.466-2.955l-.9-20.609a2.35,2.35,0,0,0-2.7-2.268l-40.233,5.305a2.9,2.9,0,0,0-2.466,2.955l.9,20.609A2.354,2.354,0,0,0,630.7,368.392Z" transform="translate(-627.097 -337.232)"/></g><path class="bt" d="M658.259,356.831a3.869,3.869,0,0,1-3.8,3.551,3.265,3.265,0,0,1-3.3-3.551,3.869,3.869,0,0,1,3.8-3.551A3.27,3.27,0,0,1,658.259,356.831Z" transform="translate(-610.44 -339.998)"/></g><g transform="translate(570.585 328.291)"><path class="bo" d="M616.611,364.313l3.443.364-3.377,7.449s-7.317-1.159-6.481-4.4l1.539-1.308C613.043,365.289,614.748,364.048,616.611,364.313Z" transform="translate(-610.13 -364.276)"/><path class="bo" d="M625.132,368.936l-2.731,3.816-4.461-.5,3.526-7.366Z" transform="translate(-611.476 -364.38)"/></g><g transform="translate(559.828 238.555)"><path class="bn" d="M598.7,268.5a12.6,12.6,0,0,1-1.473-3.559,4.324,4.324,0,0,1,.795-3.65,6.436,6.436,0,0,1,3.393-1.63q6.332-1.6,12.655-3.211c1.746-.439,3.6-.886,5.314-.339,3.013.96,4.9,2.26,5.794,5.289.588,2,.5,6.572-.894,8.119-1.059,1.184-2.822,1.357-4.411,1.424a98.728,98.728,0,0,1-20.774-1.4Z" transform="translate(-597.133 -255.855)"/></g><path class="ac" d="M607.957,272.331c-.05.439.058-.439,0,0a16.1,16.1,0,0,1,8.417-5.256,12.7,12.7,0,0,1,9.3,2.326,10.7,10.7,0,0,1,4.254,8.475c-.008.778-.306,1.746-1.084,1.813-.7.058-1.068-1.44-1.482-2-1.4-1.887-4.3-1.813-6.406-.786-1.109.538-2.21,1.515-3.393,1.184C616.763,277.86,607.957,272.331,607.957,272.331Z" transform="translate(-39.168 -19.213)"/><path class="ac" d="M595.63,322.73h10.528v2.764l-4.378,2.276-5.852-1.738Z" transform="translate(-37.046 -28.825)"/><path class="ac" d="M618.02,322.73H626.9v2.764l-3.691,2.276-4.941-1.738Z" transform="translate(-40.904 -28.825)"/><path class="b" d="M668.873,302.218l-.041.017-.041-.017.041-.008Z" transform="translate(-49.654 -25.289)"/></g><ellipse class="bu" cx="3.81" cy="2.7" rx="3.81" ry="2.7" transform="translate(121.94 447.52)"/><ellipse class="bv" cx="4.44" cy="3.01" rx="4.44" ry="3.01" transform="translate(384.31 395.51)"/><ellipse class="bv" cx="4.12" cy="2.7" rx="4.12" ry="2.7" transform="translate(238.72 481.09)"/><path class="bw" d="M187.97,412.64l82.78,47.89L353.54,412l-79.3-44.72Z"/><path class="bv" d="M187.97,412.64l.32,6.97,82.46,47.26,83.42-49.16-.63-5.71-82.79,48.53Z"/><path class="bx" d="M211.76,433.89,184.8,451.01l-29.82-17.76-25.69,15.54"/><path class="bx" d="M241.89,451.33,214.3,466.87l26,15.23"/><path class="bx" d="M331.97,399.63l27.59-17.44,26.01,14.59"/><line class="bx" y1="31.4" x2="53.92" transform="translate(302.47 351.1)"/><path class="bx" d="M210.81,399.31l-27.6-17.12,29.18-14.91-26.01-16.81"/><ellipse class="bv" cx="4.28" cy="2.7" rx="4.28" ry="2.7" transform="translate(179.09 345.71)"/><ellipse class="bv" cx="4.28" cy="3.01" rx="4.28" ry="3.01" transform="translate(355.13 345.71)"/><path class="by" d="M239.04,410.92s5.12,16.95,32.35,16.62c0,0,27.55-.66,32.67-17.29l-.32-57.51L240,351.42Z"/><ellipse class="bz" cx="32.67" cy="19.61" rx="32.67" ry="19.61" transform="translate(239.04 331.23)"/><g transform="translate(46 88.812)"><path class="bw" d="M554.42,75.791l63.462,36.433L681.588,75.3,622.226,43.452l-4.58-2.412Z" transform="translate(-16.041 -6.517)"/><path class="bz" d="M598.2,20.563l38.319,18.791L650.8,13.8Z" transform="translate(-26.516 0)"/><path class="by" d="M598.2,22.69l.236,37.848L635.842,79.6l.677-38.121Z" transform="translate(-26.516 -2.127)"/><path class="ca" d="M662.636,13.8V51.655L647.68,77.475l.677-38.121Z" transform="translate(-38.354 0)"/><path class="o" d="M574.076,44.664l-36.531-21.7L496.38,46.368" transform="translate(-2.156 -2.191)"/><line class="o" x1="19.3" y2="11.099" transform="translate(538.143 34.044)"/><path class="bv" d="M554.42,86.567,617.882,123,681.588,86.08v5.31l-63.219,36.919L554.663,91.633Z" transform="translate(-16.041 -17.293)"/><path class="o" d="M558.329,107.179l-20.266,12.788L515.141,106.7,495.11,118.766" transform="translate(-1.852 -22.226)"/><line class="o" x1="18.06" y2="10.141" transform="translate(561.582 97.742)"/><path class="o" d="M668.29,124.78l21.476,12.788,19.065-11.822" transform="translate(-43.284 -26.552)"/><ellipse class="cb" cx="3.378" cy="1.689" rx="3.378" ry="1.689" transform="translate(488.435 43.454)"/><ellipse class="cb" cx="3.378" cy="1.689" rx="3.378" ry="1.689" transform="translate(532.011 44.474)"/><ellipse class="cb" cx="3.378" cy="1.689" rx="3.378" ry="1.689" transform="translate(487.37 96.106)"/><ellipse class="cb" cx="3.522" cy="2.145" rx="3.522" ry="2.145" transform="translate(554.872 107.487)"/><ellipse class="cb" cx="3.522" cy="2.145" rx="3.522" ry="2.145" transform="translate(663.941 95.901)"/></g><g transform="translate(6 -5)"><path class="bw" d="M930.55,324.34l85.64,46.31,81.83-47.58-85.64-43.14Z"/><path class="p" d="M930.13,328.99l86.27,48.63,81.41-50.11.21-4.44-81.83,47.58-85.64-46.31Z"/><path class="by" d="M974.32,267.88v45.67l41.24,23.48-.64-48.85Z"/><path class="ca" d="M1056.15,266.61v46.94l-40.59,23.48-.64-48.85Z"/><path class="bz" d="M1015.56,242.51l-41.24,25.37,40.6,20.3,41.23-21.57Z"/><path class="o" d="M1016.4,377.62l28.36,15.37,27.25,14.77"/><line class="o" y1="31.89" x2="53.63" transform="translate(991.13 392.99)"/><path class="o" d="M954.97,344l-25.69,17.13L901.69,344"/><line class="o" x1="30.45" y1="14.28" transform="translate(926.43 293.57)"/><path class="o" d="M973.05,285.01l-44.72-23.79-56.14,30.45"/><path class="o" d="M1077.72,309.75l26.65-16.18,31.4,16.18,26.64-18.08"/><path class="o" d="M1073.92,344l30.45,16.18L1132.91,344"/><ellipse class="p" cx="5.71" cy="3.33" rx="5.71" ry="3.33" transform="translate(863.63 288.81)"/><ellipse class="p" cx="5.71" cy="3.33" rx="5.71" ry="3.33" transform="translate(923.57 288.81)"/><ellipse class="p" cx="5.71" cy="3.33" rx="5.71" ry="3.33" transform="translate(895.95 340.54)"/><ellipse class="p" cx="5.71" cy="3.33" rx="5.71" ry="3.33" transform="translate(984.37 423.13)"/><ellipse class="p" cx="5.71" cy="3.33" rx="5.71" ry="3.33" transform="translate(1066.49 405.46)"/><ellipse class="p" cx="5.71" cy="3.33" rx="5.71" ry="3.33" transform="translate(1129.79 339.67)"/><ellipse class="p" cx="5.71" cy="3.33" rx="5.71" ry="3.33" transform="translate(1158 287.26)"/></g></g></svg>