<svg xmlns="http://www.w3.org/2000/svg" xmlns:xlink="http://www.w3.org/1999/xlink" width="1414.448" height="464.033" viewBox="0 0 1414.448 464.033"><defs><style>.a{fill:none;}.b{clip-path:url(#a);}.c,.l{fill:#dce1e5;}.c{opacity:0.31;}.d{fill:#e94647;}.e{fill:url(#b);}.f{fill:#fff;}.g{fill:url(#c);}.h{fill:url(#d);}.i{fill:url(#e);}.j{fill:url(#f);}.k{fill:#f7f7f7;}.m{opacity:0.25;}.n{fill:#d98e9d;}.o{fill:#e0e4ed;}.p{fill:#737afb;opacity:0.3;}.q{fill:#2d2c56;}.r{fill:#d0cde1;}.s,.x{opacity:0.5;}.s{fill:url(#h);}.t{fill:#eebcc5;}.u{fill:#eff2f7;}.v{fill:url(#i);}.w{fill:#d78951;}.x{fill:url(#j);}.y{fill:#2d2b42;}.z{fill:url(#k);}.aa{fill:#37354c;}.ab{fill:#9b5342;}.ac{fill:#343a3f;}.ad{fill:url(#l);}.ae{fill:url(#n);}.af{opacity:0.1;fill:url(#o);}.ag{fill:url(#q);}</style><clipPath id="a"><rect class="a" width="1414.448" height="464.033"/></clipPath><linearGradient id="b" x1="-180.248" y1="0.5" x2="-179.248" y2="0.5" gradientUnits="objectBoundingBox"><stop offset="0" stop-color="#e94647"/><stop offset="1" stop-color="#ed734e"/></linearGradient><linearGradient id="c" x1="-197.801" y1="0.5" x2="-196.801" y2="0.5" gradientUnits="objectBoundingBox"><stop offset="0" stop-color="#ec6e4d"/><stop offset="1" stop-color="#e94647"/></linearGradient><linearGradient id="d" x1="-263.642" y1="0.5" x2="-262.642" y2="0.5" xlink:href="#c"/><linearGradient id="e" x1="-226.855" y1="0.5" x2="-225.855" y2="0.5" gradientUnits="objectBoundingBox"><stop offset="0" stop-color="#e94647"/><stop offset="1" stop-color="#eb5f4a"/></linearGradient><linearGradient id="f" y1="0.5" x2="1" y2="0.5" gradientUnits="objectBoundingBox"><stop offset="0" stop-color="#343a3f"/><stop offset="1" stop-color="#69717b"/></linearGradient><linearGradient id="h" y1="0.5" x2="1" y2="0.5" gradientUnits="objectBoundingBox"><stop offset="0" stop-color="#ead18c" stop-opacity="0"/><stop offset="1" stop-color="#524f63" stop-opacity="0.702"/></linearGradient><linearGradient id="i" x1="0.998" y1="0.509" x2="-1.107" y2="0.46" gradientUnits="objectBoundingBox"><stop offset="0" stop-color="#dce1e5" stop-opacity="0"/><stop offset="1" stop-color="#e6e6e6"/></linearGradient><linearGradient id="j" x1="-4.45" y1="0.5" x2="-3.45" y2="0.5" gradientUnits="objectBoundingBox"><stop offset="0" stop-color="#d37897" stop-opacity="0"/><stop offset="0.899" stop-color="#bc547c"/></linearGradient><linearGradient id="k" x1="-2.296" y1="0.509" x2="-4.401" y2="0.46" gradientUnits="objectBoundingBox"><stop offset="0" stop-color="#dce1e5" stop-opacity="0.102"/><stop offset="1" stop-color="#dce1e5"/></linearGradient><linearGradient id="l" x1="0" y1="0.5" x2="1" y2="0.5" xlink:href="#b"/><linearGradient id="n" x1="0.641" y1="0.493" x2="-0.624" y2="0.537" gradientUnits="objectBoundingBox"><stop offset="0" stop-color="#484ec2" stop-opacity="0"/><stop offset="1" stop-color="#444bcc" stop-opacity="0.502"/></linearGradient><radialGradient id="o" cx="0.492" cy="-5.612" fx="0.28128954768180847" r="12.434" gradientTransform="translate(0.486) scale(0.028 1)" gradientUnits="objectBoundingBox"><stop offset="0" stop-color="#fff"/><stop offset="0.753"/></radialGradient><linearGradient id="q" x1="-1.059" y1="0.5" x2="-0.059" y2="0.5" xlink:href="#f"/></defs><g class="b"><g transform="translate(323.771 5.811)"><path class="c" d="M613.3,442.143c-433.327,7.262-402.791-83.294-225.689-153.448,107.7-42.663,103.719-135.987,225.689-153.448,405.971-58.119,236.337,51.608,411.2,244.964C1089.8,452.4,737.911,440.054,613.3,442.143Z" transform="translate(-265.527 21.121)"/><g transform="translate(95.869 30.949)"><g transform="translate(14.525 115.238)"><path class="d" d="M433.86,148.027h-77.8l.137-.691a13.688,13.688,0,0,1,16.249-10.768,23.349,23.349,0,0,1,39.513-2.894,17.051,17.051,0,0,1,21.8,13.684ZM357.5,146.865h74.993a15.889,15.889,0,0,0-20.57-11.957l-.411.135-.248-.352a22.19,22.19,0,0,0-37.983,2.8l-.208.415-.45-.111a12.527,12.527,0,0,0-15.122,9.066Z" transform="translate(-356.062 -124.098)"/></g><g transform="translate(58.67 133.835)"><path class="d" d="M441.448,202.246H392.265v-62.9h1.162v61.734h48.02Z" transform="translate(-392.265 -139.349)"/></g><g transform="translate(54.981 125.875)"><path class="d" d="M393.511,141.363a4.271,4.271,0,1,1,4.27-4.271A4.275,4.275,0,0,1,393.511,141.363Zm0-7.38a3.108,3.108,0,1,0,3.107,3.108A3.113,3.113,0,0,0,393.511,133.983Z" transform="translate(-389.24 -132.821)"/></g><g transform="translate(63.522)"><path class="d" d="M425.561,58.907H396.245V29.59h29.316Zm-28.154-1.163H424.4V30.753h-26.99Z" transform="translate(-396.245 -29.59)"/></g><g transform="translate(77.598 7.991)"><rect class="d" width="1.162" height="13.665"/></g><g transform="translate(71.348 14.242)"><rect class="d" width="13.663" height="1.163"/></g><g transform="translate(162.004 64.957)"><path class="d" d="M490.095,110.453l-.823-2.152a11.633,11.633,0,0,1-2.167-.5l-1.68,1.577-4.876-3.47.94-2.1a11.589,11.589,0,0,1-1.18-1.884L478,101.85l-.991-5.9,2.152-.824a11.482,11.482,0,0,1,.5-2.166l-1.577-1.68,3.47-4.877,2.1.94a11.532,11.532,0,0,1,1.884-1.179l.072-2.3,5.9-.994.826,2.152a11.753,11.753,0,0,1,2.167.5l1.682-1.577,4.876,3.47-.94,2.1a11.568,11.568,0,0,1,1.179,1.885l2.3.072.993,5.9-2.151.824a11.829,11.829,0,0,1-.5,2.167l1.579,1.679-3.473,4.877-2.1-.94a11.506,11.506,0,0,1-1.883,1.179l-.073,2.3Zm-3.374-4.547.482.184a10.012,10.012,0,0,0,2.73.626l.512.044.707,1.845,3.242-.545.063-1.975.472-.211a10.035,10.035,0,0,0,2.372-1.485l.4-.333,1.8.806,1.9-2.679-1.352-1.44.184-.482a9.961,9.961,0,0,0,.628-2.73l.045-.513,1.842-.7-.545-3.243-1.974-.063-.212-.471a10.011,10.011,0,0,0-1.484-2.373l-.333-.4.8-1.8-2.676-1.908-1.441,1.351-.482-.184a10.012,10.012,0,0,0-2.728-.626l-.513-.045-.709-1.844-3.241.545-.062,1.974-.473.212a10.022,10.022,0,0,0-2.374,1.485l-.393.33-1.8-.8-1.907,2.679,1.352,1.439-.187.483a9.991,9.991,0,0,0-.626,2.729l-.045.513L478.857,97l.549,3.242,1.975.063.208.471a10.032,10.032,0,0,0,1.488,2.374l.33.4-.8,1.8,2.676,1.906Zm4.07-2.74a6.449,6.449,0,0,1-3.758-1.207,6.507,6.507,0,1,1,4.854,1.116A6.651,6.651,0,0,1,490.791,103.167Zm.023-11.368a4.859,4.859,0,0,0-2.825,8.818h0a4.86,4.86,0,1,0,2.825-8.818Z" transform="translate(-477.011 -82.862)"/></g><g transform="translate(99.561 37.584)"><path class="d" d="M455.6,122.262l-1.84-4.8a26.132,26.132,0,0,1-5.771-1.321l-3.747,3.517-10.182-7.244,2.1-4.693a26.183,26.183,0,0,1-3.14-5.02l-5.141-.162L425.8,90.213l4.8-1.838a26.057,26.057,0,0,1,1.323-5.772l-3.518-3.748,7.242-10.18,4.7,2.1a26.111,26.111,0,0,1,5.02-3.14l.161-5.142,12.322-2.075,1.84,4.8a26.218,26.218,0,0,1,5.771,1.324l3.747-3.519,10.179,7.244-2.1,4.693a26.131,26.131,0,0,1,3.142,5.021l5.138.162,2.079,12.322-4.8,1.838a26.083,26.083,0,0,1-1.326,5.772l3.52,3.747L477.8,114l-4.692-2.1a26.06,26.06,0,0,1-5.02,3.141l-.161,5.142Zm-8.12-8.662.644.245a23.932,23.932,0,0,0,6.514,1.494l.685.06,1.685,4.4,8.773-1.479.149-4.709.628-.28a23.9,23.9,0,0,0,5.665-3.545l.527-.443,4.3,1.919,5.158-7.249-3.22-3.434.245-.643a23.847,23.847,0,0,0,1.492-6.513l.059-.687,4.4-1.684-1.479-8.774L479,82.131l-.279-.628a23.951,23.951,0,0,0-3.545-5.664l-.443-.527,1.918-4.3-7.247-5.16-3.434,3.222-.641-.246a24.02,24.02,0,0,0-6.514-1.492l-.688-.059-1.683-4.4-8.774,1.478-.15,4.709-.628.282a23.962,23.962,0,0,0-5.665,3.545l-.527.443-4.3-1.919-5.157,7.248,3.22,3.435-.248.641a23.933,23.933,0,0,0-1.492,6.513l-.059.686-4.4,1.684,1.478,8.774,4.709.149.279.628a23.857,23.857,0,0,0,3.547,5.665l.44.528-1.918,4.3,7.249,5.159Zm9.224-8.056a14.207,14.207,0,1,1,11.6-5.968A14.15,14.15,0,0,1,456.707,105.544Zm.035-26.216a12.006,12.006,0,1,0,6.95,2.22A12.008,12.008,0,0,0,456.742,79.328Z" transform="translate(-425.801 -60.413)"/></g><g transform="translate(0 47.607)"><path class="d" d="M365.846,112.025a21.721,21.721,0,0,1-21.7-21.7h1.162A20.534,20.534,0,1,0,365.846,69.8V68.633a21.7,21.7,0,1,1,0,43.392Zm0-3.017a18.679,18.679,0,1,1,18.68-18.679h-1.163a17.517,17.517,0,1,0-17.517,17.516Z" transform="translate(-344.15 -68.633)"/></g><g transform="translate(11.213 62.527)"><path class="d" d="M361.171,94.832l-7.826-7.826.823-.822,7,7,12.32-12.319.822.822Z" transform="translate(-353.346 -80.869)"/></g><g transform="translate(205.172 13.745)"><path class="d" d="M512.413,40.862h32.046v28.12l-4.891-4.892H512.413Z" transform="translate(-512.413 -40.862)"/></g></g><g transform="translate(471.706)"><g transform="translate(38.86 14.206)"><path class="d" d="M708.556,64.326l-.262-.134c-27.609-14.1-23.9-41.395-23.862-41.668l.074-.5h.5c17.553,0,23.07-5.658,23.124-5.715l.427-.454.427.456c.053.055,5.568,5.713,23.121,5.713h.5l.074.5c.04.273,3.748,27.572-23.861,41.668ZM685.53,23.189c-.35,3.7-1.513,27.131,23.026,39.831,24.542-12.7,23.379-36.134,23.03-39.831-15.241-.1-21.444-4.34-23.03-5.687C706.974,18.849,700.769,23.093,685.53,23.189Z" transform="translate(-684.246 -15.859)"/></g><g transform="translate(0 55.155)"><path class="d" d="M653.539,168.843h-1.162V103.985h62.589V49.441h1.163v55.707H653.539Z" transform="translate(-652.377 -49.441)"/></g><g transform="translate(138.237 207.826)"><path class="d" d="M830.868,213.624H765.746v-1.163H829.7V174.648h1.163Z" transform="translate(-765.746 -174.648)"/></g><g transform="translate(148.677 119.41)"><g transform="translate(12.368 16.551)"><path class="d" d="M815.587,146.849H784.451V115.712h31.136Zm-30.1-1.039h29.06v-29.06H785.49Z" transform="translate(-784.451 -115.712)"/><g transform="translate(37.365 3.806)"><path class="d" d="M886.359,126.444H815.094v-7.611h71.265Zm-70.23-1.038H885.32v-5.535H816.129Z" transform="translate(-815.094 -118.833)"/></g><g transform="translate(0 39.201)"><path class="d" d="M893.081,155.472H784.451v-7.611h108.63ZM785.49,154.435H892.042V148.9H785.49Z" transform="translate(-784.451 -147.861)"/></g><g transform="translate(0 53.817)"><path class="d" d="M853.642,167.459H784.451v-7.611h69.191Zm-68.152-1.038H852.6v-5.535H785.49Z" transform="translate(-784.451 -159.848)"/></g><g transform="translate(37.365 18.324)"><path class="d" d="M863.354,138.351h-48.26V130.74h48.26Zm-47.224-1.038h46.185v-5.536H816.129Z" transform="translate(-815.094 -130.74)"/></g></g><path class="d" d="M907.673,196.671H774.308V102.138H907.673Zm-132.326-1.038H906.636V103.176H775.347Z" transform="translate(-774.308 -102.138)"/></g><g transform="translate(91.675 67.103)"><path class="d" d="M737.539,69.211H727.56V68.047h8.816V59.24h1.162Z" transform="translate(-727.56 -59.24)"/></g><g transform="translate(24.575 67.103)"><path class="d" d="M682.511,69.211h-9.98V59.24H673.7v8.807h8.815Z" transform="translate(-672.531 -59.24)"/></g><g transform="translate(24.58)"><path class="d" d="M673.7,14.187h-1.163V4.209h9.972V5.371H673.7Z" transform="translate(-672.535 -4.209)"/></g><g transform="translate(91.675 0.004)"><path class="d" d="M737.539,14.182h-1.162V5.375H727.56V4.212h9.979Z" transform="translate(-727.56 -4.212)"/></g><g transform="translate(100.492 24.875)"><rect class="d" width="1.162" height="27.328"/></g><g transform="translate(24.575 24.875)"><rect class="d" width="1.165" height="27.328"/></g><g transform="translate(58.901 47.196)"><path class="d" d="M704.951,51.456a4.271,4.271,0,1,1,4.271-4.271A4.276,4.276,0,0,1,704.951,51.456Zm0-7.38a3.108,3.108,0,1,0,3.108,3.108A3.111,3.111,0,0,0,704.951,44.076Z" transform="translate(-700.682 -42.914)"/></g><g transform="translate(177.556 40.539)"><path class="d" d="M839.9,67.369H797.992V37.455H839.9Zm-40.741-1.163h39.578V38.617H799.157Z" transform="translate(-797.992 -37.455)"/></g><g transform="translate(177.769 40.671)"><path class="d" d="M818.907,55.55l-20.74-17.089.74-.9,20,16.48,20-16.48.738.9Z" transform="translate(-798.167 -37.564)"/></g><g transform="translate(203.419 53.615)"><rect class="d" width="1.163" height="21.855" transform="translate(0 0.8) rotate(-43.487)"/></g><g transform="translate(177.722 53.61)"><rect class="d" width="21.855" height="1.163" transform="translate(0 15.867) rotate(-46.555)"/></g></g><g transform="translate(638.226 315.325)"><path class="e" d="M858.183,263.013c-4.158-1.989-8.3,11.25-8.3,11.25-7.069,9.339-16.946-3.086-15.98,10.875,1.69,24.431-28.121,7.683-14.368,33.188s-12.143,14.423-3.6,34.988-2.531,45.1,10.329,35.016c0,0,11.323-24.831,23-32.513s-7-16.8-3.342-27.233c5.307-15.155,18.093-14.56,8.873-30.847S872.319,269.773,858.183,263.013Z" transform="translate(-783.407 -262.809)"/><g transform="translate(38.261 25.9)"><path class="f" d="M820.851,374.326c5.574-3.92,12.1-31.239,12.487-47.511.2-8.334,2.663-11.807,4.837-14.871,2.078-2.928,3.873-5.458,2.826-11.266-2-11.1,3.255-15.888,3.308-15.936l-.609-.693c-.233.2-5.7,5.146-3.607,16.793.977,5.426-.633,7.7-2.672,10.568-2.139,3.014-4.8,6.766-5.007,15.382-.418,17.462-7.087,43.257-12.1,46.779Z" transform="translate(-820.32 -284.05)"/></g><g transform="translate(0 63.479)"><path class="g" d="M816.049,359.6c-.527-1.193-1.071-2.425-1.686-3.726-3.185-6.722-6.005-7.829-10.679-9.663-1.141-.449-2.436-.956-3.857-1.595-6.694-3.008-5.4-7.442-4.254-11.353.16-.547.32-1.093.457-1.633.589-2.3-.543-3.454-2.255-5.2a19.536,19.536,0,0,1-4.078-5.466c-1.336-2.794-.655-4.291.152-5.055,1.7-1.611,5.614-1.313,9.311.7h0a13.435,13.435,0,0,1,3.095,2.665c2.357,2.468,5.291,5.54,12.708,5.574,4.231.021,6.548.6,7.748,1.953,1.362,1.529,1.1,3.82.75,6.991-.123,1.1-.262,2.34-.348,3.684a21.482,21.482,0,0,0,4.273,13.848c2.825,3.365,6.308,10.346,4.8,14.643a5.14,5.14,0,0,1-4.186,3.369,11.927,11.927,0,0,1-2.358.256C820.46,369.591,818.56,365.287,816.049,359.6Zm-17.331-42.18c-3.3-1.8-6.842-2.167-8.234-.846-1.06,1-.56,2.723.045,3.988a18.476,18.476,0,0,0,3.9,5.22c1.791,1.828,3.207,3.272,2.49,6.076-.141.55-.3,1.1-.467,1.662-1.138,3.9-2.214,7.575,3.748,10.255,1.4.629,2.684,1.133,3.815,1.577,4.718,1.851,7.834,3.074,11.175,10.127.622,1.312,1.168,2.551,1.7,3.749,2.884,6.536,4.624,10.48,10.929,9.206a4.279,4.279,0,0,0,3.5-2.769c1.324-3.787-1.845-10.417-4.642-13.747a22.02,22.02,0,0,1-4.485-14.5c.085-1.366.227-2.62.35-3.728.329-2.934.567-5.053-.522-6.276-.995-1.118-3.173-1.625-7.062-1.642-7.81-.038-10.894-3.265-13.371-5.86a12.623,12.623,0,0,0-2.87-2.492Z" transform="translate(-788.942 -314.869)"/></g><g transform="translate(7.151 70.841)"><path class="h" d="M826.619,373.588l.921-.048c-.045-.866-1.207-21.252-9.393-27.22-8.98-6.545-11.812-13.581-13.16-18.3-1.589-5.564-9.677-7.052-10.021-7.112l-.16.908c.078.015,7.864,1.449,9.294,6.456,1.385,4.853,4.293,12.081,13.5,18.8C825.438,352.777,826.608,373.381,826.619,373.588Z" transform="translate(-794.806 -320.906)"/></g><path class="i" d="M806.746,279.891c5.818-1.995,4.609,9.22,7.067,17.516s27.35,3.62,16.9,24.4,13.214,6.948,6.147,25.078-.615,37.522-8.3,32.59S824.247,351.708,816.258,349s-9.294-5.877-1.383-13.252-20.729-14.7-13.662-29.59S800.024,282.2,806.746,279.891Z" transform="translate(-786.498 -259.113)"/><g transform="translate(23.173 46.786)"><path class="f" d="M823.275,373.882c.732-3.1,6.98-30.418,1.15-33.72-5.14-2.909-5.013-14.229-4.21-24.916.708-9.461-11.442-13.884-11.959-14.066l-.309.868c.121.043,12,4.371,11.349,13.129-.823,10.977-.912,22.625,4.675,25.788,4.428,2.507.351,24.46-1.592,32.707Z" transform="translate(-807.946 -301.179)"/></g></g><g transform="translate(176.828 76.03)"><rect class="j" width="472.088" height="15.92" rx="3.961" transform="translate(0 265.339)"/><g transform="translate(37.754)"><path class="j" d="M829.563,66.561H450.032a8.525,8.525,0,0,0-8.525,8.524v257.6H838.088V75.085A8.525,8.525,0,0,0,829.563,66.561Z" transform="translate(-441.507 -66.561)"/><rect class="f" width="368.075" height="237.975" transform="translate(14.253 19.057)"/></g><path class="k" d="M606.566,75.7a2.067,2.067,0,1,1-2.067-2.068A2.067,2.067,0,0,1,606.566,75.7Z" transform="translate(-368.454 -65.01)"/><path class="l" d="M651.282,289.89H571.926a1.89,1.89,0,0,0,0,3.78h79.357a1.89,1.89,0,0,0,0-3.78Z" transform="translate(-375.56 -17.573)"/><g class="m" transform="translate(64.87 32.175)"><rect class="n" width="36.904" height="6.513" transform="translate(33.328)"/><rect class="f" width="15.194" height="6.513"/><rect class="f" width="15.194" height="6.513" transform="translate(0 11.94)"/><rect class="f" width="15.194" height="6.513" transform="translate(0 26.051)"/><rect class="f" width="15.194" height="6.513" transform="translate(0 40.161)"/><rect class="f" width="15.194" height="6.513" transform="translate(0 54.272)"/><rect class="f" width="15.194" height="6.513" transform="translate(0 68.382)"/><rect class="o" width="123.743" height="6.513" transform="translate(77.83)"/><g transform="translate(46.354 11.94)"><rect class="n" width="36.904" height="6.513"/><rect class="o" width="123.743" height="6.513" transform="translate(44.502)"/></g><g transform="translate(68.064 26.051)"><rect class="n" width="36.904" height="6.513"/><rect class="o" width="123.743" height="6.513" transform="translate(44.502)"/></g><g transform="translate(89.773 40.161)"><rect class="n" width="36.904" height="6.513"/><rect class="o" width="123.743" height="6.513" transform="translate(44.502)"/></g><g transform="translate(68.064 54.272)"><rect class="n" width="36.904" height="6.513"/><rect class="o" width="188.872" height="6.513" transform="translate(44.502)"/></g><g transform="translate(46.354 68.382)"><rect class="n" width="36.904" height="6.513"/><rect class="o" width="80.324" height="6.513" transform="translate(44.502)"/></g></g><g class="m" transform="translate(64.87 119.033)"><rect class="n" width="36.904" height="6.513" transform="translate(33.328)"/><rect class="f" width="15.194" height="6.513"/><rect class="f" width="15.194" height="6.513" transform="translate(0 11.94)"/><rect class="f" width="15.194" height="6.513" transform="translate(0 26.051)"/><rect class="f" width="15.194" height="6.513" transform="translate(0 40.161)"/><rect class="f" width="15.194" height="6.513" transform="translate(0 54.272)"/><rect class="f" width="15.194" height="6.513" transform="translate(0 68.382)"/><rect class="o" width="123.743" height="6.513" transform="translate(77.83)"/><g transform="translate(46.354 11.94)"><rect class="n" width="36.904" height="6.513"/><rect class="o" width="123.743" height="6.513" transform="translate(44.502)"/></g><g transform="translate(68.064 26.051)"><rect class="n" width="36.904" height="6.513"/><rect class="o" width="123.743" height="6.513" transform="translate(44.502)"/></g><rect class="n" width="36.904" height="6.513" transform="translate(33.328 86.833)"/><rect class="f" width="15.194" height="6.513" transform="translate(0 86.833)"/><rect class="f" width="15.194" height="6.513" transform="translate(0 98.774)"/><rect class="f" width="15.194" height="6.513" transform="translate(0 112.884)"/><rect class="o" width="123.743" height="6.513" transform="translate(77.83 86.833)"/><g transform="translate(46.354 98.774)"><rect class="n" width="36.904" height="6.513"/><rect class="o" width="123.743" height="6.513" transform="translate(44.502)"/></g><g transform="translate(68.064 112.884)"><rect class="n" width="36.904" height="6.513"/><rect class="o" width="123.743" height="6.513" transform="translate(44.502)"/></g><g transform="translate(89.773 40.161)"><rect class="n" width="36.904" height="6.513"/><rect class="o" width="188.872" height="6.513" transform="translate(44.502)"/></g><g transform="translate(68.064 54.272)"><rect class="n" width="36.904" height="6.513"/><rect class="o" width="123.743" height="6.513" transform="translate(44.502)"/></g><g transform="translate(46.354 68.382)"><rect class="n" width="36.904" height="6.513"/><rect class="o" width="123.743" height="6.513" transform="translate(44.502)"/></g></g></g><rect class="p" width="14.446" height="15.92" transform="translate(278.841 341.369)"/><rect class="p" width="14.446" height="15.92" transform="translate(306.934 341.369)"/><g transform="translate(240.949 232.417)"><path class="q" d="M512.362,336.585l.057,7.821s-.989,5.008-1.779,10.345-1.384,11-.594,12.323c1.581,2.636,4.745,0,5.272-2.636s1.318-18.978,1.318-18.978l.527-10.542Z" transform="translate(-452.922 -164.085)"/><path class="q" d="M506.424,335.429l1.208,7.02s2.372,19.241,1.054,22.14-5.535,1.582-5.271-2.372-.79-17.923-.79-17.923l-2.373-8.434Z" transform="translate(-454.989 -163.972)"/><g transform="translate(27.572 0.076)"><path class="r" d="M512.81,265.191l.578,8.663-22.318,10.769a9.622,9.622,0,0,0-4.64,11.266l15.461,57.445,7.655-2.435-6.794-52.842a5.99,5.99,0,0,1,5-6.788l7.945-1.245,8.466-8.624-9.784,8.781a9.619,9.619,0,0,0-3.111,8.443l6.282,53.32,6.96,1.74,3.107-52.5A8.117,8.117,0,0,1,533.263,294l13.756-4.363a7.554,7.554,0,0,0,3.619-6.25l-.578-18.479Z" transform="translate(-485.683 -179.518)"/><path class="d" d="M551.534,294.111l-3.685-71.731s-15.255-.915-19.795-.915c-2.473,0-6.7,1.173-10.034,2.242-3.133,1-5.736.916-7.257,3.832L485.743,275.5l15.372,1.463,5.125-5.855-2.607-3.952,9.346-22.043-1.834,40.028Z" transform="translate(-485.743 -189.046)"/><path class="s" d="M510.793,233.685l-16.586,29.963,5.164,6.048a9.129,9.129,0,0,0,4.095-.224l.918-1.049-2.607-3.952,9.346-22.043Z" transform="translate(-483.886 -186.366)"/><path class="f" d="M525.768,234.052A9.114,9.114,0,0,0,534.411,222c-4.7-.252-10.594-.538-13.134-.538a20.442,20.442,0,0,0-4.176.6,9.116,9.116,0,0,0,8.667,11.981Z" transform="translate(-478.966 -189.046)"/><path class="d" d="M542.261,232.369l1.878,59.758-24.682-5.915Z" transform="translate(-478.348 -186.655)"/><path class="t" d="M519.18,216.185c.428.856,3.424,12.624,3.424,12.624a3.8,3.8,0,0,0,3.637,1.712c2.567-.215,3.637-3.852,3.637-3.852L525.385,211.9Z" transform="translate(-478.409 -191.144)"/><path class="t" d="M537.449,212.112c0,8.106-8.607,17.078-16.714,17.078s-12.643-8.972-12.643-17.078a14.679,14.679,0,0,1,29.357,0Z" transform="translate(-480.841 -194.318)"/><circle class="t" cx="16.526" cy="16.526" r="16.526" transform="matrix(0.161, -0.987, 0.987, 0.161, 22.658, 32.62)"/><g transform="translate(24.867 23.687)"><path class="u" d="M511.2,221.853a5.656,5.656,0,0,1-4.827-3.678,3.117,3.117,0,0,1,.217-2.861,2.508,2.508,0,0,1,2.131-1.011,5.654,5.654,0,0,1,4.826,3.678,3.111,3.111,0,0,1-.216,2.859A2.509,2.509,0,0,1,511.2,221.853Zm-2.479-6.975a1.953,1.953,0,0,0-1.662.768,2.558,2.558,0,0,0-.145,2.335,5.045,5.045,0,0,0,4.286,3.3,1.955,1.955,0,0,0,1.662-.768,2.552,2.552,0,0,0,.144-2.334A5.041,5.041,0,0,0,508.725,214.878Z" transform="translate(-506.136 -214.304)"/></g><g transform="translate(34.601 23.687)"><path class="u" d="M519.187,221.853a5.654,5.654,0,0,1-4.826-3.678,3.114,3.114,0,0,1,.216-2.861,2.508,2.508,0,0,1,2.131-1.011,5.656,5.656,0,0,1,4.827,3.678,3.115,3.115,0,0,1-.216,2.859A2.513,2.513,0,0,1,519.187,221.853Zm-2.479-6.975a1.955,1.955,0,0,0-1.662.768,2.554,2.554,0,0,0-.144,2.335,5.042,5.042,0,0,0,4.285,3.3,1.951,1.951,0,0,0,1.662-.768,2.555,2.555,0,0,0,.145-2.334A5.044,5.044,0,0,0,516.708,214.878Z" transform="translate(-514.12 -214.304)"/></g></g><path class="t" d="M525.761,275.9c-.641-.213-6.064-2.841-9.914-2.841s-8.56,4.065-8.56,4.065-.641,2.139,1.927,1.711-.354,1.616-.354,1.616a22.953,22.953,0,0,0,3.135.524c3,.428,14.675-.2,14.675-.2Z" transform="translate(-453.461 -177.654)"/><path class="d" d="M539.8,222.216l2.066,47.21-19.4,17.556.924,4.929,27.326-14.592a7.152,7.152,0,0,0,3.717-7.288L549.439,233.9a13.006,13.006,0,0,0-7.2-10.48Z" transform="translate(-450.118 -188.806)"/><g transform="translate(0 66.161)"><path class="f" d="M532.952,283.348H483.521v-3.624h49.431a1.811,1.811,0,0,1,1.812,1.812h0A1.812,1.812,0,0,1,532.952,283.348Z" transform="translate(-458.659 -242.352)"/><path class="f" d="M523.863,290.071H476.2a4.65,4.65,0,0,1-4.493-3.457l-8.412-31.7a4.65,4.65,0,0,1,4.493-5.842h41.624a4.65,4.65,0,0,1,4.493,3.457Z" transform="translate(-463.131 -249.075)"/><path class="v" d="M467.783,249.075a4.65,4.65,0,0,0-4.493,5.842l8.412,31.7a4.628,4.628,0,0,0,1.569,2.411l28.977-39.95Z" transform="translate(-463.131 -249.075)"/><path class="l" d="M491.322,268.86a2.858,2.858,0,0,1-2.906,3.743,5.2,5.2,0,0,1-4.8-3.743,2.858,2.858,0,0,1,2.906-3.743A5.206,5.206,0,0,1,491.322,268.86Z" transform="translate(-458.663 -245.556)"/></g><path class="w" d="M523.451,194.816a20.031,20.031,0,0,0-19.893,17.722,15.917,15.917,0,0,0,24.025-6.024,28.212,28.212,0,0,0,.062,6.659,9.478,9.478,0,0,0,3.035,5.788,10.132,10.132,0,0,1,1.088-4.509,3.472,3.472,0,0,1,3.96-1.7,3.233,3.233,0,0,1,1.867,2.6,6.59,6.59,0,0,1-.536,3.276,14.135,14.135,0,0,1-2.784,4.442,29.205,29.205,0,0,0,7.233.426,20,20,0,0,0-18.057-28.678Z" transform="translate(-454.264 -194.816)"/><path class="t" d="M533.313,213.57a5.007,5.007,0,1,1-5.007-5.007A5.007,5.007,0,0,1,533.313,213.57Z" transform="translate(-449.934 -191.801)"/><path class="t" d="M506.359,335.429l.9,5.245-5.255,1.657-1.456-5.177Z" transform="translate(-454.923 -163.972)"/><path class="t" d="M511.921,342.143l4.34.838.277-5.531-4.659-1.165Z" transform="translate(-452.439 -163.785)"/></g><g transform="translate(479.741 232.493)"><path class="q" d="M696.681,336.585l-.056,7.821s.988,5.008,1.779,10.345,1.384,11,.593,12.323c-1.581,2.636-4.744,0-5.271-2.636s-1.318-18.978-1.318-18.978l-.527-10.542Z" transform="translate(-651.747 -164.161)"/><path class="q" d="M702.86,335.429l-1.207,7.02s-2.373,19.241-1.055,22.14,5.536,1.582,5.272-2.372.79-17.923.79-17.923l2.373-8.434Z" transform="translate(-649.922 -164.048)"/><g transform="translate(11.011 0)"><path class="r" d="M706.51,265.191l-.577,8.663,22.317,10.769a9.623,9.623,0,0,1,4.641,11.266l-15.461,57.445-7.656-2.435,6.8-52.842a5.991,5.991,0,0,0-5-6.788l-7.945-1.245-8.465-8.624,9.784,8.781a9.626,9.626,0,0,1,3.111,8.443l-6.283,53.32-6.96,1.74-3.107-52.5A8.115,8.115,0,0,0,686.057,294L672.3,289.633a7.551,7.551,0,0,1-3.619-6.25l.577-18.479Z" transform="translate(-667.846 -179.518)"/><path class="d" d="M668,294.111l3.684-71.731s15.257-.915,19.8-.915c2.473,0,6.7,1.173,10.033,2.242,3.134,1,5.737.916,7.259,3.832l25.02,47.955-15.374,1.463-5.124-5.855,2.606-3.952-9.346-22.043,1.835,40.028Z" transform="translate(-667.997 -189.046)"/><path class="x" d="M699.947,233.685l16.584,29.963-5.164,6.048a9.129,9.129,0,0,1-4.095-.224l-.917-1.049,2.606-3.952-9.346-22.043Z" transform="translate(-661.061 -186.366)"/><path class="f" d="M690.373,243.129c-5.042,0-14.29-13.163-14.29-18.2a9.109,9.109,0,0,1,.485-2.92c4.7-.252,10.595-.538,13.135-.538a20.453,20.453,0,0,1,4.176.6,9.126,9.126,0,0,1,.461,2.853C694.34,229.966,695.413,243.129,690.373,243.129Z" transform="translate(-666.223 -189.046)"/><path class="d" d="M669.875,232.369,668,292.128l24.682-5.915Z" transform="translate(-667.997 -186.655)"/><path class="t" d="M690.441,216.185c-.428.856-3.424,12.624-3.424,12.624a3.8,3.8,0,0,1-3.637,1.712c-2.568-.215-3.637-3.852-3.637-3.852l4.493-14.764Z" transform="translate(-665.421 -191.143)"/><path class="t" d="M675.528,212.112c0,8.106,8.607,17.078,16.714,17.078s12.642-8.972,12.642-17.078a14.678,14.678,0,1,0-29.356,0Z" transform="translate(-666.345 -194.318)"/><circle class="t" cx="16.526" cy="16.526" r="16.526" transform="matrix(0.987, -0.161, 0.161, 0.987, 5.193, 5.319)"/><path class="y" d="M696.778,217.927c-.33.572-.279,1.218.113,1.444s.978-.052,1.307-.623.278-1.217-.113-1.444S697.107,217.357,696.778,217.927Z" transform="translate(-661.731 -189.976)"/><path class="y" d="M689.96,218.678c-.361.628-.306,1.338.126,1.586s1.073-.059,1.435-.685.306-1.336-.124-1.585S690.322,218.051,689.96,218.678Z" transform="translate(-663.231 -189.827)"/></g><path class="t" d="M685.433,275.9c.643-.213,6.065-2.841,9.916-2.841s8.559,4.065,8.559,4.065.643,2.139-1.925,1.711.354,1.616.354,1.616a23.032,23.032,0,0,1-3.135.524c-3,.428-14.675-.2-14.675-.2Z" transform="translate(-653.36 -177.729)"/><path class="d" d="M673.661,222.216l-2.064,47.21L691,286.982l-.924,4.929-27.327-14.592a7.154,7.154,0,0,1-3.717-7.288L664.02,233.9a13,13,0,0,1,7.194-10.48Z" transform="translate(-658.967 -188.882)"/><g transform="translate(28.267 66.085)"><path class="f" d="M683.961,283.348h49.432v-3.624H683.961a1.812,1.812,0,0,0-1.812,1.812h0A1.813,1.813,0,0,0,683.961,283.348Z" transform="translate(-682.149 -242.352)"/><path class="f" d="M694.758,290.071h47.667a4.649,4.649,0,0,0,4.493-3.457l8.414-31.7a4.65,4.65,0,0,0-4.493-5.842H709.215a4.649,4.649,0,0,0-4.493,3.457Z" transform="translate(-679.383 -249.075)"/><path class="z" d="M746.95,249.075a4.65,4.65,0,0,1,4.493,5.842l-8.414,31.7a4.621,4.621,0,0,1-1.569,2.411l-28.975-39.95Z" transform="translate(-675.495 -249.075)"/><path class="l" d="M717.8,268.86a2.857,2.857,0,0,0,2.906,3.743,5.206,5.206,0,0,0,4.8-3.743,2.858,2.858,0,0,0-2.907-3.743A5.206,5.206,0,0,0,717.8,268.86Z" transform="translate(-674.354 -245.556)"/></g><path class="aa" d="M690.786,196.883A16.52,16.52,0,0,1,707.192,211.5a13.125,13.125,0,0,1-19.814-4.968,23.241,23.241,0,0,1-.051,5.492,7.82,7.82,0,0,1-2.5,4.774,8.356,8.356,0,0,0-.9-3.719,2.861,2.861,0,0,0-3.266-1.4,2.668,2.668,0,0,0-1.54,2.145,5.431,5.431,0,0,0,.443,2.7,11.639,11.639,0,0,0,2.3,3.664,23.994,23.994,0,0,1-5.965.351,16.494,16.494,0,0,1,14.892-23.652Z" transform="translate(-655.612 -194.439)"/><path class="t" d="M676.184,213.57a5.007,5.007,0,1,0,5.008-5.007A5.008,5.008,0,0,0,676.184,213.57Z" transform="translate(-655.19 -191.876)"/><path class="t" d="M702.543,335.429l-.9,5.245,5.255,1.657,1.456-5.177Z" transform="translate(-649.606 -164.048)"/><path class="t" d="M696.613,342.143l-4.34.838L692,337.45l4.659-1.165Z" transform="translate(-651.722 -163.861)"/></g><circle class="aa" cx="10.659" cy="10.659" r="10.659" transform="translate(495.107 222.853)"/><g transform="translate(367.824 234.671)"><path class="aa" d="M601.453,198.85l-5.864,7.2-2.932,6.131-2.69,7.7s-4.753,4.434-4.5,4.5-.277,5.393.256,6.193,5.883,7.2,5.883,7.2,5.177,3.379,7.244,3.821,12.461,4.975,12.461,4.975l6.4-6.131-2.4-3.2s6.664-4,7.464-4.531,4-3.732,4-3.732a28.194,28.194,0,0,0-.6-4.593c-.468-1.8-3.667-10.6-3.667-10.6s-4.264-6.131-4.8-7.2-2.933-4.531-2.933-4.531Z" transform="translate(-563.173 -196.185)"/><path class="d" d="M4.093,0H36.765a4.093,4.093,0,0,1,4.093,4.093v41.9a0,0,0,0,1,0,0H0a0,0,0,0,1,0,0V4.093A4.093,4.093,0,0,1,4.093,0Z" transform="matrix(1, -0.008, 0.008, 1, 22.911, 41.637)"/><path class="aa" d="M596.406,231.186s3.086,3.558,3.086,11.022.255,21.19.255,21.19l9.167.04v-21.59a16.9,16.9,0,0,1,5.087-13l-9.99.255Z" transform="translate(-560.772 -189.605)"/><path class="t" d="M603.424,241.616h0a4.973,4.973,0,0,1-5.01-4.936l-.115-15.115a.666.666,0,0,1,.662-.673l8.611-.066a.667.667,0,0,1,.672.663l.116,15.115A4.974,4.974,0,0,1,603.424,241.616Z" transform="translate(-560.357 -191.364)"/><path class="ab" d="M622.981,222.9c0-.168.012-.335.012-.5a17.566,17.566,0,0,0-.544-4.348v-1.927a17.29,17.29,0,0,0-17.239-17.239h0a17.29,17.29,0,0,0-17.238,17.239v6.78Z" transform="translate(-562.622 -196.179)"/><path class="t" d="M620.884,217.793v-1.662a15.944,15.944,0,0,0-15.9-15.9h0a15.944,15.944,0,0,0-15.9,15.9v6.515a5.924,5.924,0,0,0,.141,1.274,16.148,16.148,0,1,0,31.653-6.127Z" transform="translate(-562.377 -195.881)"/><path class="t" d="M594.463,220.593a4.5,4.5,0,1,1-4.5-4.5A4.5,4.5,0,0,1,594.463,220.593Z" transform="translate(-563.171 -192.402)"/><path class="t" d="M620.47,220.593a4.5,4.5,0,1,1-4.5-4.5A4.5,4.5,0,0,1,620.47,220.593Z" transform="translate(-557.466 -192.402)"/><path class="ac" d="M609.992,285.348l-20.03,9.4,3.709,61.081H586.5l-14.508-62.633a6.6,6.6,0,0,1,2.98-7.114l18.946-11.612Z" transform="translate(-566.165 -179.598)"/><path class="n" d="M589.557,217.361a2.965,2.965,0,0,0,0,5.908Z" transform="translate(-562.868 -192.124)"/><path class="n" d="M614.914,217.361a2.965,2.965,0,0,1,0,5.908Z" transform="translate(-556.712 -192.124)"/><rect class="aa" width="9.233" height="49.229" transform="translate(38.881 54.067)"/><path class="aa" d="M611.605,216.03c.428,1.367,1.05,2.933,2.43,3.315a3.94,3.94,0,0,0,3.146-.922,2.318,2.318,0,0,0,1.133-1.406,2.443,2.443,0,0,0-.423-1.471,25.85,25.85,0,0,0-3.268-5.043c-1.186-1.332-3.32-3.495-4.581-1.211C609.181,210.852,611.12,214.477,611.605,216.03Z" transform="translate(-557.829 -194.113)"/><path class="aa" d="M617.161,207.543a20.957,20.957,0,0,0-12.55-4.168l.185-2.85c-4.67,0-9.182,4.39-12.686,6.983,3.059,3.48,7.542,6.764,12.54,6.764C609.632,214.273,614.1,211,617.161,207.543Z" transform="translate(-561.714 -195.817)"/><path class="d" d="M567.821,268.282a3.8,3.8,0,0,1-.523-3.039c2.3-9.2,18.738-30.83,19.461-31.734,1.09-1.363,6.709-2.59,6.709-2.59l.647,14.85-14.844,17.461a3.778,3.778,0,0,0-.512,4.115l11.725,23.844-6.182,1.731Z" transform="translate(-567.182 -189.15)"/><path class="ac" d="M614.535,274.468l18.946,11.612a6.6,6.6,0,0,1,2.98,7.114l-14.508,62.633h-7.171l3.709-61.081-20.03-9.4Z" transform="translate(-560.321 -179.598)"/><path class="d" d="M640.227,267.79a3.986,3.986,0,0,0,.477-2.746c-1.8-8.992-16.512-30.622-17.243-31.534-1.09-1.363-6.709-2.59-6.709-2.59l-.648,14.85,12.768,17.048a4.11,4.11,0,0,1,.532,3.976l-9.668,24.4,6.182,1.731Z" transform="translate(-556.451 -189.15)"/><path class="aa" d="M594.293,216.03c-.427,1.367-1.05,2.933-2.43,3.315a3.94,3.94,0,0,1-3.146-.922,2.322,2.322,0,0,1-1.133-1.406,2.452,2.452,0,0,1,.423-1.471,25.969,25.969,0,0,1,3.268-5.043c1.188-1.332,3.321-3.495,4.581-1.211C596.717,210.852,594.778,214.477,594.293,216.03Z" transform="translate(-562.71 -194.113)"/><path class="t" d="M590.459,281.462a5.177,5.177,0,1,1-5.176-5.177A5.177,5.177,0,0,1,590.459,281.462Z" transform="translate(-564.348 -179.199)"/><path class="d" d="M620.477,204.128c-2.118-5.559-13.988-7.436-14.14-7.462h-.006c-.151.027-12.022,1.9-14.14,7.462-2.133,5.6-8.51,21.323-8.243,25.588s8,8.529,8,8.529h7.2s-10.661-7.2-11.728-10.395,2.932-6.664,3.974-7.492a64.437,64.437,0,0,1,11.646-14.914,4.886,4.886,0,0,1,6.6,0,64.436,64.436,0,0,1,11.646,14.914c1.041.828,5.04,4.293,3.974,7.492s-10.619,10.344-10.619,10.344l6.088.051s7.729-4.265,8-8.529S622.609,209.724,620.477,204.128Z" transform="translate(-563.506 -196.664)"/><path class="t" d="M627.491,282.285a5.176,5.176,0,1,0-5.478,4.857A5.177,5.177,0,0,0,627.491,282.285Z" transform="translate(-556.222 -179.087)"/><path class="ad" d="M622.291,262.1v22.257s-12.569,4.7-14.364,4.452-1.8-19.784-1.8-19.784l2.308-5.935Z" transform="translate(-558.639 -182.311)"/><path class="ad" d="M586.292,262.1v22.257s12.569,4.7,14.365,4.452,1.795-19.784,1.795-19.784l-2.308-5.935Z" transform="translate(-562.99 -182.311)"/><path class="q" d="M592.281,341.191l.988,9.15S584,365.689,580.347,366.059s-2.079-6.1,0-9.061,6.17-9.163,6.17-9.163l1.56-6.643Z" transform="translate(-564.775 -164.962)"/><path class="q" d="M613.085,341.191l-.989,9.15s9.269,15.348,12.923,15.717,2.079-6.1,0-9.061-6.17-9.163-6.17-9.163l-1.561-6.643Z" transform="translate(-557.33 -164.962)"/><g transform="translate(10.603 82.118)"><path class="f" d="M585.6,290.249h47a3.835,3.835,0,0,0,3.734-2.962l3.971-16.989a5.34,5.34,0,0,0-5.3-6.288l-53.831.41a5.34,5.34,0,0,0-5.2,6.367l6.013,16.911A3.836,3.836,0,0,0,585.6,290.249Z" transform="translate(-575.878 -264.01)"/><path class="ae" d="M614.355,264.139l-33.175.252a5.34,5.34,0,0,0-5.2,6.367l6.013,16.911a3.836,3.836,0,0,0,3.613,2.551h8.434Z" transform="translate(-575.878 -263.982)"/><ellipse class="l" cx="4.733" cy="4.369" rx="4.733" ry="4.369" transform="translate(26.977 10.957)"/></g></g><path class="af" d="M914.5,358.909c0,4.09-116.564,7.406-260.353,7.406S393.8,363,393.8,358.909,510.36,351.5,654.15,351.5,914.5,354.819,914.5,358.909Z" transform="translate(-237.391 71.971)"/><path class="j" d="M847.291,362.094c0,5.693,1.3,10.307-15.472,10.307-15.8,0-15.474-4.614-15.474-10.307s9.249-3.869,16.671-8.1C842.6,348.526,847.291,356.4,847.291,362.094Z" transform="translate(-144.704 72.112)"/><path class="ag" d="M802.885,364.014c0,4.352-.995,7.881,11.831,7.881,12.083,0,11.831-3.529,11.831-7.881s-7.071-2.959-12.747-6.2C806.471,353.638,802.885,359.661,802.885,364.014Z" transform="translate(-147.661 73.047)"/></g></g></svg>