<svg id="Layer_1" data-name="Layer 1" xmlns="http://www.w3.org/2000/svg" viewBox="0 0 102.47 43.67"><defs><style>.cls-1{fill:#848b95;}.cls-2{fill:none;stroke:#e84b54;stroke-linecap:round;stroke-linejoin:round;stroke-width:0.75px;}.cls-3{fill:#e84b54;}</style></defs><path class="cls-1" d="M32.84,9.94V30.21H30.78v-17l-7,17H21.91l-7-16.92V30.21H12.78V9.94h2.44l7.63,17.71L30.43,9.94Z"/><path class="cls-1" d="M67.32,28.48H78.1v1.73H65V28.56L75.57,11.23H65.32V9.5H77.89v1.68Z"/><path class="cls-1" d="M85,11.18V19h8.08V20.6H85v7.91h9v1.7h-11V9.5H94v1.68Z"/><polygon class="cls-2" points="52.08 16.55 60.21 22.67 50.84 26.66 41.47 30.64 42.71 20.53 43.94 10.43 52.08 16.55"/><circle class="cls-3" cx="44.13" cy="10.63" r="1.91"/><circle class="cls-3" cx="41.78" cy="30.16" r="1.91"/><circle class="cls-3" cx="60.43" cy="22.67" r="1.91"/></svg>