<svg xmlns="http://www.w3.org/2000/svg" width="126.066" height="126.066" viewBox="0 0 126.066 126.066"><defs><style>.a{fill:#67717d;}.b{fill:#e94b54;}</style></defs><g transform="translate(-1081.54 -3073)"><path class="a" d="M54.885,23.2a2.035,2.035,0,0,0-.081,4.069A26.92,26.92,0,0,1,81.268,53.733,2.023,2.023,0,0,0,83.3,55.727h.041a2.032,2.032,0,0,0,1.994-2.075A30.974,30.974,0,0,0,54.885,23.2Z" transform="translate(1095.561 3076.494)"/><path class="a" d="M54.49,30.14h-.109a2.035,2.035,0,0,0,.014,4.069h.014A17.553,17.553,0,0,1,72.042,51.843a2.041,2.041,0,0,0,2.021,2.048h.014a2.029,2.029,0,0,0,2.035-2.021A21.628,21.628,0,0,0,54.49,30.14Z" transform="translate(1095.401 3078.968)"/><path class="a" d="M53.8,37.168a2.033,2.033,0,0,0,.285,4.056,8.038,8.038,0,0,1,8.6,8.6,2.034,2.034,0,0,0,1.885,2.17h.149a2.043,2.043,0,0,0,2.035-1.9A12.083,12.083,0,0,0,53.8,37.168Z" transform="translate(1095.239 3081.462)"/><path class="a" d="M53.743,81.278A26.92,26.92,0,0,1,27.279,54.814,2.087,2.087,0,0,0,25.2,52.82,2.032,2.032,0,0,0,23.21,54.9,31,31,0,0,0,53.675,85.361h.041a2.032,2.032,0,0,0,2.035-1.994A2.074,2.074,0,0,0,53.743,81.278Z" transform="translate(1085.011 3087.052)"/><path class="a" d="M51.843,72.032h0A17.2,17.2,0,0,1,39.35,66.891,17.462,17.462,0,0,1,34.209,54.4a2.041,2.041,0,0,0-2.021-2.048h-.014a2.029,2.029,0,0,0-2.035,2.021,21.582,21.582,0,0,0,21.608,21.7h.109a2.021,2.021,0,1,0-.014-4.042Z" transform="translate(1087.481 3086.884)"/><path class="a" d="M49.823,62.681a8.038,8.038,0,0,1-8.6-8.6,2.033,2.033,0,1,0-4.056-.285A12.095,12.095,0,0,0,49.254,66.764c.285,0,.57-.014.855-.027a2.033,2.033,0,1,0-.285-4.056Z" transform="translate(1089.975 3086.726)"/><path class="a" d="M46.41,46.41a8.076,8.076,0,1,0,11.421,0A8.089,8.089,0,0,0,46.41,46.41Zm8.545,8.545a3.988,3.988,0,1,1,.014-5.656A4,4,0,0,1,54.956,54.956Z" transform="translate(1092.439 3083.926)"/><path class="b" d="M122.811,58.482A56.443,56.443,0,0,0,112.04,32.52a8.209,8.209,0,0,0-.9-10.539h0a8.209,8.209,0,0,0-10.539-.9,56.588,56.588,0,0,0-25.962-10.77,8.206,8.206,0,0,0-16.169,0A56.507,56.507,0,0,0,32.513,21.072,8.193,8.193,0,0,0,21.092,32.493,56.567,56.567,0,0,0,10.336,58.455a8.206,8.206,0,0,0,0,16.169,56.443,56.443,0,0,0,10.77,25.962A8.2,8.2,0,0,0,32.54,112.02,56.733,56.733,0,0,0,58.5,122.791a8.206,8.206,0,0,0,16.169,0,56.507,56.507,0,0,0,25.962-10.756,8.193,8.193,0,0,0,11.421-11.421,56.567,56.567,0,0,0,10.756-25.962,8.206,8.206,0,0,0,0-16.169ZM108.27,24.857h0a4.132,4.132,0,0,1,.122,5.738l-.312.271a4.12,4.12,0,0,1-5.819-5.819h0l.231-.271a4.107,4.107,0,0,1,2.835-1.139A4.192,4.192,0,0,1,108.27,24.857ZM66.56,7.589A4.132,4.132,0,0,1,70.7,11.564l-.027.407a4.131,4.131,0,0,1-4.11,3.907,3.907,3.907,0,0,1-.8-.081,3.294,3.294,0,0,1-.651-.19,4.163,4.163,0,0,1-2.659-3.649l-.014-.353A4.117,4.117,0,0,1,66.56,7.589ZM24.849,24.857a4.127,4.127,0,0,1,2.93-1.221,4.065,4.065,0,0,1,2.808,1.1l.271.312a4.12,4.12,0,0,1-5.819,5.819l-.271-.244a4.107,4.107,0,0,1-1.139-2.835A4.184,4.184,0,0,1,24.849,24.857ZM7.582,66.567a4.132,4.132,0,0,1,3.974-4.137l.407.027a4.131,4.131,0,0,1,3.907,4.11,3.907,3.907,0,0,1-.081.8,3.294,3.294,0,0,1-.19.651,4.163,4.163,0,0,1-3.649,2.659l-.353.014A4.117,4.117,0,0,1,7.582,66.567Zm17.267,41.71a4.132,4.132,0,0,1-.122-5.738l.312-.271a3.984,3.984,0,0,1,.638-.461,2.711,2.711,0,0,1,.285-.136c.136-.068.271-.136.407-.19a2.675,2.675,0,0,1,.353-.095,1.947,1.947,0,0,1,.38-.095,1.668,1.668,0,0,1,.366-.027,3.331,3.331,0,0,1,.38-.027c.163,0,.326.027.5.041.095.014.19.014.271.027.176.041.339.095.515.149a1.718,1.718,0,0,1,.244.081,4.715,4.715,0,0,1,.515.271c.068.041.136.068.19.109a5.737,5.737,0,0,1,.556.448c.027.027.054.041.081.068a4.073,4.073,0,0,1,.827,1.207,4.135,4.135,0,0,1-.678,4.476h0l-.231.258A4.293,4.293,0,0,1,24.849,108.277Zm41.71,17.267a4.132,4.132,0,0,1-4.137-3.974l.027-.407a4.115,4.115,0,0,1,8.22,0l.014.353A4.12,4.12,0,0,1,66.56,125.544Zm41.71-17.267a4.132,4.132,0,0,1-5.738.122l-.271-.312a4.124,4.124,0,0,1,.149-5.67,4.5,4.5,0,0,1,.624-.515,1.437,1.437,0,0,1,.285-.149,2.966,2.966,0,0,1,.407-.217c.109-.041.231-.068.353-.109a3.563,3.563,0,0,1,.407-.122,3.361,3.361,0,0,1,.366-.041c.136-.014.271-.041.407-.041s.3.014.461.027c.095.014.19.014.3.027a2.56,2.56,0,0,1,.461.122c.095.027.176.041.271.068a3.067,3.067,0,0,1,.475.231c.068.041.149.068.217.109a3.537,3.537,0,0,1,.638.475l.285.258a4.13,4.13,0,0,1-.095,5.738ZM108.975,98c-.19-.095-.38-.149-.583-.231-.149-.054-.3-.136-.448-.176a11.059,11.059,0,0,0-1.153-.3c-.068-.014-.149-.041-.217-.054a9.487,9.487,0,0,0-1.384-.095c-.149,0-.3.027-.448.041-.326.027-.638.054-.95.109-.176.027-.339.081-.515.122-.3.081-.583.163-.868.271-.163.068-.326.122-.488.2a8.557,8.557,0,0,0-.855.461,3.827,3.827,0,0,0-.393.244,8.183,8.183,0,0,0-1.139.936,7.465,7.465,0,0,0-.936,1.139c-.095.136-.163.271-.244.393a8.784,8.784,0,0,0-.461.855l-.2.488a6.437,6.437,0,0,0-.271.868c-.041.176-.081.339-.122.515a7.329,7.329,0,0,0-.109.936c-.014.149-.027.3-.041.461a7.668,7.668,0,0,0,.081,1.37c.014.095.054.19.068.3a7.294,7.294,0,0,0,.271,1.072c.054.176.136.339.2.5s.136.366.217.543a52.471,52.471,0,0,1-23.67,9.807.229.229,0,0,1-.027-.068,8.491,8.491,0,0,0-.434-1.017c-.041-.068-.068-.136-.109-.2a6.956,6.956,0,0,0-.6-.95l-.041-.041a8.384,8.384,0,0,0-.705-.827l-.149-.149a6.878,6.878,0,0,0-.827-.705c-.054-.041-.122-.081-.176-.122a8.764,8.764,0,0,0-.963-.6c-.014,0-.014-.014-.027-.014a6.9,6.9,0,0,0-1.031-.434,1.194,1.194,0,0,0-.2-.068,9.759,9.759,0,0,0-1.085-.271,1.186,1.186,0,0,0-.217-.027,7.551,7.551,0,0,0-2.387,0c-.068.014-.149.014-.217.027a7.469,7.469,0,0,0-1.085.271c-.068.027-.136.041-.2.068a8.689,8.689,0,0,0-1.031.434c-.014,0-.014.014-.027.014a7.647,7.647,0,0,0-.963.6l-.163.122a7.122,7.122,0,0,0-.841.719.879.879,0,0,0-.109.122,7.622,7.622,0,0,0-.746.868v.014a9.35,9.35,0,0,0-.624.99c-.027.054-.054.095-.081.149a6.848,6.848,0,0,0-.448,1.072c0,.014-.014.027-.014.041a52.291,52.291,0,0,1-23.656-9.821,5.2,5.2,0,0,0,.231-.583c.054-.149.122-.285.176-.434a7.317,7.317,0,0,0,.3-1.194c.014-.054.027-.122.041-.176a9.673,9.673,0,0,0,.095-1.4c0-.136-.027-.271-.027-.42a8.224,8.224,0,0,0-.122-.99,3.213,3.213,0,0,0-.122-.488c-.081-.3-.163-.583-.271-.882-.068-.163-.122-.326-.19-.488-.136-.3-.3-.583-.461-.868a3.831,3.831,0,0,0-.244-.393,8.185,8.185,0,0,0-.936-1.139h0a7.465,7.465,0,0,0-1.139-.936c-.136-.095-.271-.163-.407-.244a7.446,7.446,0,0,0-.855-.461l-.488-.2a6.437,6.437,0,0,0-.868-.271c-.176-.041-.339-.081-.515-.122a7.262,7.262,0,0,0-.949-.109l-.448-.041a7.9,7.9,0,0,0-1.384.081,2.167,2.167,0,0,0-.285.068,7.47,7.47,0,0,0-1.085.271c-.176.054-.339.136-.5.2s-.366.136-.543.217A52.718,52.718,0,0,1,14.31,74.312c.027-.014.041-.014.068-.027a8.49,8.49,0,0,0,1.017-.434c.068-.041.136-.068.2-.109a6.956,6.956,0,0,0,.949-.6c.014-.014.041-.027.054-.041a7.977,7.977,0,0,0,.814-.705,1.484,1.484,0,0,1,.149-.136,8.124,8.124,0,0,0,.705-.827c.041-.054.081-.122.122-.176a8.763,8.763,0,0,0,.6-.963c0-.014.014-.027.014-.041a8.492,8.492,0,0,0,.434-1.017,1.194,1.194,0,0,0,.068-.2,9.759,9.759,0,0,0,.271-1.085,1.187,1.187,0,0,0,.027-.217,7.55,7.55,0,0,0,0-2.387c-.014-.068-.014-.149-.027-.217a7.468,7.468,0,0,0-.271-1.085c-.027-.068-.041-.136-.068-.2A6.746,6.746,0,0,0,19,62.823c0-.014-.014-.027-.014-.041a8.763,8.763,0,0,0-.6-.963c-.041-.054-.081-.122-.122-.176a10.311,10.311,0,0,0-.705-.827,1.486,1.486,0,0,0-.149-.136,10.11,10.11,0,0,0-.814-.705c-.014-.014-.041-.027-.054-.041a8.585,8.585,0,0,0-.949-.6c-.068-.041-.136-.068-.2-.109a8.493,8.493,0,0,0-1.017-.434c-.027-.014-.041-.014-.068-.027A52.533,52.533,0,0,1,24.117,35.1a4.945,4.945,0,0,0,.475.19l.488.2a7.318,7.318,0,0,0,.9.244c.149.027.3.081.434.109a8.125,8.125,0,0,0,1.289.109h.068a8.305,8.305,0,0,0,1.424-.136c.149-.027.285-.068.434-.095q.488-.122.977-.285a4.685,4.685,0,0,0,.461-.19,8.284,8.284,0,0,0,.909-.475,3.828,3.828,0,0,0,.393-.244,8.7,8.7,0,0,0,1.167-.95,7.465,7.465,0,0,0,.936-1.139c.095-.136.163-.271.244-.393a8.783,8.783,0,0,0,.461-.855l.2-.488a7.106,7.106,0,0,0,.271-.868c.041-.163.081-.326.122-.5q.081-.488.122-.977c.014-.136.027-.285.027-.42a6.918,6.918,0,0,0-.095-1.4c-.014-.054-.027-.109-.041-.176a9.033,9.033,0,0,0-.3-1.194c-.054-.149-.122-.3-.176-.448-.081-.19-.136-.393-.231-.583a52.533,52.533,0,0,1,23.67-9.807c.014.027.014.041.027.068a8.492,8.492,0,0,0,.434,1.017c.041.068.068.136.109.2a6.957,6.957,0,0,0,.6.949c.014.014.027.041.041.054a7.977,7.977,0,0,0,.705.814,1.486,1.486,0,0,1,.136.149,8.122,8.122,0,0,0,.827.705c.054.041.122.081.176.122a8.763,8.763,0,0,0,.963.6c.014,0,.027.014.041.014a8.492,8.492,0,0,0,1.017.434,1.194,1.194,0,0,0,.2.068,9.759,9.759,0,0,0,1.085.271,1.187,1.187,0,0,0,.217.027,7.55,7.55,0,0,0,2.387,0c.068-.014.149-.014.217-.027a7.468,7.468,0,0,0,1.085-.271c.068-.027.136-.041.2-.068a8.692,8.692,0,0,0,1.031-.434c.014,0,.014-.014.027-.014a7.647,7.647,0,0,0,.963-.6l.163-.122a7.122,7.122,0,0,0,.841-.719.878.878,0,0,0,.109-.122,7.621,7.621,0,0,0,.746-.868v-.014a9.347,9.347,0,0,0,.624-.99c.027-.054.054-.095.081-.149a6.849,6.849,0,0,0,.448-1.072c0-.014.014-.027.014-.041A52.291,52.291,0,0,1,97.92,24.138a5.2,5.2,0,0,0-.231.583c-.054.149-.122.285-.176.434a7.318,7.318,0,0,0-.3,1.194c-.014.054-.027.122-.041.176a9.672,9.672,0,0,0-.095,1.4c0,.136.027.271.027.407a8.222,8.222,0,0,0,.122.99,3.213,3.213,0,0,0,.122.488c.081.3.163.6.271.882.068.163.122.326.19.475.136.3.3.583.461.868.081.136.149.271.231.393a8.184,8.184,0,0,0,.936,1.139,7.609,7.609,0,0,0,1.167.95c.136.095.271.163.393.244a8.283,8.283,0,0,0,.909.475c.163.068.312.136.475.19a7.851,7.851,0,0,0,.963.285c.149.041.285.081.434.109a8.437,8.437,0,0,0,1.424.136h.014c.041,0,.081-.014.136-.014a7.424,7.424,0,0,0,1.221-.109c.163-.027.326-.081.488-.109a8.528,8.528,0,0,0,.841-.231c.176-.068.353-.136.543-.217.149-.068.3-.109.448-.176a52.718,52.718,0,0,1,9.821,23.656c-.027.014-.041.014-.068.027a8.493,8.493,0,0,0-1.017.434c-.068.041-.136.068-.2.109a6.956,6.956,0,0,0-.949.6c-.014.014-.041.027-.054.041a7.975,7.975,0,0,0-.814.705,1.483,1.483,0,0,1-.149.136,8.122,8.122,0,0,0-.705.827c-.041.054-.081.122-.122.176a8.763,8.763,0,0,0-.6.963c0,.014-.014.027-.014.041a8.488,8.488,0,0,0-.434,1.017,1.2,1.2,0,0,0-.068.2,9.759,9.759,0,0,0-.271,1.085,1.186,1.186,0,0,0-.027.217,7.55,7.55,0,0,0,0,2.387c.014.068.014.149.027.217a7.467,7.467,0,0,0,.271,1.085c.027.068.041.136.068.2a8.687,8.687,0,0,0,.434,1.031c0,.014.014.014.014.027a7.646,7.646,0,0,0,.6.963l.122.163a7.123,7.123,0,0,0,.719.841.878.878,0,0,0,.122.109,7.621,7.621,0,0,0,.868.746h.014a9.349,9.349,0,0,0,.99.624c.054.027.095.054.149.081a6.849,6.849,0,0,0,1.072.448c.014,0,.027.014.041.014A51.691,51.691,0,0,1,108.975,98ZM121.563,70.7l-.407-.027a4.131,4.131,0,0,1-3.906-4.11,3.907,3.907,0,0,1,.081-.8,3.3,3.3,0,0,1,.19-.651,4.163,4.163,0,0,1,3.649-2.659l.38-.027a4.14,4.14,0,0,1,.014,8.274Z" transform="translate(1078 3069.48)"/></g></svg>