<svg xmlns="http://www.w3.org/2000/svg" width="92.079" height="92.079" viewBox="0 0 92.079 92.079"><defs><style>.a{fill:#f0f0f0;}.b{fill:#e6e6e6;}.c{fill:#0b1c21;}.d{fill:#fff;}.e{fill:#fd8369;}.f{fill:#fece66;}.g{fill:#8fdef6;}</style></defs><g transform="translate(-811.653 -493.681)"><path class="a" d="M46.039,0A46.039,46.039,0,1,1,0,46.039,46.039,46.039,0,0,1,46.039,0Z" transform="translate(811.653 585.759) rotate(-90)"/><path class="b" d="M858.854,493.5l-.012-.017-.025-.027a1.788,1.788,0,0,0-1.236-.5H810.653a1.776,1.776,0,0,0-1.782,1.782v36.83a1.776,1.776,0,0,0,.516,1.26l26.323,26.326a46.021,46.021,0,0,0,44.4-44.4Z" transform="translate(23.576 26.562)"/><g transform="translate(829.443 517.523)"><path class="c" d="M864.872,529.418a1.983,1.983,0,0,1-1.979,1.979H810.848a1.983,1.983,0,0,1-1.979-1.979V496.674h56Z" transform="translate(-808.869 -486.595)"/><path class="d" d="M864.872,503.04h-56v-8.1a1.979,1.979,0,0,1,1.979-1.976h52.046a1.979,1.979,0,0,1,1.979,1.976Z" transform="translate(-808.869 -492.961)"/><g transform="translate(13.572 17.199)"><path class="d" d="M820.936,514.6l-7.067-7.067,7.067-7.067,1.861,1.863-5.2,5.2,5.2,5.2Z" transform="translate(-813.869 -497.292)"/><path class="d" d="M823.074,514.6l-1.864-1.866,5.2-5.2-5.2-5.2,1.864-1.863,7.067,7.067Z" transform="translate(-801.282 -497.292)"/><rect class="d" width="20.545" height="2.634" transform="translate(10.351 19.761) rotate(-74.114)"/></g><g transform="translate(3.295 3.393)"><path class="e" d="M813.378,495.856a1.648,1.648,0,1,1-1.648-1.645A1.648,1.648,0,0,1,813.378,495.856Z" transform="translate(-810.083 -494.211)"/><path class="f" d="M815.2,495.856a1.648,1.648,0,1,1-1.645-1.645A1.646,1.646,0,0,1,815.2,495.856Z" transform="translate(-806.963 -494.211)"/><path class="g" d="M817.018,495.856a1.646,1.646,0,1,1-1.648-1.645A1.648,1.648,0,0,1,817.018,495.856Z" transform="translate(-803.839 -494.211)"/></g></g></g></svg>