<svg xmlns="http://www.w3.org/2000/svg" width="121.819" height="112.682" viewBox="0 0 121.819 112.682"><defs><style>.a{fill:#67717d;}.b{fill:#e94b54;}</style></defs><path class="a" d="M68.273,99.218A53.485,53.485,0,0,1,19.241,66.936l8.832,3.5,1.066-2.893-13.248-5.33L9.8,74.093l2.741,1.37L16.348,68a56.6,56.6,0,0,0,51.925,34.262,56.063,56.063,0,0,0,54.971-43.855L120.2,57.8A52.857,52.857,0,0,1,68.273,99.218Z" transform="translate(-9.8 10.419)"/><path class="b" d="M67.541,16.045a53.072,53.072,0,0,1,52.23,42.789L112.614,52.9l-1.98,2.284,10.2,8.527,10.05-10.05-2.132-2.132-6.243,6.243A55.723,55.723,0,0,0,67.541,13,56.409,56.409,0,0,0,11.2,69.341h3.045A53.354,53.354,0,0,1,67.541,16.045Z" transform="translate(-9.068 -13)"/><path class="b" d="M43.316,45.63V71.212h3.045V45.63L55.5,53.852l2.132-2.284L44.839,40.3,32.2,51.568l1.98,2.284Z" transform="translate(1.909 1.271)"/><path class="a" d="M47.4,61.243,60.039,72.512,72.83,61.243,70.7,58.959l-9.136,8.223V41.6H58.516V67.182L49.38,58.959Z" transform="translate(9.855 1.95)"/><path class="b" d="M29.723,33A1.439,1.439,0,0,0,28.2,34.523V86.6a1.439,1.439,0,0,0,1.523,1.523H87.587A1.439,1.439,0,0,0,89.109,86.6V34.523A1.439,1.439,0,0,0,87.587,33ZM86.064,85.078H31.245V36.045H86.064Z" transform="translate(-0.182 -2.545)"/></svg>