<svg xmlns="http://www.w3.org/2000/svg" width="93.998" height="94" viewBox="0 0 93.998 94"><defs><style>.a{fill:#24ebd4;}.b{fill:#14c7b3;}.c{fill:#fff;}</style></defs><g transform="translate(-284 -3452)"><path class="a" d="M300.927,274.546a47,47,0,1,1-47-47A47,47,0,0,1,300.927,274.546Z" transform="translate(77.071 3224.452)"/><path class="b" d="M266.405,248.793a3.377,3.377,0,0,0-4.265-.737,3.322,3.322,0,0,0-.772.612l-1.811-1.047-.345.6-1.544-1.689-1.889-1.087-.345.6-1.544-1.691L252,243.261l-.235.412c-.107-.122-7.77-7.783-7.9-7.9a3.38,3.38,0,0,0-5.812,3.163l-1.811,1.047.775,1.339,4.133,4.2h-.632v1.8l-6.164-6.246-1.889,1.087.775,1.342,7.278,7.351v1.214l.8.782h-.025a10.964,10.964,0,0,0-1.149.057l-9.567-9.652-1.889,1.087.777,1.342,7.905,7.888a11.031,11.031,0,0,0-1.724.825l-8.847-8.96-1.886,1.087.772,1.342,8.088,7.918a11.081,11.081,0,0,0-1.254,1.354l-9.492-9.522-1.816,1.047a3.38,3.38,0,0,0-5.389,4.005c.192.332,2.046,2.191,2.154,2.289v1.4l14.164,13.982c.065.092,1.039,1.3,1.472,1.712.122.13,7.048,7.058,7.181,7.181s-.385-.125-.385-.125l-.122.073-9.707-9.9-.372.215L219.52,258.547h-1.549v2.181l18.487,18.482-.687-.052-16.25-16.25h-1.549v2.181l7.446,7.181-.507.292.217.377-5.607-5.669h-1.549v2.181l4.537,4.5-.57.33-2.419-2.648h-1.549v2.091a3.384,3.384,0,0,0-2.154,4.982c.145.252,20.7,20.84,31.716,31.869a47,47,0,0,0,40.329-40.331C280.592,262.96,266.505,248.878,266.405,248.793Z" transform="translate(89.71 3235.001)"/><g transform="translate(303.945 3471.752)"><path class="c" d="M54.14,12.582c0-.023,0-.047-.009-.069a.736.736,0,0,0-.072-.175.573.573,0,0,0-.039-.052.731.731,0,0,0-.077-.1c-.017-.018-.039-.03-.058-.046a.725.725,0,0,0-.09-.071l-.005,0,0,0L47.634,8.539a.737.737,0,0,0-.732,0l-6.155,3.524,0,0-.005,0a.726.726,0,0,0-.09.071.528.528,0,0,0-.058.045.731.731,0,0,0-.077.1c-.012.018-.028.032-.038.051a.738.738,0,0,0-.072.175c-.006.021-.005.045-.009.066a.723.723,0,0,0-.016.122v1.5L34.9,10.774a.72.72,0,0,0,.015-.112V4.508a.723.723,0,0,0-.016-.12c0-.023,0-.047-.009-.069a.736.736,0,0,0-.072-.175.744.744,0,0,0-.048-.063.729.729,0,0,0-.068-.089.752.752,0,0,0-.07-.055.723.723,0,0,0-.079-.062h0l0-.006L28.393.345a.737.737,0,0,0-.732,0L21.505,3.869l-.005,0h0a.723.723,0,0,0-.08.062.75.75,0,0,0-.069.054.73.73,0,0,0-.069.09.748.748,0,0,0-.047.062.736.736,0,0,0-.072.175c-.006.021-.005.045-.009.066a.723.723,0,0,0-.016.122v6.156a.721.721,0,0,0,.015.112L15.677,14.2V12.7a.723.723,0,0,0-.016-.12c0-.023,0-.047-.009-.069a.736.736,0,0,0-.072-.175.576.576,0,0,0-.039-.052.731.731,0,0,0-.077-.1c-.017-.018-.039-.03-.058-.046a.724.724,0,0,0-.09-.071l-.005,0,0,0L9.154,8.539a.737.737,0,0,0-.732,0L2.268,12.064l0,0-.005,0a.726.726,0,0,0-.09.071.528.528,0,0,0-.058.045.73.73,0,0,0-.077.1c-.012.018-.028.032-.038.051a.738.738,0,0,0-.072.175c-.006.021-.005.045-.009.066A.723.723,0,0,0,1.9,12.7v6.154a.736.736,0,0,0,.383.646l5.77,3.151v8.431L2.268,34.4l0,0-.005,0a.725.725,0,0,0-.09.071.528.528,0,0,0-.058.045.73.73,0,0,0-.077.1c-.012.018-.028.032-.038.051a.738.738,0,0,0-.072.175c-.006.021-.005.045-.009.066a.723.723,0,0,0-.016.122v6.154a.736.736,0,0,0,.384.646l6.153,3.359a.725.725,0,0,0,.107.042.622.622,0,0,0,.058.023.712.712,0,0,0,.374,0c.02-.005.039-.016.058-.023a.725.725,0,0,0,.107-.042l5.225-2.852,6.774,4.51V49.9a.736.736,0,0,0,.383.646l6.153,3.359a.725.725,0,0,0,.107.042.622.622,0,0,0,.058.023.712.712,0,0,0,.374,0c.02-.005.039-.016.058-.023a.725.725,0,0,0,.107-.042l6.152-3.36a.736.736,0,0,0,.383-.646V46.851l6.774-4.51,5.225,2.852a.725.725,0,0,0,.107.042.623.623,0,0,0,.058.023.712.712,0,0,0,.374,0c.02-.005.039-.016.058-.023a.725.725,0,0,0,.107-.042l6.151-3.358a.736.736,0,0,0,.383-.646V35.036a.723.723,0,0,0-.016-.12c0-.023,0-.047-.009-.069a.736.736,0,0,0-.072-.175.578.578,0,0,0-.039-.052.732.732,0,0,0-.077-.1c-.017-.018-.039-.03-.058-.046a.724.724,0,0,0-.09-.071l-.005,0,0,0L48,31.085V22.653l5.77-3.15a.736.736,0,0,0,.383-.646V12.7a.724.724,0,0,0-.015-.12ZM32.483,43.838,28.027,46.27,23.57,43.838l-.188-.1,4.645-2.66,4.645,2.658ZM14.2,18.419,9.523,20.974V16.5L14.2,13.944ZM8.787,32.36l4.645,2.66-.188.1L8.787,37.555,4.331,35.123l-.188-.1Zm6.092,1.792L9.523,31.084V22.653L14.4,19.99l6.735,4.383v5.372ZM22.61,10.225V5.749L27.29,8.306V12.78Zm10.834,0L28.763,12.78V8.306L33.444,5.75ZM28.027,21.3l4.645,2.66-.188.1-4.457,2.433L23.57,24.061l-.188-.1ZM22.61,25.215,27.29,27.77v4.477L22.61,29.69Zm6.153,2.555,4.681-2.555V29.69l-4.681,2.556Zm6.153-3.4,6.735-4.384,4.878,2.664v8.431l-5.355,3.067-6.258-4.406ZM46.529,16.5v4.475l-4.68-2.555V13.944Zm-4.68,24.254V36.276l4.681,2.555v4.475Zm9.874-5.63-4.457,2.433-4.457-2.433-.188-.1,4.645-2.66,4.645,2.66Zm-4.457-25.1,4.645,2.66-.188.1-4.457,2.433L42.809,12.79l-.188-.1ZM40.4,19.045l-6.246,4.066-5.393-3.088V14.458l4.94-2.7,6.673,4.179v2.916a.735.735,0,0,0,.026.189ZM28.027,1.833l4.645,2.66L28.23,6.917l-.2.111-.2-.111L23.382,4.493Zm-5.676,9.93,4.94,2.7v5.563L21.9,23.111l-6.246-4.066a.735.735,0,0,0,.026-.189V15.94ZM8.787,10.027l4.645,2.66-.188.1L8.787,15.223,4.331,12.79l-.188-.1ZM3.371,13.944,8.052,16.5v4.475L3.371,18.419Zm0,22.333,4.681,2.555v4.475L3.371,40.752Zm6.153,2.555,4.681-2.555v4.475L9.524,43.307Zm6.112,2.587a.729.729,0,0,0,.042-.23v-5.8l6.244-4.4,5.368,2.93V39.8l-5.785,3.312,0,0-.005,0a.726.726,0,0,0-.09.071.529.529,0,0,0-.058.045.73.73,0,0,0-.077.1c-.012.018-.028.032-.038.051a.738.738,0,0,0-.072.175c-.006.021-.005.045-.009.066a.723.723,0,0,0-.016.122v1.332Zm6.973,5.035V44.991l4.681,2.555v4.475L22.61,49.467Zm6.153,5.568V47.547l4.681-2.555v4.476Zm6.153-8.271a.723.723,0,0,0-.016-.12c0-.023,0-.047-.009-.069a.736.736,0,0,0-.072-.175.576.576,0,0,0-.039-.052.731.731,0,0,0-.077-.1c-.017-.018-.039-.03-.058-.046a.724.724,0,0,0-.09-.071l-.005,0,0,0L28.763,39.8V33.923l5.368-2.93,6.246,4.4v5.8a.729.729,0,0,0,.042.23l-5.5,3.663ZM48,43.307V38.832l4.681-2.555v4.476Zm0-22.333V16.5l4.681-2.555v4.475Z" transform="translate(0 0)"/></g></g></svg>