<svg xmlns="http://www.w3.org/2000/svg" width="89.521" height="89.521" viewBox="0 0 89.521 89.521"><defs><style>.a{fill:#8fdef6;}.b{fill:#70c9e9;}.c{fill:#fff;}.d{fill:#343b43;}.e{fill:#fece66;}</style></defs><g transform="translate(-856.027 -538.054)"><circle class="a" cx="44.76" cy="44.76" r="44.76" transform="translate(856.027 627.575) rotate(-90)"/><path class="b" d="M880.148,603.646a44.75,44.75,0,0,0,41.471-41.471l-19.884-19.881-4.3,1.442-.428-.424L891,537.3l-.033-.033a1.747,1.747,0,0,0-1.207-.493H856.479a1.741,1.741,0,0,0-1.734,1.735v33.278a1.742,1.742,0,0,0,.4,1.1l.231.229,5.92,5.92.416.419-1.444,4.309Z" transform="translate(23.807 23.806)"/><g transform="translate(878.552 560.579)"><path class="c" d="M.728,0h35.29a.729.729,0,0,1,.729.729V36.017a.729.729,0,0,1-.729.729H.728A.728.728,0,0,1,0,36.018V.728A.728.728,0,0,1,.728,0Z"/><g transform="translate(7.098 7.097)"><path class="d" d="M889.925,541.329h-2.037v-1.575h2.037Zm-4.076,0h-2.037v-1.575h2.037Zm-4.076,0h-2.037v-1.575h2.037Zm-4.074,0H875.66v-1.575H877.7Zm-4.076,0h-2.039v-1.575h2.039Zm-4.076,0h-2.039v-1.575h2.039Zm-4.076,0h-2.039v-1.575h2.039Zm-4.076,0h-2.039v-1.575h2.039Z" transform="translate(-855.481 -539.754)"/><path class="d" d="M859.3,571.951h-1.575v-2.037H859.3Zm0-4.074h-1.575v-2.04H859.3Zm0-4.079h-1.575v-2.037H859.3Zm0-4.076h-1.575v-2.039H859.3Zm0-4.076h-1.575v-2.037H859.3Zm0-4.074h-1.575v-2.037H859.3Zm0-4.079h-1.575v-2.034H859.3Zm0-4.076h-1.575v-2.034H859.3Z" transform="translate(-857.727 -537.507)"/><path class="d" d="M889.925,556.77h-2.037v-1.575h2.037Zm-4.076,0h-2.037v-1.575h2.037Zm-4.076,0h-2.037v-1.575h2.037Zm-4.074,0H875.66v-1.575H877.7Zm-4.076,0h-2.039v-1.575h2.039Zm-4.076,0h-2.039v-1.575h2.039Zm-4.076,0h-2.039v-1.575h2.039Zm-4.076,0h-2.039v-1.575h2.039Z" transform="translate(-855.481 -518.453)"/><path class="d" d="M874.744,571.951h-1.575v-2.037h1.575Zm0-4.074h-1.575v-2.04h1.575Zm0-4.079h-1.575v-2.037h1.575Zm0-4.076h-1.575v-2.037h1.575Zm0-4.076h-1.575v-2.037h1.575Zm0-4.074h-1.575v-2.037h1.575Zm0-4.079h-1.575v-2.034h1.575Zm0-4.076h-1.575v-2.034h1.575Z" transform="translate(-836.424 -537.507)"/></g><g transform="translate(5.525 5.522)"><path class="d" d="M861.79,543.818h-4.724v-4.726h4.724Zm-3.151-1.575h1.575v-1.575h-1.575Z" transform="translate(-857.066 -539.092)"/><path class="d" d="M877.23,543.818h-4.723v-4.726h4.723Zm-3.148-1.575h1.575v-1.575h-1.575Z" transform="translate(-835.764 -539.092)"/><path class="d" d="M861.79,559.26h-4.724v-4.726h4.724Zm-3.151-1.578h1.575v-1.575h-1.575Z" transform="translate(-857.066 -517.789)"/><path class="d" d="M877.23,559.26h-4.723v-4.726h4.723Zm-3.148-1.578h1.575v-1.575h-1.575Z" transform="translate(-835.764 -517.789)"/></g><g transform="translate(10.115 10.11)"><rect class="d" width="4.895" height="5.283" transform="translate(11.637 15.098) rotate(-44.98)"/><path class="e" d="M866.5,548.175a1.227,1.227,0,1,1-.347.347l-7.153-7.15,5.414,14.746,0,0a4.4,4.4,0,0,1,6.211,0l.01.009,3.462-3.46-.01-.01a4.393,4.393,0,0,1,0-6.211l0,0L859.34,541.02Z" transform="translate(-858.995 -541.02)"/><path class="d" d="M868.972,545.961a.828.828,0,0,1,0,1.166L865.1,551a.823.823,0,0,1-1.164,0h0a.827.827,0,0,1,0-1.164l3.876-3.869a.822.822,0,0,1,1.159,0Z" transform="translate(-852.508 -534.532)"/></g></g></g></svg>