<svg xmlns="http://www.w3.org/2000/svg" width="93.998" height="94" viewBox="0 0 93.998 94"><defs><style>.a{fill:#fece66;}.b{fill:#f5b540;}.c{fill:#343b43;}.d{fill:#70c9e9;}.e{fill:#8fdef6;}.f{fill:#fff;}</style></defs><g transform="translate(-602.561 -227.548)"><path class="a" d="M696.559,274.546a47,47,0,1,1-47-47A47,47,0,0,1,696.559,274.546Z" transform="translate(0 0)"/><path class="b" d="M679.025,271.638l-26.357-26.357L633.1,236.164l-19.563,9.117v16.758a29,29,0,0,0,7.6,19.616l25.1,25.1A47.058,47.058,0,0,0,679.025,271.638Z" transform="translate(16.454 12.911)"/><g transform="translate(629.99 249.075)"><path class="c" d="M633.107,236.164l-19.568,9.117v16.755a29.113,29.113,0,0,0,19.568,27.5,29.108,29.108,0,0,0,19.564-27.5V245.281Z" transform="translate(-613.539 -236.164)"/><path class="d" d="M621.371,237.814V283.07A25.385,25.385,0,0,0,637.2,259.564V245.187Z" transform="translate(-601.802 -233.691)"/><path class="e" d="M615.035,245.187v14.377a25.389,25.389,0,0,0,15.831,23.506V237.814Z" transform="translate(-611.297 -233.691)"/><g transform="translate(9.697 16.343)"><path class="f" d="M637.164,252.579a9.872,9.872,0,1,1-9.869-9.874A9.866,9.866,0,0,1,637.164,252.579Z" transform="translate(-617.42 -242.705)"/><g transform="translate(5.487 3.636)"><path class="c" d="M625.04,251.033h-2.081a3.342,3.342,0,0,1,0-6.684h4.512v1.831h-4.512a1.51,1.51,0,0,0,0,3.021h2.081Z" transform="translate(-619.616 -243.877)"/><path class="c" d="M624.492,252.972h-4.51v-1.831h4.51a1.509,1.509,0,1,0,0-3.018h-2.081v-1.831h2.081a3.341,3.341,0,1,1,0,6.681Z" transform="translate(-619.068 -240.967)"/><rect class="c" width="1.832" height="12.478" transform="translate(3.468)"/></g></g></g></g></svg>