<svg xmlns="http://www.w3.org/2000/svg" width="586.257" height="436.891" viewBox="0 0 586.257 436.891"><defs><style>.a{fill:#ebebeb;}.b{fill:#f0f0f0;}.c{fill:#f5f5f5;}.d{fill:#e6e6e6;}.e{fill:#e0e0e0;}.f{fill:#fafafa;}.g,.h{fill:#585858;}.h,.p{opacity:0.3;}.i{fill:#263238;}.j,.n,.x,.y{fill:#fff;}.k,.l,.m,.q{fill:#407bff;}.k,.n{opacity:0.4;}.m{opacity:0.1;}.o{fill:#ff9140;}.q{opacity:0.6;}.r{fill:#ff5652;}.s{fill:#ff8b7b;}.t,.w{opacity:0.2;}.u{fill:#ff407b;}.v{fill:#ff4065;}.x{opacity:0.5;}.y{opacity:0.7;}</style></defs><g transform="translate(0 0)"><rect class="a" width="586.257" height="0.293" transform="translate(0 383.94)"/><path class="a" d="M271.306,386.6H44.905a6.7,6.7,0,0,1-6.7-6.7V61.645a6.7,6.7,0,0,1,6.7-6.7H271.318a6.7,6.7,0,0,1,6.7,6.7V379.9A6.718,6.718,0,0,1,271.306,386.6ZM44.905,55.243a6.41,6.41,0,0,0-6.4,6.4V379.9a6.41,6.41,0,0,0,6.4,6.4H271.318a6.41,6.41,0,0,0,6.4-6.4V61.645a6.41,6.41,0,0,0-6.4-6.4Z" transform="translate(6.592 -54.95)"/><path class="a" d="M487.608,386.6H261.2a6.7,6.7,0,0,1-6.7-6.7V61.645a6.7,6.7,0,0,1,6.7-6.7H487.608a6.7,6.7,0,0,1,6.7,6.7V379.9A6.7,6.7,0,0,1,487.608,386.6ZM261.2,55.243a6.41,6.41,0,0,0-6.4,6.4V379.9a6.41,6.41,0,0,0,6.4,6.4H487.608a6.41,6.41,0,0,0,6.4-6.4V61.645a6.41,6.41,0,0,0-6.4-6.4Z" transform="translate(43.905 -54.95)"/><g transform="translate(61.51 391.925)"><rect class="a" width="30.485" height="0.293" transform="translate(143.023 3.178)"/><rect class="a" width="63.433" height="0.293"/><rect class="a" width="30.861" height="0.293" transform="translate(110.99 14.07)"/><rect class="a" width="45.529" height="0.293" transform="translate(241.268 12.1)"/><rect class="a" width="12.534" height="0.293" transform="translate(297.232 12.1)"/><rect class="a" width="63.972" height="0.293" transform="translate(402.044 7.152)"/></g><g transform="translate(82.451 31.355)"><g transform="translate(113.23 186.006)"><g transform="translate(7.129 9.052)"><rect class="b" width="53.525" height="147.116" transform="translate(297.515 147.124) rotate(180)"/><rect class="b" width="276.96" height="10.4" transform="translate(287.237 157.52) rotate(180)"/><rect class="c" width="243.989" height="147.116"/><rect class="b" width="244.927" height="53.854" transform="translate(0 9.966)"/><rect class="b" width="244.927" height="53.854" transform="translate(0 73.634)"/><rect class="d" width="9.263" height="53.854" transform="translate(253.248 63.805) rotate(180)"/><rect class="d" width="9.263" height="53.854" transform="translate(253.248 127.476) rotate(180)"/></g><rect class="b" width="251.117" height="9.052" transform="translate(251.117 9.057) rotate(180)"/><rect class="d" width="61.006" height="9.052" transform="translate(251.118)"/></g><g transform="translate(0 18.735)"><rect class="b" width="8.255" height="268.717" transform="translate(63.246 333.851) rotate(180)"/><path class="b" d="M116.264,418.139l-.223-1.149a6.541,6.541,0,0,0,3.9-3.412c2.146-3.8,3.447-11.9-2.521-28.879-9.193-26.159-3.705-47.276,7.234-89.346,1.9-7.328,4.069-15.63,6.308-24.6,8.407-33.616.633-54.463-5.616-71.219-4.854-13-8.677-23.274-3.775-35.175l1.079.446c-4.725,11.479-.973,21.551,3.787,34.32,6.3,16.908,14.141,37.943,5.652,71.91-2.24,8.97-4.4,17.283-6.308,24.611-10.881,41.835-16.333,62.835-7.258,88.654,6.144,17.459,4.69,25.9,2.392,29.911A7.561,7.561,0,0,1,116.264,418.139Z" transform="translate(-62.996 -86.165)"/><path class="b" d="M107.99,383.121h29.887l-8.313-4.9H116.3Z" transform="translate(-63.821 -49.271)"/><path class="c" d="M70.32,197.029H188.545l-13-99.359H83.323Z" transform="translate(-70.32 -97.67)"/></g><g transform="translate(147.346 40.979)"><path class="b" d="M219.88,196.38h63.128L274.7,247.912h-46.5Z" transform="translate(-191.864 -102.885)"/><path class="e" d="M249.363,218.089c17.213-6.226,30.4-15.583,15.653-34.507s-37.6-18.842-53.009-10.471c-19.628,10.682-15.7,41.566-15.7,41.566S232.151,224.316,249.363,218.089Z" transform="translate(-195.986 -107.828)"/><path class="d" d="M258.006,201.306c-13.167-8.958-22.512-19.346-7.223-30.3s34.12-5.335,45.447,4.831c14.434,12.968,6.109,35.727,6.109,35.727S271.185,210.264,258.006,201.306Z" transform="translate(-187.897 -108.292)"/><path class="b" d="M242.188,182.612c15.407-.938,28.328-4.948,21.035-21.645s-25.76-21.352-40.229-18.5c-18.444,3.646-22.794,26.722-22.794,26.722S226.781,183.55,242.188,182.612Z" transform="translate(-195.259 -112.321)"/><path class="a" d="M255,173.1c-12.816-4.116-22.864-10.306-13.1-22.829s26.382-12.476,37.99-6.93c14.8,7.059,13.484,27.5,13.484,27.5S267.819,177.218,255,173.1Z" transform="translate(-188.74 -112.65)"/><path class="c" d="M236.378,155.708c12.78,4.221,24.552,5.136,24.025-10.74s-13.976-25.619-26.628-27.976c-16.122-3-27.085,14.293-27.085,14.293S223.6,151.5,236.378,155.708Z" transform="translate(-194.14 -116.642)"/><path class="f" d="M261.853,147.853c-9.157.621-17.072-.762-14.047-11.151s13.554-14.551,22.3-13.965c11.151.739,15.466,14.012,15.466,14.012S271,147.232,261.853,147.853Z" transform="translate(-187.16 -115.599)"/></g></g></g><g transform="translate(65.79 410.345)"><ellipse class="c" cx="227.339" cy="13.273" rx="227.339" ry="13.273"/></g><g transform="translate(93.227 61.815)"><g transform="translate(0 168.162)"><rect class="g" width="398.362" height="14.293"/><rect class="h" width="106.617" height="14.293"/><path class="g" d="M173.255,263.28H163.98l4.854,179.137h8.841l4.866-179.137Z" transform="translate(-64.938 -248.987)"/><path class="h" d="M168.812,441.851h4.42V266.56l-9.122,1.665Z" transform="translate(-64.915 -248.421)"/><path class="g" d="M98.285,263.28H89.01l4.854,179.137H102.7l4.854-179.137Z" transform="translate(-77.871 -248.987)"/><path class="h" d="M93.844,441.851h4.42V266.56l-9.134,1.665Z" transform="translate(-77.85 -248.421)"/><path class="g" d="M403.215,263.28H393.94l4.866,179.137h8.829L412.5,263.28Z" transform="translate(-25.266 -248.987)"/><path class="h" d="M398.784,441.851h4.409V266.56l-9.122,1.665Z" transform="translate(-25.244 -248.421)"/><path class="g" d="M328.245,263.28H318.97l4.854,179.137h8.841l4.854-179.137Z" transform="translate(-38.2 -248.987)"/><path class="h" d="M323.8,441.851h4.42V266.56l-9.134,1.665Z" transform="translate(-38.179 -248.421)"/></g><g transform="translate(89.281 91.644)"><path class="i" d="M255.465,185.83H160.679a4.883,4.883,0,0,0-4.889,6.191l12.628,60.209a8.068,8.068,0,0,0,7.481,6.191h94.786a4.883,4.883,0,0,0,4.889-6.191l-12.628-60.209A8.054,8.054,0,0,0,255.465,185.83Z" transform="translate(-155.655 -185.83)"/><path class="j" d="M176.286,254.751a5.622,5.622,0,0,1-5.065-4.221l-12.628-60.209a2.761,2.761,0,0,1,.434-2.345,2.54,2.54,0,0,1,2.028-.856h94.786a5.622,5.622,0,0,1,5.065,4.221l12.628,60.209a2.8,2.8,0,0,1-.434,2.345,2.5,2.5,0,0,1-2.028.856Z" transform="translate(-155.163 -185.607)"/><path class="k" d="M236.427,249.5l-11.96-57.043a2.324,2.324,0,0,1,2.275-2.8h15.383a2.324,2.324,0,0,1,2.275,1.841l11.96,57.043a2.324,2.324,0,0,1-2.275,2.8H238.7A2.3,2.3,0,0,1,236.427,249.5Z" transform="translate(-143.793 -185.171)"/><g transform="translate(10.816 6.953)"><path class="l" d="M165.4,194.234l-.516-2.474h18.995l.516,2.474Z" transform="translate(-164.88 -191.76)"/><path class="a" d="M172.876,199.474,172.36,197h33.288l.528,2.474Z" transform="translate(-163.59 -190.856)"/><path class="a" d="M174.378,204.7l-.528-2.474h37.321l.516,2.474Z" transform="translate(-163.333 -189.954)"/><path class="a" d="M175.866,209.944l-.516-2.474h30.04l.528,2.474Z" transform="translate(-163.074 -189.05)"/></g><g transform="translate(16.585 35.328)"><path class="l" d="M170.328,218.434l-.528-2.474h12.018l.516,2.474Z" transform="translate(-169.8 -215.96)"/><path class="a" d="M177.8,223.664l-.516-2.474h14.645l.516,2.474Z" transform="translate(-168.51 -215.058)"/><path class="a" d="M193.276,223.664l-.516-2.474h14.633l.516,2.474Z" transform="translate(-165.839 -215.058)"/><path class="a" d="M179.3,228.9l-.516-2.474h49.48l.516,2.474Z" transform="translate(-168.251 -214.154)"/><path class="a" d="M180.786,234.134l-.516-2.474H218l.516,2.474Z" transform="translate(-167.994 -213.252)"/></g><path class="i" d="M297.608,247.42H172.9c-3.4,0-5.6,1.935-4.889,4.291H305.089C304.385,249.355,301.008,247.42,297.608,247.42Z" transform="translate(-153.547 -175.205)"/></g><g transform="translate(55.644)"><path class="m" d="M138.977,181.655l-11.96-57.043a2.324,2.324,0,0,1,2.275-2.8h96.85a2.324,2.324,0,0,1,2.275,1.841l11.96,57.043a2.324,2.324,0,0,1-2.275,2.8h-96.85A2.324,2.324,0,0,1,138.977,181.655Z" transform="translate(-126.967 -105.231)"/><g transform="translate(0.766)"><g transform="translate(21.492)"><g transform="translate(3.389 16.263)"><path class="l" d="M169.629,123.733H149.3l-.457-2.193h20.331Z" transform="translate(-148.84 -121.54)"/><path class="k" d="M165.018,126.713h-8.161l-.457-2.193h8.161Z" transform="translate(-147.536 -121.026)"/><path class="k" d="M177.247,126.713H164.677l-.457-2.193h12.569Z" transform="translate(-146.187 -121.026)"/><path class="k" d="M183.964,129.683H157.477l-.457-2.193h26.5Z" transform="translate(-147.429 -120.514)"/><path class="k" d="M180.492,132.651H158.1l-.457-2.181h22.4Z" transform="translate(-147.322 -119.999)"/></g><path class="k" d="M191.9,163.95H177.64l.457,2.181h14.258Z" transform="translate(-140.483 -97.961)"/><g transform="translate(12.3 59.013)"><path class="l" d="M177.78,160.181H156.9L156.44,158h20.882Z" transform="translate(-156.44 -158)"/><path class="k" d="M184.657,166.92H165.24l.457,2.193h19.417Z" transform="translate(-154.922 -156.461)"/><path class="k" d="M178.878,163.95H164.62l.457,2.181h14.258Z" transform="translate(-155.029 -156.974)"/><path class="k" d="M192.516,160.97H164l.457,2.193h28.516Z" transform="translate(-155.136 -157.488)"/></g><path class="l" d="M169.412,109.851h-23l-.457-2.181h23Z" transform="translate(-145.95 -107.67)"/><path class="k" d="M179.383,116.59H154.01l.457,2.193H179.84Z" transform="translate(-144.56 -106.131)"/><path class="k" d="M174.413,113.62H153.39l.457,2.181H174.87Z" transform="translate(-144.666 -106.644)"/><path class="k" d="M175.915,110.64H152.77l.457,2.193h23.145Z" transform="translate(-144.773 -107.158)"/><g transform="translate(6.754 32.408)"><path class="l" d="M168.16,137.5H152.167l-.457-2.193H167.7Z" transform="translate(-151.71 -135.31)"/><path class="k" d="M191.758,144.23H160.51l.457,2.193h31.248Z" transform="translate(-150.192 -133.771)"/><path class="k" d="M172.835,141.26H159.89l.457,2.181h12.945Z" transform="translate(-150.299 -134.284)"/><path class="k" d="M184.815,141.26H171.87l.457,2.181h12.945Z" transform="translate(-148.232 -134.284)"/><path class="k" d="M187.786,138.28H159.27l.457,2.193h28.5Z" transform="translate(-150.406 -134.798)"/><path class="k" d="M187.192,153.16H162.37l.457,2.181h24.822Z" transform="translate(-149.871 -132.231)"/><path class="k" d="M168.973,150.18H161.75l.457,2.193h7.223Z" transform="translate(-149.978 -132.745)"/><path class="k" d="M179.056,150.18H168.75l.457,2.193h10.306Z" transform="translate(-148.77 -132.745)"/><path class="k" d="M189.646,147.21H161.13l.457,2.181H190.1Z" transform="translate(-150.085 -133.257)"/></g></g><g transform="translate(79.59 24.928)"><g transform="translate(0 18.655)"><path class="k" d="M206.17,147.033H195.957l-.457-2.193h10.224Z" transform="translate(-195.5 -144.84)"/><path class="k" d="M221.482,147.033H205.747l-.457-2.193h15.735Z" transform="translate(-193.811 -144.84)"/><path class="k" d="M229.748,150.013h-33.17l-.457-2.193h33.17Z" transform="translate(-195.393 -144.326)"/><path class="k" d="M225.232,152.983H197.2l-.457-2.193h28.035Z" transform="translate(-195.286 -143.814)"/></g><g transform="translate(2.591)"><path class="k" d="M236.423,134.87H204.66l.457,2.193h31.763Z" transform="translate(-196.511 -127.905)"/><path class="k" d="M230.363,131.9H204.04l.457,2.193h26.311Z" transform="translate(-196.618 -128.418)"/><path class="l" d="M226.695,128.93H197.71l.457,2.181h28.985Z" transform="translate(-197.71 -128.93)"/></g><g transform="translate(3.365 34.8)"><path class="k" d="M238.725,164.56H199.61l.457,2.193h39.115Z" transform="translate(-198.156 -157.584)"/><path class="k" d="M215.194,161.58h-16.2l.457,2.193h16.2Z" transform="translate(-198.263 -158.098)"/><path class="k" d="M230.194,161.58h-16.2l.457,2.193h16.2Z" transform="translate(-195.675 -158.098)"/><path class="k" d="M234.061,158.61H198.37l.457,2.193h35.691Z" transform="translate(-198.37 -158.61)"/><path class="k" d="M232.542,173.48H201.47l.457,2.193H233Z" transform="translate(-197.835 -156.045)"/><path class="k" d="M209.89,170.51h-9.04l.457,2.181h9.04Z" transform="translate(-197.942 -156.557)"/><path class="k" d="M222.518,170.51h-12.9l.457,2.181h12.9Z" transform="translate(-196.429 -156.557)"/><path class="k" d="M235.921,167.53H200.23l.457,2.193h35.691Z" transform="translate(-198.049 -157.071)"/></g></g><g transform="translate(0 72.895)"><path class="k" d="M153.178,175.79H128.86l.457,2.193h24.318Z" transform="translate(-127.406 -168.814)"/><path class="k" d="M146.086,172.82H128.24L128.7,175h17.846Z" transform="translate(-127.513 -169.326)"/><path class="k" d="M162.4,172.82H144.54L145,175h17.846Z" transform="translate(-124.701 -169.326)"/><path class="k" d="M163.323,169.84h-35.7l.457,2.193h35.691Z" transform="translate(-127.62 -169.84)"/></g></g></g><g transform="translate(350.113 145.38)"><path class="l" d="M393.165,231.66H378.11l1.759,22.782h11.549Z" transform="translate(-378.11 -231.66)"/><path class="n" d="M393.165,231.66H378.11l1.759,22.782h11.549Z" transform="translate(-378.11 -231.66)"/></g><g transform="translate(29.688 119.221)"><path class="i" d="M112.217,218.17h21.645l-7.387,38.6H104.83Z" transform="translate(-104.83 -207.828)"/><path class="o" d="M139.137,209.35H108.57l8.559,48.941H147.7Z" transform="translate(-104.185 -209.35)"/><g transform="translate(2.58)"><path class="l" d="M107.03,209.35h1.806l8.559,48.941h-1.806Z" transform="translate(-107.03 -209.35)"/><path class="p" d="M107.03,209.35h1.806l8.559,48.941h-1.806Z" transform="translate(-107.03 -209.35)"/></g><path class="j" d="M120.61,252.28l-6.73-38.47h19.956l6.719,38.47Z" transform="translate(-103.269 -208.581)"/><path class="q" d="M136.809,252.28l-6.719-38.47h.95l6.719,38.47Z" transform="translate(-100.472 -208.581)"/></g></g><g transform="translate(229.26 82.56)"><path class="i" d="M264.135,156.145c.434.938.293,1.935-.328,2.216s-1.466-.246-1.9-1.184-.293-1.935.328-2.216S263.7,155.207,264.135,156.145Z" transform="translate(-184.12 -120.27)"/><path class="r" d="M264.2,157.58s.375,6.414-.774,10.107c2.38.786,4.878-1.231,4.878-1.231Z" transform="translate(-183.814 -119.805)"/><path class="i" d="M264.656,149.551a.519.519,0,0,1-.352.129,4.83,4.83,0,0,0-3.858,2.1.609.609,0,0,1-1.055-.61,6.029,6.029,0,0,1,4.842-2.709.606.606,0,0,1,.645.575A.627.627,0,0,1,264.656,149.551Z" transform="translate(-184.525 -121.379)"/><path class="s" d="M295.7,154.76c3.623,12.546,7.668,22.3,12.6,27.836,0,0,.094,9.861-16.72,14.551-18.479,5.159-11.4-6.707-11.4-6.707,9.415-5.229,8.489-13.109,1.43-16.1Z" transform="translate(-181.153 -120.292)"/><path class="i" d="M311.685,177.915c-.34-4.6-.762-9.826-3.6-9.955-3.119-.141-21.164,7.914-25.033,13.613s3.67,11.256,3.67,11.256Z" transform="translate(-180.619 -118.015)"/><g transform="translate(68.629 74.146)"><path class="s" d="M278.084,237.086l-15.594-.516.281,13.062s13.6-1.407,14.211-4.971Z" transform="translate(-252.606 -180.324)"/><path class="s" d="M255.7,242.972l-1.642,6.683,10.166-.023-.281-13.062Z" transform="translate(-254.06 -180.324)"/><g transform="translate(19.241)"><path class="l" d="M339.3,191.074l-.328,3.353c-.106,1.079-.258,2.134-.387,3.2-.27,2.122-.61,4.245-.973,6.355-.7,4.233-1.618,8.442-2.662,12.675a132.783,132.783,0,0,1-3.893,12.745c-.809,2.146-1.653,4.291-2.662,6.472a56.941,56.941,0,0,1-3.518,6.625c-.328.551-.715,1.126-1.1,1.688s-.774,1.126-1.219,1.712-.844,1.137-1.384,1.724l-.762.868c-.246.281-.5.563-.868.915a27.024,27.024,0,0,1-8.126,5.464,48.094,48.094,0,0,1-14.574,3.693c-2.286.27-4.549.375-6.777.422s-4.42.012-6.6-.105c-2.181-.094-4.338-.317-6.484-.563-2.181-.27-4.233-.6-6.508-1.055l.375-12.253c7.528-1.5,15.407-3.037,22.16-5.288a44.781,44.781,0,0,0,4.76-1.829,21.092,21.092,0,0,0,3.776-2.04,5.156,5.156,0,0,0,1.7-1.665l.352-.539c.141-.176.281-.481.434-.727a8.858,8.858,0,0,0,.457-.832,9.771,9.771,0,0,0,.457-.926,61.037,61.037,0,0,0,3.389-9.3c.961-3.447,1.876-7.059,2.591-10.764.8-3.682,1.43-7.469,2.075-11.256l.891-5.7.8-5.546Z" transform="translate(-270.47 -188.6)"/><path class="t" d="M339.3,191.074l-.328,3.353c-.106,1.079-.258,2.134-.387,3.2-.27,2.122-.61,4.245-.973,6.355-.7,4.233-1.618,8.442-2.662,12.675a132.783,132.783,0,0,1-3.893,12.745c-.809,2.146-1.653,4.291-2.662,6.472a56.941,56.941,0,0,1-3.518,6.625c-.328.551-.715,1.126-1.1,1.688s-.774,1.126-1.219,1.712-.844,1.137-1.384,1.724l-.762.868c-.246.281-.5.563-.868.915a27.024,27.024,0,0,1-8.126,5.464,48.094,48.094,0,0,1-14.574,3.693c-2.286.27-4.549.375-6.777.422s-4.42.012-6.6-.105c-2.181-.094-4.338-.317-6.484-.563-2.181-.27-4.233-.6-6.508-1.055l.375-12.253c7.528-1.5,15.407-3.037,22.16-5.288a44.781,44.781,0,0,0,4.76-1.829,21.092,21.092,0,0,0,3.776-2.04,5.156,5.156,0,0,0,1.7-1.665l.352-.539c.141-.176.281-.481.434-.727a8.858,8.858,0,0,0,.457-.832,9.771,9.771,0,0,0,.457-.926,61.037,61.037,0,0,0,3.389-9.3c.961-3.447,1.876-7.059,2.591-10.764.8-3.682,1.43-7.469,2.075-11.256l.891-5.7.8-5.546Z" transform="translate(-270.47 -188.6)"/></g></g><g transform="translate(86.857 58.427)"><path class="u" d="M270.209,208.923c3.776,15.688,8.653,42,9.767,76.389h68.651c.375-8.489-1.055-56.234-7.961-90.823a23.9,23.9,0,0,0-28.609-18.713l-.328.07c-8.559,1.946-20.871,5.1-28.105,7.844a3.049,3.049,0,0,0-.293.117A21.489,21.489,0,0,0,270.209,208.923Z" transform="translate(-269.606 -175.193)"/></g><path class="t" d="M273.93,224.668c.539,3.295,1.09,6.777,1.595,10.447,5.616-5.863,7.4-23.826,7.4-23.826Z" transform="translate(-182.003 -110.539)"/><g transform="translate(6.908 74.475)"><path class="v" d="M227.652,237.944l-15.536-1.454-.516,13.05a14.644,14.644,0,0,0,14.481-4.1Z" transform="translate(-199.664 -180.667)"/><path class="v" d="M206.415,240.336l-4.995,8.97,11.936.234.516-13.05Z" transform="translate(-201.42 -180.667)"/><path class="v" d="M304.316,200.593c-1.079,2.064-2.04,3.869-3.119,5.745-1.055,1.853-2.122,3.705-3.224,5.523-2.2,3.647-4.491,7.246-6.906,10.8a180.147,180.147,0,0,1-16.075,20.683,88.677,88.677,0,0,1-10.189,9.685c-.457.387-1,.774-1.5,1.161a19.4,19.4,0,0,1-1.712,1.208,22.25,22.25,0,0,1-2.064,1.231,22.627,22.627,0,0,1-2.075,1.02,37.041,37.041,0,0,1-8.067,2.451,50.929,50.929,0,0,1-14.68.328,64.889,64.889,0,0,1-6.8-1.208q-1.671-.387-3.306-.879c-1.126-.317-2.122-.692-3.377-1.126l1.946-12.1c7.363-1,15.325-2.275,20.812-4.76a14.621,14.621,0,0,0,3.412-1.97,7.888,7.888,0,0,0,1.1-.973c.094-.106.446-.422.727-.68s.575-.5.879-.809a85.154,85.154,0,0,0,7.047-7.914,229.206,229.206,0,0,0,13.214-18.948c2.111-3.318,4.174-6.7,6.214-10.084l3.025-5.1,2.92-4.995Z" transform="translate(-198.004 -188.88)"/></g><path class="s" d="M278.858,411.973H266.031L259.57,382.25h12.839Z" transform="translate(-184.48 -81.046)"/><path class="i" d="M266.968,405.26H281.39a1.116,1.116,0,0,1,1.09.879l2.533,11.409a1.9,1.9,0,0,1-1.876,2.286c-5.03-.082-7.481-.387-13.824-.387-3.9,0-8.911.41-14.293.41-5.265,0-6.1-5.323-3.881-5.816,9.884-2.169,10.588-5.147,13.754-8A3.05,3.05,0,0,1,266.968,405.26Z" transform="translate(-186.133 -77.076)"/><g class="w" transform="translate(75.09 301.216)"><path d="M272.421,382.26H259.57l3.588,16.462,12.593-1.137Z" transform="translate(-259.57 -382.26)"/></g><path class="s" d="M294.649,143.559c4.631,11.866,7.938,18.584,4.854,27.2-4.643,12.968-21.34,14.27-29.418,4.022-7.27-9.228-13.625-27.085-4.456-36.9A17.378,17.378,0,0,1,294.649,143.559Z" transform="translate(-184.219 -124.169)"/><path class="i" d="M272.451,162.528c-1.923,2.58-3.4,4.538-3.4,4.538s-3.951-9.814-2.439-14.316c-1.923-3.811-5.8,1.806-7.27-5.616s4.866-15.4,7.27-17.048a8.6,8.6,0,0,1,.316,2.662s9.486-8.454,22.993-7.27c-.926.926-1.29,3.459-1.29,3.459s13.918,2.392,17.084,10.224a15.49,15.49,0,0,0-3.506-1.243,17,17,0,0,1,2.814,12.581,127.9,127.9,0,0,0-1.583,19.382c.141,3.33-9,9.7-14.574,2.884S272.451,162.528,272.451,162.528Z" transform="translate(-184.557 -125.363)"/><path class="s" d="M276.617,155.408a12.9,12.9,0,0,1-.6,8.325c-1.489,3.447-4.549,2.662-6.062-.4-1.372-2.755-2.239-7.879.188-10.33C272.537,150.6,275.7,152.089,276.617,155.408Z" transform="translate(-182.92 -120.799)"/><g transform="translate(56.104 168.534)"><path class="l" d="M305.078,269.1s-59.611,21.609-61.369,50.219c-3.236,52.681,18.315,94.387,18.315,94.387l19.745-2.111s-3.506-16.955-6.132-64.676c-3.295-59.974,98.48,1.407,77.527-77.808Z" transform="translate(-243.378 -269.1)"/><path class="x" d="M305.078,269.1s-59.611,21.609-61.369,50.219c-3.236,52.681,18.315,94.387,18.315,94.387l19.745-2.111s-3.506-16.955-6.132-64.676c-3.295-59.974,98.48,1.407,77.527-77.808Z" transform="translate(-243.378 -269.1)"/></g><path class="l" d="M254.62,386.47c-.094.012,3.142,8.759,3.142,8.759l24.658-2.415-1.231-7.973Z" transform="translate(-185.334 -80.599)"/><g transform="translate(0 302.658)"><path class="s" d="M231.171,413.213H218.332L214.58,383.49h12.839Z" transform="translate(-192.241 -383.49)"/><path class="i" d="M221.525,405.253l14.023-.023a1.106,1.106,0,0,1,1.09.879l2.556,11.409a1.863,1.863,0,0,1-1.841,2.286c-5.054-.082-12.358-.363-18.725-.352-7.434.012-8.852.422-17.576.434-5.265.012-6.742-5.323-4.538-5.8,10.037-2.216,13.249-2.451,21.914-7.809A5.8,5.8,0,0,1,221.525,405.253Z" transform="translate(-195.528 -379.74)"/><path class="t" d="M214.59,383.5l2.04,16.192,12.734-.868L227.429,383.5Z" transform="translate(-192.24 -383.488)"/></g><g transform="translate(0.592 168.534)"><path class="l" d="M292.668,269.1s-97.682,8.665-96.627,57.723c1.1,51.028,20.156,85.441,20.156,85.441h19.077s-3.611-26.464-2.978-76.706c.188-15.055,30.6-20.027,60.3-21.774,25.655-1.513,49.668-16.134,59.634-39.83l2.04-4.854Z" transform="translate(-196.033 -269.1)"/><path class="x" d="M292.668,269.1s-97.682,8.665-96.627,57.723c1.1,51.028,20.156,85.441,20.156,85.441h19.077s-3.611-26.464-2.978-76.706c.188-15.055,30.6-20.027,60.3-21.774,25.655-1.513,49.668-16.134,59.634-39.83l2.04-4.854Z" transform="translate(-196.033 -269.1)"/></g><path class="l" d="M209.43,386.949c-.082.012,3.271,8.817,3.271,8.817l23.016-1.642-1.337-7.985Z" transform="translate(-193.13 -80.375)"/><g transform="translate(43.637 106.039)"><path class="i" d="M302.844,223.163,290.45,270.92a149,149,0,0,0-4.76,37.45v22.2c0,5.6,4.127,10.154,9.228,10.154h63.539c5.1,0,9.228-4.549,9.228-10.154v-22.2a149.54,149.54,0,0,1,4.76-37.45l10.94-42.187c1.677-6.484-2.744-12.933-8.876-12.933h-62.8A9.387,9.387,0,0,0,302.844,223.163Z" transform="translate(-223.611 -215.8)"/><path class="i" d="M232.962,304.519l2.075,11.842c1.09,6.226,6.578,11.28,12.241,11.28H317.9c5.663,0,9.368-5.054,8.278-11.28L324.1,304.519c-1.243-7.094-7.481-12.839-13.93-12.839H242.377C235.928,291.68,231.719,297.425,232.962,304.519Z" transform="translate(-232.744 -202.71)"/><g transform="translate(41.372 124.932)"><path class="l" d="M317.144,334.239H280.151L276.54,322.35h44.216Z" transform="translate(-266.562 -322.35)"/><g transform="translate(25.479 11.889)"><rect class="l" width="13.214" height="88.419"/><path class="y" d="M302.974,420.6H289.76V334.3l13.214,1.348Z" transform="translate(-289.76 -332.178)"/><path class="y" d="M298.744,420.5H295.59V334.89l3.154.328Z" transform="translate(-288.754 -332.076)"/></g><path class="l" d="M330.5,421.816H269.718a1.68,1.68,0,0,1-1-3.037l9.65-7.07a26.978,26.978,0,0,1,15.97-5.229h11.549a26.978,26.978,0,0,1,15.97,5.229l9.65,7.07A1.685,1.685,0,0,1,330.5,421.816Z" transform="translate(-268.03 -307.836)"/></g></g></g></svg>